<svg xmlns="http://www.w3.org/2000/svg" xmlns:xlink="http://www.w3.org/1999/xlink" width="6000" zoomAndPan="magnify" viewBox="0 0 4500 2699.999998" height="3600" preserveAspectRatio="xMidYMid meet" version="1.0"><defs><filter x="0%" y="0%" width="100%" height="100%" id="034a8a9a2b"><feColorMatrix values="0 0 0 0 1 0 0 0 0 1 0 0 0 0 1 0 0 0 1 0" color-interpolation-filters="sRGB"/></filter><g/><clipPath id="3938848892"><path d="M 17.367188 81.699219 L 4483 81.699219 L 4483 2618.300781 L 17.367188 2618.300781 Z M 17.367188 81.699219 " clip-rule="nonzero"/></clipPath><clipPath id="dfc00a18c6"><path d="M 54.867188 81.699219 L 4445.132812 81.699219 C 4465.84375 81.699219 4482.632812 98.488281 4482.632812 119.199219 L 4482.632812 2580.800781 C 4482.632812 2601.511719 4465.84375 2618.300781 4445.132812 2618.300781 L 54.867188 2618.300781 C 34.15625 2618.300781 17.367188 2601.511719 17.367188 2580.800781 L 17.367188 119.199219 C 17.367188 98.488281 34.15625 81.699219 54.867188 81.699219 Z M 54.867188 81.699219 " clip-rule="nonzero"/></clipPath><clipPath id="bbbb92a876"><path d="M 17.367188 81.703125 L 4483 81.703125 L 4483 2617.742188 L 17.367188 2617.742188 Z M 17.367188 81.703125 " clip-rule="nonzero"/></clipPath><clipPath id="1c076796cf"><path d="M 54.867188 81.703125 L 4445.085938 81.703125 C 4465.796875 81.703125 4482.585938 98.492188 4482.585938 119.203125 L 4482.585938 2580.78125 C 4482.585938 2601.492188 4465.796875 2618.28125 4445.085938 2618.28125 L 54.867188 2618.28125 C 34.15625 2618.28125 17.367188 2601.492188 17.367188 2580.78125 L 17.367188 119.203125 C 17.367188 98.492188 34.15625 81.703125 54.867188 81.703125 Z M 54.867188 81.703125 " clip-rule="nonzero"/></clipPath><clipPath id="646897dd72"><path d="M 850.21875 747 L 1699.792969 747 L 1699.792969 1593 L 850.21875 1593 Z M 850.21875 747 " clip-rule="nonzero"/></clipPath><clipPath id="4216ae400f"><path d="M 1987.902344 1900.929688 L 2212.976562 1900.929688 L 2212.976562 2126.003906 L 1987.902344 2126.003906 Z M 1987.902344 1900.929688 " clip-rule="nonzero"/></clipPath><clipPath id="b11d5da6b8"><path d="M 4085 309.007812 L 4226 309.007812 L 4226 508.71875 L 4085 508.71875 Z M 4085 309.007812 " clip-rule="nonzero"/></clipPath><clipPath id="cef03bd6c7"><path d="M 3493 1812 L 3614 1812 L 3614 1934 L 3493 1934 Z M 3493 1812 " clip-rule="nonzero"/></clipPath><clipPath id="e73d0f5353"><path d="M 3494.097656 1781.191406 L 3639.621094 1813.148438 L 3607.664062 1958.675781 L 3462.140625 1926.714844 Z M 3494.097656 1781.191406 " clip-rule="nonzero"/></clipPath><clipPath id="d50bdc5096"><path d="M 3494.097656 1781.191406 L 3639.621094 1813.148438 L 3607.664062 1958.675781 L 3462.140625 1926.714844 Z M 3494.097656 1781.191406 " clip-rule="nonzero"/></clipPath><clipPath id="cbbfd58764"><path d="M 3494.097656 1781.191406 L 3639.621094 1813.148438 L 3607.664062 1958.675781 L 3462.140625 1926.714844 Z M 3494.097656 1781.191406 " clip-rule="nonzero"/></clipPath><clipPath id="7ce6132129"><path d="M 817 419 L 940 419 L 940 538 L 817 538 Z M 817 419 " clip-rule="nonzero"/></clipPath><clipPath id="3ecb3699eb"><path d="M 802.144531 406.046875 L 951.074219 401.683594 L 955.433594 550.613281 L 806.507812 554.976562 Z M 802.144531 406.046875 " clip-rule="nonzero"/></clipPath><clipPath id="9e99e5c1b5"><path d="M 802.144531 406.046875 L 951.074219 401.683594 L 955.433594 550.613281 L 806.507812 554.976562 Z M 802.144531 406.046875 " clip-rule="nonzero"/></clipPath><clipPath id="94fbce3a5c"><path d="M 802.144531 406.046875 L 951.074219 401.683594 L 955.433594 550.613281 L 806.507812 554.976562 Z M 802.144531 406.046875 " clip-rule="nonzero"/></clipPath><clipPath id="71ffb5082b"><path d="M 1290 2012 L 1413 2012 L 1413 2131 L 1290 2131 Z M 1290 2012 " clip-rule="nonzero"/></clipPath><clipPath id="d903725645"><path d="M 1274.84375 1998.855469 L 1423.769531 1994.496094 L 1428.132812 2143.421875 L 1279.203125 2147.785156 Z M 1274.84375 1998.855469 " clip-rule="nonzero"/></clipPath><clipPath id="319ef6be87"><path d="M 1274.84375 1998.855469 L 1423.769531 1994.496094 L 1428.132812 2143.421875 L 1279.203125 2147.785156 Z M 1274.84375 1998.855469 " clip-rule="nonzero"/></clipPath><clipPath id="203e9307e1"><path d="M 1274.84375 1998.855469 L 1423.769531 1994.496094 L 1428.132812 2143.421875 L 1279.203125 2147.785156 Z M 1274.84375 1998.855469 " clip-rule="nonzero"/></clipPath><clipPath id="6efda405a8"><path d="M 1609 1629 L 1719.707031 1629 L 1719.707031 1768 L 1609 1768 Z M 1609 1629 " clip-rule="nonzero"/></clipPath><mask id="dccd7861a0"><g filter="url(#034a8a9a2b)"><rect x="-450" width="5400" fill="#000000" y="-270" height="3239.999997" fill-opacity="0.5"/></g></mask><clipPath id="3cf31d9430"><path d="M 0.679688 0.839844 L 110 0.839844 L 110 95 L 0.679688 95 Z M 0.679688 0.839844 " clip-rule="nonzero"/></clipPath><clipPath id="647d486e1f"><path d="M 0.679688 16 L 110.707031 16 L 110.707031 132 L 0.679688 132 Z M 0.679688 16 " clip-rule="nonzero"/></clipPath><clipPath id="37949b942d"><path d="M 0.679688 46 L 110.707031 46 L 110.707031 138.359375 L 0.679688 138.359375 Z M 0.679688 46 " clip-rule="nonzero"/></clipPath><clipPath id="9250b2e4db"><rect x="0" width="111" y="0" height="139"/></clipPath><clipPath id="bf35db8ff8"><path d="M 1554.867188 1616.179688 L 1687 1616.179688 L 1687 1775 L 1554.867188 1775 Z M 1554.867188 1616.179688 " clip-rule="nonzero"/></clipPath><clipPath id="63efe43577"><path d="M 2276 409 L 2386.773438 409 L 2386.773438 548 L 2276 548 Z M 2276 409 " clip-rule="nonzero"/></clipPath><mask id="1f0961d66f"><g filter="url(#034a8a9a2b)"><rect x="-450" width="5400" fill="#000000" y="-270" height="3239.999997" fill-opacity="0.5"/></g></mask><clipPath id="f6dbd7208a"><path d="M 0.640625 0.441406 L 110 0.441406 L 110 95 L 0.640625 95 Z M 0.640625 0.441406 " clip-rule="nonzero"/></clipPath><clipPath id="68a81b7ac6"><path d="M 0.640625 16 L 110.773438 16 L 110.773438 132 L 0.640625 132 Z M 0.640625 16 " clip-rule="nonzero"/></clipPath><clipPath id="09fd531d69"><path d="M 0.640625 45 L 110.773438 45 L 110.773438 138.199219 L 0.640625 138.199219 Z M 0.640625 45 " clip-rule="nonzero"/></clipPath><clipPath id="754d9adb15"><rect x="0" width="111" y="0" height="139"/></clipPath><clipPath id="e890516ec2"><path d="M 2221.929688 395.855469 L 2354 395.855469 L 2354 554 L 2221.929688 554 Z M 2221.929688 395.855469 " clip-rule="nonzero"/></clipPath><clipPath id="44de27a815"><path d="M 4210 1354 L 4320.503906 1354 L 4320.503906 1492 L 4210 1492 Z M 4210 1354 " clip-rule="nonzero"/></clipPath><mask id="dabe365d84"><g filter="url(#034a8a9a2b)"><rect x="-450" width="5400" fill="#000000" y="-270" height="3239.999997" fill-opacity="0.5"/></g></mask><clipPath id="9e08fe4ece"><path d="M 0.558594 0.078125 L 110 0.078125 L 110 94 L 0.558594 94 Z M 0.558594 0.078125 " clip-rule="nonzero"/></clipPath><clipPath id="65e8ec8771"><path d="M 0.558594 16 L 110.503906 16 L 110.503906 131 L 0.558594 131 Z M 0.558594 16 " clip-rule="nonzero"/></clipPath><clipPath id="6bcd18c6a4"><path d="M 0.558594 45 L 110.503906 45 L 110.503906 137.601562 L 0.558594 137.601562 Z M 0.558594 45 " clip-rule="nonzero"/></clipPath><clipPath id="becce18728"><rect x="0" width="111" y="0" height="138"/></clipPath><clipPath id="e915a95587"><path d="M 4155.660156 1340.417969 L 4288 1340.417969 L 4288 1499 L 4155.660156 1499 Z M 4155.660156 1340.417969 " clip-rule="nonzero"/></clipPath><clipPath id="26e6d72bc6"><path d="M 21.171875 1367.625 L 1267 1367.625 L 1267 2613.457031 L 21.171875 2613.457031 Z M 21.171875 1367.625 " clip-rule="nonzero"/></clipPath><clipPath id="bce06dbaeb"><path d="M 3233 86.136719 L 4478.785156 86.136719 L 4478.785156 1331.96875 L 3233 1331.96875 Z M 3233 86.136719 " clip-rule="nonzero"/></clipPath></defs><g clip-path="url(#3938848892)"><g clip-path="url(#dfc00a18c6)"><path fill="#f8cf29" d="M 17.367188 81.699219 L 4486.148438 81.699219 L 4486.148438 2618.300781 L 17.367188 2618.300781 Z M 17.367188 81.699219 " fill-opacity="1" fill-rule="nonzero"/></g></g><g clip-path="url(#bbbb92a876)"><g clip-path="url(#1c076796cf)"><path stroke-linecap="butt" transform="matrix(3.170054, 0, 0, 3.170054, 17.366531, 81.704583)" fill="none" stroke-linejoin="miter" d="M 11.82966 -0.000459904 L 1396.733307 -0.000459904 C 1403.266616 -0.000459904 1408.562761 5.295685 1408.562761 11.828993 L 1408.562761 788.338939 C 1408.562761 794.872247 1403.266616 800.168392 1396.733307 800.168392 L 11.82966 800.168392 C 5.296352 800.168392 0.000206961 794.872247 0.000206961 788.338939 L 0.000206961 11.828993 C 0.000206961 5.295685 5.296352 -0.000459904 11.82966 -0.000459904 Z M 11.82966 -0.000459904 " stroke="#b1aeb7" stroke-width="0.473178" stroke-opacity="1" stroke-miterlimit="4"/></g></g><g clip-path="url(#646897dd72)"><path fill="#ffffff" d="M 1378.289062 888.6875 L 1551.042969 1061.441406 L 1113.757812 1498.722656 L 941.105469 1325.972656 Z M 1682.128906 847.027344 L 1605.085938 769.984375 C 1575.3125 740.210938 1526.96875 740.210938 1497.09375 769.984375 L 1423.296875 843.78125 L 1596.046875 1016.535156 L 1682.128906 930.453125 C 1705.21875 907.359375 1705.21875 870.117188 1682.128906 847.027344 Z M 850.699219 1568.785156 C 847.558594 1582.9375 860.332031 1595.613281 874.480469 1592.171875 L 1066.984375 1545.5 L 894.332031 1372.75 Z M 850.699219 1568.785156 " fill-opacity="1" fill-rule="nonzero"/></g><g clip-path="url(#4216ae400f)"><path fill="#ffffff" d="M 2100.441406 1900.929688 C 2038.292969 1900.929688 1987.902344 1951.320312 1987.902344 2013.46875 C 1987.902344 2075.613281 2038.292969 2126.003906 2100.441406 2126.003906 C 2162.589844 2126.003906 2212.976562 2075.613281 2212.976562 2013.46875 C 2212.976562 1951.320312 2162.589844 1900.929688 2100.441406 1900.929688 Z M 2142.230469 2014.742188 L 2078.925781 2052.523438 C 2078.472656 2052.796875 2077.898438 2052.8125 2077.429688 2052.535156 C 2076.976562 2052.273438 2076.6875 2051.789062 2076.6875 2051.246094 L 2076.6875 1975.683594 C 2076.6875 1975.144531 2076.976562 1974.652344 2077.429688 1974.390625 C 2077.898438 1974.121094 2078.472656 1974.136719 2078.925781 1974.402344 L 2142.230469 2012.191406 C 2142.683594 2012.449219 2142.949219 2012.949219 2142.949219 2013.460938 C 2142.949219 2013.988281 2142.683594 2014.476562 2142.230469 2014.742188 Z M 2142.230469 2014.742188 " fill-opacity="1" fill-rule="nonzero"/></g><g clip-path="url(#b11d5da6b8)"><path fill="#ffffff" d="M 4094.941406 509.363281 L 4216.371094 509.363281 C 4221.398438 509.363281 4225.476562 505.285156 4225.476562 500.257812 L 4225.476562 397.042969 C 4225.476562 392.011719 4221.398438 387.933594 4216.371094 387.933594 L 4207.261719 387.933594 L 4207.261719 360.613281 C 4207.261719 332.15625 4184.113281 309.007812 4155.65625 309.007812 C 4127.199219 309.007812 4104.046875 332.15625 4104.046875 360.613281 L 4104.046875 387.933594 L 4094.941406 387.933594 C 4089.910156 387.933594 4085.835938 392.011719 4085.835938 397.042969 L 4085.835938 500.257812 C 4085.835938 505.285156 4089.910156 509.363281 4094.941406 509.363281 Z M 4164.761719 451.675781 L 4164.761719 463.828125 C 4164.761719 468.859375 4160.683594 472.933594 4155.65625 472.933594 C 4150.625 472.933594 4146.546875 468.859375 4146.546875 463.828125 L 4146.546875 451.675781 C 4142.863281 448.90625 4140.476562 444.496094 4140.476562 439.542969 C 4140.476562 431.171875 4147.285156 424.363281 4155.65625 424.363281 C 4164.023438 424.363281 4170.835938 431.171875 4170.835938 439.542969 C 4170.835938 444.496094 4168.445312 448.90625 4164.761719 451.675781 Z M 4122.261719 360.613281 C 4122.261719 342.199219 4137.242188 327.222656 4155.65625 327.222656 C 4174.070312 327.222656 4189.046875 342.199219 4189.046875 360.613281 L 4189.046875 387.933594 L 4122.261719 387.933594 Z M 4122.261719 360.613281 " fill-opacity="1" fill-rule="nonzero"/></g><g clip-path="url(#cef03bd6c7)"><g clip-path="url(#e73d0f5353)"><g clip-path="url(#d50bdc5096)"><g clip-path="url(#cbbfd58764)"><path stroke-linecap="round" transform="matrix(6.063525, 1.331611, -1.331611, 6.063525, 3494.097501, 1781.19096)" fill="none" stroke-linejoin="round" d="M 11.269243 4.411313 C 11.500402 3.891556 11.616731 3.632157 11.777657 3.552364 C 11.917538 3.482348 12.081949 3.482962 12.222098 3.552038 C 12.383308 3.63195 12.499026 3.891927 12.730326 4.411267 L 14.574222 8.548087 C 14.642771 8.701819 14.677046 8.778685 14.730476 8.837171 C 14.776755 8.889497 14.834186 8.931 14.898406 8.959415 C 14.970466 8.991262 15.054322 9.000548 15.221148 9.018026 L 19.725516 9.493136 C 20.291427 9.553103 20.573633 9.582608 20.699847 9.711435 C 20.808835 9.823431 20.859906 9.979713 20.837135 10.134173 C 20.810485 10.312033 20.599802 10.502606 20.177072 10.883409 L 16.812607 13.915061 C 16.687975 14.028113 16.624977 14.084467 16.585904 14.15296 C 16.550878 14.213478 16.528939 14.280786 16.5216 14.350041 C 16.513213 14.429189 16.530549 14.511063 16.565356 14.675426 L 17.505513 19.106061 C 17.623222 19.662587 17.682384 19.940782 17.598859 20.10021 C 17.52617 20.238575 17.393457 20.335363 17.239421 20.36146 C 17.061762 20.391457 16.815461 20.249704 16.322726 19.965583 L 12.399791 17.702627 C 12.25381 17.618726 12.181434 17.57664 12.103739 17.560203 C 12.035457 17.545565 11.964614 17.545661 11.895646 17.560163 C 11.818689 17.576419 11.745421 17.618278 11.60025 17.702341 L 7.676553 19.965205 C 7.184245 20.249193 6.937852 20.391562 6.760546 20.361568 C 6.606026 20.33559 6.47325 20.238482 6.401045 20.10037 C 6.317085 19.941003 6.376405 19.662557 6.494565 19.106414 L 7.43427 14.675888 C 7.468941 14.511084 7.486412 14.429297 7.478145 14.350584 C 7.470539 14.280746 7.448662 14.213398 7.414074 14.152706 C 7.374524 14.084085 7.311875 14.027624 7.187327 13.91518 L 3.822266 10.883555 C 3.40041 10.502697 3.189107 10.312028 3.162318 10.134308 C 3.139908 9.979462 3.190665 9.823366 3.300142 9.711709 C 3.425837 9.582963 3.708532 9.553091 4.273922 9.493348 L 8.778337 9.018222 C 8.94573 9.000143 9.028879 8.991546 9.101712 8.959446 C 9.165598 8.930599 9.222826 8.889041 9.269365 8.836946 C 9.3222 8.778315 9.356925 8.701758 9.42501 8.548298 Z M 11.269243 4.411313 " stroke="#ffffff" stroke-width="2" stroke-opacity="1" stroke-miterlimit="4"/></g></g></g></g><g clip-path="url(#7ce6132129)"><g clip-path="url(#3ecb3699eb)"><g clip-path="url(#9e99e5c1b5)"><g clip-path="url(#94fbce3a5c)"><path stroke-linecap="round" transform="matrix(6.205359, -0.181771, 0.181771, 6.205359, 802.143712, 406.046339)" fill="none" stroke-linejoin="round" d="M 11.269204 4.411215 C 11.500339 3.891727 11.61622 3.631992 11.777815 3.552373 C 11.917712 3.48282 12.082017 3.482597 12.222245 3.552172 C 12.382953 3.631789 12.498711 3.892015 12.730265 4.411208 L 14.574371 8.548139 C 14.64289 8.701854 14.677158 8.778398 14.730201 8.837236 C 14.777157 8.888971 14.834471 8.930938 14.898479 8.959251 C 14.970554 8.991578 15.054021 9.000318 15.221584 9.017817 L 19.725546 9.493454 C 20.290983 9.552823 20.573997 9.583146 20.699914 9.711475 C 20.8087 9.822935 20.859516 9.979279 20.836725 10.134097 C 20.810737 10.312113 20.59932 10.502323 20.177097 10.88339 L 16.812385 13.915313 C 16.687588 14.028115 16.625514 14.08421 16.585731 14.152919 C 16.550591 14.21358 16.529103 14.280936 16.521398 14.350584 C 16.513434 14.429038 16.530537 14.511374 16.565389 14.675434 L 17.505112 19.106287 C 17.623533 19.662454 17.682114 19.940519 17.598741 20.100486 C 17.526705 20.238754 17.393564 20.335573 17.239214 20.361268 C 17.062074 20.391331 16.815692 20.249401 16.322928 19.965543 L 12.399482 17.702144 C 12.253999 17.618566 12.180942 17.576767 12.104004 17.560035 C 12.035188 17.54543 11.964689 17.545253 11.895636 17.560227 C 11.818369 17.576219 11.746007 17.618164 11.600007 17.702646 L 7.676804 19.965332 C 7.183774 20.249271 6.937888 20.391259 6.760612 20.361516 C 6.606515 20.335599 6.473387 20.238534 6.400634 20.100432 C 6.317186 19.940614 6.376312 19.662849 6.494582 19.106691 L 7.433916 14.675485 C 7.468951 14.510954 7.486459 14.429003 7.47807 14.35007 C 7.470662 14.280608 7.448715 14.213239 7.413986 14.15242 C 7.374446 14.083905 7.311877 14.027936 7.187386 13.915386 L 3.822156 10.883357 C 3.400212 10.502742 3.18862 10.312102 3.162349 10.134444 C 3.139818 9.979557 3.190356 9.823034 3.300003 9.711678 C 3.42589 9.583171 3.708786 9.553058 4.273931 9.493444 L 8.778057 9.017918 C 8.945394 9.000158 9.029377 8.991287 9.101444 8.959405 C 9.165224 8.931057 9.222472 8.889299 9.269323 8.837164 C 9.322666 8.778295 9.35638 8.701855 9.425085 8.548382 Z M 11.269204 4.411215 " stroke="#ffffff" stroke-width="2" stroke-opacity="1" stroke-miterlimit="4"/></g></g></g></g><g clip-path="url(#71ffb5082b)"><g clip-path="url(#d903725645)"><g clip-path="url(#319ef6be87)"><g clip-path="url(#203e9307e1)"><path stroke-linecap="round" transform="matrix(6.205359, -0.181771, 0.181771, 6.205359, 1274.84198, 1998.856887)" fill="none" stroke-linejoin="round" d="M 11.269367 4.410905 C 11.500482 3.892045 11.616364 3.63231 11.777348 3.552044 C 11.917874 3.482509 12.082161 3.482915 12.221779 3.551843 C 12.383096 3.632108 12.498873 3.891705 12.730427 4.410897 L 14.574533 8.547829 C 14.643052 8.701544 14.677321 8.778088 14.730363 8.836926 C 14.777301 8.88929 14.834004 8.930609 14.897994 8.959552 C 14.970716 8.991268 15.054183 9.000008 15.221099 9.018117 L 19.725708 9.493144 C 20.291126 9.553142 20.573531 9.582817 20.699429 9.711775 C 20.808844 9.823253 20.859659 9.979598 20.836869 10.134416 C 20.810881 10.312432 20.599464 10.502641 20.177259 10.88308 L 16.812529 13.915632 C 16.687751 14.027804 16.625047 14.083881 16.585893 14.152608 C 16.550753 14.21327 16.528637 14.280607 16.52156 14.350274 C 16.512968 14.42871 16.530699 14.511063 16.565533 14.675753 L 17.505256 19.106606 C 17.623048 19.662754 17.682258 19.940837 17.598903 20.100176 C 17.52622 20.239054 17.393097 20.335245 17.239358 20.361586 C 17.061589 20.391631 16.815836 20.24972 16.323091 19.965232 L 12.399626 17.702463 C 12.254161 17.618256 12.181105 17.576457 12.103538 17.559707 C 12.035332 17.545748 11.964204 17.545553 11.895798 17.559916 C 11.818513 17.576537 11.745522 17.618464 11.600169 17.702336 L 7.676319 19.965633 C 7.183918 20.24959 6.938032 20.391578 6.760146 20.361188 C 6.606049 20.335271 6.472902 20.238835 6.400797 20.100122 C 6.31733 19.940932 6.376474 19.662539 6.494115 19.106363 L 7.434059 14.675804 C 7.469095 14.511273 7.486622 14.428693 7.478214 14.350389 C 7.470806 14.280927 7.448859 14.213558 7.41413 14.152738 C 7.37459 14.084224 7.312039 14.027626 7.186901 13.915687 L 3.822318 10.883047 C 3.399745 10.502414 3.188764 10.312421 3.162512 10.134134 C 3.139962 9.979876 3.1905 9.823353 3.300165 9.711367 C 3.426052 9.582861 3.708319 9.55273 4.274094 9.493134 L 8.778201 9.018237 C 8.945538 9.000476 9.028892 8.991587 9.101606 8.959095 C 9.165386 8.930747 9.222635 8.888989 9.269467 8.837483 C 9.322181 8.778596 9.356543 8.701545 9.425247 8.548072 Z M 11.269367 4.410905 " stroke="#ffffff" stroke-width="2" stroke-opacity="1" stroke-miterlimit="4"/></g></g></g></g><g clip-path="url(#6efda405a8)"><g mask="url(#dccd7861a0)"><g transform="matrix(1, 0, 0, 1, 1609, 1629)"><g clip-path="url(#9250b2e4db)"><path fill="#ffffff" d="M 20.851562 32.335938 C 19.78125 27.742188 18.878906 23.855469 17.898438 20.800781 L 63.460938 34.019531 C 63.761719 34.105469 64.542969 34.453125 65.625 37.289062 C 66.683594 40.0625 67.640625 44.140625 69.019531 50.054688 L 69.839844 53.601562 C 70.023438 54.386719 70.199219 55.140625 70.382812 55.851562 L 29.089844 44.414062 L 27.003906 43.226562 C 24.054688 41.546875 23.511719 41.15625 23.128906 40.625 C 22.707031 40.03125 22.449219 39.207031 21.613281 35.613281 Z M 20.851562 32.335938 " fill-opacity="1" fill-rule="nonzero"/><g clip-path="url(#3cf31d9430)"><path stroke-linecap="butt" transform="matrix(6.868449, 0, 0, 6.868449, -54.134516, -12.822156)" fill="none" stroke-linejoin="miter" d="M 10.917468 6.574715 C 10.761638 5.905895 10.630263 5.340015 10.487513 4.895273 L 17.121107 6.819834 C 17.164898 6.832346 17.278643 6.882963 17.43618 7.295856 C 17.590304 7.69965 17.729641 8.293398 17.930401 9.154445 L 18.049833 9.670846 C 18.076563 9.78516 18.102155 9.894924 18.128885 9.998431 L 12.116907 8.333208 L 11.813208 8.160316 C 11.383822 7.915765 11.304769 7.858893 11.249034 7.781546 C 11.187612 7.6951 11.150076 7.5751 11.02837 7.051874 Z M 10.917468 6.574715 " stroke="#ffffff" stroke-width="1" stroke-opacity="1" stroke-miterlimit="4"/></g><path fill="#ffffff" d="M 44.375 55.777344 L 78.769531 65.300781 L 80.855469 66.488281 C 85.710938 69.253906 88.980469 71.128906 91.109375 72.835938 C 93.152344 74.472656 93.503906 75.449219 93.53125 76.277344 C 93.566406 77.152344 93.246094 78.25 91.285156 80.21875 C 89.265625 82.242188 86.125 84.589844 81.507812 88.019531 L 78.765625 90.054688 C 77.472656 91.015625 76.296875 91.882812 75.3125 92.855469 L 28.574219 79.296875 L 31.039062 77.46875 C 35.367188 74.25 38.933594 71.601562 41.355469 69.171875 C 43.875 66.644531 45.738281 63.792969 45.601562 60.132812 C 45.542969 58.488281 45.09375 57.054688 44.375 55.777344 Z M 44.375 55.777344 " fill-opacity="1" fill-rule="nonzero"/><g clip-path="url(#647d486e1f)"><path stroke-linecap="butt" transform="matrix(6.868449, 0, 0, 6.868449, -54.134516, -12.822156)" fill="none" stroke-linejoin="miter" d="M 14.342323 9.987626 L 19.349935 11.374174 L 19.653633 11.547066 C 20.360557 11.949722 20.836579 12.22271 21.146533 12.471242 C 21.443976 12.709537 21.495161 12.851718 21.499142 12.972288 C 21.50426 13.099682 21.457625 13.259493 21.172126 13.54613 C 20.878096 13.840729 20.420842 14.182532 19.74861 14.681871 L 19.349366 14.978176 C 19.161119 15.118082 18.989933 15.244339 18.846614 15.385951 L 12.041835 13.411911 L 12.4007 13.145748 C 13.030846 12.67712 13.550091 12.291525 13.902699 11.937779 C 14.269526 11.569815 14.540807 11.154647 14.520902 10.621753 C 14.512371 10.38232 14.446968 10.173598 14.342323 9.987626 Z M 14.342323 9.987626 " stroke="#ffffff" stroke-width="1" stroke-opacity="1" stroke-miterlimit="4"/></g><path fill="#ffffff" d="M 23.988281 85.121094 L 72.152344 99.089844 C 71.953125 100.0625 71.792969 101.105469 71.621094 102.234375 L 71.0625 105.847656 C 70.535156 109.289062 69.75 112.351562 68.921875 114.949219 C 67.457031 119.519531 67.082031 120.15625 65.984375 120.789062 C 65.511719 121.058594 65.066406 121.179688 64.136719 121.074219 C 62.996094 120.945312 61.535156 120.53125 59.039062 119.808594 L 19.242188 108.265625 C 19.71875 107.257812 20.097656 106.179688 20.417969 105.082031 C 21.414062 101.671875 22.132812 97.011719 23.015625 91.265625 L 23.535156 87.910156 C 23.714844 86.71875 23.863281 85.816406 23.988281 85.121094 Z M 23.988281 85.121094 " fill-opacity="1" fill-rule="nonzero"/><g clip-path="url(#37949b942d)"><path stroke-linecap="butt" transform="matrix(6.868449, 0, 0, 6.868449, -54.134516, -12.822156)" fill="none" stroke-linejoin="miter" d="M 11.374154 14.259878 L 18.386517 16.293634 C 18.357512 16.435246 18.334194 16.587096 18.309171 16.751457 L 18.227843 17.277526 C 18.151065 17.778572 18.036752 18.224451 17.916182 18.602652 C 17.702911 19.268059 17.648314 19.360761 17.488502 19.452894 C 17.419687 19.492136 17.354852 19.509767 17.219496 19.494411 C 17.053429 19.475643 16.840726 19.415359 16.477311 19.310145 L 10.683154 17.629566 C 10.752539 17.482835 10.807705 17.325868 10.85434 17.166056 C 10.999365 16.669561 11.10401 15.991073 11.232541 15.154481 L 11.308182 14.665947 C 11.334343 14.492486 11.355954 14.361111 11.374154 14.259878 Z M 11.374154 14.259878 " stroke="#ffffff" stroke-width="1" stroke-opacity="1" stroke-miterlimit="4"/></g></g></g></g></g><path fill="#ffffff" d="M 1605.730469 1657.886719 C 1609.660156 1653.5 1612.355469 1650.511719 1614.527344 1648.703125 C 1616.726562 1646.871094 1617.445312 1647.058594 1617.667969 1647.125 C 1617.96875 1647.210938 1618.75 1647.558594 1619.835938 1650.394531 C 1620.894531 1653.167969 1621.851562 1657.246094 1623.226562 1663.160156 L 1624.050781 1666.703125 C 1624.691406 1669.472656 1625.222656 1671.769531 1626.550781 1673.625 C 1627.917969 1675.535156 1629.902344 1676.660156 1632.167969 1677.945312 L 1632.605469 1678.195312 L 1635.0625 1679.59375 C 1639.917969 1682.359375 1643.1875 1684.234375 1645.320312 1685.941406 C 1647.359375 1687.578125 1647.710938 1688.554688 1647.742188 1689.382812 C 1647.773438 1690.257812 1647.453125 1691.355469 1645.492188 1693.324219 C 1643.476562 1695.347656 1640.332031 1697.691406 1635.714844 1701.125 L 1632.976562 1703.160156 C 1630.792969 1704.773438 1628.960938 1706.132812 1627.777344 1708.160156 C 1626.621094 1710.144531 1626.265625 1712.464844 1625.828125 1715.339844 L 1625.269531 1718.953125 C 1624.335938 1725.027344 1623.679688 1729.234375 1622.828125 1732.15625 C 1622.347656 1733.804688 1621.886719 1734.722656 1621.503906 1735.246094 C 1620.757812 1734.96875 1619.765625 1734.566406 1618.597656 1734.003906 C 1615.8125 1732.671875 1612.042969 1730.460938 1608.183594 1726.988281 L 1606.035156 1725.058594 L 1605.941406 1724.972656 C 1604.84375 1723.984375 1603.867188 1723.109375 1602.984375 1722.4375 C 1602.027344 1721.714844 1600.996094 1721.085938 1599.734375 1720.71875 C 1597.503906 1720.070312 1595.203125 1720.503906 1592.726562 1720.96875 L 1592.191406 1721.066406 L 1589.441406 1721.578125 C 1583.996094 1722.589844 1580.347656 1723.253906 1577.730469 1723.300781 C 1575.214844 1723.347656 1574.6875 1722.808594 1574.40625 1722.414062 C 1574.011719 1721.859375 1573.640625 1720.792969 1574.253906 1717.785156 C 1574.867188 1714.789062 1576.238281 1710.796875 1578.234375 1705.03125 L 1579.417969 1701.613281 C 1580.371094 1698.867188 1581.132812 1696.671875 1581.046875 1694.355469 C 1580.960938 1692.019531 1580.03125 1689.917969 1578.882812 1687.320312 L 1577.457031 1684.085938 C 1575.046875 1678.628906 1573.394531 1674.867188 1572.570312 1671.988281 C 1571.757812 1669.140625 1572.011719 1667.984375 1572.421875 1667.285156 C 1572.761719 1666.699219 1573.375 1666.082031 1575.855469 1665.773438 C 1578.460938 1665.453125 1582.136719 1665.597656 1587.628906 1665.832031 L 1590.402344 1665.949219 L 1590.925781 1665.972656 C 1593.445312 1666.085938 1595.75 1666.1875 1597.894531 1665.242188 C 1599.976562 1664.320312 1601.550781 1662.554688 1603.359375 1660.535156 L 1603.734375 1660.113281 Z M 1605.730469 1657.886719 " fill-opacity="1" fill-rule="nonzero"/><g clip-path="url(#bf35db8ff8)"><path stroke-linecap="butt" transform="matrix(6.868449, 0, 0, 6.868449, 1554.865472, 1616.177839)" fill="none" stroke-linejoin="miter" d="M 7.405601 6.072532 C 7.977737 5.433855 8.370157 4.998782 8.686367 4.735463 C 9.006559 4.468731 9.111204 4.49603 9.143621 4.505698 C 9.187413 4.51821 9.301157 4.568827 9.459263 4.98172 C 9.613387 5.385514 9.752724 5.979262 9.952915 6.840309 L 10.072915 7.356142 C 10.166186 7.759367 10.243533 8.093776 10.436899 8.36392 C 10.635952 8.642026 10.924864 8.805818 11.254723 8.992928 L 11.31842 9.029327 L 11.676148 9.23293 C 12.383071 9.635586 12.859093 9.908574 13.169616 10.157106 C 13.46649 10.395401 13.517675 10.537582 13.522225 10.658152 C 13.526775 10.785546 13.480139 10.945357 13.19464 11.231994 C 12.901179 11.526593 12.443356 11.867827 11.771124 12.367735 L 11.372449 12.66404 C 11.054533 12.898923 10.787801 13.096839 10.615478 13.392006 C 10.447136 13.680918 10.395382 14.01874 10.331685 14.437321 L 10.250357 14.96339 C 10.114432 15.847755 10.018887 16.460271 9.894905 16.885676 C 9.824952 17.125678 9.757843 17.259328 9.702108 17.335537 C 9.593481 17.295157 9.449026 17.236579 9.278977 17.154682 C 8.873477 16.960748 8.324659 16.63885 7.76276 16.133255 L 7.449962 15.852305 L 7.436312 15.839793 C 7.276501 15.695906 7.13432 15.568512 7.005788 15.470692 C 6.866451 15.365478 6.716308 15.273913 6.53261 15.220453 C 6.207869 15.126045 5.872891 15.189173 5.51232 15.256851 L 5.434405 15.27107 L 5.034023 15.345572 C 4.241223 15.492872 3.710035 15.589555 3.32899 15.59638 C 2.962732 15.603204 2.885954 15.52472 2.845006 15.467279 C 2.787565 15.38652 2.733536 15.231259 2.822826 14.793342 C 2.912115 14.357131 3.111737 13.775895 3.402355 12.936459 L 3.574678 12.438825 C 3.713447 12.039013 3.824348 11.71939 3.811836 11.382137 C 3.799324 11.04204 3.663968 10.736067 3.496763 10.357865 L 3.289179 9.886962 C 2.938276 9.092455 2.697706 8.544774 2.577706 8.125625 C 2.459411 7.711025 2.496378 7.542683 2.556094 7.440881 C 2.605573 7.355573 2.694863 7.265715 3.056002 7.220785 C 3.435341 7.17415 3.97051 7.195193 4.770136 7.229316 L 5.173929 7.246378 L 5.250138 7.24979 C 5.616965 7.266283 5.952512 7.28107 6.264741 7.143439 C 6.567871 7.00922 6.797067 6.752157 7.060386 6.458127 L 7.114983 6.396705 Z M 7.405601 6.072532 " stroke="#ffffff" stroke-width="1" stroke-opacity="1" stroke-miterlimit="4"/></g><g clip-path="url(#63efe43577)"><g mask="url(#1f0961d66f)"><g transform="matrix(1, 0, 0, 1, 2276, 409)"><g clip-path="url(#754d9adb15)"><path fill="#ffffff" d="M 20.917969 32.011719 C 19.847656 27.421875 18.945312 23.53125 17.964844 20.480469 L 63.527344 33.695312 C 63.828125 33.785156 64.609375 34.128906 65.691406 36.96875 C 66.75 39.742188 67.707031 43.816406 69.085938 49.734375 L 69.90625 53.277344 C 70.089844 54.066406 70.265625 54.816406 70.449219 55.53125 L 29.15625 44.09375 L 27.070312 42.90625 C 24.121094 41.226562 23.578125 40.835938 23.195312 40.300781 C 22.773438 39.707031 22.515625 38.882812 21.679688 35.289062 Z M 20.917969 32.011719 " fill-opacity="1" fill-rule="nonzero"/><g clip-path="url(#f6dbd7208a)"><path stroke-linecap="butt" transform="matrix(6.868449, 0, 0, 6.868449, -54.068373, -13.145229)" fill="none" stroke-linejoin="miter" d="M 10.917507 6.574548 C 10.761677 5.906297 10.630301 5.339849 10.487552 4.895675 L 17.121145 6.819668 C 17.164937 6.832748 17.278682 6.882796 17.436218 7.296258 C 17.590342 7.700052 17.729679 8.293231 17.930439 9.154847 L 18.049871 9.67068 C 18.076601 9.785562 18.102193 9.894757 18.128924 9.998833 L 12.116945 8.33361 L 11.813247 8.160718 C 11.38386 7.916167 11.304808 7.859295 11.249073 7.78138 C 11.187651 7.694934 11.150115 7.574933 11.028408 7.051707 Z M 10.917507 6.574548 " stroke="#ffffff" stroke-width="1" stroke-opacity="1" stroke-miterlimit="4"/></g><path fill="#ffffff" d="M 44.441406 55.453125 L 78.835938 64.980469 L 80.921875 66.167969 C 85.773438 68.929688 89.046875 70.804688 91.175781 72.515625 C 93.21875 74.148438 93.570312 75.125 93.597656 75.957031 C 93.632812 76.832031 93.3125 77.925781 91.351562 79.894531 C 89.332031 81.917969 86.191406 84.265625 81.574219 87.695312 L 78.832031 89.730469 C 77.539062 90.691406 76.363281 91.558594 75.378906 92.53125 L 28.640625 78.976562 L 31.105469 77.144531 C 35.433594 73.925781 39 71.28125 41.421875 68.851562 C 43.941406 66.320312 45.804688 63.46875 45.667969 59.808594 C 45.609375 58.167969 45.160156 56.730469 44.441406 55.453125 Z M 44.441406 55.453125 " fill-opacity="1" fill-rule="nonzero"/><g clip-path="url(#68a81b7ac6)"><path stroke-linecap="butt" transform="matrix(6.868449, 0, 0, 6.868449, -54.068373, -13.145229)" fill="none" stroke-linejoin="miter" d="M 14.342361 9.987459 L 19.349973 11.374576 L 19.653672 11.547468 C 20.360027 11.949556 20.836617 12.222543 21.146572 12.471644 C 21.444014 12.70937 21.495199 12.851551 21.49918 12.97269 C 21.504299 13.100084 21.457663 13.259326 21.172164 13.545963 C 20.878134 13.840562 20.42088 14.182365 19.748649 14.681704 L 19.349405 14.978009 C 19.161157 15.117915 18.989971 15.244172 18.846653 15.385784 L 12.041874 13.412313 L 12.400738 13.145582 C 13.030884 12.676953 13.550129 12.291927 13.902738 11.938181 C 14.269564 11.569648 14.540846 11.15448 14.52094 10.621586 C 14.512409 10.382722 14.447006 10.173431 14.342361 9.987459 Z M 14.342361 9.987459 " stroke="#ffffff" stroke-width="1" stroke-opacity="1" stroke-miterlimit="4"/></g><path fill="#ffffff" d="M 24.054688 84.796875 L 72.21875 98.765625 C 72.019531 99.738281 71.859375 100.78125 71.683594 101.910156 L 71.128906 105.527344 C 70.597656 108.964844 69.816406 112.03125 68.988281 114.625 C 67.523438 119.199219 67.148438 119.832031 66.050781 120.464844 C 65.578125 120.734375 65.132812 120.855469 64.203125 120.75 C 63.0625 120.621094 61.601562 120.210938 59.105469 119.488281 L 19.304688 107.941406 C 19.785156 106.933594 20.164062 105.859375 20.484375 104.761719 C 21.480469 101.347656 22.199219 96.6875 23.082031 90.941406 L 23.597656 87.585938 C 23.78125 86.394531 23.925781 85.492188 24.054688 84.796875 Z M 24.054688 84.796875 " fill-opacity="1" fill-rule="nonzero"/><g clip-path="url(#09fd531d69)"><path stroke-linecap="butt" transform="matrix(6.868449, 0, 0, 6.868449, -54.068373, -13.145229)" fill="none" stroke-linejoin="miter" d="M 11.374192 14.259711 L 18.386555 16.293467 C 18.35755 16.43508 18.334233 16.586929 18.30864 16.75129 L 18.227881 17.277928 C 18.150535 17.778405 18.03679 18.224853 17.916221 18.602486 C 17.702949 19.268461 17.648352 19.360594 17.488541 19.452728 C 17.419725 19.49197 17.354891 19.5096 17.219534 19.494244 C 17.053467 19.475477 16.840764 19.415761 16.47735 19.310547 L 10.682624 17.629399 C 10.752577 17.482669 10.807743 17.32627 10.854378 17.166458 C 10.999403 16.669394 11.104048 15.990906 11.23258 15.154314 L 11.307651 14.66578 C 11.334381 14.492319 11.355424 14.360944 11.374192 14.259711 Z M 11.374192 14.259711 " stroke="#ffffff" stroke-width="1" stroke-opacity="1" stroke-miterlimit="4"/></g></g></g></g></g><path fill="#ffffff" d="M 2272.796875 437.566406 C 2276.726562 433.179688 2279.421875 430.1875 2281.59375 428.378906 C 2283.792969 426.546875 2284.511719 426.738281 2284.734375 426.800781 C 2285.035156 426.886719 2285.816406 427.234375 2286.902344 430.070312 C 2287.960938 432.84375 2288.914062 436.921875 2290.292969 442.839844 L 2291.117188 446.382812 C 2291.757812 449.148438 2292.289062 451.449219 2293.617188 453.300781 C 2294.984375 455.210938 2296.96875 456.335938 2299.234375 457.625 L 2299.671875 457.871094 L 2302.128906 459.273438 C 2306.984375 462.035156 2310.253906 463.910156 2312.386719 465.617188 C 2314.425781 467.253906 2314.777344 468.230469 2314.808594 469.0625 C 2314.839844 469.933594 2314.519531 471.03125 2312.558594 473 C 2310.539062 475.023438 2307.398438 477.371094 2302.78125 480.800781 L 2300.042969 482.835938 C 2297.859375 484.453125 2296.027344 485.8125 2294.84375 487.839844 C 2293.6875 489.820312 2293.332031 492.140625 2292.894531 495.015625 L 2292.335938 498.628906 C 2291.402344 504.703125 2290.746094 508.910156 2289.890625 511.835938 C 2289.410156 513.480469 2288.953125 514.398438 2288.570312 514.921875 C 2287.824219 514.644531 2286.832031 514.242188 2285.664062 513.679688 C 2282.878906 512.347656 2279.109375 510.140625 2275.246094 506.667969 L 2273.101562 504.734375 L 2273.007812 504.652344 C 2271.910156 503.664062 2270.933594 502.785156 2270.046875 502.113281 C 2269.09375 501.390625 2268.0625 500.761719 2266.800781 500.394531 C 2264.570312 499.75 2262.269531 500.179688 2259.792969 500.644531 L 2259.257812 500.746094 L 2256.507812 501.253906 C 2251.0625 502.265625 2247.414062 502.929688 2244.796875 502.980469 C 2242.28125 503.027344 2241.753906 502.484375 2241.472656 502.089844 C 2241.074219 501.539062 2240.707031 500.46875 2241.320312 497.460938 C 2241.933594 494.464844 2243.304688 490.472656 2245.300781 484.707031 L 2246.484375 481.289062 C 2247.4375 478.542969 2248.199219 476.347656 2248.113281 474.03125 C 2248.027344 471.695312 2247.097656 469.59375 2245.949219 466.996094 L 2244.519531 463.765625 C 2242.113281 458.304688 2240.460938 454.542969 2239.636719 451.664062 C 2238.824219 448.816406 2239.078125 447.660156 2239.488281 446.960938 C 2239.828125 446.378906 2240.441406 445.757812 2242.921875 445.453125 C 2245.527344 445.128906 2249.203125 445.273438 2254.695312 445.507812 L 2257.46875 445.625 L 2257.992188 445.648438 C 2260.511719 445.761719 2262.816406 445.863281 2264.960938 444.917969 C 2267.042969 443.996094 2268.617188 442.234375 2270.425781 440.210938 L 2270.800781 439.789062 Z M 2272.796875 437.566406 " fill-opacity="1" fill-rule="nonzero"/><g clip-path="url(#e890516ec2)"><path stroke-linecap="butt" transform="matrix(6.868449, 0, 0, 6.868449, 2221.931619, 395.85477)" fill="none" stroke-linejoin="miter" d="M 7.405639 6.072934 C 7.977775 5.434257 8.370194 4.998614 8.686405 4.735295 C 9.006596 4.468564 9.111241 4.496431 9.143659 4.505531 C 9.18745 4.518043 9.301195 4.568659 9.4593 4.981553 C 9.613424 5.385347 9.752193 5.979094 9.952952 6.840711 L 10.072953 7.356543 C 10.166224 7.759199 10.24357 8.094178 10.436936 8.363753 C 10.63599 8.641859 10.924901 8.805651 11.254761 8.99333 L 11.318458 9.029159 L 11.676185 9.233331 C 12.383109 9.635419 12.859131 9.908406 13.169654 10.156938 C 13.466528 10.395234 13.517713 10.537415 13.522262 10.658553 C 13.526812 10.785378 13.480177 10.94519 13.194678 11.231826 C 12.900647 11.526425 12.443394 11.868228 11.771162 12.367568 L 11.372487 12.663873 C 11.05457 12.899324 10.787839 13.09724 10.615516 13.392408 C 10.447173 13.680751 10.395419 14.018573 10.331722 14.437153 L 10.250395 14.963223 C 10.11447 15.847588 10.018924 16.460103 9.894374 16.886077 C 9.824421 17.12551 9.75788 17.25916 9.702145 17.335369 C 9.593519 17.29499 9.449063 17.236411 9.279015 17.154515 C 8.873515 16.96058 8.324696 16.639251 7.762229 16.133656 L 7.449999 15.852138 L 7.43635 15.840195 C 7.276539 15.696307 7.134358 15.568345 7.005257 15.470524 C 6.866489 15.36531 6.716346 15.273746 6.532648 15.220286 C 6.207907 15.126446 5.872929 15.189006 5.512358 15.256684 L 5.434443 15.271471 L 5.034061 15.345405 C 4.24126 15.492704 3.710072 15.589387 3.329027 15.596781 C 2.962769 15.603606 2.885992 15.524553 2.845043 15.467112 C 2.787034 15.386922 2.733574 15.231091 2.822863 14.793174 C 2.912153 14.356963 3.111775 13.775727 3.402393 12.936291 L 3.574716 12.438658 C 3.713485 12.038845 3.824386 11.719223 3.811874 11.381969 C 3.799362 11.041873 3.664006 10.735899 3.496801 10.357698 L 3.288648 9.887363 C 2.938314 9.092288 2.697744 8.544607 2.577743 8.125457 C 2.459449 7.710858 2.496416 7.542516 2.556132 7.440714 C 2.605611 7.355974 2.6949 7.265547 3.05604 7.221187 C 3.435379 7.173983 3.970548 7.195025 4.770173 7.229149 L 5.173967 7.246211 L 5.250176 7.249623 C 5.617003 7.266116 5.95255 7.280903 6.264779 7.143272 C 6.567909 7.009053 6.797105 6.752558 7.060424 6.457959 L 7.115021 6.396537 Z M 7.405639 6.072934 " stroke="#ffffff" stroke-width="1" stroke-opacity="1" stroke-miterlimit="4"/></g><g clip-path="url(#44de27a815)"><g mask="url(#dabe365d84)"><g transform="matrix(1, 0, 0, 1, 4210, 1354)"><g clip-path="url(#becce18728)"><path fill="#ffffff" d="M 20.644531 31.578125 C 19.578125 26.984375 18.671875 23.097656 17.691406 20.042969 L 63.253906 33.261719 C 63.554688 33.347656 64.339844 33.695312 65.421875 36.53125 C 66.480469 39.304688 67.4375 43.382812 68.8125 49.296875 L 69.636719 52.839844 C 69.820312 53.628906 69.992188 54.382812 70.179688 55.09375 L 28.882812 43.65625 L 26.800781 42.46875 C 23.847656 40.789062 23.308594 40.398438 22.925781 39.867188 C 22.5 39.273438 22.246094 38.449219 21.40625 34.851562 Z M 20.644531 31.578125 " fill-opacity="1" fill-rule="nonzero"/><g clip-path="url(#9e08fe4ece)"><path stroke-linecap="butt" transform="matrix(6.868449, 0, 0, 6.868449, -54.339707, -13.58027)" fill="none" stroke-linejoin="miter" d="M 10.9172 6.574758 C 10.761939 5.905939 10.629995 5.340059 10.487245 4.895317 L 17.120839 6.819878 C 17.16463 6.83239 17.278944 6.883007 17.43648 7.2959 C 17.590605 7.699694 17.729942 8.293441 17.930133 9.154489 L 18.050133 9.670322 C 18.076863 9.785204 18.101887 9.894967 18.129186 9.998475 L 12.116639 8.333252 L 11.813509 8.16036 C 11.383554 7.915809 11.30507 7.858937 11.249335 7.78159 C 11.187344 7.695144 11.150377 7.575143 11.028102 7.051349 Z M 10.9172 6.574758 " stroke="#ffffff" stroke-width="1" stroke-opacity="1" stroke-miterlimit="4"/></g><path fill="#ffffff" d="M 44.171875 55.019531 L 78.566406 64.542969 L 80.652344 65.730469 C 85.503906 68.496094 88.773438 70.371094 90.90625 72.078125 C 92.945312 73.714844 93.296875 74.691406 93.328125 75.519531 C 93.359375 76.394531 93.039062 77.492188 91.078125 79.460938 C 89.0625 81.484375 85.917969 83.832031 81.300781 87.261719 L 78.5625 89.296875 C 77.265625 90.257812 76.09375 91.125 75.105469 92.097656 L 28.371094 78.539062 L 30.832031 76.710938 C 35.164062 73.492188 38.726562 70.84375 41.148438 68.414062 C 43.671875 65.886719 45.53125 63.035156 45.398438 59.375 C 45.335938 57.730469 44.890625 56.296875 44.171875 55.019531 Z M 44.171875 55.019531 " fill-opacity="1" fill-rule="nonzero"/><g clip-path="url(#65e8ec8771)"><path stroke-linecap="butt" transform="matrix(6.868449, 0, 0, 6.868449, -54.339707, -13.58027)" fill="none" stroke-linejoin="miter" d="M 14.342623 9.987669 L 19.350236 11.374218 L 19.653934 11.54711 C 20.360289 11.949766 20.836311 12.222754 21.146834 12.471286 C 21.443708 12.709581 21.494893 12.851762 21.499443 12.972331 C 21.503992 13.099726 21.457357 13.259537 21.171858 13.546174 C 20.878396 13.840773 20.420574 14.182576 19.748342 14.681915 L 19.349667 14.97822 C 19.160851 15.118126 18.990234 15.244383 18.846347 15.385995 L 12.042136 13.411955 L 12.400432 13.145792 C 13.031147 12.677164 13.549823 12.291569 13.902431 11.937823 C 14.269827 11.569859 14.540539 11.15469 14.521203 10.621796 C 14.512103 10.382364 14.447269 10.173642 14.342623 9.987669 Z M 14.342623 9.987669 " stroke="#ffffff" stroke-width="1" stroke-opacity="1" stroke-miterlimit="4"/></g><path fill="#ffffff" d="M 23.78125 84.359375 L 71.945312 98.332031 C 71.746094 99.304688 71.585938 100.347656 71.414062 101.472656 L 70.859375 105.089844 C 70.328125 108.53125 69.546875 111.59375 68.714844 114.191406 C 67.253906 118.761719 66.878906 119.398438 65.777344 120.03125 C 65.304688 120.300781 64.863281 120.417969 63.929688 120.316406 C 62.789062 120.1875 61.328125 119.773438 58.835938 119.050781 L 19.035156 107.507812 C 19.511719 106.5 19.890625 105.421875 20.210938 104.324219 C 21.210938 100.914062 21.925781 96.253906 22.8125 90.503906 L 23.328125 87.152344 C 23.511719 85.960938 23.65625 85.058594 23.78125 84.359375 Z M 23.78125 84.359375 " fill-opacity="1" fill-rule="nonzero"/><g clip-path="url(#6bcd18c6a4)"><path stroke-linecap="butt" transform="matrix(6.868449, 0, 0, 6.868449, -54.339707, -13.58027)" fill="none" stroke-linejoin="miter" d="M 11.373886 14.259353 L 18.386249 16.293678 C 18.357244 16.43529 18.333926 16.587139 18.308903 16.750932 L 18.228144 17.27757 C 18.150797 17.778616 18.037053 18.224495 17.915915 18.602696 C 17.703212 19.268103 17.648614 19.360805 17.488234 19.452938 C 17.419419 19.49218 17.355153 19.509242 17.219228 19.494455 C 17.053161 19.475687 16.840458 19.415402 16.477612 19.310189 L 10.682886 17.62961 C 10.752271 17.482879 10.807437 17.325911 10.854072 17.1661 C 10.999665 16.669604 11.103742 15.991117 11.232842 15.153956 L 11.307914 14.665991 C 11.334644 14.49253 11.355686 14.361155 11.373886 14.259353 Z M 11.373886 14.259353 " stroke="#ffffff" stroke-width="1" stroke-opacity="1" stroke-miterlimit="4"/></g></g></g></g></g><path fill="#ffffff" d="M 4206.523438 1382.128906 C 4210.457031 1377.742188 4213.148438 1374.753906 4215.320312 1372.945312 C 4217.523438 1371.113281 4218.238281 1371.300781 4218.460938 1371.367188 C 4218.765625 1371.453125 4219.546875 1371.800781 4220.628906 1374.636719 C 4221.6875 1377.410156 4222.644531 1381.488281 4224.019531 1387.402344 L 4224.84375 1390.945312 C 4225.484375 1393.714844 4226.015625 1396.011719 4227.34375 1397.867188 C 4228.710938 1399.777344 4230.699219 1400.902344 4232.964844 1402.1875 L 4233.402344 1402.4375 L 4235.859375 1403.835938 C 4240.710938 1406.601562 4243.984375 1408.476562 4246.113281 1410.183594 C 4248.152344 1411.820312 4248.503906 1412.792969 4248.535156 1413.625 C 4248.570312 1414.5 4248.25 1415.597656 4246.289062 1417.566406 C 4244.269531 1419.589844 4241.125 1421.933594 4236.511719 1425.367188 L 4233.769531 1427.402344 C 4231.589844 1429.015625 4229.753906 1430.375 4228.574219 1432.402344 C 4227.417969 1434.386719 4227.0625 1436.707031 4226.621094 1439.582031 L 4226.066406 1443.195312 C 4225.128906 1449.269531 4224.476562 1453.476562 4223.621094 1456.398438 C 4223.140625 1458.042969 4222.683594 1458.964844 4222.296875 1459.488281 C 4221.554688 1459.210938 4220.5625 1458.804688 4219.390625 1458.246094 C 4216.609375 1456.914062 4212.839844 1454.703125 4208.976562 1451.230469 L 4206.832031 1449.300781 L 4206.734375 1449.214844 C 4205.636719 1448.226562 4204.660156 1447.351562 4203.777344 1446.679688 C 4202.820312 1445.953125 4201.789062 1445.328125 4200.527344 1444.960938 C 4198.296875 1444.3125 4196 1444.746094 4193.523438 1445.210938 L 4192.988281 1445.308594 L 4190.238281 1445.820312 C 4184.792969 1446.828125 4181.144531 1447.496094 4178.523438 1447.542969 C 4176.011719 1447.589844 4175.484375 1447.050781 4175.199219 1446.65625 C 4174.804688 1446.101562 4174.4375 1445.035156 4175.050781 1442.027344 C 4175.660156 1439.03125 4177.035156 1435.039062 4179.03125 1429.269531 L 4180.210938 1425.855469 C 4181.164062 1423.109375 4181.925781 1420.914062 4181.84375 1418.597656 C 4181.757812 1416.261719 4180.824219 1414.15625 4179.675781 1411.558594 L 4178.25 1408.328125 C 4175.839844 1402.871094 4174.1875 1399.109375 4173.367188 1396.230469 C 4172.550781 1393.382812 4172.804688 1392.226562 4173.214844 1391.523438 C 4173.554688 1390.941406 4174.171875 1390.324219 4176.648438 1390.015625 C 4179.257812 1389.695312 4182.933594 1389.839844 4188.421875 1390.074219 L 4191.195312 1390.191406 L 4191.71875 1390.214844 C 4194.238281 1390.324219 4196.546875 1390.429688 4198.6875 1389.480469 C 4200.773438 1388.5625 4202.347656 1386.796875 4204.152344 1384.777344 L 4204.53125 1384.355469 Z M 4206.523438 1382.128906 " fill-opacity="1" fill-rule="nonzero"/><g clip-path="url(#e915a95587)"><path stroke-linecap="butt" transform="matrix(6.868449, 0, 0, 6.868449, 4155.660305, 1340.419723)" fill="none" stroke-linejoin="miter" d="M 7.40533 6.072576 C 7.978035 5.4339 8.369885 4.998826 8.686096 4.735507 C 9.006856 4.468776 9.110932 4.496074 9.143349 4.505743 C 9.18771 4.518255 9.301455 4.568871 9.458991 4.981764 C 9.613115 5.385558 9.752453 5.979306 9.952643 6.840353 L 10.072644 7.356186 C 10.165915 7.759411 10.243261 8.093821 10.436627 8.363964 C 10.635681 8.64207 10.925161 8.805863 11.255021 8.992973 L 11.318718 9.029371 L 11.676445 9.232974 C 12.3828 9.63563 12.85939 9.908618 13.169345 10.15715 C 13.466218 10.395445 13.517404 10.537058 13.521953 10.658196 C 13.527072 10.78559 13.480437 10.945401 13.194937 11.232038 C 12.900907 11.526637 12.443084 11.867871 11.771422 12.367779 L 11.372178 12.664084 C 11.05483 12.898967 10.78753 13.096883 10.615775 13.392051 C 10.447433 13.680962 10.395679 14.018784 10.331413 14.437365 L 10.250655 14.963434 C 10.114161 15.8478 10.019184 16.460315 9.894634 16.88572 C 9.82468 17.125153 9.75814 17.259372 9.701836 17.335581 C 9.593779 17.295201 9.449323 17.236054 9.278706 17.154727 C 8.873774 16.960792 8.324956 16.638894 7.762488 16.133299 L 7.450259 15.852349 L 7.436041 15.839837 C 7.27623 15.69595 7.134049 15.568556 7.005517 15.470736 C 6.86618 15.364953 6.716037 15.273957 6.532339 15.220497 C 6.207598 15.126089 5.873188 15.189218 5.512617 15.256896 L 5.434702 15.271114 L 5.034321 15.345617 C 4.24152 15.492347 3.710332 15.589599 3.328718 15.596424 C 2.963029 15.603248 2.886251 15.524765 2.844734 15.467323 C 2.787293 15.386565 2.733833 15.231303 2.823123 14.793386 C 2.911844 14.357175 3.112034 13.775939 3.402652 12.935934 L 3.574407 12.43887 C 3.713175 12.039057 3.824077 11.719434 3.812133 11.382181 C 3.799621 11.042084 3.663696 10.735542 3.496492 10.357341 L 3.288908 9.887006 C 2.938005 9.092499 2.697435 8.544818 2.578003 8.125669 C 2.45914 7.711069 2.496107 7.542727 2.555823 7.440357 C 2.605302 7.355617 2.69516 7.265759 3.055731 7.22083 C 3.435638 7.174194 3.970807 7.195237 4.769864 7.22936 L 5.173658 7.246422 L 5.249867 7.249835 C 5.616694 7.265759 5.952809 7.281114 6.26447 7.142914 C 6.568169 7.009264 6.797364 6.752201 7.060115 6.458171 L 7.115281 6.396749 Z M 7.40533 6.072576 " stroke="#ffffff" stroke-width="1" stroke-opacity="1" stroke-miterlimit="4"/></g><g clip-path="url(#26e6d72bc6)"><path fill="#ffde59" d="M 21.171875 1367.875 C 709.117188 1367.875 1266.753906 1925.511719 1266.753906 2613.457031 L 698.070312 2613.457031 C 698.070312 2239.859375 395.523438 1937.0625 22.175781 1936.558594 Z M 21.171875 1367.875 " fill-opacity="1" fill-rule="nonzero"/></g><g clip-path="url(#bce06dbaeb)"><path fill="#ffde59" d="M 4478.785156 1331.71875 C 3790.839844 1331.71875 3233.203125 774.082031 3233.203125 86.136719 L 3801.886719 86.136719 C 3801.886719 459.738281 4104.433594 762.53125 4477.78125 763.035156 Z M 4478.785156 1331.71875 " fill-opacity="1" fill-rule="nonzero"/></g><g fill="#ffffff" fill-opacity="1"><g transform="translate(1928.406832, 1067.480767)"><g><path d="M 108.703125 -219.5625 L 108.703125 0 L 62.390625 0 L 62.390625 -162.734375 L 60.359375 -162.734375 C 57.992188 -159.085938 52.988281 -155.457031 45.34375 -151.84375 C 37.695312 -148.238281 27.800781 -146.4375 15.65625 -146.4375 L 15.65625 -183.328125 C 25.082031 -183.328125 33.332031 -185.414062 40.40625 -189.59375 C 47.488281 -193.769531 53.03125 -198.695312 57.03125 -204.375 C 61.03125 -210.0625 63.101562 -215.125 63.25 -219.5625 Z M 108.703125 -219.5625 "/></g></g></g><g fill="#ffffff" fill-opacity="1"><g transform="translate(2071.520825, 1067.480767)"><g><path d="M 138.1875 -156.40625 C 137.332031 -165.0625 133.632812 -171.78125 127.09375 -176.5625 C 120.550781 -181.351562 111.742188 -183.75 100.671875 -183.75 C 89.304688 -183.75 80.582031 -181.425781 74.5 -176.78125 C 68.425781 -172.132812 65.390625 -166.273438 65.390625 -159.203125 C 65.253906 -151.335938 68.632812 -145.382812 75.53125 -141.34375 C 82.425781 -137.3125 90.625 -134.1875 100.125 -131.96875 L 119.859375 -127.25 C 132.578125 -124.394531 143.882812 -120.25 153.78125 -114.8125 C 163.6875 -109.382812 171.476562 -102.398438 177.15625 -93.859375 C 182.84375 -85.316406 185.6875 -74.9375 185.6875 -62.71875 C 185.613281 -42.632812 178.085938 -26.640625 163.109375 -14.734375 C 148.140625 -2.835938 127.253906 3.109375 100.453125 3.109375 C 73.796875 3.109375 52.53125 -2.960938 36.65625 -15.109375 C 20.789062 -27.265625 12.570312 -45.207031 12 -68.9375 L 56.921875 -68.9375 C 57.710938 -57.925781 62.054688 -49.648438 69.953125 -44.109375 C 77.847656 -38.578125 87.835938 -35.8125 99.921875 -35.8125 C 111.710938 -35.8125 121.125 -38.3125 128.15625 -43.3125 C 135.195312 -48.3125 138.753906 -54.816406 138.828125 -62.828125 C 138.753906 -70.253906 135.5 -75.96875 129.0625 -79.96875 C 122.632812 -83.976562 113.457031 -87.410156 101.53125 -90.265625 L 77.609375 -96.265625 C 59.097656 -100.703125 44.484375 -107.742188 33.765625 -117.390625 C 23.046875 -127.035156 17.722656 -139.9375 17.796875 -156.09375 C 17.722656 -169.382812 21.273438 -181.015625 28.453125 -190.984375 C 35.640625 -200.953125 45.519531 -208.707031 58.09375 -214.25 C 70.675781 -219.789062 84.972656 -222.5625 100.984375 -222.5625 C 117.285156 -222.5625 131.523438 -219.769531 143.703125 -214.1875 C 155.890625 -208.613281 165.378906 -200.859375 172.171875 -190.921875 C 178.960938 -180.992188 182.460938 -169.488281 182.671875 -156.40625 Z M 138.1875 -156.40625 "/></g></g></g><g fill="#ffffff" fill-opacity="1"><g transform="translate(2269.200376, 1067.480767)"><g><path d="M 10.71875 -181.28125 L 10.71875 -219.5625 L 191.046875 -219.5625 L 191.046875 -181.28125 L 123.828125 -181.28125 L 123.828125 0 L 77.9375 0 L 77.9375 -181.28125 Z M 10.71875 -181.28125 "/></g></g></g><g fill="#ffffff" fill-opacity="1"><g transform="translate(2470.953585, 1067.480767)"><g/></g></g><g fill="#ffffff" fill-opacity="1"><g transform="translate(2540.95616, 1067.480767)"><g><path d="M 220.84375 -109.78125 C 220.84375 -90.195312 217.734375 -72.972656 211.515625 -58.109375 C 205.296875 -43.242188 196.828125 -31.019531 186.109375 -21.4375 L 217.515625 18.015625 L 174.203125 18.015625 L 156.515625 -3.75 C 144.578125 0.75 131.75 3 118.03125 3 C 98.519531 3 81.007812 -1.425781 65.5 -10.28125 C 49.988281 -19.144531 37.726562 -31.992188 28.71875 -48.828125 C 19.71875 -65.660156 15.21875 -85.976562 15.21875 -109.78125 C 15.21875 -133.71875 19.71875 -154.082031 28.71875 -170.875 C 37.726562 -187.675781 49.988281 -200.488281 65.5 -209.3125 C 81.007812 -218.144531 98.519531 -222.5625 118.03125 -222.5625 C 137.46875 -222.5625 154.941406 -218.144531 170.453125 -209.3125 C 185.960938 -200.488281 198.238281 -187.675781 207.28125 -170.875 C 216.320312 -154.082031 220.84375 -133.71875 220.84375 -109.78125 Z M 101.953125 -76.328125 L 141.40625 -76.328125 L 157.703125 -55.421875 C 162.773438 -61.492188 166.722656 -69.066406 169.546875 -78.140625 C 172.367188 -87.222656 173.78125 -97.769531 173.78125 -109.78125 C 173.78125 -133.082031 168.703125 -150.859375 158.546875 -163.109375 C 148.398438 -175.367188 134.894531 -181.5 118.03125 -181.5 C 101.164062 -181.5 87.65625 -175.367188 77.5 -163.109375 C 67.351562 -150.859375 62.28125 -133.082031 62.28125 -109.78125 C 62.28125 -86.550781 67.351562 -68.789062 77.5 -56.5 C 87.65625 -44.207031 101.164062 -38.0625 118.03125 -38.0625 C 122.25 -38.0625 126.253906 -38.453125 130.046875 -39.234375 Z M 101.953125 -76.328125 "/></g></g></g><g fill="#ffffff" fill-opacity="1"><g transform="translate(2777.228249, 1067.480767)"><g><path d="M 155.015625 -219.5625 L 201.125 -219.5625 L 201.125 -74.40625 C 201.125 -57.820312 197.226562 -43.757812 189.4375 -32.21875 C 181.644531 -20.675781 170.90625 -11.898438 157.21875 -5.890625 C 143.53125 0.109375 127.820312 3.109375 110.09375 3.109375 C 92.375 3.109375 76.648438 0.109375 62.921875 -5.890625 C 49.203125 -11.898438 38.460938 -20.675781 30.703125 -32.21875 C 22.953125 -43.757812 19.078125 -57.820312 19.078125 -74.40625 L 19.078125 -219.5625 L 65.5 -219.5625 L 65.5 -76.015625 C 65.5 -64.285156 69.734375 -55.0625 78.203125 -48.34375 C 86.671875 -41.625 97.300781 -38.265625 110.09375 -38.265625 C 123.101562 -38.265625 133.84375 -41.625 142.3125 -48.34375 C 150.78125 -55.0625 155.015625 -64.285156 155.015625 -76.015625 Z M 155.015625 -219.5625 "/></g></g></g><g fill="#ffffff" fill-opacity="1"><g transform="translate(2997.420115, 1067.480767)"><g><path d="M 56.921875 0 L 7.1875 0 L 82.984375 -219.5625 L 142.796875 -219.5625 L 218.484375 0 L 168.734375 0 L 152.453125 -50.0625 L 73.21875 -50.0625 Z M 85.015625 -86.296875 L 140.765625 -86.296875 L 113.75 -169.390625 L 112.03125 -169.390625 Z M 85.015625 -86.296875 "/></g></g></g><g fill="#ffffff" fill-opacity="1"><g transform="translate(3223.186459, 1067.480767)"><g><path d="M 19.078125 0 L 19.078125 -219.5625 L 105.703125 -219.5625 C 130.648438 -219.5625 150 -213.054688 163.75 -200.046875 C 177.507812 -187.035156 184.390625 -169.632812 184.390625 -147.84375 C 184.390625 -132.832031 181.046875 -120 174.359375 -109.34375 C 167.679688 -98.695312 158.085938 -90.691406 145.578125 -85.328125 L 192.21875 0 L 140.96875 0 L 99.375 -77.828125 L 65.5 -77.828125 L 65.5 0 Z M 65.5 -115.140625 L 97.015625 -115.140625 C 123.390625 -115.140625 136.578125 -126.039062 136.578125 -147.84375 C 136.578125 -170.351562 123.320312 -181.609375 96.8125 -181.609375 L 65.5 -181.609375 Z M 65.5 -115.140625 "/></g></g></g><g fill="#ffffff" fill-opacity="1"><g transform="translate(3421.294817, 1067.480767)"><g><path d="M 10.71875 -181.28125 L 10.71875 -219.5625 L 191.046875 -219.5625 L 191.046875 -181.28125 L 123.828125 -181.28125 L 123.828125 0 L 77.9375 0 L 77.9375 -181.28125 Z M 10.71875 -181.28125 "/></g></g></g><g fill="#ffffff" fill-opacity="1"><g transform="translate(3623.048026, 1067.480767)"><g><path d="M 19.078125 0 L 19.078125 -219.5625 L 167.03125 -219.5625 L 167.03125 -181.28125 L 65.5 -181.28125 L 65.5 -128.96875 L 159.421875 -128.96875 L 159.421875 -90.703125 L 65.5 -90.703125 L 65.5 -38.265625 L 167.453125 -38.265625 L 167.453125 0 Z M 19.078125 0 "/></g></g></g><g fill="#ffffff" fill-opacity="1"><g transform="translate(3807.970691, 1067.480767)"><g><path d="M 19.078125 0 L 19.078125 -219.5625 L 105.703125 -219.5625 C 130.648438 -219.5625 150 -213.054688 163.75 -200.046875 C 177.507812 -187.035156 184.390625 -169.632812 184.390625 -147.84375 C 184.390625 -132.832031 181.046875 -120 174.359375 -109.34375 C 167.679688 -98.695312 158.085938 -90.691406 145.578125 -85.328125 L 192.21875 0 L 140.96875 0 L 99.375 -77.828125 L 65.5 -77.828125 L 65.5 0 Z M 65.5 -115.140625 L 97.015625 -115.140625 C 123.390625 -115.140625 136.578125 -126.039062 136.578125 -147.84375 C 136.578125 -170.351562 123.320312 -181.609375 96.8125 -181.609375 L 65.5 -181.609375 Z M 65.5 -115.140625 "/></g></g></g><g fill="#ffffff" fill-opacity="1"><g transform="translate(4006.100291, 1067.480767)"><g/></g></g><g fill="#ffffff" fill-opacity="1"><g transform="translate(1968.098447, 1394.683484)"><g><path d="M 14.78125 -170.0625 L 59.125 -170.0625 L 105.953125 -55.796875 L 107.953125 -55.796875 L 154.78125 -170.0625 L 199.125 -170.0625 L 199.125 0 L 164.25 0 L 164.25 -110.6875 L 162.828125 -110.6875 L 118.828125 -0.828125 L 95.078125 -0.828125 L 51.0625 -111.09375 L 49.65625 -111.09375 L 49.65625 0 L 14.78125 0 Z M 14.78125 -170.0625 "/></g></g></g><g fill="#ffffff" fill-opacity="1"><g transform="translate(2184.14288, 1394.683484)"><g><path d="M 50.734375 -170.0625 L 50.734375 0 L 14.78125 0 L 14.78125 -170.0625 Z M 50.734375 -170.0625 "/></g></g></g><g fill="#ffffff" fill-opacity="1"><g transform="translate(2249.736693, 1394.683484)"><g><path d="M 157.015625 -170.0625 L 157.015625 0 L 125.96875 0 L 51.984375 -107.03125 L 50.734375 -107.03125 L 50.734375 0 L 14.78125 0 L 14.78125 -170.0625 L 46.328125 -170.0625 L 119.734375 -63.109375 L 121.234375 -63.109375 L 121.234375 -170.0625 Z M 157.015625 -170.0625 "/></g></g></g><g fill="#ffffff" fill-opacity="1"><g transform="translate(2421.609089, 1394.683484)"><g><path d="M 50.734375 -170.0625 L 50.734375 0 L 14.78125 0 L 14.78125 -170.0625 Z M 50.734375 -170.0625 "/></g></g></g><g fill="#ffffff" fill-opacity="1"><g transform="translate(2487.202902, 1394.683484)"><g/></g></g><g fill="#ffffff" fill-opacity="1"><g transform="translate(2541.421586, 1394.683484)"><g><path d="M 171.046875 -85.03125 C 171.046875 -69.863281 168.640625 -56.519531 163.828125 -45 C 159.015625 -33.488281 152.457031 -24.023438 144.15625 -16.609375 L 168.484375 13.953125 L 134.9375 13.953125 L 121.234375 -2.90625 C 111.984375 0.582031 102.046875 2.328125 91.421875 2.328125 C 76.304688 2.328125 62.742188 -1.101562 50.734375 -7.96875 C 38.722656 -14.832031 29.226562 -24.78125 22.25 -37.8125 C 15.28125 -50.851562 11.796875 -66.59375 11.796875 -85.03125 C 11.796875 -103.570312 15.28125 -119.347656 22.25 -132.359375 C 29.226562 -145.367188 38.722656 -155.289062 50.734375 -162.125 C 62.742188 -168.957031 76.304688 -172.375 91.421875 -172.375 C 106.472656 -172.375 120.003906 -168.957031 132.015625 -162.125 C 144.035156 -155.289062 153.546875 -145.367188 160.546875 -132.359375 C 167.546875 -119.347656 171.046875 -103.570312 171.046875 -85.03125 Z M 78.96875 -59.125 L 109.53125 -59.125 L 122.140625 -42.921875 C 126.078125 -47.628906 129.132812 -53.5 131.3125 -60.53125 C 133.5 -67.5625 134.59375 -75.726562 134.59375 -85.03125 C 134.59375 -103.070312 130.660156 -116.835938 122.796875 -126.328125 C 114.941406 -135.828125 104.484375 -140.578125 91.421875 -140.578125 C 78.359375 -140.578125 67.894531 -135.828125 60.03125 -126.328125 C 52.175781 -116.835938 48.25 -103.070312 48.25 -85.03125 C 48.25 -67.039062 52.175781 -53.285156 60.03125 -43.765625 C 67.894531 -34.242188 78.359375 -29.484375 91.421875 -29.484375 C 94.691406 -29.484375 97.789062 -29.785156 100.71875 -30.390625 Z M 78.96875 -59.125 "/></g></g></g><g fill="#ffffff" fill-opacity="1"><g transform="translate(2724.420022, 1394.683484)"><g><path d="M 120.0625 -170.0625 L 155.78125 -170.0625 L 155.78125 -57.625 C 155.78125 -44.78125 152.757812 -33.890625 146.71875 -24.953125 C 140.6875 -16.015625 132.367188 -9.21875 121.765625 -4.5625 C 111.171875 0.0820312 99.007812 2.40625 85.28125 2.40625 C 71.550781 2.40625 59.367188 0.0820312 48.734375 -4.5625 C 38.109375 -9.21875 29.789062 -16.015625 23.78125 -24.953125 C 17.78125 -33.890625 14.78125 -44.78125 14.78125 -57.625 L 14.78125 -170.0625 L 50.734375 -170.0625 L 50.734375 -58.875 C 50.734375 -49.789062 54.015625 -42.644531 60.578125 -37.4375 C 67.140625 -32.238281 75.375 -29.640625 85.28125 -29.640625 C 95.351562 -29.640625 103.664062 -32.238281 110.21875 -37.4375 C 116.78125 -42.644531 120.0625 -49.789062 120.0625 -58.875 Z M 120.0625 -170.0625 "/></g></g></g><g fill="#ffffff" fill-opacity="1"><g transform="translate(2894.963936, 1394.683484)"><g><path d="M 50.734375 -170.0625 L 50.734375 0 L 14.78125 0 L 14.78125 -170.0625 Z M 50.734375 -170.0625 "/></g></g></g><g fill="#ffffff" fill-opacity="1"><g transform="translate(2960.557749, 1394.683484)"><g><path d="M 12.953125 0 L 12.953125 -21.34375 L 97.8125 -140.40625 L 12.78125 -140.40625 L 12.78125 -170.0625 L 142.984375 -170.0625 L 142.984375 -148.71875 L 58.046875 -29.640625 L 143.15625 -29.640625 L 143.15625 0 Z M 12.953125 0 "/></g></g></g><g fill="#ffffff" fill-opacity="1"><g transform="translate(2347.526173, 2059.690847)"><g><path d="M 4.578125 -77.453125 L 4.578125 -93.796875 L 81.609375 -93.796875 L 81.609375 -77.453125 L 52.890625 -77.453125 L 52.890625 0 L 33.296875 0 L 33.296875 -77.453125 Z M 4.578125 -77.453125 "/></g></g></g><g fill="#ffffff" fill-opacity="1"><g transform="translate(2433.720849, 2059.690847)"><g><path d="M 24.3125 0 L 3.0625 0 L 35.453125 -93.796875 L 61 -93.796875 L 93.34375 0 L 72.09375 0 L 65.125 -21.390625 L 31.28125 -21.390625 Z M 36.3125 -36.875 L 60.140625 -36.875 L 48.59375 -72.359375 L 47.859375 -72.359375 Z M 36.3125 -36.875 "/></g></g></g><g fill="#ffffff" fill-opacity="1"><g transform="translate(2530.174616, 2059.690847)"><g><path d="M 8.15625 0 L 8.15625 -93.796875 L 27.984375 -93.796875 L 27.984375 -52.4375 L 29.21875 -52.4375 L 62.96875 -93.796875 L 86.75 -93.796875 L 51.9375 -51.796875 L 87.15625 0 L 63.4375 0 L 37.734375 -38.5625 L 27.984375 -26.65625 L 27.984375 0 Z M 8.15625 0 "/></g></g></g><g fill="#ffffff" fill-opacity="1"><g transform="translate(2619.117263, 2059.690847)"><g><path d="M 8.15625 0 L 8.15625 -93.796875 L 71.359375 -93.796875 L 71.359375 -77.453125 L 27.984375 -77.453125 L 27.984375 -55.09375 L 68.109375 -55.09375 L 68.109375 -38.75 L 27.984375 -38.75 L 27.984375 -16.34375 L 71.53125 -16.34375 L 71.53125 0 Z M 8.15625 0 "/></g></g></g><g fill="#ffffff" fill-opacity="1"><g transform="translate(2698.121417, 2059.690847)"><g/></g></g><g fill="#ffffff" fill-opacity="1"><g transform="translate(2728.028497, 2059.690847)"><g><path d="M 94.34375 -46.890625 C 94.34375 -38.523438 93.015625 -31.164062 90.359375 -24.8125 C 87.703125 -18.46875 84.082031 -13.25 79.5 -9.15625 L 92.921875 7.6875 L 74.421875 7.6875 L 66.859375 -1.609375 C 61.765625 0.316406 56.285156 1.28125 50.421875 1.28125 C 42.085938 1.28125 34.609375 -0.609375 27.984375 -4.390625 C 21.359375 -8.179688 16.117188 -13.671875 12.265625 -20.859375 C 8.421875 -28.046875 6.5 -36.722656 6.5 -46.890625 C 6.5 -57.117188 8.421875 -65.820312 12.265625 -73 C 16.117188 -80.175781 21.359375 -85.648438 27.984375 -89.421875 C 34.609375 -93.191406 42.085938 -95.078125 50.421875 -95.078125 C 58.722656 -95.078125 66.1875 -93.191406 72.8125 -89.421875 C 79.445312 -85.648438 84.691406 -80.175781 88.546875 -73 C 92.410156 -65.820312 94.34375 -57.117188 94.34375 -46.890625 Z M 43.546875 -32.609375 L 60.40625 -32.609375 L 67.375 -23.671875 C 69.539062 -26.273438 71.222656 -29.515625 72.421875 -33.390625 C 73.628906 -37.265625 74.234375 -41.765625 74.234375 -46.890625 C 74.234375 -56.847656 72.066406 -64.441406 67.734375 -69.671875 C 63.398438 -74.910156 57.628906 -77.53125 50.421875 -77.53125 C 43.210938 -77.53125 37.441406 -74.910156 33.109375 -69.671875 C 28.773438 -64.441406 26.609375 -56.847656 26.609375 -46.890625 C 26.609375 -36.972656 28.773438 -29.390625 33.109375 -24.140625 C 37.441406 -18.890625 43.210938 -16.265625 50.421875 -16.265625 C 52.222656 -16.265625 53.929688 -16.429688 55.546875 -16.765625 Z M 43.546875 -32.609375 "/></g></g></g><g fill="#ffffff" fill-opacity="1"><g transform="translate(2828.970616, 2059.690847)"><g><path d="M 66.21875 -93.796875 L 85.921875 -93.796875 L 85.921875 -31.78125 C 85.921875 -24.695312 84.253906 -18.6875 80.921875 -13.75 C 77.597656 -8.820312 73.007812 -5.078125 67.15625 -2.515625 C 61.3125 0.046875 54.601562 1.328125 47.03125 1.328125 C 39.457031 1.328125 32.738281 0.046875 26.875 -2.515625 C 21.019531 -5.078125 16.4375 -8.820312 13.125 -13.75 C 9.8125 -18.6875 8.15625 -24.695312 8.15625 -31.78125 L 8.15625 -93.796875 L 27.984375 -93.796875 L 27.984375 -32.46875 C 27.984375 -27.457031 29.789062 -23.515625 33.40625 -20.640625 C 37.03125 -17.773438 41.570312 -16.34375 47.03125 -16.34375 C 52.59375 -16.34375 57.179688 -17.773438 60.796875 -20.640625 C 64.410156 -23.515625 66.21875 -27.457031 66.21875 -32.46875 Z M 66.21875 -93.796875 "/></g></g></g><g fill="#ffffff" fill-opacity="1"><g transform="translate(2923.042808, 2059.690847)"><g><path d="M 27.984375 -93.796875 L 27.984375 0 L 8.15625 0 L 8.15625 -93.796875 Z M 27.984375 -93.796875 "/></g></g></g><g fill="#ffffff" fill-opacity="1"><g transform="translate(2959.22442, 2059.690847)"><g><path d="M 7.140625 0 L 7.140625 -11.765625 L 53.953125 -77.453125 L 7.046875 -77.453125 L 7.046875 -93.796875 L 78.859375 -93.796875 L 78.859375 -82.03125 L 32.015625 -16.34375 L 78.953125 -16.34375 L 78.953125 0 Z M 7.140625 0 "/></g></g></g></svg>