<svg xmlns="http://www.w3.org/2000/svg" xmlns:xlink="http://www.w3.org/1999/xlink" width="6000" zoomAndPan="magnify" viewBox="0 0 4500 2699.999998" height="3600" preserveAspectRatio="xMidYMid meet" version="1.0"><defs><filter x="0%" y="0%" width="100%" height="100%" id="93c2dfadbf"><feColorMatrix values="0 0 0 0 1 0 0 0 0 1 0 0 0 0 1 0 0 0 1 0" color-interpolation-filters="sRGB"/></filter><g/><clipPath id="1062ef609d"><path d="M 20.808594 83.65625 L 4480 83.65625 L 4480 2616.34375 L 20.808594 2616.34375 Z M 20.808594 83.65625 " clip-rule="nonzero"/></clipPath><clipPath id="54c3b409c1"><path d="M 58.308594 83.65625 L 4441.6875 83.65625 C 4462.398438 83.65625 4479.1875 100.445312 4479.1875 121.15625 L 4479.1875 2578.84375 C 4479.1875 2599.554688 4462.398438 2616.34375 4441.6875 2616.34375 L 58.308594 2616.34375 C 37.601562 2616.34375 20.808594 2599.554688 20.808594 2578.84375 L 20.808594 121.15625 C 20.808594 100.445312 37.601562 83.65625 58.308594 83.65625 Z M 58.308594 83.65625 " clip-rule="nonzero"/></clipPath><clipPath id="eeeadd2dbb"><path d="M 20.8125 83.65625 L 4480 83.65625 L 4480 2616.078125 L 20.8125 2616.078125 Z M 20.8125 83.65625 " clip-rule="nonzero"/></clipPath><clipPath id="c654dd3804"><path d="M 58.3125 83.65625 L 4441.65625 83.65625 C 4462.367188 83.65625 4479.15625 100.445312 4479.15625 121.15625 L 4479.15625 2578.824219 C 4479.15625 2599.535156 4462.367188 2616.324219 4441.65625 2616.324219 L 58.3125 2616.324219 C 37.601562 2616.324219 20.8125 2599.535156 20.8125 2578.824219 L 20.8125 121.15625 C 20.8125 100.445312 37.601562 83.65625 58.3125 83.65625 Z M 58.3125 83.65625 " clip-rule="nonzero"/></clipPath><clipPath id="c389c5d967"><path d="M 1988.308594 1900.082031 L 2212.222656 1900.082031 L 2212.222656 2123.992188 L 1988.308594 2123.992188 Z M 1988.308594 1900.082031 " clip-rule="nonzero"/></clipPath><clipPath id="a5e76da64b"><path d="M 4082 310.613281 L 4223 310.613281 L 4223 509.296875 L 4082 509.296875 Z M 4082 310.613281 " clip-rule="nonzero"/></clipPath><clipPath id="f9451b9ed7"><path d="M 3491 1811 L 3611 1811 L 3611 1933 L 3491 1933 Z M 3491 1811 " clip-rule="nonzero"/></clipPath><clipPath id="1c7bb028df"><path d="M 3492.179688 1780.527344 L 3636.953125 1812.320312 L 3605.160156 1957.09375 L 3460.386719 1925.300781 Z M 3492.179688 1780.527344 " clip-rule="nonzero"/></clipPath><clipPath id="45ac87b4e3"><path d="M 3492.179688 1780.527344 L 3636.953125 1812.320312 L 3605.160156 1957.09375 L 3460.386719 1925.300781 Z M 3492.179688 1780.527344 " clip-rule="nonzero"/></clipPath><clipPath id="82d9763e52"><path d="M 3492.179688 1780.527344 L 3636.953125 1812.320312 L 3605.160156 1957.09375 L 3460.386719 1925.300781 Z M 3492.179688 1780.527344 " clip-rule="nonzero"/></clipPath><clipPath id="664db76e41"><path d="M 819 420 L 942 420 L 942 539 L 819 539 Z M 819 420 " clip-rule="nonzero"/></clipPath><clipPath id="8202f72be0"><path d="M 804.378906 407.503906 L 952.539062 403.164062 L 956.878906 551.324219 L 808.71875 555.664062 Z M 804.378906 407.503906 " clip-rule="nonzero"/></clipPath><clipPath id="699eb3e5c8"><path d="M 804.378906 407.503906 L 952.539062 403.164062 L 956.878906 551.324219 L 808.71875 555.664062 Z M 804.378906 407.503906 " clip-rule="nonzero"/></clipPath><clipPath id="a5943a7242"><path d="M 804.378906 407.503906 L 952.539062 403.164062 L 956.878906 551.324219 L 808.71875 555.664062 Z M 804.378906 407.503906 " clip-rule="nonzero"/></clipPath><clipPath id="3ffe5aa129"><path d="M 1291 2011 L 1414 2011 L 1414 2129 L 1291 2129 Z M 1291 2011 " clip-rule="nonzero"/></clipPath><clipPath id="d16e70ca86"><path d="M 1276.347656 1997.855469 L 1424.507812 1993.515625 L 1428.847656 2141.675781 L 1280.6875 2146.015625 Z M 1276.347656 1997.855469 " clip-rule="nonzero"/></clipPath><clipPath id="91c2e79fa1"><path d="M 1276.347656 1997.855469 L 1424.507812 1993.515625 L 1428.847656 2141.675781 L 1280.6875 2146.015625 Z M 1276.347656 1997.855469 " clip-rule="nonzero"/></clipPath><clipPath id="2e59ea4120"><path d="M 1276.347656 1997.855469 L 1424.507812 1993.515625 L 1428.847656 2141.675781 L 1280.6875 2146.015625 Z M 1276.347656 1997.855469 " clip-rule="nonzero"/></clipPath><clipPath id="a2a5cf009c"><path d="M 1780 1688 L 1890.097656 1688 L 1890.097656 1825 L 1780 1825 Z M 1780 1688 " clip-rule="nonzero"/></clipPath><mask id="bfc07b2344"><g filter="url(#93c2dfadbf)"><rect x="-450" width="5400" fill="#000000" y="-270" height="3239.999997" fill-opacity="0.5"/></g></mask><clipPath id="ebc85c2422"><path d="M 0.558594 0.160156 L 109 0.160156 L 109 94 L 0.558594 94 Z M 0.558594 0.160156 " clip-rule="nonzero"/></clipPath><clipPath id="920e2d54e6"><path d="M 0.558594 16 L 110.097656 16 L 110.097656 131 L 0.558594 131 Z M 0.558594 16 " clip-rule="nonzero"/></clipPath><clipPath id="f43798115b"><path d="M 0.558594 45 L 110.097656 45 L 110.097656 136.960938 L 0.558594 136.960938 Z M 0.558594 45 " clip-rule="nonzero"/></clipPath><clipPath id="70d695e125"><rect x="0" width="111" y="0" height="137"/></clipPath><clipPath id="b4caa16e3f"><path d="M 1726.105469 1674.507812 L 1858 1674.507812 L 1858 1832 L 1726.105469 1832 Z M 1726.105469 1674.507812 " clip-rule="nonzero"/></clipPath><clipPath id="8776a441dd"><path d="M 2276 410 L 2385.96875 410 L 2385.96875 548 L 2276 548 Z M 2276 410 " clip-rule="nonzero"/></clipPath><mask id="68646e5e0e"><g filter="url(#93c2dfadbf)"><rect x="-450" width="5400" fill="#000000" y="-270" height="3239.999997" fill-opacity="0.5"/></g></mask><clipPath id="ba039703c8"><path d="M 0.398438 0.878906 L 109 0.878906 L 109 95 L 0.398438 95 Z M 0.398438 0.878906 " clip-rule="nonzero"/></clipPath><clipPath id="4b1ee7405c"><path d="M 0.398438 16 L 109.96875 16 L 109.96875 132 L 0.398438 132 Z M 0.398438 16 " clip-rule="nonzero"/></clipPath><clipPath id="b4ab1da052"><path d="M 0.398438 46 L 109.96875 46 L 109.96875 137.679688 L 0.398438 137.679688 Z M 0.398438 46 " clip-rule="nonzero"/></clipPath><clipPath id="733dd8ddbe"><rect x="0" width="110" y="0" height="138"/></clipPath><clipPath id="83aa1906d0"><path d="M 2221.976562 397.328125 L 2354 397.328125 L 2354 555 L 2221.976562 555 Z M 2221.976562 397.328125 " clip-rule="nonzero"/></clipPath><clipPath id="47b078292c"><path d="M 4207 1354 L 4316.714844 1354 L 4316.714844 1491 L 4207 1491 Z M 4207 1354 " clip-rule="nonzero"/></clipPath><mask id="e0aa440b20"><g filter="url(#93c2dfadbf)"><rect x="-450" width="5400" fill="#000000" y="-270" height="3239.999997" fill-opacity="0.5"/></g></mask><clipPath id="99327361af"><path d="M 0.199219 0.078125 L 109 0.078125 L 109 94 L 0.199219 94 Z M 0.199219 0.078125 " clip-rule="nonzero"/></clipPath><clipPath id="34f6ad7b39"><path d="M 0.199219 16 L 109.714844 16 L 109.714844 131 L 0.199219 131 Z M 0.199219 16 " clip-rule="nonzero"/></clipPath><clipPath id="87517b7cb9"><path d="M 0.199219 45 L 109.714844 45 L 109.714844 136.878906 L 0.199219 136.878906 Z M 0.199219 45 " clip-rule="nonzero"/></clipPath><clipPath id="a8d82bf8a9"><rect x="0" width="110" y="0" height="137"/></clipPath><clipPath id="aa9795256d"><path d="M 4152.722656 1340.433594 L 4284 1340.433594 L 4284 1498 L 4152.722656 1498 Z M 4152.722656 1340.433594 " clip-rule="nonzero"/></clipPath><clipPath id="aed6bc3c75"><path d="M 25.039062 1368.632812 L 1267.597656 1368.632812 L 1267.597656 2611.195312 L 25.039062 2611.195312 Z M 25.039062 1368.632812 " clip-rule="nonzero"/></clipPath><clipPath id="734f6dda06"><path d="M 3231.460938 87.847656 L 4474.019531 87.847656 L 4474.019531 1330.40625 L 3231.460938 1330.40625 Z M 3231.460938 87.847656 " clip-rule="nonzero"/></clipPath><clipPath id="fbd4180558"><path d="M 1159 1044 L 1809.460938 1044 L 1809.460938 1705.527344 L 1159 1705.527344 Z M 1159 1044 " clip-rule="nonzero"/></clipPath></defs><g clip-path="url(#1062ef609d)"><g clip-path="url(#54c3b409c1)"><path fill="#2682ff" d="M 20.808594 83.65625 L 4482.699219 83.65625 L 4482.699219 2616.34375 L 20.808594 2616.34375 Z M 20.808594 83.65625 " fill-opacity="1" fill-rule="nonzero"/></g></g><g clip-path="url(#eeeadd2dbb)"><g clip-path="url(#c654dd3804)"><path stroke-linecap="butt" transform="matrix(3.153702, 0, 0, 3.153702, 20.814019, 83.654628)" fill="none" stroke-linejoin="miter" d="M 11.890306 0.000514178 L 1401.794521 0.000514178 C 1408.361703 0.000514178 1413.685308 5.324119 1413.685308 11.891301 L 1413.685308 791.187488 C 1413.685308 797.754671 1408.361703 803.078275 1401.794521 803.078275 L 11.890306 803.078275 C 5.323123 803.078275 -0.000481719 797.754671 -0.000481719 791.187488 L -0.000481719 11.891301 C -0.000481719 5.324119 5.323123 0.000514178 11.890306 0.000514178 Z M 11.890306 0.000514178 " stroke="#b1aeb7" stroke-width="0.475631" stroke-opacity="1" stroke-miterlimit="4"/></g></g><g clip-path="url(#c389c5d967)"><path fill="#ffffff" d="M 2100.265625 1900.082031 C 2038.4375 1900.082031 1988.308594 1950.210938 1988.308594 2012.039062 C 1988.308594 2073.863281 2038.4375 2123.992188 2100.265625 2123.992188 C 2162.089844 2123.992188 2212.21875 2073.863281 2212.21875 2012.039062 C 2212.21875 1950.210938 2162.089844 1900.082031 2100.265625 1900.082031 Z M 2141.835938 2013.304688 L 2078.863281 2050.890625 C 2078.410156 2051.164062 2077.835938 2051.179688 2077.371094 2050.90625 C 2076.921875 2050.644531 2076.636719 2050.160156 2076.636719 2049.621094 L 2076.636719 1974.445312 C 2076.636719 1973.914062 2076.921875 1973.421875 2077.371094 1973.160156 C 2077.835938 1972.894531 2078.410156 1972.910156 2078.863281 1973.175781 L 2141.835938 2010.769531 C 2142.289062 2011.027344 2142.554688 2011.519531 2142.554688 2012.03125 C 2142.554688 2012.554688 2142.289062 2013.042969 2141.835938 2013.304688 Z M 2141.835938 2013.304688 " fill-opacity="1" fill-rule="nonzero"/></g><g clip-path="url(#a5e76da64b)"><path fill="#ffffff" d="M 4092.089844 510.625 L 4213.308594 510.625 C 4218.328125 510.625 4222.402344 506.554688 4222.402344 501.535156 L 4222.402344 398.496094 C 4222.402344 393.476562 4218.328125 389.40625 4213.308594 389.40625 L 4204.21875 389.40625 L 4204.21875 362.128906 C 4204.21875 333.722656 4181.105469 310.613281 4152.699219 310.613281 C 4124.292969 310.613281 4101.179688 333.722656 4101.179688 362.128906 L 4101.179688 389.40625 L 4092.089844 389.40625 C 4087.066406 389.40625 4082.996094 393.476562 4082.996094 398.496094 L 4082.996094 501.535156 C 4082.996094 506.554688 4087.066406 510.625 4092.089844 510.625 Z M 4161.789062 453.039062 L 4161.789062 465.167969 C 4161.789062 470.1875 4157.71875 474.257812 4152.699219 474.257812 C 4147.679688 474.257812 4143.605469 470.1875 4143.605469 465.167969 L 4143.605469 453.039062 C 4139.929688 450.269531 4137.546875 445.871094 4137.546875 440.925781 C 4137.546875 432.570312 4144.34375 425.773438 4152.699219 425.773438 C 4161.054688 425.773438 4167.851562 432.570312 4167.851562 440.925781 C 4167.851562 445.871094 4165.46875 450.269531 4161.789062 453.039062 Z M 4119.363281 362.128906 C 4119.363281 343.75 4134.316406 328.796875 4152.699219 328.796875 C 4171.078125 328.796875 4186.035156 343.75 4186.035156 362.128906 L 4186.035156 389.40625 L 4119.363281 389.40625 Z M 4119.363281 362.128906 " fill-opacity="1" fill-rule="nonzero"/></g><g clip-path="url(#f9451b9ed7)"><g clip-path="url(#1c7bb028df)"><g clip-path="url(#45ac87b4e3)"><g clip-path="url(#82d9763e52)"><path stroke-linecap="round" transform="matrix(6.03225, 1.324742, -1.324742, 6.03225, 3492.178917, 1780.5258)" fill="none" stroke-linejoin="round" d="M 11.268933 4.411002 C 11.500733 3.89191 11.616565 3.632055 11.777707 3.551985 C 11.917831 3.482359 12.081724 3.48263 12.221981 3.5522 C 12.383275 3.632044 12.499185 3.891516 12.730524 4.411213 L 14.574771 8.548191 C 14.642787 8.70162 14.677103 8.778266 14.730192 8.837192 C 14.777194 8.889036 14.834305 8.930889 14.89824 8.959587 C 14.970674 8.991599 15.054211 9.000451 15.221284 9.018155 L 19.725756 9.493064 C 20.29124 9.552785 20.573674 9.582714 20.699788 9.711727 C 20.809071 9.823068 20.859653 9.979678 20.837246 10.134186 C 20.810939 10.312214 20.599511 10.502404 20.177407 10.883267 L 16.812207 13.915312 C 16.688028 14.028061 16.625186 14.083953 16.585911 14.152802 C 16.550703 14.213634 16.528514 14.280672 16.521755 14.350151 C 16.513189 14.429092 16.530615 14.51139 16.565467 14.675988 L 17.505342 19.106118 C 17.623119 19.663058 17.68218 19.940843 17.598705 20.100343 C 17.526121 20.238672 17.393202 20.335209 17.238985 20.361306 C 17.061776 20.391804 16.81557 20.249663 16.323158 19.965379 L 12.399338 17.702607 C 12.253971 17.618618 12.18122 17.576314 12.103875 17.560274 C 12.03524 17.54556 11.964647 17.545521 11.89594 17.559962 C 11.818583 17.576303 11.745553 17.618243 11.600247 17.702607 L 7.676955 19.965523 C 7.184294 20.249205 6.937723 20.391422 6.760252 20.361755 C 6.606166 20.335371 6.472973 20.238995 6.401011 20.100031 C 6.317506 19.940938 6.376169 19.662555 6.494248 19.106271 L 7.434171 14.675814 C 7.469294 14.511391 7.486238 14.429315 7.477928 14.350195 C 7.471036 14.280477 7.449181 14.213397 7.413796 14.152527 C 7.374177 14.084168 7.311956 14.027895 7.186898 13.915486 L 3.822534 10.882939 C 3.400269 10.502305 3.188895 10.312365 3.162721 10.134206 C 3.139713 9.979311 3.190868 9.823023 3.299813 9.711677 C 3.425678 9.583017 3.708603 9.553262 4.274318 9.493133 L 8.778686 9.018093 C 8.945711 9.000192 9.029291 8.99155 9.101267 8.959555 C 9.165483 8.930558 9.222526 8.889538 9.269307 8.837173 C 9.322415 8.778238 9.356702 8.701419 9.425276 8.547782 Z M 11.268933 4.411002 " stroke="#ffffff" stroke-width="2" stroke-opacity="1" stroke-miterlimit="4"/></g></g></g></g><g clip-path="url(#664db76e41)"><g clip-path="url(#8202f72be0)"><g clip-path="url(#699eb3e5c8)"><g clip-path="url(#a5943a7242)"><path stroke-linecap="round" transform="matrix(6.173352, -0.180834, 0.180834, 6.173352, 804.37696, 407.502275)" fill="none" stroke-linejoin="round" d="M 11.26901 4.411032 C 11.500618 3.891993 11.616431 3.632157 11.777599 3.552089 C 11.917571 3.482789 12.082096 3.482546 12.221805 3.551813 C 12.383345 3.631843 12.499127 3.891502 12.730673 4.411453 L 14.574222 8.548023 C 14.643114 8.701903 14.676947 8.778193 14.730265 8.837336 C 14.776832 8.889321 14.834461 8.930873 14.89817 8.959315 C 14.970618 8.991809 15.053885 9.000576 15.221053 9.018128 L 19.725662 9.493669 C 20.290869 9.553253 20.574105 9.583063 20.699429 9.711388 C 20.808779 9.823426 20.859895 9.979317 20.837005 10.134305 C 20.81092 10.311979 20.599689 10.50258 20.177247 10.88315 L 16.812624 13.915487 C 16.687849 14.027627 16.625453 14.084014 16.585482 14.152446 C 16.550792 14.213441 16.52858 14.280495 16.521466 14.350523 C 16.51348 14.428752 16.530671 14.511514 16.565723 14.675793 L 17.505295 19.106692 C 17.623157 19.662544 17.682079 19.940786 17.598944 20.100337 C 17.526553 20.238689 17.393371 20.335397 17.239486 20.361262 C 17.06206 20.391499 16.815647 20.249503 16.32282 19.965511 L 12.399561 17.702369 C 12.253956 17.618376 12.181153 17.576379 12.103798 17.560193 C 12.035256 17.54553 11.964393 17.545352 11.895632 17.55979 C 11.818578 17.576515 11.745841 17.618678 11.600385 17.702371 L 7.676792 19.96535 C 7.183772 20.249571 6.937895 20.3917 6.76035 20.361189 C 6.606086 20.335156 6.473496 20.23889 6.400998 20.10009 C 6.31708 19.940707 6.376475 19.662767 6.494652 19.106236 L 7.434359 14.675969 C 7.468925 14.511198 7.486524 14.428822 7.478073 14.350112 C 7.470608 14.280923 7.449179 14.213222 7.414251 14.15272 C 7.374488 14.084483 7.312245 14.027609 7.18709 13.915108 L 3.822303 10.88307 C 3.400012 10.502433 3.188551 10.312106 3.162757 10.134178 C 3.140072 9.979753 3.190854 9.82305 3.299786 9.711711 C 3.425675 9.583152 3.708773 9.552847 4.274302 9.493481 L 8.778295 9.017965 C 8.945235 9.000076 9.029003 8.991773 9.101462 8.959094 C 9.165573 8.930599 9.222467 8.889238 9.269542 8.837465 C 9.32253 8.778272 9.356419 8.701436 9.424828 8.547781 Z M 11.26901 4.411032 " stroke="#ffffff" stroke-width="2" stroke-opacity="1" stroke-miterlimit="4"/></g></g></g></g><g clip-path="url(#3ffe5aa129)"><g clip-path="url(#d16e70ca86)"><g clip-path="url(#91c2e79fa1)"><g clip-path="url(#2e59ea4120)"><path stroke-linecap="round" transform="matrix(6.173352, -0.180834, 0.180834, 6.173352, 1276.346204, 1997.855631)" fill="none" stroke-linejoin="round" d="M 11.26892 4.411372 C 11.500546 3.8917 11.61636 3.631865 11.777528 3.551796 C 11.917499 3.482496 12.082006 3.482885 12.221715 3.552152 C 12.383255 3.632182 12.499037 3.891842 12.730602 4.411161 L 14.574764 8.548381 C 14.643043 8.701611 14.677489 8.778551 14.730193 8.837043 C 14.77676 8.889028 14.83439 8.93058 14.898098 8.959022 C 14.970546 8.991517 15.053814 9.000283 15.221613 9.017854 L 19.72559 9.493376 C 20.290798 9.55296 20.574034 9.582771 20.699972 9.711746 C 20.808707 9.823133 20.859805 9.979656 20.836934 10.134012 C 20.81083 10.312319 20.599618 10.502287 20.177158 10.883489 L 16.812553 13.915195 C 16.687759 14.027967 16.625363 14.084353 16.585392 14.152786 C 16.550721 14.213148 16.52849 14.280835 16.521395 14.350231 C 16.51339 14.429091 16.5306 14.511221 16.565651 14.6755 L 17.505223 19.106399 C 17.623067 19.662883 17.682008 19.940493 17.598872 20.100045 C 17.526463 20.239029 17.3933 20.335104 17.239396 20.361601 C 17.061989 20.391206 16.815575 20.24921 16.322748 19.965219 L 12.399471 17.702708 C 12.253866 17.618715 12.181063 17.576719 12.103726 17.5599 C 12.035185 17.545237 11.964303 17.545692 11.896174 17.560148 C 11.818506 17.576223 11.745769 17.618385 11.600295 17.70271 L 7.676702 19.96569 C 7.184333 20.249297 6.937823 20.391408 6.76026 20.361529 C 6.605997 20.335496 6.473424 20.238597 6.400908 20.100429 C 6.317622 19.941065 6.376404 19.662474 6.494562 19.106576 L 7.434287 14.675676 C 7.468853 14.510905 7.486434 14.429162 7.477983 14.350452 C 7.470537 14.28063 7.449089 14.213562 7.41418 14.152427 C 7.374417 14.08419 7.312155 14.027949 7.187001 13.915448 L 3.822213 10.883409 C 3.399922 10.502773 3.189093 10.312464 3.162667 10.134517 C 3.140001 9.97946 3.190764 9.82339 3.299715 9.711419 C 3.425603 9.58286 3.708684 9.553186 4.27423 9.493188 L 8.778224 9.017673 C 8.945778 9.000434 9.028931 8.99148 9.101372 8.959433 C 9.165483 8.930939 9.222396 8.888945 9.269471 8.837173 C 9.32244 8.778612 9.356329 8.701775 9.425371 8.548139 Z M 11.26892 4.411372 " stroke="#ffffff" stroke-width="2" stroke-opacity="1" stroke-miterlimit="4"/></g></g></g></g><g clip-path="url(#a2a5cf009c)"><g mask="url(#bfc07b2344)"><g transform="matrix(1, 0, 0, 1, 1780, 1688)"><g clip-path="url(#70d695e125)"><path fill="#ffffff" d="M 20.703125 31.433594 C 19.640625 26.867188 18.742188 22.996094 17.765625 19.960938 L 63.09375 33.109375 C 63.394531 33.195312 64.171875 33.539062 65.25 36.363281 C 66.300781 39.121094 67.253906 43.179688 68.625 49.0625 L 69.441406 52.589844 C 69.625 53.371094 69.796875 54.121094 69.980469 54.828125 L 28.902344 43.453125 L 26.828125 42.269531 C 23.890625 40.597656 23.351562 40.210938 22.972656 39.679688 C 22.550781 39.089844 22.292969 38.269531 21.460938 34.691406 Z M 20.703125 31.433594 " fill-opacity="1" fill-rule="nonzero"/><g clip-path="url(#ebc85c2422)"><path stroke-linecap="butt" transform="matrix(6.833022, 0, 0, 6.833022, -53.894291, -13.490909)" fill="none" stroke-linejoin="miter" d="M 10.917192 6.574617 C 10.761698 5.906332 10.630213 5.339805 10.487295 4.895615 L 17.120981 6.819864 C 17.165 6.832441 17.278763 6.882748 17.436544 7.296068 C 17.590324 7.699668 17.729812 8.293636 17.930469 9.154575 L 18.049949 9.670795 C 18.076817 9.785129 18.101971 9.89489 18.12884 9.998363 L 12.117133 8.333653 L 11.813575 8.160436 C 11.383677 7.91576 11.304786 7.859165 11.249334 7.781417 C 11.187593 7.695095 11.149863 7.575044 11.028097 7.051392 Z M 10.917192 6.574617 " stroke="#ffffff" stroke-width="1" stroke-opacity="1" stroke-miterlimit="4"/></g><path fill="#ffffff" d="M 44.109375 54.753906 L 78.324219 64.230469 L 80.398438 65.410156 C 85.226562 68.164062 88.480469 70.027344 90.601562 71.726562 C 92.632812 73.351562 92.980469 74.324219 93.011719 75.152344 C 93.042969 76.019531 92.726562 77.113281 90.773438 79.070312 C 88.765625 81.082031 85.640625 83.417969 81.046875 86.828125 L 78.320312 88.855469 C 77.035156 89.808594 75.867188 90.675781 74.886719 91.640625 L 28.386719 78.152344 L 30.839844 76.332031 C 35.148438 73.132812 38.691406 70.5 41.101562 68.082031 C 43.613281 65.566406 45.460938 62.730469 45.328125 59.085938 C 45.269531 57.453125 44.824219 56.027344 44.109375 54.753906 Z M 44.109375 54.753906 " fill-opacity="1" fill-rule="nonzero"/><g clip-path="url(#920e2d54e6)"><path stroke-linecap="butt" transform="matrix(6.833022, 0, 0, 6.833022, -53.894291, -13.490909)" fill="none" stroke-linejoin="miter" d="M 14.342653 9.987501 L 19.349932 11.374378 L 19.65349 11.547023 C 20.360077 11.950053 20.83628 12.22274 21.146698 12.471418 C 21.443968 12.709233 21.494847 12.85158 21.49942 12.972774 C 21.503993 13.099686 21.457688 13.259754 21.171852 13.546162 C 20.878012 13.840573 20.420674 14.182433 19.748388 14.681503 L 19.34936 14.978201 C 19.16128 15.117689 18.99035 15.244601 18.84686 15.385804 L 12.041672 13.411819 L 12.400682 13.14542 C 13.031237 12.67722 13.549744 12.291913 13.902466 11.938047 C 14.270051 11.56989 14.540452 11.154856 14.521015 10.621486 C 14.51244 10.382527 14.447269 10.173866 14.342653 9.987501 Z M 14.342653 9.987501 " stroke="#ffffff" stroke-width="1" stroke-opacity="1" stroke-miterlimit="4"/></g><path fill="#ffffff" d="M 23.824219 83.945312 L 71.742188 97.84375 C 71.542969 98.808594 71.382812 99.847656 71.210938 100.96875 L 70.65625 104.570312 C 70.128906 107.992188 69.351562 111.039062 68.527344 113.621094 C 67.070312 118.167969 66.699219 118.800781 65.605469 119.429688 C 65.132812 119.699219 64.691406 119.816406 63.765625 119.714844 C 62.632812 119.585938 61.175781 119.175781 58.695312 118.457031 L 19.101562 106.972656 C 19.578125 105.96875 19.953125 104.898438 20.273438 103.808594 C 21.265625 100.410156 21.980469 95.773438 22.859375 90.058594 L 23.371094 86.722656 C 23.554688 85.535156 23.699219 84.640625 23.824219 83.945312 Z M 23.824219 83.945312 " fill-opacity="1" fill-rule="nonzero"/><g clip-path="url(#f43798115b)"><path stroke-linecap="butt" transform="matrix(6.833022, 0, 0, 6.833022, -53.894291, -13.490909)" fill="none" stroke-linejoin="miter" d="M 11.373959 14.259609 L 18.386664 16.293619 C 18.357509 16.434822 18.33407 16.586887 18.308916 16.750957 L 18.227739 17.278039 C 18.150563 17.778824 18.0368 18.224729 17.916178 18.602604 C 17.702944 19.268031 17.648635 19.360642 17.488567 19.452681 C 17.419394 19.492126 17.354795 19.509277 17.219309 19.494413 C 17.053524 19.475548 16.84029 19.415522 16.477278 19.310335 L 10.682807 17.629618 C 10.752551 17.482698 10.807431 17.32606 10.854308 17.166563 C 10.999513 16.669208 11.104129 15.990633 11.232756 15.154276 L 11.307645 14.666068 C 11.334513 14.49228 11.355665 14.361367 11.373959 14.259609 Z M 11.373959 14.259609 " stroke="#ffffff" stroke-width="1" stroke-opacity="1" stroke-miterlimit="4"/></g></g></g></g></g><path fill="#ffffff" d="M 1776.707031 1716.003906 C 1780.621094 1711.640625 1783.296875 1708.664062 1785.460938 1706.867188 C 1787.648438 1705.042969 1788.363281 1705.230469 1788.585938 1705.296875 C 1788.882812 1705.382812 1789.664062 1705.726562 1790.738281 1708.550781 C 1791.792969 1711.308594 1792.746094 1715.367188 1794.113281 1721.25 L 1794.933594 1724.773438 C 1795.570312 1727.527344 1796.101562 1729.816406 1797.417969 1731.660156 C 1798.78125 1733.558594 1800.757812 1734.679688 1803.011719 1735.957031 L 1803.445312 1736.207031 L 1805.890625 1737.597656 C 1810.71875 1740.347656 1813.972656 1742.214844 1816.09375 1743.914062 C 1818.121094 1745.539062 1818.472656 1746.511719 1818.503906 1747.335938 C 1818.535156 1748.207031 1818.21875 1749.300781 1816.265625 1751.257812 C 1814.257812 1753.269531 1811.132812 1755.605469 1806.539062 1759.015625 L 1803.8125 1761.042969 C 1801.644531 1762.648438 1799.820312 1764 1798.644531 1766.019531 C 1797.492188 1767.992188 1797.140625 1770.300781 1796.703125 1773.15625 L 1796.148438 1776.753906 C 1795.21875 1782.796875 1794.566406 1786.980469 1793.714844 1789.890625 C 1793.238281 1791.527344 1792.78125 1792.441406 1792.398438 1792.960938 C 1791.660156 1792.6875 1790.671875 1792.285156 1789.507812 1791.726562 C 1786.738281 1790.402344 1782.988281 1788.203125 1779.148438 1784.75 L 1777.011719 1782.828125 L 1776.917969 1782.746094 C 1775.824219 1781.761719 1774.855469 1780.886719 1773.976562 1780.222656 C 1773.023438 1779.5 1771.996094 1778.875 1770.742188 1778.511719 C 1768.523438 1777.867188 1766.238281 1778.296875 1763.773438 1778.757812 L 1763.242188 1778.859375 L 1760.503906 1779.367188 C 1755.085938 1780.371094 1751.457031 1781.03125 1748.851562 1781.082031 C 1746.351562 1781.128906 1745.824219 1780.589844 1745.542969 1780.195312 C 1745.152344 1779.648438 1744.785156 1778.585938 1745.394531 1775.59375 C 1746.003906 1772.613281 1747.371094 1768.640625 1749.355469 1762.902344 L 1750.53125 1759.503906 C 1751.480469 1756.773438 1752.238281 1754.589844 1752.152344 1752.28125 C 1752.066406 1749.960938 1751.140625 1747.867188 1749.996094 1745.28125 L 1748.578125 1742.070312 C 1746.183594 1736.640625 1744.539062 1732.894531 1743.722656 1730.03125 C 1742.910156 1727.199219 1743.164062 1726.050781 1743.570312 1725.351562 C 1743.90625 1724.773438 1744.519531 1724.15625 1746.984375 1723.851562 C 1749.582031 1723.53125 1753.238281 1723.671875 1758.699219 1723.90625 L 1761.457031 1724.023438 L 1761.980469 1724.046875 C 1764.484375 1724.15625 1766.78125 1724.261719 1768.910156 1723.320312 C 1770.984375 1722.402344 1772.550781 1720.648438 1774.347656 1718.636719 L 1774.722656 1718.21875 Z M 1776.707031 1716.003906 " fill-opacity="1" fill-rule="nonzero"/><g clip-path="url(#b4caa16e3f)"><path stroke-linecap="butt" transform="matrix(6.833022, 0, 0, 6.833022, 1726.105705, 1674.509093)" fill="none" stroke-linejoin="miter" d="M 7.40541 6.072688 C 7.978225 5.43413 8.369821 4.998516 8.686527 4.735547 C 9.006664 4.468576 9.11128 4.496016 9.143865 4.505734 C 9.187312 4.518311 9.301647 4.568618 9.458857 4.981938 C 9.613208 5.385538 9.752696 5.979506 9.952782 6.840444 L 10.072833 7.356093 C 10.166016 7.759122 10.243763 8.094122 10.436417 8.363951 C 10.63593 8.641784 10.925197 8.805854 11.255052 8.992791 L 11.318507 9.029378 L 11.676374 9.232893 C 12.382961 9.635351 12.859164 9.90861 13.169582 10.157288 C 13.46628 10.395103 13.517731 10.53745 13.522304 10.658073 C 13.526878 10.785556 13.480572 10.945624 13.194736 11.232032 C 12.900896 11.526443 12.443558 11.868303 11.771272 12.367373 L 11.372244 12.664071 C 11.054966 12.899028 10.787995 13.096827 10.615922 13.392382 C 10.447278 13.681076 10.395828 14.018935 10.331801 14.436827 L 10.250623 14.963338 C 10.114565 15.847715 10.019096 16.459976 9.894471 16.885872 C 9.824727 17.125402 9.757842 17.259174 9.701818 17.335206 C 9.593772 17.295189 9.449138 17.236307 9.27878 17.154558 C 8.873464 16.960761 8.324659 16.638909 7.762705 16.133551 L 7.45 15.852288 L 7.43628 15.840283 C 7.276212 15.696222 7.134437 15.568167 7.005811 15.470983 C 6.866323 15.365223 6.715973 15.273756 6.532466 15.22059 C 6.207756 15.126264 5.873328 15.189148 5.512602 15.256605 L 5.434855 15.271469 L 5.034113 15.345786 C 4.241203 15.492706 3.710119 15.589319 3.328814 15.596751 C 2.962943 15.603611 2.885768 15.52472 2.844607 15.466981 C 2.78744 15.386947 2.733703 15.231452 2.822884 14.793551 C 2.912065 14.357365 3.11215 13.775974 3.40256 12.936187 L 3.574633 12.438832 C 3.713549 12.039233 3.824454 11.719668 3.811877 11.38181 C 3.7993 11.042237 3.663814 10.73582 3.496314 10.357373 L 3.288797 9.887458 C 2.938362 9.092834 2.697688 8.5446 2.578208 8.125564 C 2.4593 7.711102 2.496459 7.54303 2.555913 7.4407 C 2.605077 7.356093 2.694829 7.265769 3.055554 7.221178 C 3.435717 7.174301 3.970802 7.194881 4.77 7.229182 L 5.173601 7.246332 L 5.250205 7.249762 C 5.616647 7.265769 5.95279 7.281204 6.264352 7.143431 C 6.56791 7.009088 6.79715 6.752407 7.06012 6.457996 L 7.115 6.396827 Z M 7.40541 6.072688 " stroke="#ffffff" stroke-width="1" stroke-opacity="1" stroke-miterlimit="4"/></g><g clip-path="url(#8776a441dd)"><g mask="url(#68646e5e0e)"><g transform="matrix(1, 0, 0, 1, 2276, 410)"><g clip-path="url(#733dd8ddbe)"><path fill="#ffffff" d="M 20.574219 32.25 C 19.511719 27.683594 18.613281 23.816406 17.636719 20.777344 L 62.964844 33.925781 C 63.261719 34.011719 64.042969 34.355469 65.117188 37.179688 C 66.171875 39.941406 67.125 43.996094 68.492188 49.882812 L 69.3125 53.40625 C 69.492188 54.191406 69.667969 54.9375 69.851562 55.648438 L 28.769531 44.269531 L 26.695312 43.085938 C 23.761719 41.417969 23.222656 41.027344 22.839844 40.496094 C 22.417969 39.90625 22.164062 39.085938 21.332031 35.511719 Z M 20.574219 32.25 " fill-opacity="1" fill-rule="nonzero"/><g clip-path="url(#ba039703c8)"><path stroke-linecap="butt" transform="matrix(6.833022, 0, 0, 6.833022, -54.025015, -12.673354)" fill="none" stroke-linejoin="miter" d="M 10.917459 6.574449 C 10.761964 5.906164 10.630479 5.340208 10.487561 4.895447 L 17.121247 6.819696 C 17.164694 6.832273 17.279029 6.88258 17.436239 7.2959 C 17.59059 7.700072 17.730078 8.293468 17.930164 9.154978 L 18.050215 9.670627 C 18.076512 9.785533 18.102237 9.894722 18.129106 9.998767 L 12.116827 8.333485 L 11.813269 8.160268 C 11.383943 7.916164 11.305052 7.858997 11.249029 7.781249 C 11.187288 7.694927 11.150129 7.574876 11.028363 7.051795 Z M 10.917459 6.574449 " stroke="#ffffff" stroke-width="1" stroke-opacity="1" stroke-miterlimit="4"/></g><path fill="#ffffff" d="M 43.976562 55.570312 L 78.195312 65.046875 L 80.269531 66.230469 C 85.097656 68.980469 88.351562 70.84375 90.472656 72.542969 C 92.5 74.171875 92.851562 75.140625 92.878906 75.96875 C 92.914062 76.835938 92.59375 77.929688 90.644531 79.886719 C 88.636719 81.902344 85.511719 84.234375 80.917969 87.648438 L 78.191406 89.671875 C 76.902344 90.628906 75.734375 91.492188 74.753906 92.460938 L 28.257812 78.972656 L 30.707031 77.152344 C 35.015625 73.949219 38.5625 71.316406 40.972656 68.898438 C 43.480469 66.382812 45.332031 63.546875 45.199219 59.90625 C 45.136719 58.269531 44.691406 56.84375 43.976562 55.570312 Z M 43.976562 55.570312 " fill-opacity="1" fill-rule="nonzero"/><g clip-path="url(#4b1ee7405c)"><path stroke-linecap="butt" transform="matrix(6.833022, 0, 0, 6.833022, -54.025015, -12.673354)" fill="none" stroke-linejoin="miter" d="M 14.342348 9.987333 L 19.350198 11.37421 L 19.653756 11.547427 C 20.360343 11.949885 20.836546 12.222572 21.146964 12.47125 C 21.443662 12.709637 21.495113 12.851412 21.499114 12.972606 C 21.50426 13.099518 21.457382 13.259586 21.172118 13.545994 C 20.878278 13.840977 20.42094 14.182265 19.748654 14.681907 L 19.349626 14.978033 C 19.160974 15.118093 18.990044 15.244432 18.846555 15.386207 L 12.041938 13.412222 L 12.400377 13.145823 C 13.030931 12.677052 13.55001 12.291745 13.902732 11.937879 C 14.269745 11.569722 14.540718 11.154688 14.521281 10.62189 C 14.512135 10.382359 14.446964 10.173698 14.342348 9.987333 Z M 14.342348 9.987333 " stroke="#ffffff" stroke-width="1" stroke-opacity="1" stroke-miterlimit="4"/></g><path fill="#ffffff" d="M 23.695312 84.761719 L 71.609375 98.660156 C 71.410156 99.628906 71.253906 100.664062 71.082031 101.789062 L 70.527344 105.386719 C 70 108.808594 69.222656 111.855469 68.394531 114.4375 C 66.941406 118.988281 66.566406 119.621094 65.472656 120.246094 C 65.003906 120.515625 64.5625 120.636719 63.636719 120.53125 C 62.5 120.402344 61.046875 119.992188 58.566406 119.273438 L 18.972656 107.789062 C 19.445312 106.785156 19.824219 105.714844 20.140625 104.625 C 21.132812 101.230469 21.847656 96.59375 22.726562 90.875 L 23.242188 87.539062 C 23.425781 86.355469 23.570312 85.457031 23.695312 84.761719 Z M 23.695312 84.761719 " fill-opacity="1" fill-rule="nonzero"/><g clip-path="url(#b4ab1da052)"><path stroke-linecap="butt" transform="matrix(6.833022, 0, 0, 6.833022, -54.025015, -12.673354)" fill="none" stroke-linejoin="miter" d="M 11.374225 14.259441 L 18.386358 16.293451 C 18.357203 16.435226 18.334336 16.586719 18.309183 16.751361 L 18.228005 17.277871 C 18.150829 17.778656 18.037066 18.224561 17.915872 18.602436 C 17.70321 19.268434 17.648329 19.361045 17.488261 19.452513 C 17.41966 19.491958 17.355061 19.50968 17.219575 19.494245 C 17.053218 19.47538 16.840556 19.415354 16.477544 19.310167 L 10.683073 17.62945 C 10.752245 17.48253 10.807697 17.325892 10.854003 17.166395 C 10.999208 16.669612 11.103824 15.991037 11.23245 15.154108 L 11.307911 14.6659 C 11.334779 14.492683 11.355931 14.361199 11.374225 14.259441 Z M 11.374225 14.259441 " stroke="#ffffff" stroke-width="1" stroke-opacity="1" stroke-miterlimit="4"/></g></g></g></g></g><path fill="#ffffff" d="M 2272.578125 438.820312 C 2276.488281 434.457031 2279.167969 431.484375 2281.328125 429.683594 C 2283.515625 427.863281 2284.230469 428.050781 2284.453125 428.113281 C 2284.753906 428.199219 2285.53125 428.542969 2286.609375 431.367188 C 2287.660156 434.125 2288.613281 438.183594 2289.984375 444.066406 L 2290.800781 447.59375 C 2291.441406 450.347656 2291.96875 452.632812 2293.289062 454.476562 C 2294.648438 456.375 2296.625 457.496094 2298.878906 458.777344 L 2299.316406 459.023438 L 2301.761719 460.417969 C 2306.589844 463.167969 2309.84375 465.03125 2311.960938 466.730469 C 2313.992188 468.355469 2314.339844 469.328125 2314.371094 470.15625 C 2314.402344 471.023438 2314.085938 472.117188 2312.136719 474.074219 C 2310.128906 476.085938 2307 478.421875 2302.410156 481.835938 L 2299.683594 483.859375 C 2297.511719 485.46875 2295.6875 486.820312 2294.511719 488.835938 C 2293.363281 490.808594 2293.007812 493.117188 2292.570312 495.976562 L 2292.015625 499.574219 C 2291.085938 505.613281 2290.433594 509.800781 2289.585938 512.707031 C 2289.105469 514.34375 2288.652344 515.257812 2288.269531 515.78125 C 2287.527344 515.503906 2286.542969 515.101562 2285.378906 514.546875 C 2282.609375 513.21875 2278.859375 511.023438 2275.015625 507.566406 L 2272.882812 505.644531 L 2272.789062 505.5625 C 2271.695312 504.578125 2270.722656 503.707031 2269.84375 503.039062 C 2268.894531 502.316406 2267.867188 501.691406 2266.613281 501.328125 C 2264.390625 500.683594 2262.105469 501.113281 2259.640625 501.574219 L 2259.109375 501.675781 L 2256.375 502.183594 C 2250.957031 503.1875 2247.328125 503.851562 2244.722656 503.898438 C 2242.222656 503.945312 2241.695312 503.40625 2241.414062 503.015625 C 2241.019531 502.464844 2240.652344 501.402344 2241.265625 498.410156 C 2241.871094 495.429688 2243.238281 491.457031 2245.222656 485.71875 L 2246.398438 482.320312 C 2247.347656 479.589844 2248.105469 477.40625 2248.023438 475.097656 C 2247.9375 472.777344 2247.011719 470.683594 2245.867188 468.101562 L 2244.449219 464.886719 C 2242.050781 459.457031 2240.410156 455.710938 2239.589844 452.847656 C 2238.78125 450.015625 2239.03125 448.867188 2239.4375 448.167969 C 2239.777344 447.589844 2240.390625 446.972656 2242.855469 446.667969 C 2245.449219 446.347656 2249.105469 446.492188 2254.570312 446.722656 L 2257.328125 446.839844 L 2257.847656 446.863281 C 2260.355469 446.976562 2262.652344 447.078125 2264.78125 446.136719 C 2266.855469 445.21875 2268.421875 443.464844 2270.21875 441.453125 L 2270.59375 441.035156 Z M 2272.578125 438.820312 " fill-opacity="1" fill-rule="nonzero"/><g clip-path="url(#83aa1906d0)"><path stroke-linecap="butt" transform="matrix(6.833022, 0, 0, 6.833022, 2221.974987, 397.326645)" fill="none" stroke-linejoin="miter" d="M 7.405675 6.072521 C 7.977919 5.433963 8.370086 4.99892 8.686221 4.735379 C 9.006357 4.46898 9.110973 4.49642 9.143559 4.505567 C 9.187578 4.518144 9.30134 4.568451 9.459122 4.98177 C 9.612902 5.385371 9.75239 5.979338 9.953047 6.840277 L 10.072526 7.356497 C 10.166281 7.759526 10.243456 8.093954 10.436682 8.363784 C 10.635624 8.641617 10.92489 8.805686 11.254745 8.993195 L 11.318772 9.02921 L 11.676639 9.233297 C 12.383226 9.635755 12.859429 9.908443 13.169276 10.15712 C 13.466545 10.394936 13.517424 10.537282 13.521998 10.658477 C 13.526571 10.785388 13.480266 10.945456 13.195001 11.231864 C 12.901161 11.526275 12.443252 11.868135 11.771537 12.367777 L 11.372509 12.663903 C 11.05466 12.899432 10.787689 13.097231 10.615615 13.392214 C 10.447543 13.680909 10.395521 14.018767 10.331494 14.437231 L 10.250316 14.963741 C 10.114258 15.847547 10.018789 16.46038 9.894736 16.885704 C 9.824421 17.125235 9.758107 17.259006 9.702083 17.33561 C 9.593465 17.295022 9.449403 17.236139 9.279045 17.154962 C 8.873729 16.960593 8.324924 16.639313 7.762398 16.133383 L 7.450265 15.85212 L 7.436545 15.840115 C 7.276477 15.696054 7.13413 15.568571 7.005504 15.470815 C 6.866588 15.365056 6.716238 15.273588 6.532731 15.220422 C 6.207449 15.126096 5.873021 15.18898 5.512296 15.256438 L 5.434548 15.271301 L 5.034378 15.345619 C 4.241468 15.492538 3.710384 15.589723 3.329079 15.596583 C 2.963209 15.603443 2.886033 15.524552 2.844872 15.467385 C 2.787133 15.386779 2.733396 15.231284 2.823149 14.793383 C 2.911758 14.357197 3.111843 13.775806 3.402253 12.93602 L 3.574326 12.438665 C 3.713243 12.039066 3.824147 11.719501 3.812142 11.381642 C 3.799565 11.042069 3.664079 10.735652 3.496579 10.357777 L 3.289062 9.887291 C 2.938055 9.092666 2.697953 8.544432 2.577901 8.125396 C 2.459565 7.710934 2.496152 7.542862 2.555606 7.440533 C 2.605342 7.355925 2.695094 7.265601 3.055819 7.221011 C 3.43541 7.174133 3.970495 7.195285 4.770265 7.229014 L 5.173866 7.246164 L 5.249898 7.249594 C 5.616912 7.266173 5.953055 7.281036 6.264617 7.143263 C 6.568175 7.00892 6.797415 6.752239 7.060385 6.457828 L 7.115265 6.396659 Z M 7.405675 6.072521 " stroke="#ffffff" stroke-width="1" stroke-opacity="1" stroke-miterlimit="4"/></g><g clip-path="url(#47b078292c)"><g mask="url(#e0aa440b20)"><g transform="matrix(1, 0, 0, 1, 4207, 1354)"><g clip-path="url(#a8d82bf8a9)"><path fill="#ffffff" d="M 20.320312 31.359375 C 19.257812 26.792969 18.355469 22.921875 17.378906 19.886719 L 62.707031 33.035156 C 63.007812 33.121094 63.789062 33.464844 64.863281 36.289062 C 65.917969 39.046875 66.867188 43.105469 68.238281 48.988281 L 69.058594 52.515625 C 69.238281 53.296875 69.414062 54.046875 69.597656 54.753906 L 28.515625 43.378906 L 26.441406 42.195312 C 23.507812 40.523438 22.96875 40.136719 22.585938 39.605469 C 22.164062 39.015625 21.910156 38.195312 21.078125 34.617188 Z M 20.320312 31.359375 " fill-opacity="1" fill-rule="nonzero"/><g clip-path="url(#99327361af)"><path stroke-linecap="butt" transform="matrix(6.833022, 0, 0, 6.833022, -54.279236, -13.56527)" fill="none" stroke-linejoin="miter" d="M 10.917505 6.574638 C 10.76201 5.906353 10.629953 5.339825 10.487035 4.895636 L 17.120722 6.819885 C 17.164741 6.832462 17.279075 6.882769 17.436285 7.296088 C 17.590636 7.699689 17.729553 8.293657 17.93021 9.154595 L 18.050261 9.670816 C 18.076558 9.78515 18.102283 9.894911 18.129152 9.998384 L 12.116873 8.333674 L 11.813315 8.160457 C 11.383989 7.915781 11.305099 7.859186 11.249075 7.781438 C 11.187334 7.695116 11.150175 7.575065 11.028409 7.051413 Z M 10.917505 6.574638 " stroke="#ffffff" stroke-width="1" stroke-opacity="1" stroke-miterlimit="4"/></g><path fill="#ffffff" d="M 43.722656 54.679688 L 77.941406 64.15625 L 80.015625 65.335938 C 84.84375 68.089844 88.097656 69.953125 90.21875 71.652344 C 92.246094 73.277344 92.597656 74.25 92.625 75.074219 C 92.660156 75.945312 92.339844 77.039062 90.390625 78.996094 C 88.382812 81.007812 85.253906 83.34375 80.664062 86.753906 L 77.9375 88.78125 C 76.648438 89.734375 75.480469 90.601562 74.5 91.566406 L 28.003906 78.078125 L 30.453125 76.257812 C 34.761719 73.058594 38.308594 70.425781 40.71875 68.007812 C 43.226562 65.492188 45.078125 62.65625 44.945312 59.011719 C 44.882812 57.378906 44.4375 55.953125 43.722656 54.679688 Z M 43.722656 54.679688 " fill-opacity="1" fill-rule="nonzero"/><g clip-path="url(#34f6ad7b39)"><path stroke-linecap="butt" transform="matrix(6.833022, 0, 0, 6.833022, -54.279236, -13.56527)" fill="none" stroke-linejoin="miter" d="M 14.342394 9.987522 L 19.350244 11.374399 L 19.653802 11.547044 C 20.360389 11.950073 20.836592 12.222761 21.14701 12.471439 C 21.443708 12.709254 21.495159 12.851601 21.499161 12.972224 C 21.504306 13.099707 21.457429 13.259775 21.172164 13.546183 C 20.878324 13.840594 20.420415 14.182454 19.7487 14.681524 L 19.349672 14.978222 C 19.161021 15.11771 18.99009 15.244621 18.846601 15.385824 L 12.041984 13.41184 L 12.400423 13.14544 C 13.030977 12.677241 13.550056 12.291933 13.902778 11.938068 C 14.269792 11.569911 14.540764 11.154877 14.521327 10.621507 C 14.512181 10.382548 14.44701 10.173887 14.342394 9.987522 Z M 14.342394 9.987522 " stroke="#ffffff" stroke-width="1" stroke-opacity="1" stroke-miterlimit="4"/></g><path fill="#ffffff" d="M 23.441406 83.871094 L 71.355469 97.769531 C 71.15625 98.734375 71 99.773438 70.824219 100.894531 L 70.273438 104.496094 C 69.746094 107.917969 68.96875 110.964844 68.140625 113.546875 C 66.6875 118.09375 66.3125 118.726562 65.21875 119.355469 C 64.75 119.625 64.308594 119.742188 63.378906 119.640625 C 62.246094 119.511719 60.792969 119.101562 58.3125 118.382812 L 18.71875 106.898438 C 19.191406 105.894531 19.570312 104.824219 19.886719 103.734375 C 20.878906 100.335938 21.59375 95.699219 22.472656 89.984375 L 22.988281 86.648438 C 23.171875 85.460938 23.316406 84.566406 23.441406 83.871094 Z M 23.441406 83.871094 " fill-opacity="1" fill-rule="nonzero"/><g clip-path="url(#87517b7cb9)"><path stroke-linecap="butt" transform="matrix(6.833022, 0, 0, 6.833022, -54.279236, -13.56527)" fill="none" stroke-linejoin="miter" d="M 11.374271 14.25963 L 18.386404 16.29364 C 18.357249 16.434843 18.334382 16.586908 18.308657 16.750978 L 18.228051 17.27806 C 18.150875 17.778845 18.037113 18.22475 17.915918 18.602625 C 17.703256 19.268052 17.648375 19.360663 17.488307 19.452702 C 17.419706 19.492147 17.355107 19.509297 17.219049 19.494434 C 17.053264 19.475569 16.840602 19.415543 16.47759 19.310355 L 10.683119 17.629639 C 10.752291 17.482719 10.807744 17.326081 10.854049 17.166584 C 10.999254 16.669229 11.10387 15.990654 11.232496 15.154297 L 11.307957 14.666089 C 11.334825 14.4923 11.355977 14.361387 11.374271 14.25963 Z M 11.374271 14.25963 " stroke="#ffffff" stroke-width="1" stroke-opacity="1" stroke-miterlimit="4"/></g></g></g></g></g><path fill="#ffffff" d="M 4203.324219 1381.929688 C 4207.234375 1377.566406 4209.914062 1374.589844 4212.074219 1372.792969 C 4214.261719 1370.96875 4214.976562 1371.15625 4215.199219 1371.222656 C 4215.5 1371.308594 4216.277344 1371.652344 4217.355469 1374.476562 C 4218.40625 1377.234375 4219.359375 1381.292969 4220.730469 1387.175781 L 4221.546875 1390.699219 C 4222.183594 1393.453125 4222.714844 1395.742188 4224.035156 1397.585938 C 4225.394531 1399.484375 4227.371094 1400.605469 4229.625 1401.882812 L 4230.0625 1402.132812 L 4232.507812 1403.523438 C 4237.335938 1406.273438 4240.589844 1408.140625 4242.707031 1409.839844 C 4244.738281 1411.464844 4245.085938 1412.4375 4245.117188 1413.261719 C 4245.148438 1414.132812 4244.832031 1415.226562 4242.882812 1417.183594 C 4240.871094 1419.195312 4237.746094 1421.53125 4233.15625 1424.941406 L 4230.429688 1426.96875 C 4228.257812 1428.574219 4226.433594 1429.925781 4225.257812 1431.945312 C 4224.105469 1433.914062 4223.753906 1436.226562 4223.316406 1439.082031 L 4222.761719 1442.679688 C 4221.832031 1448.722656 4221.179688 1452.90625 4220.332031 1455.816406 C 4219.851562 1457.453125 4219.398438 1458.367188 4219.015625 1458.886719 C 4218.273438 1458.613281 4217.289062 1458.210938 4216.125 1457.652344 C 4213.355469 1456.328125 4209.605469 1454.128906 4205.761719 1450.675781 L 4203.625 1448.753906 L 4203.53125 1448.667969 C 4202.441406 1447.6875 4201.46875 1446.8125 4200.589844 1446.144531 C 4199.640625 1445.425781 4198.613281 1444.800781 4197.355469 1444.4375 C 4195.136719 1443.792969 4192.851562 1444.222656 4190.386719 1444.683594 L 4189.855469 1444.785156 L 4187.121094 1445.292969 C 4181.703125 1446.296875 4178.070312 1446.957031 4175.46875 1447.007812 C 4172.964844 1447.054688 4172.441406 1446.515625 4172.160156 1446.121094 C 4171.765625 1445.574219 4171.398438 1444.511719 4172.011719 1441.519531 C 4172.617188 1438.539062 4173.984375 1434.5625 4175.96875 1428.828125 L 4177.144531 1425.429688 C 4178.09375 1422.699219 4178.851562 1420.511719 4178.769531 1418.207031 C 4178.683594 1415.886719 4177.757812 1413.792969 4176.613281 1411.207031 L 4175.195312 1407.996094 C 4172.796875 1402.5625 4171.152344 1398.820312 4170.335938 1395.957031 C 4169.527344 1393.121094 4169.777344 1391.976562 4170.183594 1391.277344 C 4170.523438 1390.695312 4171.136719 1390.082031 4173.601562 1389.777344 C 4176.195312 1389.457031 4179.851562 1389.597656 4185.3125 1389.832031 L 4188.074219 1389.949219 L 4188.59375 1389.972656 C 4191.101562 1390.082031 4193.394531 1390.1875 4195.527344 1389.246094 C 4197.597656 1388.328125 4199.167969 1386.574219 4200.964844 1384.5625 L 4201.339844 1384.144531 Z M 4203.324219 1381.929688 " fill-opacity="1" fill-rule="nonzero"/><g clip-path="url(#aa9795256d)"><path stroke-linecap="butt" transform="matrix(6.833022, 0, 0, 6.833022, 4152.720785, 1340.434723)" fill="none" stroke-linejoin="miter" d="M 7.405718 6.072711 C 7.977962 5.434153 8.370129 4.998538 8.686264 4.735569 C 9.006401 4.468598 9.111017 4.496038 9.143602 4.505757 C 9.187621 4.518333 9.301384 4.568641 9.459165 4.98196 C 9.612945 5.38556 9.752433 5.979528 9.95309 6.840467 L 10.07257 7.356115 C 10.165752 7.759144 10.2435 8.094144 10.436725 8.363974 C 10.635667 8.641806 10.924933 8.805876 11.254788 8.992813 L 11.318816 9.0294 L 11.676682 9.232916 C 12.383269 9.635373 12.859473 9.908632 13.169319 10.15731 C 13.466589 10.395126 13.517468 10.537472 13.522041 10.658095 C 13.526614 10.785578 13.480309 10.945646 13.195044 11.232054 C 12.900633 11.526465 12.443295 11.868325 11.77158 12.367395 L 11.372553 12.664093 C 11.054703 12.899051 10.787732 13.096849 10.615658 13.392404 C 10.447015 13.680527 10.395565 14.018957 10.331537 14.436849 L 10.25036 14.96336 C 10.114302 15.847737 10.018832 16.459998 9.89478 16.885894 C 9.824464 17.125425 9.75815 17.259196 9.702126 17.335228 C 9.593508 17.295211 9.449447 17.236329 9.279088 17.15458 C 8.873773 16.960783 8.324967 16.638931 7.762442 16.133573 L 7.449737 15.85231 L 7.436017 15.839733 C 7.27652 15.696244 7.134174 15.568189 7.005547 15.470433 C 6.866631 15.365245 6.716281 15.273778 6.532203 15.220612 C 6.207493 15.126286 5.873064 15.18917 5.512339 15.256628 L 5.434592 15.271491 L 5.034421 15.345808 C 4.241511 15.492728 3.709856 15.589341 3.329122 15.596773 C 2.96268 15.603633 2.886076 15.524742 2.844916 15.467003 C 2.787177 15.386969 2.73344 15.231474 2.823192 14.793573 C 2.911801 14.357387 3.111887 13.775424 3.402296 12.936209 L 3.57437 12.438854 C 3.713286 12.039255 3.82419 11.719119 3.812185 11.381832 C 3.799609 11.042259 3.664122 10.735842 3.496622 10.357395 L 3.289105 9.88748 C 2.938098 9.092284 2.697424 8.544622 2.577945 8.125586 C 2.459608 7.710552 2.496195 7.543052 2.555649 7.440723 C 2.605385 7.355543 2.695137 7.265791 3.055863 7.2212 C 3.435453 7.174323 3.970539 7.194903 4.769737 7.229204 L 5.173909 7.246354 L 5.249941 7.249784 C 5.616955 7.265791 5.952527 7.281226 6.26466 7.143453 C 6.567646 7.00911 6.797459 6.752429 7.060428 6.458018 L 7.115308 6.396849 Z M 7.405718 6.072711 " stroke="#ffffff" stroke-width="1" stroke-opacity="1" stroke-miterlimit="4"/></g><g clip-path="url(#aed6bc3c75)"><path fill="#3998ff" d="M 25.039062 1367.5 C 711.9375 1367.5 1268.730469 1924.292969 1268.730469 2611.195312 L 700.910156 2611.195312 C 700.910156 2238.160156 398.824219 1935.824219 26.039062 1935.324219 Z M 25.039062 1367.5 " fill-opacity="1" fill-rule="nonzero"/></g><g clip-path="url(#734f6dda06)"><path fill="#3998ff" d="M 4474.019531 1331.539062 C 3787.117188 1331.539062 3230.328125 774.746094 3230.328125 87.847656 L 3798.148438 87.847656 C 3798.148438 460.878906 4100.234375 763.214844 4473.015625 763.714844 Z M 4474.019531 1331.539062 " fill-opacity="1" fill-rule="nonzero"/></g><path stroke-linecap="butt" transform="matrix(22.273021, 0, 0, 22.273021, 740.357323, 636.421489)" fill-opacity="1" fill="#ffffff" fill-rule="nonzero" stroke-linejoin="miter" d="M 17.644056 19.018086 L 21.354577 19.018086 L 19.498352 14.52414 Z M 17.644056 19.018086 " stroke="#ffffff" stroke-width="1" stroke-opacity="1" stroke-miterlimit="4"/><path stroke-linecap="butt" transform="matrix(22.273021, 0, 0, 22.273021, 740.357323, 636.421489)" fill-opacity="1" fill="#ffffff" fill-rule="nonzero" stroke-linejoin="miter" d="M 11.250039 5.999954 C 8.350476 5.999954 6.000029 8.350577 6.000029 11.249964 L 6.000029 36.749915 C 6.000029 39.649478 8.350476 41.999925 11.250039 41.999925 L 24.518614 41.999925 C 23.225184 39.979368 22.475082 37.577359 22.475082 34.99997 C 22.475082 33.416461 22.758146 31.89907 23.27657 30.495676 L 11.250039 30.495676 C 10.559567 30.495676 9.999928 29.936038 9.999928 29.245565 C 9.999928 28.555268 10.559567 27.99563 11.250039 27.99563 L 24.52142 27.99563 C 26.832231 24.389635 30.874573 22.000078 35.47515 22.000078 C 37.853307 22.000078 40.082216 22.638637 42 23.75353 L 42 11.249964 C 42 8.350577 39.649553 5.999954 36.749989 5.999954 Z M 9.999928 35.250062 C 9.999928 34.55959 10.559567 33.999951 11.250039 33.999951 L 19.258081 33.999951 C 19.948378 33.999951 20.508016 34.55959 20.508016 35.250062 C 20.508016 35.940359 19.948378 36.499998 19.258081 36.499998 L 11.250039 36.499998 C 10.559567 36.499998 9.999928 35.940359 9.999928 35.250062 Z M 19.49765 9.998275 C 20.003973 9.998275 20.460138 10.303261 20.653231 10.771176 L 25.405337 22.277178 C 25.668758 22.915212 25.365175 23.646022 24.727141 23.909619 C 24.088932 24.173215 23.358122 23.869457 23.094526 23.231423 L 22.387041 21.518132 L 16.612293 21.518132 L 15.905335 23.231072 C 15.642089 23.869281 14.911279 24.17304 14.27307 23.909794 C 13.635036 23.646548 13.331102 22.915563 13.594524 22.277529 L 18.34242 10.771527 C 18.535514 10.303612 18.991678 9.99845 19.49765 9.998275 Z M 31.747616 9.9981 C 32.437913 9.9981 32.997552 10.557738 32.997552 11.248035 L 32.997552 13.999928 L 35.750146 13.999928 C 36.440443 13.999928 37.000082 14.559567 37.000082 15.250039 C 37.000082 15.940336 36.440443 16.499975 35.750146 16.499975 L 32.997552 16.499975 L 32.997552 19.24836 C 32.997552 19.938657 32.437913 20.498296 31.747616 20.498296 C 31.057144 20.498296 30.49768 19.938657 30.49768 19.24836 L 30.49768 16.499975 L 27.749997 16.499975 C 27.059524 16.499975 26.500061 15.940336 26.500061 15.250039 C 26.500061 14.559567 27.059524 13.999928 27.749997 13.999928 L 30.49768 13.999928 L 30.49768 11.248035 C 30.49768 10.557738 31.057144 9.9981 31.747616 9.9981 Z M 31.747616 9.9981 " stroke="#ffffff" stroke-width="1" stroke-opacity="1" stroke-miterlimit="4"/><path fill="#ffffff" d="M 1775.5 1415.976562 C 1775.5 1551.289062 1665.804688 1660.980469 1530.496094 1660.980469 C 1395.183594 1660.980469 1285.492188 1551.289062 1285.492188 1415.976562 C 1285.492188 1280.667969 1395.183594 1170.972656 1530.496094 1170.972656 C 1665.804688 1170.972656 1775.5 1280.667969 1775.5 1415.976562 Z M 1552.769531 1260.066406 C 1552.769531 1247.765625 1542.796875 1237.792969 1530.496094 1237.792969 C 1518.195312 1237.792969 1508.222656 1247.765625 1508.222656 1260.066406 L 1508.222656 1393.703125 L 1374.582031 1393.703125 C 1362.28125 1393.703125 1352.3125 1403.675781 1352.3125 1415.976562 C 1352.3125 1428.277344 1362.28125 1438.25 1374.582031 1438.25 L 1508.222656 1438.25 L 1508.222656 1571.886719 C 1508.222656 1584.191406 1518.195312 1594.160156 1530.496094 1594.160156 C 1542.796875 1594.160156 1552.769531 1584.191406 1552.769531 1571.886719 L 1552.769531 1438.25 L 1686.40625 1438.25 C 1698.707031 1438.25 1708.679688 1428.277344 1708.679688 1415.976562 C 1708.679688 1403.675781 1698.707031 1393.703125 1686.40625 1393.703125 L 1552.769531 1393.703125 Z M 1552.769531 1260.066406 " fill-opacity="1" fill-rule="nonzero"/><g clip-path="url(#fbd4180558)"><path stroke-linecap="butt" transform="matrix(22.273021, 0, 0, 22.273021, 740.357323, 636.421489)" fill="none" stroke-linejoin="miter" d="M 46.47518 34.99997 C 46.47518 41.075144 41.550149 46 35.47515 46 C 29.399975 46 24.47512 41.075144 24.47512 34.99997 C 24.47512 28.92497 29.399975 23.99994 35.47515 23.99994 C 41.550149 23.99994 46.47518 28.92497 46.47518 34.99997 Z M 36.475168 28.000014 C 36.475168 27.447742 36.027422 26.999996 35.47515 26.999996 C 34.922877 26.999996 34.475131 27.447742 34.475131 28.000014 L 34.475131 33.999951 L 28.475019 33.999951 C 27.922746 33.999951 27.475176 34.447697 27.475176 34.99997 C 27.475176 35.552242 27.922746 35.999988 28.475019 35.999988 L 34.475131 35.999988 L 34.475131 41.999925 C 34.475131 42.552373 34.922877 42.999944 35.47515 42.999944 C 36.027422 42.999944 36.475168 42.552373 36.475168 41.999925 L 36.475168 35.999988 L 42.475105 35.999988 C 43.027378 35.999988 43.475124 35.552242 43.475124 34.99997 C 43.475124 34.447697 43.027378 33.999951 42.475105 33.999951 L 36.475168 33.999951 Z M 36.475168 28.000014 " stroke="#ffffff" stroke-width="1" stroke-opacity="1" stroke-miterlimit="4"/></g><g fill="#ffffff" fill-opacity="1"><g transform="translate(2006.50538, 1067.917174)"><g><path d="M 17.765625 0 L 17.765625 -33.390625 L 95.796875 -105.640625 C 105.785156 -115.203125 113.382812 -123.515625 118.59375 -130.578125 C 123.800781 -137.648438 126.40625 -145.539062 126.40625 -154.25 C 126.40625 -163.875 123.210938 -171.488281 116.828125 -177.09375 C 110.441406 -182.695312 102.429688 -185.5 92.796875 -185.5 C 82.804688 -185.5 74.757812 -182.484375 68.65625 -176.453125 C 62.5625 -170.421875 59.550781 -162.160156 59.625 -151.671875 L 15.625 -151.671875 C 15.625 -166.015625 18.867188 -178.46875 25.359375 -189.03125 C 31.859375 -199.59375 40.941406 -207.765625 52.609375 -213.546875 C 64.273438 -219.328125 77.78125 -222.21875 93.125 -222.21875 C 108.820312 -222.21875 122.503906 -219.453125 134.171875 -213.921875 C 145.835938 -208.390625 154.914062 -200.753906 161.40625 -191.015625 C 167.90625 -181.273438 171.15625 -170.050781 171.15625 -157.34375 C 171.15625 -149.070312 169.515625 -140.898438 166.234375 -132.828125 C 162.953125 -124.765625 157.1875 -115.828125 148.9375 -106.015625 C 140.695312 -96.203125 129.050781 -84.445312 114 -70.75 L 81.984375 -39.390625 L 81.984375 -37.890625 L 174.046875 -37.890625 L 174.046875 0 Z M 17.765625 0 "/></g></g></g><g fill="#ffffff" fill-opacity="1"><g transform="translate(2196.387499, 1067.917174)"><g><path d="M 202.40625 -219.21875 L 202.40625 0 L 162.375 0 L 67 -137.96875 L 65.40625 -137.96875 L 65.40625 0 L 19.046875 0 L 19.046875 -219.21875 L 59.734375 -219.21875 L 154.34375 -81.34375 L 156.28125 -81.34375 L 156.28125 -219.21875 Z M 202.40625 -219.21875 "/></g></g></g><g fill="#ffffff" fill-opacity="1"><g transform="translate(2417.952316, 1067.917174)"><g><path d="M 96.765625 0 L 19.046875 0 L 19.046875 -219.21875 L 97.40625 -219.21875 C 119.457031 -219.21875 138.457031 -214.84375 154.40625 -206.09375 C 170.351562 -197.351562 182.609375 -184.8125 191.171875 -168.46875 C 199.734375 -152.132812 204.015625 -132.585938 204.015625 -109.828125 C 204.015625 -86.984375 199.710938 -67.351562 191.109375 -50.9375 C 182.515625 -34.53125 170.207031 -21.9375 154.1875 -13.15625 C 138.164062 -4.382812 119.023438 0 96.765625 0 Z M 65.40625 -39.71875 L 94.84375 -39.71875 C 115.457031 -39.71875 131.097656 -45.28125 141.765625 -56.40625 C 152.441406 -67.539062 157.78125 -85.347656 157.78125 -109.828125 C 157.78125 -134.160156 152.441406 -151.851562 141.765625 -162.90625 C 131.097656 -173.96875 115.488281 -179.5 94.9375 -179.5 L 65.40625 -179.5 Z M 65.40625 -39.71875 "/></g></g></g><g fill="#ffffff" fill-opacity="1"><g transform="translate(2637.162338, 1067.917174)"><g/></g></g><g fill="#ffffff" fill-opacity="1"><g transform="translate(2707.05694, 1067.917174)"><g><path d="M 220.5 -109.609375 C 220.5 -90.054688 217.394531 -72.859375 211.1875 -58.015625 C 204.976562 -43.171875 196.519531 -30.96875 185.8125 -21.40625 L 217.1875 17.984375 L 173.9375 17.984375 L 156.28125 -3.75 C 144.363281 0.75 131.550781 3 117.84375 3 C 98.363281 3 80.878906 -1.421875 65.390625 -10.265625 C 49.910156 -19.117188 37.675781 -31.945312 28.6875 -48.75 C 19.695312 -65.5625 15.203125 -85.847656 15.203125 -109.609375 C 15.203125 -133.515625 19.695312 -153.851562 28.6875 -170.625 C 37.675781 -187.394531 49.910156 -200.1875 65.390625 -209 C 80.878906 -217.8125 98.363281 -222.21875 117.84375 -222.21875 C 137.257812 -222.21875 154.707031 -217.8125 170.1875 -209 C 185.675781 -200.1875 197.929688 -187.394531 206.953125 -170.625 C 215.984375 -153.851562 220.5 -133.515625 220.5 -109.609375 Z M 101.796875 -76.21875 L 141.1875 -76.21875 L 157.453125 -55.34375 C 162.515625 -61.40625 166.457031 -68.96875 169.28125 -78.03125 C 172.101562 -87.09375 173.515625 -97.617188 173.515625 -109.609375 C 173.515625 -132.867188 168.445312 -150.617188 158.3125 -162.859375 C 148.175781 -175.097656 134.6875 -181.21875 117.84375 -181.21875 C 101.007812 -181.21875 87.523438 -175.097656 77.390625 -162.859375 C 67.253906 -150.617188 62.1875 -132.867188 62.1875 -109.609375 C 62.1875 -86.410156 67.253906 -68.675781 77.390625 -56.40625 C 87.523438 -44.132812 101.007812 -38 117.84375 -38 C 122.0625 -38 126.0625 -38.390625 129.84375 -39.171875 Z M 101.796875 -76.21875 "/></g></g></g><g fill="#ffffff" fill-opacity="1"><g transform="translate(2942.9646, 1067.917174)"><g><path d="M 154.78125 -219.21875 L 200.8125 -219.21875 L 200.8125 -74.28125 C 200.8125 -57.726562 196.921875 -43.6875 189.140625 -32.15625 C 181.359375 -20.632812 170.632812 -11.875 156.96875 -5.875 C 143.300781 0.113281 127.617188 3.109375 109.921875 3.109375 C 92.234375 3.109375 76.535156 0.113281 62.828125 -5.875 C 49.128906 -11.875 38.40625 -20.632812 30.65625 -32.15625 C 22.914062 -43.6875 19.046875 -57.726562 19.046875 -74.28125 L 19.046875 -219.21875 L 65.40625 -219.21875 L 65.40625 -75.890625 C 65.40625 -64.191406 69.628906 -54.988281 78.078125 -48.28125 C 86.535156 -41.570312 97.148438 -38.21875 109.921875 -38.21875 C 122.910156 -38.21875 133.632812 -41.570312 142.09375 -48.28125 C 150.550781 -54.988281 154.78125 -64.191406 154.78125 -75.890625 Z M 154.78125 -219.21875 "/></g></g></g><g fill="#ffffff" fill-opacity="1"><g transform="translate(3162.816839, 1067.917174)"><g><path d="M 56.84375 0 L 7.171875 0 L 82.84375 -219.21875 L 142.578125 -219.21875 L 218.140625 0 L 168.484375 0 L 152.203125 -49.984375 L 73.109375 -49.984375 Z M 84.875 -86.171875 L 140.546875 -86.171875 L 113.5625 -169.125 L 111.859375 -169.125 Z M 84.875 -86.171875 "/></g></g></g><g fill="#ffffff" fill-opacity="1"><g transform="translate(3388.234958, 1067.917174)"><g><path d="M 19.046875 0 L 19.046875 -219.21875 L 105.546875 -219.21875 C 130.441406 -219.21875 149.757812 -212.722656 163.5 -199.734375 C 177.238281 -186.742188 184.109375 -169.367188 184.109375 -147.609375 C 184.109375 -132.617188 180.769531 -119.804688 174.09375 -109.171875 C 167.425781 -98.546875 157.847656 -90.554688 145.359375 -85.203125 L 191.921875 0 L 140.75 0 L 99.21875 -77.703125 L 65.40625 -77.703125 L 65.40625 0 Z M 65.40625 -114.953125 L 96.875 -114.953125 C 123.207031 -114.953125 136.375 -125.835938 136.375 -147.609375 C 136.375 -170.085938 123.132812 -181.328125 96.65625 -181.328125 L 65.40625 -181.328125 Z M 65.40625 -114.953125 "/></g></g></g><g fill="#ffffff" fill-opacity="1"><g transform="translate(3586.037842, 1067.917174)"><g><path d="M 10.703125 -181 L 10.703125 -219.21875 L 190.75 -219.21875 L 190.75 -181 L 123.625 -181 L 123.625 0 L 77.8125 0 L 77.8125 -181 Z M 10.703125 -181 "/></g></g></g><g fill="#ffffff" fill-opacity="1"><g transform="translate(3787.479863, 1067.917174)"><g><path d="M 19.046875 0 L 19.046875 -219.21875 L 166.765625 -219.21875 L 166.765625 -181 L 65.40625 -181 L 65.40625 -128.765625 L 159.171875 -128.765625 L 159.171875 -90.5625 L 65.40625 -90.5625 L 65.40625 -38.21875 L 167.1875 -38.21875 L 167.1875 0 Z M 19.046875 0 "/></g></g></g><g fill="#ffffff" fill-opacity="1"><g transform="translate(3972.117122, 1067.917174)"><g><path d="M 19.046875 0 L 19.046875 -219.21875 L 105.546875 -219.21875 C 130.441406 -219.21875 149.757812 -212.722656 163.5 -199.734375 C 177.238281 -186.742188 184.109375 -169.367188 184.109375 -147.609375 C 184.109375 -132.617188 180.769531 -119.804688 174.09375 -109.171875 C 167.425781 -98.546875 157.847656 -90.554688 145.359375 -85.203125 L 191.921875 0 L 140.75 0 L 99.21875 -77.703125 L 65.40625 -77.703125 L 65.40625 0 Z M 65.40625 -114.953125 L 96.875 -114.953125 C 123.207031 -114.953125 136.375 -125.835938 136.375 -147.609375 C 136.375 -170.085938 123.132812 -181.328125 96.65625 -181.328125 L 65.40625 -181.328125 Z M 65.40625 -114.953125 "/></g></g></g><g fill="#ffffff" fill-opacity="1"><g transform="translate(4169.938975, 1067.917174)"><g/></g></g><g fill="#ffffff" fill-opacity="1"><g transform="translate(2027.938198, 1394.613818)"><g><path d="M 14.75 -169.78125 L 59.03125 -169.78125 L 105.78125 -55.703125 L 107.765625 -55.703125 L 154.53125 -169.78125 L 198.796875 -169.78125 L 198.796875 0 L 163.984375 0 L 163.984375 -110.515625 L 162.578125 -110.515625 L 118.640625 -0.828125 L 94.921875 -0.828125 L 50.984375 -110.921875 L 49.578125 -110.921875 L 49.578125 0 L 14.75 0 Z M 14.75 -169.78125 "/></g></g></g><g fill="#ffffff" fill-opacity="1"><g transform="translate(2243.649388, 1394.613818)"><g><path d="M 50.65625 -169.78125 L 50.65625 0 L 14.75 0 L 14.75 -169.78125 Z M 50.65625 -169.78125 "/></g></g></g><g fill="#ffffff" fill-opacity="1"><g transform="translate(2309.142025, 1394.613818)"><g><path d="M 156.765625 -169.78125 L 156.765625 0 L 125.765625 0 L 51.890625 -106.859375 L 50.65625 -106.859375 L 50.65625 0 L 14.75 0 L 14.75 -169.78125 L 46.265625 -169.78125 L 119.546875 -63 L 121.03125 -63 L 121.03125 -169.78125 Z M 156.765625 -169.78125 "/></g></g></g><g fill="#ffffff" fill-opacity="1"><g transform="translate(2480.749313, 1394.613818)"><g><path d="M 50.65625 -169.78125 L 50.65625 0 L 14.75 0 L 14.75 -169.78125 Z M 50.65625 -169.78125 "/></g></g></g><g fill="#ffffff" fill-opacity="1"><g transform="translate(2546.24195, 1394.613818)"><g/></g></g><g fill="#ffffff" fill-opacity="1"><g transform="translate(2600.377003, 1394.613818)"><g><path d="M 170.78125 -84.890625 C 170.78125 -69.742188 168.375 -56.421875 163.5625 -44.921875 C 158.757812 -33.429688 152.210938 -23.984375 143.921875 -16.578125 L 168.203125 13.921875 L 134.71875 13.921875 L 121.03125 -2.90625 C 111.800781 0.582031 101.882812 2.328125 91.28125 2.328125 C 76.1875 2.328125 62.640625 -1.097656 50.640625 -7.953125 C 38.648438 -14.804688 29.171875 -24.738281 22.203125 -37.75 C 15.242188 -50.769531 11.765625 -66.484375 11.765625 -84.890625 C 11.765625 -103.410156 15.242188 -119.160156 22.203125 -132.140625 C 29.171875 -145.128906 38.648438 -155.035156 50.640625 -161.859375 C 62.640625 -168.691406 76.1875 -172.109375 91.28125 -172.109375 C 106.3125 -172.109375 119.820312 -168.691406 131.8125 -161.859375 C 143.8125 -155.035156 153.304688 -145.128906 160.296875 -132.140625 C 167.285156 -119.160156 170.78125 -103.410156 170.78125 -84.890625 Z M 78.84375 -59.03125 L 109.34375 -59.03125 L 121.953125 -42.859375 C 125.867188 -47.554688 128.921875 -53.414062 131.109375 -60.4375 C 133.296875 -67.457031 134.390625 -75.609375 134.390625 -84.890625 C 134.390625 -102.910156 130.460938 -116.660156 122.609375 -126.140625 C 114.765625 -135.617188 104.320312 -140.359375 91.28125 -140.359375 C 78.226562 -140.359375 67.78125 -135.617188 59.9375 -126.140625 C 52.09375 -116.660156 48.171875 -102.910156 48.171875 -84.890625 C 48.171875 -66.929688 52.09375 -53.195312 59.9375 -43.6875 C 67.78125 -34.1875 78.226562 -29.4375 91.28125 -29.4375 C 94.539062 -29.4375 97.632812 -29.738281 100.5625 -30.34375 Z M 78.84375 -59.03125 "/></g></g></g><g fill="#ffffff" fill-opacity="1"><g transform="translate(2783.093169, 1394.613818)"><g><path d="M 119.875 -169.78125 L 155.53125 -169.78125 L 155.53125 -57.53125 C 155.53125 -44.707031 152.515625 -33.832031 146.484375 -24.90625 C 140.460938 -15.988281 132.160156 -9.207031 121.578125 -4.5625 C 110.992188 0.0820312 98.847656 2.40625 85.140625 2.40625 C 71.429688 2.40625 59.269531 0.0820312 48.65625 -4.5625 C 38.050781 -9.207031 29.75 -15.988281 23.75 -24.90625 C 17.75 -33.832031 14.75 -44.707031 14.75 -57.53125 L 14.75 -169.78125 L 50.65625 -169.78125 L 50.65625 -58.78125 C 50.65625 -49.71875 53.925781 -42.585938 60.46875 -37.390625 C 67.019531 -32.191406 75.242188 -29.59375 85.140625 -29.59375 C 95.203125 -29.59375 103.503906 -32.191406 110.046875 -37.390625 C 116.597656 -42.585938 119.875 -49.71875 119.875 -58.78125 Z M 119.875 -169.78125 "/></g></g></g><g fill="#ffffff" fill-opacity="1"><g transform="translate(2953.374025, 1394.613818)"><g><path d="M 50.65625 -169.78125 L 50.65625 0 L 14.75 0 L 14.75 -169.78125 Z M 50.65625 -169.78125 "/></g></g></g><g fill="#ffffff" fill-opacity="1"><g transform="translate(3018.866661, 1394.613818)"><g><path d="M 12.9375 0 L 12.9375 -21.3125 L 97.65625 -140.1875 L 12.765625 -140.1875 L 12.765625 -169.78125 L 142.765625 -169.78125 L 142.765625 -148.484375 L 57.953125 -29.59375 L 142.921875 -29.59375 L 142.921875 0 Z M 12.9375 0 "/></g></g></g><g fill="#ffffff" fill-opacity="1"><g transform="translate(2347.37602, 2058.59544)"><g><path d="M 4.578125 -77.328125 L 4.578125 -93.65625 L 81.5 -93.65625 L 81.5 -77.328125 L 52.828125 -77.328125 L 52.828125 0 L 33.25 0 L 33.25 -77.328125 Z M 4.578125 -77.328125 "/></g></g></g><g fill="#ffffff" fill-opacity="1"><g transform="translate(2433.437742, 2058.59544)"><g><path d="M 24.28125 0 L 3.0625 0 L 35.390625 -93.65625 L 60.921875 -93.65625 L 93.203125 0 L 71.984375 0 L 65.03125 -21.359375 L 31.234375 -21.359375 Z M 36.265625 -36.8125 L 60.046875 -36.8125 L 48.515625 -72.25 L 47.796875 -72.25 Z M 36.265625 -36.8125 "/></g></g></g><g fill="#ffffff" fill-opacity="1"><g transform="translate(2529.74273, 2058.59544)"><g><path d="M 8.140625 0 L 8.140625 -93.65625 L 27.9375 -93.65625 L 27.9375 -52.359375 L 29.171875 -52.359375 L 62.875 -93.65625 L 86.609375 -93.65625 L 51.859375 -51.71875 L 87.03125 0 L 63.34375 0 L 37.6875 -38.5 L 27.9375 -26.609375 L 27.9375 0 Z M 8.140625 0 "/></g></g></g><g fill="#ffffff" fill-opacity="1"><g transform="translate(2618.548185, 2058.59544)"><g><path d="M 8.140625 0 L 8.140625 -93.65625 L 71.25 -93.65625 L 71.25 -77.328125 L 27.9375 -77.328125 L 27.9375 -55.015625 L 68 -55.015625 L 68 -38.6875 L 27.9375 -38.6875 L 27.9375 -16.328125 L 71.4375 -16.328125 L 71.4375 0 Z M 8.140625 0 "/></g></g></g><g fill="#ffffff" fill-opacity="1"><g transform="translate(2697.430476, 2058.59544)"><g/></g></g><g fill="#ffffff" fill-opacity="1"><g transform="translate(2727.291424, 2058.59544)"><g><path d="M 94.203125 -46.828125 C 94.203125 -38.472656 92.875 -31.125 90.21875 -24.78125 C 87.570312 -18.445312 83.960938 -13.234375 79.390625 -9.140625 L 92.796875 7.6875 L 74.3125 7.6875 L 66.765625 -1.59375 C 61.671875 0.320312 56.195312 1.28125 50.34375 1.28125 C 42.019531 1.28125 34.550781 -0.609375 27.9375 -4.390625 C 21.320312 -8.171875 16.09375 -13.648438 12.25 -20.828125 C 8.414062 -28.003906 6.5 -36.671875 6.5 -46.828125 C 6.5 -57.046875 8.414062 -65.734375 12.25 -72.890625 C 16.09375 -80.054688 21.320312 -85.519531 27.9375 -89.28125 C 34.550781 -93.050781 42.019531 -94.9375 50.34375 -94.9375 C 58.644531 -94.9375 66.101562 -93.050781 72.71875 -89.28125 C 79.332031 -85.519531 84.566406 -80.054688 88.421875 -72.890625 C 92.273438 -65.734375 94.203125 -57.046875 94.203125 -46.828125 Z M 43.484375 -32.5625 L 60.328125 -32.5625 L 67.265625 -23.640625 C 69.429688 -26.234375 71.113281 -29.460938 72.3125 -33.328125 C 73.519531 -37.203125 74.125 -41.703125 74.125 -46.828125 C 74.125 -56.765625 71.957031 -64.347656 67.625 -69.578125 C 63.300781 -74.804688 57.539062 -77.421875 50.34375 -77.421875 C 43.15625 -77.421875 37.394531 -74.804688 33.0625 -69.578125 C 28.726562 -64.347656 26.5625 -56.765625 26.5625 -46.828125 C 26.5625 -36.921875 28.726562 -29.34375 33.0625 -24.09375 C 37.394531 -18.851562 43.15625 -16.234375 50.34375 -16.234375 C 52.144531 -16.234375 53.851562 -16.398438 55.46875 -16.734375 Z M 43.484375 -32.5625 "/></g></g></g><g fill="#ffffff" fill-opacity="1"><g transform="translate(2828.07784, 2058.59544)"><g><path d="M 66.125 -93.65625 L 85.796875 -93.65625 L 85.796875 -31.734375 C 85.796875 -24.660156 84.132812 -18.660156 80.8125 -13.734375 C 77.488281 -8.816406 72.90625 -5.078125 67.0625 -2.515625 C 61.226562 0.046875 54.53125 1.328125 46.96875 1.328125 C 39.40625 1.328125 32.695312 0.046875 26.84375 -2.515625 C 20.988281 -5.078125 16.40625 -8.816406 13.09375 -13.734375 C 9.789062 -18.660156 8.140625 -24.660156 8.140625 -31.734375 L 8.140625 -93.65625 L 27.9375 -93.65625 L 27.9375 -32.421875 C 27.9375 -27.421875 29.742188 -23.488281 33.359375 -20.625 C 36.972656 -17.757812 41.507812 -16.328125 46.96875 -16.328125 C 52.519531 -16.328125 57.097656 -17.757812 60.703125 -20.625 C 64.316406 -23.488281 66.125 -27.421875 66.125 -32.421875 Z M 66.125 -93.65625 "/></g></g></g><g fill="#ffffff" fill-opacity="1"><g transform="translate(2922.004927, 2058.59544)"><g><path d="M 27.9375 -93.65625 L 27.9375 0 L 8.140625 0 L 8.140625 -93.65625 Z M 27.9375 -93.65625 "/></g></g></g><g fill="#ffffff" fill-opacity="1"><g transform="translate(2958.13073, 2058.59544)"><g><path d="M 7.140625 0 L 7.140625 -11.75 L 53.875 -77.328125 L 7.046875 -77.328125 L 7.046875 -93.65625 L 78.75 -93.65625 L 78.75 -81.90625 L 31.96875 -16.328125 L 78.84375 -16.328125 L 78.84375 0 Z M 7.140625 0 "/></g></g></g></svg>