<svg xmlns="http://www.w3.org/2000/svg" xmlns:xlink="http://www.w3.org/1999/xlink" width="6000" zoomAndPan="magnify" viewBox="0 0 4500 2699.999998" height="3600" preserveAspectRatio="xMidYMid meet" version="1.0"><defs><filter x="0%" y="0%" width="100%" height="100%" id="65e5a42477"><feColorMatrix values="0 0 0 0 1 0 0 0 0 1 0 0 0 0 1 0 0 0 1 0" color-interpolation-filters="sRGB"/></filter><g/><clipPath id="0e8cba75ae"><path d="M 24.796875 85.917969 L 4476 85.917969 L 4476 2614.082031 L 24.796875 2614.082031 Z M 24.796875 85.917969 " clip-rule="nonzero"/></clipPath><clipPath id="af3a5b7614"><path d="M 48.046875 85.917969 L 4451.953125 85.917969 C 4458.117188 85.917969 4464.03125 88.371094 4468.390625 92.730469 C 4472.753906 97.089844 4475.203125 103.003906 4475.203125 109.167969 L 4475.203125 2590.832031 C 4475.203125 2596.996094 4472.753906 2602.910156 4468.390625 2607.269531 C 4464.03125 2611.628906 4458.117188 2614.082031 4451.953125 2614.082031 L 48.046875 2614.082031 C 41.882812 2614.082031 35.96875 2611.628906 31.605469 2607.269531 C 27.246094 2602.910156 24.796875 2596.996094 24.796875 2590.832031 L 24.796875 109.167969 C 24.796875 103.003906 27.246094 97.089844 31.605469 92.730469 C 35.96875 88.371094 41.882812 85.917969 48.046875 85.917969 Z M 48.046875 85.917969 " clip-rule="nonzero"/></clipPath><clipPath id="56155ca049"><path d="M 24.796875 85.933594 L 4474.359375 85.933594 L 4474.359375 2614.082031 L 24.796875 2614.082031 Z M 24.796875 85.933594 " clip-rule="nonzero"/></clipPath><clipPath id="19bcef8983"><path d="M 48.046875 85.933594 L 4451.898438 85.933594 C 4458.066406 85.933594 4463.980469 88.382812 4468.339844 92.746094 C 4472.699219 97.105469 4475.148438 103.019531 4475.148438 109.183594 L 4475.148438 2590.816406 C 4475.148438 2596.980469 4472.699219 2602.894531 4468.339844 2607.257812 C 4463.980469 2611.617188 4458.066406 2614.066406 4451.898438 2614.066406 L 48.046875 2614.066406 C 41.882812 2614.066406 35.96875 2611.617188 31.605469 2607.257812 C 27.246094 2602.894531 24.796875 2596.980469 24.796875 2590.816406 L 24.796875 109.183594 C 24.796875 103.019531 27.246094 97.105469 31.605469 92.746094 C 35.96875 88.382812 41.882812 85.933594 48.046875 85.933594 Z M 48.046875 85.933594 " clip-rule="nonzero"/></clipPath><clipPath id="a187ad72bc"><path d="M 1988.777344 1899.097656 L 2211.253906 1899.097656 L 2211.253906 2121.574219 L 1988.777344 2121.574219 Z M 1988.777344 1899.097656 " clip-rule="nonzero"/></clipPath><clipPath id="e3ac723a4a"><path d="M 4079 312.472656 L 4219 312.472656 L 4219 509.667969 L 4079 509.667969 Z M 4079 312.472656 " clip-rule="nonzero"/></clipPath><clipPath id="5909f6e621"><path d="M 3489 1810 L 3608 1810 L 3608 1930 L 3489 1930 Z M 3489 1810 " clip-rule="nonzero"/></clipPath><clipPath id="8f30bc36f9"><path d="M 3489.953125 1779.757812 L 3633.175781 1811.210938 L 3601.722656 1954.429688 L 3458.5 1922.976562 Z M 3489.953125 1779.757812 " clip-rule="nonzero"/></clipPath><clipPath id="1aea708d93"><path d="M 3489.953125 1779.757812 L 3633.175781 1811.210938 L 3601.722656 1954.429688 L 3458.5 1922.976562 Z M 3489.953125 1779.757812 " clip-rule="nonzero"/></clipPath><clipPath id="695b4d97a4"><path d="M 3489.953125 1779.757812 L 3633.175781 1811.210938 L 3601.722656 1954.429688 L 3458.5 1922.976562 Z M 3489.953125 1779.757812 " clip-rule="nonzero"/></clipPath><clipPath id="1b4ba890fc"><path d="M 821 422 L 943 422 L 943 539 L 821 539 Z M 821 422 " clip-rule="nonzero"/></clipPath><clipPath id="edffb9d19c"><path d="M 806.960938 409.1875 L 953.535156 404.894531 L 957.828125 551.464844 L 811.257812 555.757812 Z M 806.960938 409.1875 " clip-rule="nonzero"/></clipPath><clipPath id="156b2610a0"><path d="M 806.960938 409.1875 L 953.535156 404.894531 L 957.828125 551.464844 L 811.257812 555.757812 Z M 806.960938 409.1875 " clip-rule="nonzero"/></clipPath><clipPath id="e3c08ade78"><path d="M 806.960938 409.1875 L 953.535156 404.894531 L 957.828125 551.464844 L 811.257812 555.757812 Z M 806.960938 409.1875 " clip-rule="nonzero"/></clipPath><clipPath id="f43b97e481"><path d="M 1293 2009 L 1414 2009 L 1414 2126 L 1293 2126 Z M 1293 2009 " clip-rule="nonzero"/></clipPath><clipPath id="b32f6ec190"><path d="M 1278.089844 1996.695312 L 1424.660156 1992.402344 L 1428.953125 2138.972656 L 1282.382812 2143.265625 Z M 1278.089844 1996.695312 " clip-rule="nonzero"/></clipPath><clipPath id="bce601d3ac"><path d="M 1278.089844 1996.695312 L 1424.660156 1992.402344 L 1428.953125 2138.972656 L 1282.382812 2143.265625 Z M 1278.089844 1996.695312 " clip-rule="nonzero"/></clipPath><clipPath id="2c4263030b"><path d="M 1278.089844 1996.695312 L 1424.660156 1992.402344 L 1428.953125 2138.972656 L 1282.382812 2143.265625 Z M 1278.089844 1996.695312 " clip-rule="nonzero"/></clipPath><clipPath id="069a79a6f6"><path d="M 1810 1695 L 1922.109375 1695 L 1922.109375 1835 L 1810 1835 Z M 1810 1695 " clip-rule="nonzero"/></clipPath><mask id="0dbc727392"><g filter="url(#65e5a42477)"><rect x="-450" width="5400" fill="#000000" y="-270" height="3239.999997" fill-opacity="0.5"/></g></mask><clipPath id="6c4cb1503f"><path d="M 0.800781 0.359375 L 111 0.359375 L 111 96 L 0.800781 96 Z M 0.800781 0.359375 " clip-rule="nonzero"/></clipPath><clipPath id="cab54de26e"><path d="M 0.800781 16 L 112.109375 16 L 112.109375 133 L 0.800781 133 Z M 0.800781 16 " clip-rule="nonzero"/></clipPath><clipPath id="4743834991"><path d="M 0.800781 46 L 112.109375 46 L 112.109375 139.558594 L 0.800781 139.558594 Z M 0.800781 46 " clip-rule="nonzero"/></clipPath><clipPath id="c393133f80"><rect x="0" width="113" y="0" height="140"/></clipPath><clipPath id="e036c3746f"><path d="M 1755.253906 1681.582031 L 1889 1681.582031 L 1889 1842 L 1755.253906 1842 Z M 1755.253906 1681.582031 " clip-rule="nonzero"/></clipPath><clipPath id="a8c104c3b3"><path d="M 2277 412 L 2388.882812 412 L 2388.882812 552 L 2277 552 Z M 2277 412 " clip-rule="nonzero"/></clipPath><mask id="4705698ae7"><g filter="url(#65e5a42477)"><rect x="-450" width="5400" fill="#000000" y="-270" height="3239.999997" fill-opacity="0.5"/></g></mask><clipPath id="f8b3a01dfb"><path d="M 0.601562 0.800781 L 111 0.800781 L 111 96 L 0.601562 96 Z M 0.601562 0.800781 " clip-rule="nonzero"/></clipPath><clipPath id="8419a49535"><path d="M 0.601562 17 L 111.882812 17 L 111.882812 134 L 0.601562 134 Z M 0.601562 17 " clip-rule="nonzero"/></clipPath><clipPath id="34f1d30dd1"><path d="M 0.601562 46 L 111.882812 46 L 111.882812 140 L 0.601562 140 Z M 0.601562 46 " clip-rule="nonzero"/></clipPath><clipPath id="7d56cffaa5"><rect x="0" width="112" y="0" height="140"/></clipPath><clipPath id="76776c7785"><path d="M 2222.023438 399.03125 L 2356 399.03125 L 2356 559 L 2222.023438 559 Z M 2222.023438 399.03125 " clip-rule="nonzero"/></clipPath><clipPath id="6276a746e7"><path d="M 4204 1354 L 4316.175781 1354 L 4316.175781 1494 L 4204 1494 Z M 4204 1354 " clip-rule="nonzero"/></clipPath><mask id="3f15d5b3be"><g filter="url(#65e5a42477)"><rect x="-450" width="5400" fill="#000000" y="-270" height="3239.999997" fill-opacity="0.5"/></g></mask><clipPath id="33a26c3b77"><path d="M 0.800781 0.320312 L 111 0.320312 L 111 96 L 0.800781 96 Z M 0.800781 0.320312 " clip-rule="nonzero"/></clipPath><clipPath id="fc0168a708"><path d="M 0.800781 16 L 112.175781 16 L 112.175781 133 L 0.800781 133 Z M 0.800781 16 " clip-rule="nonzero"/></clipPath><clipPath id="8f1d6de73d"><path d="M 0.800781 46 L 112.175781 46 L 112.175781 139.519531 L 0.800781 139.519531 Z M 0.800781 46 " clip-rule="nonzero"/></clipPath><clipPath id="5b88249b75"><rect x="0" width="113" y="0" height="140"/></clipPath><clipPath id="4fcef486b5"><path d="M 4149.316406 1340.453125 L 4283 1340.453125 L 4283 1501 L 4149.316406 1501 Z M 4149.316406 1340.453125 " clip-rule="nonzero"/></clipPath><clipPath id="7c1dd4ef52"><path d="M 27.15625 1368 L 1269 1368 L 1269 2610.136719 L 27.15625 2610.136719 Z M 27.15625 1368 " clip-rule="nonzero"/></clipPath><clipPath id="debf43f1c9"><path d="M 3229 90.148438 L 4470.746094 90.148438 L 4470.746094 1332 L 3229 1332 Z M 3229 90.148438 " clip-rule="nonzero"/></clipPath></defs><g clip-path="url(#0e8cba75ae)"><g clip-path="url(#af3a5b7614)"><path fill="#f8cf29" d="M 24.796875 85.917969 L 4478.703125 85.917969 L 4478.703125 2614.082031 L 24.796875 2614.082031 Z M 24.796875 85.917969 " fill-opacity="1" fill-rule="nonzero"/></g></g><g clip-path="url(#56155ca049)"><g clip-path="url(#19bcef8983)"><path stroke-linecap="butt" transform="matrix(5.056321, 0, 0, 5.056321, 24.7975, 85.934818)" fill="none" stroke-linejoin="miter" d="M 4.598081 -0.000242111 L 875.558422 -0.000242111 C 876.777503 -0.000242111 877.94714 0.484145 878.809303 1.347081 C 879.671467 2.209245 880.156627 3.378882 880.156627 4.597962 L 880.156627 495.396032 C 880.156627 496.615112 879.671467 497.784749 878.809303 498.647685 C 877.94714 499.509849 876.777503 499.994236 875.558422 499.994236 L 4.598081 499.994236 C 3.379 499.994236 2.209363 499.509849 1.346427 498.647685 C 0.484264 497.784749 -0.000123684 496.615112 -0.000123684 495.396032 L -0.000123684 4.597962 C -0.000123684 3.378882 0.484264 2.209245 1.346427 1.347081 C 2.209363 0.484145 3.379 -0.000242111 4.598081 -0.000242111 Z M 4.598081 -0.000242111 " stroke="#b1aeb7" stroke-width="0.296658" stroke-opacity="1" stroke-miterlimit="4"/></g></g><g clip-path="url(#a187ad72bc)"><path fill="#ffffff" d="M 2100.015625 1899.097656 C 2038.582031 1899.097656 1988.777344 1948.90625 1988.777344 2010.335938 C 1988.777344 2071.765625 2038.582031 2121.574219 2100.015625 2121.574219 C 2161.445312 2121.574219 2211.253906 2071.765625 2211.253906 2010.335938 C 2211.253906 1948.90625 2161.445312 1899.097656 2100.015625 1899.097656 Z M 2141.320312 2011.59375 L 2078.75 2048.941406 C 2078.300781 2049.210938 2077.730469 2049.226562 2077.269531 2048.953125 C 2076.820312 2048.695312 2076.535156 2048.214844 2076.535156 2047.679688 L 2076.535156 1972.984375 C 2076.535156 1972.457031 2076.820312 1971.96875 2077.269531 1971.710938 C 2077.730469 1971.445312 2078.300781 1971.457031 2078.75 1971.722656 L 2141.320312 2009.074219 C 2141.769531 2009.332031 2142.035156 2009.824219 2142.035156 2010.332031 C 2142.035156 2010.851562 2141.769531 2011.335938 2141.320312 2011.59375 Z M 2141.320312 2011.59375 " fill-opacity="1" fill-rule="nonzero"/></g><g clip-path="url(#e3ac723a4a)"><path fill="#ffffff" d="M 4088.792969 512.117188 L 4209.789062 512.117188 C 4214.800781 512.117188 4218.863281 508.054688 4218.863281 503.042969 L 4218.863281 400.195312 C 4218.863281 395.183594 4214.800781 391.121094 4209.789062 391.121094 L 4200.714844 391.121094 L 4200.714844 363.894531 C 4200.714844 335.539062 4177.644531 312.472656 4149.292969 312.472656 C 4120.9375 312.472656 4097.867188 335.539062 4097.867188 363.894531 L 4097.867188 391.121094 L 4088.792969 391.121094 C 4083.78125 391.121094 4079.71875 395.183594 4079.71875 400.195312 L 4079.71875 503.042969 C 4079.71875 508.054688 4083.78125 512.117188 4088.792969 512.117188 Z M 4158.367188 454.632812 L 4158.367188 466.742188 C 4158.367188 471.753906 4154.304688 475.816406 4149.292969 475.816406 C 4144.28125 475.816406 4140.214844 471.753906 4140.214844 466.742188 L 4140.214844 454.632812 C 4136.546875 451.871094 4134.167969 447.480469 4134.167969 442.542969 C 4134.167969 434.203125 4140.953125 427.417969 4149.292969 427.417969 C 4157.628906 427.417969 4164.414062 434.203125 4164.414062 442.542969 C 4164.414062 447.480469 4162.035156 451.871094 4158.367188 454.632812 Z M 4116.015625 363.894531 C 4116.015625 345.546875 4130.945312 330.621094 4149.292969 330.621094 C 4167.636719 330.621094 4182.566406 345.546875 4182.566406 363.894531 L 4182.566406 391.121094 L 4116.015625 391.121094 Z M 4116.015625 363.894531 " fill-opacity="1" fill-rule="nonzero"/></g><g clip-path="url(#5909f6e621)"><g clip-path="url(#8f30bc36f9)"><g clip-path="url(#1aea708d93)"><g clip-path="url(#695b4d97a4)"><path stroke-linecap="round" transform="matrix(5.967513, 1.310525, -1.310525, 5.967513, 3489.954453, 1779.757536)" fill="none" stroke-linejoin="round" d="M 11.269009 4.410849 C 11.500673 3.891944 11.616437 3.63218 11.777592 3.552277 C 11.917499 3.482931 12.081784 3.482855 12.22204 3.552205 C 12.382935 3.632078 12.49893 3.892003 12.730783 4.411231 L 14.574623 8.547822 C 14.643102 8.701667 14.677029 8.778658 14.73042 8.836973 C 14.77717 8.888892 14.834139 8.930712 14.898006 8.959234 C 14.970601 8.991731 15.054282 9.000192 15.221158 9.017875 L 19.725755 9.493584 C 20.291343 9.553313 20.574068 9.582866 20.69989 9.71168 C 20.808835 9.823254 20.859554 9.97969 20.837118 10.133863 C 20.810876 10.312437 20.59924 10.502268 20.176867 10.883043 L 16.81255 13.91555 C 16.687999 14.027999 16.625099 14.08436 16.585748 14.15257 C 16.550646 14.2133 16.528841 14.280929 16.521871 14.350536 C 16.512938 14.429085 16.530279 14.511027 16.565722 14.6754 L 17.505371 19.10613 C 17.623054 19.662868 17.68207 19.940543 17.598664 20.100251 C 17.526267 20.238557 17.393642 20.335105 17.239139 20.361835 C 17.061743 20.391629 16.815776 20.24927 16.322729 19.965451 L 12.399692 17.70265 C 12.254134 17.6181 12.180868 17.576586 12.103934 17.560098 C 12.035315 17.545711 11.964581 17.545535 11.895753 17.559996 C 11.818181 17.576377 11.745608 17.618498 11.600325 17.702116 L 7.676904 19.965207 C 7.184245 20.249483 6.937847 20.391309 6.760461 20.361534 C 6.606089 20.335213 6.472974 20.238766 6.400644 20.100168 C 6.317268 19.941086 6.376629 19.662942 6.494589 19.106168 L 7.434325 14.675749 C 7.468854 14.511065 7.486255 14.429348 7.47813 14.350619 C 7.470675 14.280906 7.448721 14.213723 7.413714 14.152679 C 7.374426 14.084066 7.311668 14.027808 7.186776 13.915154 L 3.822655 10.882879 C 3.400028 10.502426 3.188783 10.312512 3.162737 10.134293 C 3.13989 9.979592 3.190626 9.823131 3.299641 9.711476 C 3.425896 9.582943 3.708631 9.552926 4.274239 9.493517 L 8.778153 9.018263 C 8.945741 9.000442 9.028842 8.991356 9.101599 8.959013 C 9.1654 8.930601 9.222437 8.889273 9.269238 8.837102 C 9.322435 8.778289 9.356607 8.701399 9.425087 8.548242 Z M 11.269009 4.410849 " stroke="#ffffff" stroke-width="2" stroke-opacity="1" stroke-miterlimit="4"/></g></g></g></g><g clip-path="url(#1b4ba890fc)"><g clip-path="url(#edffb9d19c)"><g clip-path="url(#156b2610a0)"><g clip-path="url(#e3c08ade78)"><path stroke-linecap="round" transform="matrix(6.107102, -0.178893, 0.178893, 6.107102, 806.962816, 409.187651)" fill="none" stroke-linejoin="round" d="M 11.269229 4.410883 C 11.500624 3.89189 11.616322 3.632393 11.777303 3.552039 C 11.917496 3.482589 12.081869 3.482926 12.221835 3.552268 C 12.383248 3.631832 12.499083 3.891715 12.730771 4.41084 L 14.574502 8.548209 C 14.64292 8.701804 14.677138 8.778282 14.730414 8.837409 C 14.776866 8.8893 14.8345 8.930645 14.898261 8.959377 C 14.970235 8.991547 15.054406 9.000409 15.22147 9.018095 L 19.725848 9.493518 C 20.290815 9.552923 20.573929 9.582963 20.70001 9.711383 C 20.809305 9.823321 20.859736 9.979587 20.837292 10.134358 C 20.81098 10.312043 20.599451 10.502211 20.177012 10.883205 L 16.812669 13.915615 C 16.687856 14.027731 16.625441 14.084109 16.585695 14.152663 C 16.550647 14.21368 16.528851 14.280842 16.521698 14.350352 C 16.513005 14.428771 16.53042 14.511153 16.56525 14.675917 L 17.505554 19.106634 C 17.623586 19.662726 17.682602 19.940773 17.59862 20.100138 C 17.526121 20.238731 17.393449 20.335266 17.239172 20.361449 C 17.061758 20.391431 16.815829 20.249266 16.323314 19.965558 L 12.39964 17.702125 C 12.253696 17.618537 12.181363 17.576761 12.103826 17.559779 C 12.035162 17.545615 11.964168 17.545454 11.895939 17.560085 C 11.818707 17.576372 11.745839 17.618372 11.600103 17.702371 L 7.676874 19.965572 C 7.183731 20.249191 6.93778 20.391659 6.760208 20.361512 C 6.606188 20.335253 6.473418 20.238618 6.400716 20.100249 C 6.31711 19.941092 6.376436 19.662674 6.494429 19.106459 L 7.433979 14.675801 C 7.468864 14.51116 7.486617 14.429169 7.478055 14.350244 C 7.470491 14.280943 7.448811 14.213147 7.414124 14.152646 C 7.37455 14.084327 7.312234 14.028133 7.186981 13.915088 L 3.822461 10.883216 C 3.399951 10.502416 3.188695 10.312016 3.162566 10.134075 C 3.139597 9.979253 3.190855 9.823407 3.299672 9.711462 C 3.425611 9.582749 3.708548 9.553299 4.27382 9.493102 L 8.778537 9.018054 C 8.945352 9.000554 9.029407 8.991503 9.101356 8.95907 C 9.165504 8.930887 9.222377 8.889059 9.269305 8.837344 C 9.322209 8.77813 9.356428 8.701738 9.424885 8.548314 Z M 11.269229 4.410883 " stroke="#ffffff" stroke-width="2" stroke-opacity="1" stroke-miterlimit="4"/></g></g></g></g><g clip-path="url(#f43b97e481)"><g clip-path="url(#b32f6ec190)"><g clip-path="url(#bce601d3ac)"><g clip-path="url(#2c4263030b)"><path stroke-linecap="round" transform="matrix(6.107102, -0.178893, 0.178893, 6.107102, 1278.087956, 1996.696887)" fill="none" stroke-linejoin="round" d="M 11.269194 4.411288 C 11.500608 3.891656 11.616306 3.63216 11.777926 3.551824 C 11.91748 3.482355 12.081853 3.482693 12.221819 3.552034 C 12.383213 3.632238 12.499067 3.891481 12.730736 4.411246 L 14.574486 8.547975 C 14.642904 8.70157 14.677104 8.778687 14.730398 8.837175 C 14.77685 8.889066 14.834465 8.93105 14.898245 8.959143 C 14.970219 8.991314 15.05439 9.000175 15.221454 9.017862 L 19.725832 9.493285 C 20.290781 9.553328 20.573912 9.582729 20.699976 9.711788 C 20.809289 9.823087 20.85972 9.979353 20.837276 10.134125 C 20.810945 10.312448 20.599416 10.502616 20.176996 10.882972 L 16.812653 13.915382 C 16.687822 14.028137 16.625406 14.084514 16.585679 14.15243 C 16.550631 14.213447 16.528835 14.280608 16.521682 14.350118 C 16.51297 14.429176 16.530404 14.510919 16.565234 14.675683 L 17.505538 19.1064 C 17.62357 19.662493 17.682586 19.940539 17.598604 20.099904 C 17.526105 20.238498 17.393414 20.335671 17.239156 20.361215 C 17.061742 20.391197 16.815794 20.249672 16.323298 19.965324 L 12.399605 17.702531 C 12.25368 17.618303 12.181347 17.576528 12.103791 17.560184 C 12.035146 17.545381 11.964152 17.54522 11.895923 17.559852 C 11.818673 17.576778 11.745823 17.618138 11.600087 17.702137 L 7.676858 19.965338 C 7.184335 20.249616 6.937764 20.391425 6.760192 20.361278 C 6.606153 20.335659 6.473383 20.239024 6.4007 20.100015 C 6.317094 19.940858 6.37642 19.662441 6.494413 19.106226 L 7.433963 14.675567 C 7.468848 14.510926 7.486601 14.428935 7.478039 14.35001 C 7.471114 14.280728 7.448776 14.213553 7.414108 14.152413 C 7.374534 14.084093 7.312218 14.027899 7.186946 13.915494 L 3.822445 10.882983 C 3.399934 10.502183 3.18866 10.312422 3.162531 10.134481 C 3.139563 9.979658 3.190839 9.823173 3.299656 9.711228 C 3.425576 9.583154 3.708532 9.553065 4.273785 9.493508 L 8.778521 9.01782 C 8.945335 9.00032 9.029391 8.991269 9.101321 8.959476 C 9.165488 8.930654 9.222342 8.889464 9.269289 8.837111 C 9.322174 8.778535 9.356412 8.701504 9.424869 8.548081 Z M 11.269194 4.411288 " stroke="#ffffff" stroke-width="2" stroke-opacity="1" stroke-miterlimit="4"/></g></g></g></g><g clip-path="url(#069a79a6f6)"><g mask="url(#0dbc727392)"><g transform="matrix(1, 0, 0, 1, 1810, 1695)"><g clip-path="url(#c393133f80)"><path fill="#ffffff" d="M 21.15625 32.292969 C 20.074219 27.644531 19.15625 23.707031 18.164062 20.617188 L 64.285156 33.996094 C 64.589844 34.085938 65.382812 34.433594 66.476562 37.308594 C 67.550781 40.113281 68.519531 44.242188 69.910156 50.230469 L 70.746094 53.816406 C 70.929688 54.613281 71.105469 55.375 71.292969 56.097656 L 29.496094 44.519531 L 27.382812 43.316406 C 24.398438 41.617188 23.847656 41.222656 23.460938 40.683594 C 23.03125 40.082031 22.773438 39.246094 21.925781 35.609375 Z M 21.15625 32.292969 " fill-opacity="1" fill-rule="nonzero"/><g clip-path="url(#6c4cb1503f)"><path stroke-linecap="butt" transform="matrix(6.952441, 0, 0, 6.952441, -54.747768, -13.417472)" fill="none" stroke-linejoin="miter" d="M 10.917607 6.574733 C 10.761974 5.906128 10.629939 5.33978 10.487228 4.895354 L 17.121027 6.819701 C 17.164852 6.832623 17.278908 6.882628 17.436227 7.296152 C 17.590736 7.699563 17.730076 8.293441 17.930095 9.154762 L 18.050332 9.670543 C 18.076739 9.785161 18.102022 9.894723 18.128991 9.998665 L 12.117164 8.333333 L 11.813201 8.160282 C 11.383945 7.915876 11.304724 7.859129 11.249101 7.781593 C 11.187297 7.695068 11.150215 7.574831 11.028292 7.051746 Z M 10.917607 6.574733 " stroke="#ffffff" stroke-width="1" stroke-opacity="1" stroke-miterlimit="4"/></g><path fill="#ffffff" d="M 44.96875 56.019531 L 79.78125 65.664062 L 81.894531 66.863281 C 86.804688 69.664062 90.117188 71.558594 92.273438 73.289062 C 94.339844 74.945312 94.695312 75.933594 94.726562 76.773438 C 94.757812 77.65625 94.433594 78.769531 92.449219 80.761719 C 90.40625 82.808594 87.226562 85.183594 82.554688 88.65625 L 79.777344 90.71875 C 78.46875 91.6875 77.28125 92.566406 76.28125 93.554688 L 28.972656 79.828125 L 31.464844 77.976562 C 35.851562 74.71875 39.457031 72.039062 41.910156 69.582031 C 44.460938 67.019531 46.34375 64.132812 46.210938 60.429688 C 46.148438 58.765625 45.695312 57.316406 44.96875 56.019531 Z M 44.96875 56.019531 " fill-opacity="1" fill-rule="nonzero"/><g clip-path="url(#cab54de26e)"><path stroke-linecap="butt" transform="matrix(6.952441, 0, 0, 6.952441, -54.747768, -13.417472)" fill="none" stroke-linejoin="miter" d="M 14.342664 9.987428 L 19.349898 11.374644 L 19.653861 11.547132 C 20.36011 11.949981 20.836561 12.22248 21.146704 12.471381 C 21.443924 12.709606 21.495053 12.851755 21.499548 12.972554 C 21.504043 13.099532 21.457409 13.259661 21.171987 13.546206 C 20.878138 13.840617 20.42079 14.182223 19.748814 14.681711 L 19.349336 14.978369 C 19.161115 15.117709 18.990312 15.244125 18.846478 15.386274 L 12.041875 13.411923 L 12.400338 13.145604 C 13.031299 12.677019 13.549889 12.291588 13.902733 11.938182 C 14.269623 11.569607 14.540436 11.154397 14.521333 10.62176 C 14.512343 10.382411 14.447168 10.173964 14.342664 9.987428 Z M 14.342664 9.987428 " stroke="#ffffff" stroke-width="1" stroke-opacity="1" stroke-miterlimit="4"/></g><path fill="#ffffff" d="M 24.328125 85.722656 L 73.082031 99.863281 C 72.878906 100.847656 72.71875 101.902344 72.542969 103.042969 L 71.980469 106.707031 C 71.445312 110.1875 70.652344 113.289062 69.8125 115.914062 C 68.332031 120.542969 67.953125 121.1875 66.839844 121.828125 C 66.359375 122.101562 65.910156 122.222656 64.96875 122.113281 C 63.8125 121.984375 62.335938 121.566406 59.8125 120.835938 L 19.523438 109.148438 C 20.007812 108.128906 20.390625 107.039062 20.714844 105.929688 C 21.726562 102.476562 22.453125 97.757812 23.347656 91.941406 L 23.871094 88.546875 C 24.054688 87.339844 24.203125 86.429688 24.328125 85.722656 Z M 24.328125 85.722656 " fill-opacity="1" fill-rule="nonzero"/><g clip-path="url(#4743834991)"><path stroke-linecap="butt" transform="matrix(6.952441, 0, 0, 6.952441, -54.747768, -13.417472)" fill="none" stroke-linejoin="miter" d="M 11.373832 14.259759 L 18.38632 16.293667 C 18.357104 16.435254 18.334068 16.586954 18.308784 16.751015 L 18.227877 17.278034 C 18.150904 17.778645 18.036847 18.224756 17.916049 18.602321 C 17.703107 19.268117 17.648607 19.360823 17.488479 19.452967 C 17.419371 19.492296 17.354758 19.509714 17.219351 19.493982 C 17.053043 19.475441 16.840662 19.415323 16.477705 19.310256 L 10.682753 17.629192 C 10.752423 17.482548 10.807484 17.325791 10.854118 17.166225 C 10.999638 16.669547 11.104143 15.990828 11.232807 15.154229 L 11.308095 14.665979 C 11.334502 14.492366 11.355853 14.361454 11.373832 14.259759 Z M 11.373832 14.259759 " stroke="#ffffff" stroke-width="1" stroke-opacity="1" stroke-miterlimit="4"/></g></g></g></g></g><path fill="#ffffff" d="M 1806.738281 1723.804688 C 1810.71875 1719.363281 1813.445312 1716.335938 1815.644531 1714.503906 C 1817.871094 1712.652344 1818.597656 1712.84375 1818.824219 1712.90625 C 1819.128906 1712.996094 1819.917969 1713.34375 1821.015625 1716.21875 C 1822.085938 1719.027344 1823.054688 1723.152344 1824.449219 1729.140625 L 1825.28125 1732.726562 C 1825.929688 1735.527344 1826.46875 1737.855469 1827.8125 1739.730469 C 1829.199219 1741.664062 1831.207031 1742.804688 1833.5 1744.105469 L 1833.945312 1744.359375 L 1836.433594 1745.773438 C 1841.34375 1748.574219 1844.65625 1750.472656 1846.8125 1752.199219 C 1848.878906 1753.855469 1849.234375 1754.84375 1849.265625 1755.683594 C 1849.296875 1756.570312 1848.972656 1757.679688 1846.988281 1759.671875 C 1844.945312 1761.71875 1841.761719 1764.09375 1837.089844 1767.566406 L 1834.316406 1769.628906 C 1832.109375 1771.261719 1830.253906 1772.636719 1829.058594 1774.691406 C 1827.886719 1776.699219 1827.527344 1779.046875 1827.082031 1781.957031 L 1826.519531 1785.617188 C 1825.570312 1791.761719 1824.910156 1796.019531 1824.042969 1798.980469 C 1823.558594 1800.644531 1823.09375 1801.574219 1822.703125 1802.105469 C 1821.949219 1801.824219 1820.945312 1801.417969 1819.761719 1800.847656 C 1816.945312 1799.5 1813.128906 1797.265625 1809.21875 1793.75 L 1807.046875 1791.792969 L 1806.953125 1791.710938 C 1805.839844 1790.707031 1804.851562 1789.820312 1803.957031 1789.140625 C 1802.988281 1788.40625 1801.945312 1787.773438 1800.667969 1787.402344 C 1798.410156 1786.746094 1796.085938 1787.183594 1793.578125 1787.652344 L 1793.035156 1787.753906 L 1790.253906 1788.273438 C 1784.742188 1789.292969 1781.046875 1789.96875 1778.398438 1790.015625 C 1775.851562 1790.0625 1775.316406 1789.515625 1775.03125 1789.117188 C 1774.628906 1788.558594 1774.257812 1787.476562 1774.878906 1784.433594 C 1775.496094 1781.398438 1776.886719 1777.355469 1778.90625 1771.519531 L 1780.105469 1768.0625 C 1781.070312 1765.285156 1781.839844 1763.0625 1781.753906 1760.714844 C 1781.667969 1758.351562 1780.726562 1756.222656 1779.5625 1753.59375 L 1778.117188 1750.324219 C 1775.679688 1744.796875 1774.007812 1740.988281 1773.175781 1738.074219 C 1772.351562 1735.191406 1772.609375 1734.023438 1773.023438 1733.3125 C 1773.367188 1732.722656 1773.988281 1732.097656 1776.496094 1731.785156 C 1779.136719 1731.460938 1782.859375 1731.605469 1788.414062 1731.84375 L 1791.222656 1731.960938 L 1791.753906 1731.984375 C 1794.304688 1732.097656 1796.636719 1732.203125 1798.804688 1731.246094 C 1800.914062 1730.3125 1802.507812 1728.527344 1804.339844 1726.480469 L 1804.71875 1726.054688 Z M 1806.738281 1723.804688 " fill-opacity="1" fill-rule="nonzero"/><g clip-path="url(#e036c3746f)"><path stroke-linecap="butt" transform="matrix(6.952441, 0, 0, 6.952441, 1755.252239, 1681.58254)" fill="none" stroke-linejoin="miter" d="M 7.405463 6.072996 C 7.977991 5.434169 8.370165 4.998733 8.686488 4.735224 C 9.006744 4.468906 9.111249 4.496437 9.143836 4.505426 C 9.187661 4.518349 9.301155 4.568354 9.459036 4.981878 C 9.612984 5.38585 9.752323 5.979167 9.952905 6.840488 L 10.072579 7.356269 C 10.165847 7.759117 10.243383 8.093982 10.43666 8.363671 C 10.636118 8.641789 10.92491 8.80585 11.254718 8.992947 L 11.318769 9.029467 L 11.67667 9.232858 C 12.382919 9.635707 12.859371 9.908767 13.169513 10.157106 C 13.466734 10.395332 13.517862 10.537481 13.522357 10.658279 C 13.526852 10.78582 13.480218 10.945386 13.194797 11.231931 C 12.900948 11.526342 12.443037 11.867949 11.771061 12.367436 L 11.372146 12.664095 C 11.054699 12.898949 10.787818 13.096721 10.615891 13.392256 C 10.447335 13.681049 10.395645 14.018722 10.331594 14.437303 L 10.250687 14.963759 C 10.114157 15.847554 10.019203 16.459974 9.894472 16.885858 C 9.824802 17.125208 9.757942 17.258929 9.701756 17.335341 C 9.593319 17.294887 9.448923 17.236455 9.278681 17.154424 C 8.873585 16.960585 8.324655 16.639205 7.76224 16.133537 L 7.449849 15.852049 L 7.436365 15.84025 C 7.276237 15.695854 7.134088 15.568313 7.005424 15.470551 C 6.866084 15.364922 6.716069 15.273902 6.532343 15.220526 C 6.207592 15.126135 5.87329 15.189062 5.51258 15.256485 L 5.434482 15.271093 L 5.034443 15.345819 C 4.241668 15.492463 3.710155 15.589663 3.329219 15.596406 C 2.962891 15.603148 2.885917 15.524488 2.844902 15.467179 C 2.787031 15.386834 2.733655 15.231201 2.822989 14.793518 C 2.911762 14.356958 3.111782 13.77544 3.40226 12.936031 L 3.574749 12.438791 C 3.713527 12.039314 3.824212 11.71962 3.811851 11.381946 C 3.79949 11.042025 3.664084 10.735815 3.496651 10.357688 L 3.288766 9.887417 C 2.938169 9.092395 2.697696 8.544588 2.578022 8.125446 C 2.459471 7.710798 2.496553 7.542804 2.556109 7.440547 C 2.605552 7.355707 2.694887 7.26581 3.055597 7.220862 C 3.435409 7.174228 3.970855 7.195017 4.76981 7.22929 L 5.173783 7.246146 L 5.250195 7.249517 C 5.617085 7.26581 5.952511 7.28098 6.264339 7.143326 C 6.56774 7.009044 6.796976 6.752277 7.060485 6.457866 L 7.114985 6.396624 Z M 7.405463 6.072996 " stroke="#ffffff" stroke-width="1" stroke-opacity="1" stroke-miterlimit="4"/></g><g clip-path="url(#a8c104c3b3)"><g mask="url(#4705698ae7)"><g transform="matrix(1, 0, 0, 1, 2277, 412)"><g clip-path="url(#7d56cffaa5)"><path fill="#ffffff" d="M 20.925781 32.738281 C 19.847656 28.09375 18.929688 24.15625 17.9375 21.066406 L 64.058594 34.445312 C 64.363281 34.535156 65.15625 34.882812 66.25 37.753906 C 67.320312 40.5625 68.289062 44.691406 69.683594 50.679688 L 70.515625 54.265625 C 70.703125 55.0625 70.878906 55.824219 71.066406 56.546875 L 29.265625 44.96875 L 27.15625 43.765625 C 24.171875 42.066406 23.621094 41.671875 23.234375 41.132812 C 22.804688 40.53125 22.546875 39.695312 21.699219 36.058594 Z M 20.925781 32.738281 " fill-opacity="1" fill-rule="nonzero"/><g clip-path="url(#f8b3a01dfb)"><path stroke-linecap="butt" transform="matrix(6.952441, 0, 0, 6.952441, -54.974857, -12.969214)" fill="none" stroke-linejoin="miter" d="M 10.917121 6.574309 C 10.76205 5.906266 10.630014 5.339918 10.487304 4.895492 L 17.121103 6.819839 C 17.164927 6.832762 17.278983 6.882767 17.436302 7.295729 C 17.59025 7.699701 17.72959 8.29358 17.930171 9.1549 L 18.049846 9.670681 C 18.076815 9.785299 18.102098 9.894861 18.129067 9.998804 L 12.116678 8.333471 L 11.813277 8.16042 C 11.384021 7.916014 11.3048 7.859267 11.249177 7.781731 C 11.187373 7.695206 11.15029 7.57497 11.028368 7.051884 Z M 10.917121 6.574309 " stroke="#ffffff" stroke-width="1" stroke-opacity="1" stroke-miterlimit="4"/></g><path fill="#ffffff" d="M 44.738281 56.46875 L 79.554688 66.109375 L 81.667969 67.3125 C 86.578125 70.109375 89.890625 72.007812 92.046875 73.738281 C 94.113281 75.390625 94.46875 76.378906 94.5 77.222656 C 94.53125 78.105469 94.207031 79.21875 92.222656 81.207031 C 90.179688 83.257812 87 85.632812 82.324219 89.105469 L 79.550781 91.164062 C 78.242188 92.136719 77.054688 93.015625 76.054688 94 L 28.746094 80.277344 L 31.238281 78.425781 C 35.625 75.167969 39.230469 72.488281 41.683594 70.027344 C 44.234375 67.46875 46.117188 64.582031 45.980469 60.878906 C 45.921875 59.214844 45.46875 57.761719 44.738281 56.46875 Z M 44.738281 56.46875 " fill-opacity="1" fill-rule="nonzero"/><g clip-path="url(#8419a49535)"><path stroke-linecap="butt" transform="matrix(6.952441, 0, 0, 6.952441, -54.974857, -12.969214)" fill="none" stroke-linejoin="miter" d="M 14.342178 9.987567 L 19.349974 11.37422 L 19.653936 11.547271 C 20.360186 11.949557 20.836637 12.222618 21.14678 12.471519 C 21.444 12.709183 21.495129 12.851332 21.499624 12.972692 C 21.504118 13.099671 21.457485 13.259799 21.172063 13.545782 C 20.878214 13.840755 20.420866 14.182361 19.748328 14.681849 L 19.349412 14.977945 C 19.161191 15.117847 18.990388 15.244264 18.846553 15.385851 L 12.041951 13.412061 L 12.400413 13.145743 C 13.031374 12.677157 13.549965 12.291726 13.902808 11.937758 C 14.269699 11.569745 14.540512 11.154535 14.520847 10.621899 C 14.512419 10.382549 14.447244 10.17354 14.342178 9.987567 Z M 14.342178 9.987567 " stroke="#ffffff" stroke-width="1" stroke-opacity="1" stroke-miterlimit="4"/></g><path fill="#ffffff" d="M 24.101562 86.167969 L 72.855469 100.3125 C 72.652344 101.292969 72.492188 102.351562 72.316406 103.492188 L 71.753906 107.152344 C 71.21875 110.636719 70.425781 113.734375 69.585938 116.363281 C 68.105469 120.992188 67.726562 121.636719 66.613281 122.273438 C 66.132812 122.550781 65.683594 122.667969 64.742188 122.5625 C 63.585938 122.433594 62.109375 122.015625 59.585938 121.285156 L 19.296875 109.597656 C 19.78125 108.578125 20.164062 107.488281 20.488281 106.378906 C 21.496094 102.921875 22.222656 98.207031 23.121094 92.390625 L 23.644531 88.996094 C 23.828125 87.789062 23.976562 86.875 24.101562 86.167969 Z M 24.101562 86.167969 " fill-opacity="1" fill-rule="nonzero"/><g clip-path="url(#34f1d30dd1)"><path stroke-linecap="butt" transform="matrix(6.952441, 0, 0, 6.952441, -54.974857, -12.969214)" fill="none" stroke-linejoin="miter" d="M 11.373908 14.259335 L 18.386396 16.293805 C 18.357179 16.43483 18.334144 16.587092 18.30886 16.751154 L 18.227953 17.27761 C 18.150979 17.778783 18.036923 18.224332 17.916125 18.602459 C 17.703183 19.268255 17.648683 19.360961 17.488555 19.452543 C 17.419447 19.492435 17.354834 19.50929 17.219427 19.49412 C 17.053119 19.475579 16.840738 19.415461 16.477781 19.310394 L 10.682829 17.62933 C 10.752498 17.482686 10.80756 17.325929 10.854194 17.166363 C 10.999152 16.669123 11.103657 15.990966 11.232883 15.154367 L 11.308171 14.666117 C 11.334578 14.492504 11.355929 14.361031 11.373908 14.259335 Z M 11.373908 14.259335 " stroke="#ffffff" stroke-width="1" stroke-opacity="1" stroke-miterlimit="4"/></g></g></g></g></g><path fill="#ffffff" d="M 2273.511719 441.25 C 2277.492188 436.808594 2280.21875 433.785156 2282.414062 431.953125 C 2284.644531 430.097656 2285.371094 430.289062 2285.59375 430.355469 C 2285.902344 430.445312 2286.691406 430.792969 2287.789062 433.667969 C 2288.859375 436.472656 2289.828125 440.601562 2291.222656 446.589844 L 2292.054688 450.175781 C 2292.703125 452.976562 2293.242188 455.304688 2294.585938 457.179688 C 2295.96875 459.113281 2297.980469 460.253906 2300.273438 461.554688 L 2300.71875 461.808594 L 2303.203125 463.222656 C 2308.117188 466.019531 2311.429688 467.917969 2313.585938 469.648438 C 2315.648438 471.304688 2316.003906 472.289062 2316.035156 473.132812 C 2316.070312 474.015625 2315.746094 475.128906 2313.761719 477.121094 C 2311.71875 479.167969 2308.535156 481.542969 2303.863281 485.015625 L 2301.089844 487.074219 C 2298.882812 488.710938 2297.027344 490.085938 2295.832031 492.140625 C 2294.660156 494.144531 2294.300781 496.496094 2293.855469 499.402344 L 2293.292969 503.0625 C 2292.34375 509.210938 2291.683594 513.46875 2290.816406 516.429688 C 2290.332031 518.09375 2289.867188 519.023438 2289.476562 519.554688 C 2288.722656 519.273438 2287.71875 518.863281 2286.535156 518.296875 C 2283.71875 516.949219 2279.902344 514.714844 2275.992188 511.199219 L 2273.820312 509.242188 L 2273.726562 509.15625 C 2272.613281 508.15625 2271.625 507.269531 2270.730469 506.589844 C 2269.761719 505.855469 2268.71875 505.222656 2267.441406 504.851562 C 2265.183594 504.195312 2262.859375 504.632812 2260.351562 505.101562 L 2259.808594 505.203125 L 2257.023438 505.71875 C 2251.515625 506.742188 2247.820312 507.414062 2245.167969 507.464844 C 2242.625 507.511719 2242.089844 506.964844 2241.804688 506.566406 C 2241.402344 506.007812 2241.03125 504.925781 2241.652344 501.878906 C 2242.269531 498.847656 2243.660156 494.804688 2245.679688 488.96875 L 2246.878906 485.511719 C 2247.84375 482.730469 2248.613281 480.507812 2248.527344 478.164062 C 2248.441406 475.800781 2247.5 473.671875 2246.335938 471.042969 L 2244.890625 467.769531 C 2242.453125 462.246094 2240.78125 458.4375 2239.949219 455.523438 C 2239.125 452.640625 2239.378906 451.472656 2239.792969 450.761719 C 2240.140625 450.171875 2240.761719 449.542969 2243.269531 449.234375 C 2245.910156 448.90625 2249.632812 449.054688 2255.1875 449.292969 L 2257.996094 449.410156 L 2258.527344 449.433594 C 2261.078125 449.546875 2263.410156 449.652344 2265.578125 448.691406 C 2267.6875 447.761719 2269.28125 445.976562 2271.113281 443.929688 L 2271.492188 443.503906 Z M 2273.511719 441.25 " fill-opacity="1" fill-rule="nonzero"/><g clip-path="url(#76776c7785)"><path stroke-linecap="butt" transform="matrix(6.952441, 0, 0, 6.952441, 2222.025147, 399.030786)" fill="none" stroke-linejoin="miter" d="M 7.405539 6.072574 C 7.978067 5.433748 8.370241 4.998873 8.686002 4.735364 C 9.00682 4.468484 9.111325 4.496015 9.143351 4.505566 C 9.187737 4.518489 9.301231 4.568494 9.459112 4.982018 C 9.61306 5.385428 9.752399 5.979307 9.952981 6.840628 L 10.072656 7.356409 C 10.165923 7.759257 10.243459 8.094122 10.436736 8.363811 C 10.635632 8.641928 10.924987 8.80599 11.254794 8.993087 L 11.318846 9.029607 L 11.676184 9.232998 C 12.382995 9.635285 12.859447 9.908345 13.16959 10.157246 C 13.466248 10.395472 13.517377 10.537059 13.521871 10.658419 C 13.526928 10.785398 13.480294 10.945526 13.194873 11.232071 C 12.901024 11.526482 12.443114 11.868089 11.771137 12.367576 L 11.372222 12.663673 C 11.054775 12.899089 10.787894 13.096861 10.615967 13.392396 C 10.447412 13.680627 10.395721 14.018862 10.33167 14.436881 L 10.250763 14.963337 C 10.114233 15.847694 10.01928 16.460114 9.894548 16.885998 C 9.824878 17.125348 9.758018 17.259069 9.701833 17.335481 C 9.593395 17.295027 9.448999 17.236033 9.278757 17.154564 C 8.873661 16.960725 8.324731 16.639345 7.762316 16.133677 L 7.449926 15.852189 L 7.436441 15.839828 C 7.276313 15.695994 7.134164 15.568453 7.0055 15.47069 C 6.86616 15.365062 6.716145 15.274042 6.532419 15.220666 C 6.207668 15.126275 5.873366 15.189202 5.512656 15.256624 L 5.434559 15.271233 L 5.033957 15.345397 C 4.241745 15.492603 3.710232 15.589241 3.328733 15.596546 C 2.962967 15.603288 2.885993 15.524628 2.844978 15.467319 C 2.787107 15.386974 2.733731 15.231341 2.823066 14.793096 C 2.911838 14.357098 3.111858 13.77558 3.402336 12.936171 L 3.574825 12.438931 C 3.713603 12.038892 3.824288 11.719198 3.811927 11.382086 C 3.799566 11.042165 3.66416 10.735955 3.496727 10.357828 L 3.288842 9.886995 C 2.938246 9.092535 2.697772 8.544728 2.578098 8.125586 C 2.459547 7.710938 2.496067 7.542944 2.555624 7.440687 C 2.605629 7.355847 2.694963 7.265389 3.055673 7.221002 C 3.435485 7.173806 3.970931 7.195157 4.769886 7.22943 L 5.173859 7.246286 L 5.250271 7.249657 C 5.617161 7.26595 5.952587 7.28112 6.264416 7.142905 C 6.567816 7.009184 6.797052 6.752417 7.060561 6.458006 L 7.115061 6.396764 Z M 7.405539 6.072574 " stroke="#ffffff" stroke-width="1" stroke-opacity="1" stroke-miterlimit="4"/></g><g clip-path="url(#6276a746e7)"><g mask="url(#3f15d5b3be)"><g transform="matrix(1, 0, 0, 1, 4204, 1354)"><g clip-path="url(#5b88249b75)"><path fill="#ffffff" d="M 21.21875 32.160156 C 20.136719 27.515625 19.222656 23.578125 18.230469 20.488281 L 64.351562 33.867188 C 64.65625 33.953125 65.445312 34.304688 66.542969 37.175781 C 67.613281 39.984375 68.582031 44.113281 69.976562 50.101562 L 70.808594 53.6875 C 70.996094 54.484375 71.171875 55.246094 71.359375 55.964844 L 29.558594 44.390625 L 27.449219 43.1875 C 24.460938 41.488281 23.914062 41.089844 23.527344 40.550781 C 23.097656 39.953125 22.835938 39.117188 21.992188 35.476562 Z M 21.21875 32.160156 " fill-opacity="1" fill-rule="nonzero"/><g clip-path="url(#33a26c3b77)"><path stroke-linecap="butt" transform="matrix(6.952441, 0, 0, 6.952441, -54.68283, -13.547926)" fill="none" stroke-linejoin="miter" d="M 10.917257 6.574394 C 10.761623 5.90635 10.63015 5.340003 10.487439 4.895577 L 17.121238 6.819923 C 17.165063 6.832284 17.278557 6.882851 17.436438 7.295813 C 17.590385 7.699785 17.729725 8.293664 17.930307 9.154985 L 18.049981 9.670766 C 18.07695 9.785384 18.102234 9.894945 18.129203 9.998326 L 12.116813 8.333556 L 11.813412 8.160505 C 11.383595 7.916099 11.304935 7.85879 11.249312 7.781254 C 11.187508 7.695291 11.149864 7.575054 11.028504 7.051407 Z M 10.917257 6.574394 " stroke="#ffffff" stroke-width="1" stroke-opacity="1" stroke-miterlimit="4"/></g><path fill="#ffffff" d="M 45.03125 55.890625 L 79.847656 65.53125 L 81.957031 66.734375 C 86.871094 69.53125 90.183594 71.429688 92.339844 73.160156 C 94.40625 74.8125 94.761719 75.800781 94.789062 76.644531 C 94.824219 77.527344 94.5 78.636719 92.515625 80.628906 C 90.472656 82.679688 87.289062 85.054688 82.617188 88.527344 L 79.84375 90.585938 C 78.53125 91.558594 77.34375 92.4375 76.347656 93.421875 L 29.039062 79.699219 L 31.53125 77.847656 C 35.914062 74.589844 39.523438 71.910156 41.972656 69.449219 C 44.527344 66.890625 46.410156 64.003906 46.273438 60.296875 C 46.214844 58.636719 45.761719 57.183594 45.03125 55.890625 Z M 45.03125 55.890625 " fill-opacity="1" fill-rule="nonzero"/><g clip-path="url(#fc0168a708)"><path stroke-linecap="butt" transform="matrix(6.952441, 0, 0, 6.952441, -54.68283, -13.547926)" fill="none" stroke-linejoin="miter" d="M 14.342313 9.987651 L 19.350109 11.374304 L 19.65351 11.547355 C 20.360321 11.949642 20.836772 12.222702 21.146915 12.471603 C 21.444136 12.709267 21.495264 12.851416 21.499197 12.972776 C 21.504254 13.099755 21.45762 13.259321 21.172199 13.545866 C 20.87835 13.840839 20.420439 14.182446 19.748463 14.681933 L 19.349547 14.97803 C 19.160765 15.117931 18.989961 15.244348 18.846689 15.385935 L 12.042087 13.412145 L 12.400549 13.145827 C 13.030948 12.677242 13.5501 12.29181 13.902382 11.937843 C 14.269834 11.569829 14.540647 11.15462 14.520982 10.621421 C 14.512554 10.382634 14.447379 10.173624 14.342313 9.987651 Z M 14.342313 9.987651 " stroke="#ffffff" stroke-width="1" stroke-opacity="1" stroke-miterlimit="4"/></g><path fill="#ffffff" d="M 24.394531 85.589844 L 73.148438 99.734375 C 72.945312 100.714844 72.785156 101.773438 72.609375 102.914062 L 72.046875 106.574219 C 71.507812 110.058594 70.71875 113.15625 69.878906 115.785156 C 68.394531 120.414062 68.015625 121.058594 66.902344 121.695312 C 66.425781 121.96875 65.976562 122.089844 65.035156 121.984375 C 63.878906 121.855469 62.398438 121.4375 59.875 120.707031 L 19.589844 109.019531 C 20.074219 108 20.457031 106.910156 20.78125 105.800781 C 21.789062 102.34375 22.515625 97.628906 23.410156 91.8125 L 23.933594 88.417969 C 24.121094 87.210938 24.265625 86.296875 24.394531 85.589844 Z M 24.394531 85.589844 " fill-opacity="1" fill-rule="nonzero"/><g clip-path="url(#8f1d6de73d)"><path stroke-linecap="butt" transform="matrix(6.952441, 0, 0, 6.952441, -54.68283, -13.547926)" fill="none" stroke-linejoin="miter" d="M 11.374043 14.25942 L 18.386531 16.29389 C 18.357315 16.434915 18.334279 16.587177 18.308996 16.751238 L 18.228089 17.277694 C 18.150553 17.778867 18.037059 18.224417 17.91626 18.602544 C 17.702756 19.26834 17.648256 19.361045 17.488128 19.452627 C 17.419582 19.491957 17.354969 19.509375 17.219562 19.494205 C 17.053254 19.475663 16.840312 19.415545 16.477355 19.310479 L 10.682964 17.629414 C 10.752634 17.482771 10.807695 17.326014 10.854329 17.166447 C 10.999287 16.669207 11.103792 15.991051 11.232456 15.154452 L 11.307745 14.666201 C 11.334714 14.492589 11.355502 14.361115 11.374043 14.25942 Z M 11.374043 14.25942 " stroke="#ffffff" stroke-width="1" stroke-opacity="1" stroke-miterlimit="4"/></g></g></g></g></g><path fill="#ffffff" d="M 4200.804688 1382.671875 C 4204.785156 1378.230469 4207.507812 1375.203125 4209.707031 1373.375 C 4211.933594 1371.519531 4212.664062 1371.710938 4212.886719 1371.777344 C 4213.191406 1371.863281 4213.984375 1372.214844 4215.082031 1375.085938 C 4216.152344 1377.894531 4217.121094 1382.023438 4218.511719 1388.011719 L 4219.347656 1391.597656 C 4219.996094 1394.398438 4220.535156 1396.726562 4221.878906 1398.601562 C 4223.261719 1400.535156 4225.273438 1401.675781 4227.566406 1402.976562 L 4228.007812 1403.226562 L 4230.496094 1404.644531 C 4235.410156 1407.441406 4238.71875 1409.339844 4240.878906 1411.070312 C 4242.941406 1412.722656 4243.296875 1413.710938 4243.328125 1414.554688 C 4243.363281 1415.4375 4243.039062 1416.550781 4241.054688 1418.539062 C 4239.011719 1420.589844 4235.828125 1422.964844 4231.15625 1426.4375 L 4228.382812 1428.496094 C 4226.175781 1430.132812 4224.320312 1431.507812 4223.121094 1433.5625 C 4221.953125 1435.566406 4221.59375 1437.917969 4221.148438 1440.824219 L 4220.582031 1444.484375 C 4219.636719 1450.632812 4218.972656 1454.890625 4218.109375 1457.847656 C 4217.621094 1459.515625 4217.160156 1460.445312 4216.769531 1460.976562 C 4216.015625 1460.695312 4215.011719 1460.285156 4213.828125 1459.71875 C 4211.011719 1458.371094 4207.195312 1456.132812 4203.285156 1452.617188 L 4201.113281 1450.664062 L 4201.015625 1450.578125 C 4199.90625 1449.578125 4198.917969 1448.691406 4198.023438 1448.011719 C 4197.054688 1447.277344 4196.011719 1446.640625 4194.734375 1446.273438 C 4192.476562 1445.617188 4190.148438 1446.050781 4187.644531 1446.523438 L 4187.101562 1446.625 L 4184.316406 1447.140625 C 4178.804688 1448.164062 4175.113281 1448.835938 4172.460938 1448.886719 C 4169.917969 1448.933594 4169.382812 1448.386719 4169.09375 1447.984375 C 4168.695312 1447.429688 4168.324219 1446.347656 4168.945312 1443.300781 C 4169.5625 1440.269531 4170.953125 1436.226562 4172.972656 1430.390625 L 4174.167969 1426.933594 C 4175.132812 1424.152344 4175.90625 1421.929688 4175.820312 1419.585938 C 4175.734375 1417.222656 4174.789062 1415.09375 4173.625 1412.460938 L 4172.183594 1409.191406 C 4169.746094 1403.667969 4168.074219 1399.859375 4167.238281 1396.945312 C 4166.417969 1394.0625 4166.671875 1392.894531 4167.085938 1392.183594 C 4167.429688 1391.59375 4168.054688 1390.964844 4170.5625 1390.65625 C 4173.203125 1390.328125 4176.921875 1390.476562 4182.480469 1390.710938 L 4185.289062 1390.832031 L 4185.816406 1390.855469 C 4188.367188 1390.96875 4190.703125 1391.074219 4192.871094 1390.113281 C 4194.980469 1389.183594 4196.574219 1387.398438 4198.402344 1385.351562 L 4198.785156 1384.925781 Z M 4200.804688 1382.671875 " fill-opacity="1" fill-rule="nonzero"/><g clip-path="url(#4fcef486b5)"><path stroke-linecap="butt" transform="matrix(6.952441, 0, 0, 6.952441, 4149.317105, 1340.452075)" fill="none" stroke-linejoin="miter" d="M 7.405685 6.072659 C 7.978213 5.433832 8.369824 4.998396 8.686148 4.735449 C 9.006404 4.468568 9.11147 4.496099 9.143496 4.505651 C 9.187321 4.518011 9.301377 4.568578 9.459257 4.98154 C 9.613205 5.385513 9.752545 5.979391 9.952564 6.840712 L 10.072801 7.356493 C 10.166069 7.759342 10.243604 8.094206 10.436882 8.363896 C 10.635778 8.642013 10.925132 8.806074 11.25494 8.993171 L 11.318429 9.02913 L 11.67633 9.233082 C 12.383141 9.635369 12.85903 9.90843 13.169735 10.15733 C 13.466393 10.394994 13.517522 10.537143 13.522017 10.658503 C 13.527074 10.785482 13.48044 10.94561 13.195018 11.231594 C 12.901169 11.526566 12.443259 11.868173 11.771283 12.36766 L 11.372367 12.663757 C 11.05492 12.899173 10.78804 13.096946 10.615551 13.39248 C 10.447557 13.680711 10.395866 14.018947 10.331815 14.436965 L 10.250347 14.963421 C 10.114378 15.847778 10.018863 16.460198 9.894694 16.885521 C 9.824462 17.125432 9.758163 17.259153 9.701978 17.335565 C 9.59354 17.295112 9.449144 17.236117 9.278903 17.154648 C 8.873807 16.960809 8.324876 16.638867 7.762461 16.1332 L 7.450071 15.852273 L 7.436025 15.839912 C 7.276458 15.696078 7.134309 15.568537 7.005645 15.470775 C 6.866306 15.365146 6.716291 15.273564 6.532565 15.22075 C 6.207814 15.126359 5.872949 15.188725 5.512802 15.256709 L 5.434704 15.271317 L 5.034103 15.345482 C 4.241328 15.492687 3.710377 15.589326 3.328879 15.59663 C 2.963112 15.603372 2.886139 15.524713 2.844561 15.466842 C 2.787252 15.387059 2.733876 15.231425 2.823211 14.79318 C 2.911984 14.357182 3.112003 13.775664 3.402482 12.936256 L 3.574409 12.439016 C 3.713186 12.038976 3.824433 11.719282 3.812072 11.38217 C 3.799712 11.042249 3.663743 10.736039 3.496311 10.35735 L 3.288987 9.887079 C 2.938391 9.092619 2.697918 8.544812 2.577681 8.12567 C 2.459692 7.711022 2.496213 7.543028 2.555769 7.440771 C 2.605212 7.355931 2.695109 7.265473 3.055818 7.221086 C 3.435631 7.173891 3.970515 7.195241 4.770032 7.228952 L 5.174004 7.24637 L 5.249854 7.249741 C 5.616744 7.266035 5.952733 7.281205 6.264561 7.142989 C 6.567962 7.009268 6.797198 6.752501 7.060145 6.45809 L 7.115206 6.396848 Z M 7.405685 6.072659 " stroke="#ffffff" stroke-width="1" stroke-opacity="1" stroke-miterlimit="4"/></g><g clip-path="url(#7c1dd4ef52)"><path fill="#ffde59" d="M 27.15625 1368.730469 C 712.792969 1368.730469 1268.5625 1924.496094 1268.5625 2610.136719 L 701.785156 2610.136719 C 701.785156 2237.789062 400.253906 1936.007812 28.15625 1935.507812 Z M 27.15625 1368.730469 " fill-opacity="1" fill-rule="nonzero"/></g><g clip-path="url(#debf43f1c9)"><path fill="#ffde59" d="M 4470.746094 1331.554688 C 3785.109375 1331.554688 3229.339844 775.789062 3229.339844 90.148438 L 3796.117188 90.148438 C 3796.117188 462.496094 4097.648438 764.277344 4469.746094 764.777344 Z M 4470.746094 1331.554688 " fill-opacity="1" fill-rule="nonzero"/></g><path fill="#ffffff" d="M 1423.964844 1329.097656 C 1436.347656 1319.207031 1447.570312 1308.140625 1457.632812 1295.898438 C 1464.285156 1287.585938 1471.765625 1280.105469 1480.078125 1273.453125 C 1489.003906 1267.476562 1498.511719 1262.644531 1508.601562 1258.957031 C 1524.832031 1252.628906 1540.417969 1244.992188 1555.363281 1236.042969 C 1566.34375 1228.691406 1575.695312 1219.648438 1583.417969 1208.921875 C 1587.054688 1203.320312 1590.308594 1197.503906 1593.175781 1191.472656 C 1596.046875 1185.4375 1598.507812 1179.246094 1600.5625 1172.890625 C 1602.613281 1166.535156 1604.242188 1160.070312 1605.441406 1153.5 C 1606.640625 1146.929688 1607.40625 1140.308594 1607.734375 1133.636719 C 1607.734375 1130.832031 1607.734375 1128.492188 1607.734375 1125.6875 C 1608.261719 1114.78125 1609.820312 1104.027344 1612.410156 1093.421875 C 1616.527344 1083.851562 1621.359375 1074.65625 1626.90625 1065.832031 C 1631.25 1059.671875 1635.148438 1053.238281 1638.601562 1046.535156 C 1642.050781 1039.832031 1645.023438 1032.921875 1647.515625 1025.804688 C 1650.003906 1018.6875 1651.992188 1011.433594 1653.472656 1004.042969 C 1654.957031 996.648438 1655.921875 989.191406 1656.367188 981.664062 C 1655.921875 974.136719 1654.957031 966.675781 1653.472656 959.285156 C 1651.992188 951.890625 1650.003906 944.636719 1647.515625 937.519531 C 1645.023438 930.40625 1642.050781 923.496094 1638.601562 916.789062 C 1635.148438 910.085938 1631.25 903.65625 1626.90625 897.492188 C 1621.359375 888.671875 1616.527344 879.476562 1612.410156 869.902344 C 1609.820312 859.296875 1608.261719 848.542969 1607.734375 837.640625 C 1607.539062 830.257812 1606.851562 822.921875 1605.679688 815.632812 C 1604.503906 808.34375 1602.851562 801.164062 1600.71875 794.09375 C 1598.585938 787.027344 1595.992188 780.128906 1592.941406 773.40625 C 1589.886719 766.683594 1586.402344 760.195312 1582.484375 753.9375 C 1577.71875 748.222656 1572.585938 742.855469 1567.089844 737.835938 C 1561.597656 732.816406 1555.785156 728.195312 1549.660156 723.96875 C 1543.539062 719.738281 1537.15625 715.945312 1530.515625 712.585938 C 1523.875 709.226562 1517.039062 706.332031 1510.003906 703.902344 C 1499.914062 700.214844 1490.40625 695.382812 1481.480469 689.40625 C 1473.285156 682.636719 1465.804688 675.152344 1459.035156 666.960938 C 1454.542969 660.992188 1449.671875 655.355469 1444.414062 650.050781 C 1439.160156 644.746094 1433.566406 639.820312 1427.640625 635.277344 C 1421.714844 630.734375 1415.503906 626.613281 1409.019531 622.914062 C 1402.53125 619.214844 1395.820312 615.972656 1388.890625 613.1875 C 1381.847656 611.238281 1374.707031 609.773438 1367.464844 608.789062 C 1360.222656 607.804688 1352.945312 607.3125 1345.636719 607.3125 C 1338.328125 607.3125 1331.054688 607.804688 1323.8125 608.789062 C 1316.570312 609.773438 1309.429688 611.238281 1302.382812 613.1875 C 1291.464844 615.753906 1280.398438 617.039062 1269.183594 617.039062 C 1257.96875 617.039062 1246.902344 615.753906 1235.984375 613.1875 C 1228.941406 611.238281 1221.796875 609.773438 1214.554688 608.789062 C 1207.3125 607.804688 1200.039062 607.3125 1192.730469 607.3125 C 1185.421875 607.3125 1178.144531 607.804688 1170.902344 608.789062 C 1163.664062 609.773438 1156.519531 611.238281 1149.476562 613.1875 C 1142.546875 615.972656 1135.835938 619.214844 1129.351562 622.914062 C 1122.863281 626.613281 1116.65625 630.734375 1110.726562 635.277344 C 1104.800781 639.820312 1099.210938 644.746094 1093.953125 650.050781 C 1088.695312 655.355469 1083.824219 660.992188 1079.332031 666.960938 C 1072.679688 675.273438 1065.199219 682.753906 1056.886719 689.40625 C 1047.960938 695.382812 1038.453125 700.214844 1028.363281 703.902344 C 1021.21875 706.242188 1014.265625 709.058594 1007.507812 712.355469 C 1000.746094 715.652344 994.246094 719.394531 988 723.585938 C 981.753906 727.773438 975.828125 732.371094 970.214844 737.375 C 964.601562 742.378906 959.355469 747.742188 954.480469 753.46875 C 950.5625 759.726562 947.078125 766.21875 944.023438 772.941406 C 940.972656 779.664062 938.378906 786.558594 936.246094 793.628906 C 934.113281 800.695312 932.460938 807.875 931.285156 815.164062 C 930.113281 822.457031 929.425781 829.789062 929.230469 837.171875 C 928.703125 848.074219 927.144531 858.832031 924.554688 869.4375 C 920.4375 879.007812 915.605469 888.203125 910.058594 897.027344 C 905.714844 903.1875 901.816406 909.621094 898.363281 916.324219 C 894.914062 923.027344 891.941406 929.9375 889.449219 937.054688 C 886.960938 944.167969 884.972656 951.425781 883.492188 958.816406 C 882.007812 966.210938 881.042969 973.667969 880.597656 981.195312 C 881.042969 988.722656 882.007812 996.183594 883.492188 1003.574219 C 884.972656 1010.96875 886.960938 1018.222656 889.449219 1025.339844 C 891.941406 1032.453125 894.914062 1039.363281 898.363281 1046.066406 C 901.816406 1052.769531 905.714844 1059.203125 910.058594 1065.367188 C 915.605469 1074.1875 920.4375 1083.382812 924.554688 1092.953125 C 927.144531 1103.558594 928.703125 1114.316406 929.230469 1125.21875 C 929.230469 1127.558594 929.230469 1130.363281 929.230469 1133.167969 C 929.554688 1139.878906 930.316406 1146.535156 931.515625 1153.144531 C 932.714844 1159.753906 934.339844 1166.253906 936.390625 1172.648438 C 938.445312 1179.042969 940.90625 1185.277344 943.777344 1191.347656 C 946.648438 1197.421875 949.90625 1203.277344 953.546875 1208.921875 C 961.269531 1219.648438 970.621094 1228.691406 981.601562 1236.042969 C 995.792969 1244.875 1010.601562 1252.515625 1026.027344 1258.957031 C 1036.117188 1262.644531 1045.625 1267.476562 1054.550781 1273.453125 C 1062.742188 1280.222656 1070.222656 1287.707031 1076.996094 1295.898438 C 1087.058594 1308.140625 1098.28125 1319.207031 1110.664062 1329.097656 C 1116.007812 1333.695312 1121.746094 1337.722656 1127.886719 1341.1875 C 1134.023438 1344.648438 1140.441406 1347.476562 1147.136719 1349.671875 C 1156.238281 1352.351562 1165.523438 1354.003906 1174.988281 1354.636719 C 1184.453125 1355.269531 1193.875 1354.859375 1203.25 1353.414062 C 1213.5 1351.972656 1223.632812 1349.945312 1233.644531 1347.335938 C 1244.5625 1344.765625 1255.628906 1343.480469 1266.847656 1343.480469 C 1278.0625 1343.480469 1289.128906 1344.765625 1300.046875 1347.335938 C 1310.058594 1349.945312 1320.191406 1351.972656 1330.441406 1353.414062 C 1337.453125 1353.894531 1344.46875 1353.894531 1351.484375 1353.414062 C 1363.285156 1353.503906 1374.820312 1351.789062 1386.085938 1348.269531 C 1392.976562 1346.371094 1399.609375 1343.808594 1405.984375 1340.578125 C 1412.359375 1337.351562 1418.351562 1333.523438 1423.964844 1329.097656 Z M 1267.78125 1168.238281 C 1264.71875 1168.238281 1261.660156 1168.164062 1258.601562 1168.015625 C 1255.546875 1167.863281 1252.492188 1167.640625 1249.449219 1167.339844 C 1246.402344 1167.039062 1243.363281 1166.664062 1240.335938 1166.214844 C 1237.308594 1165.765625 1234.292969 1165.242188 1231.289062 1164.644531 C 1228.289062 1164.046875 1225.300781 1163.378906 1222.332031 1162.632812 C 1219.363281 1161.890625 1216.414062 1161.074219 1213.484375 1160.1875 C 1210.554688 1159.296875 1207.648438 1158.335938 1204.769531 1157.304688 C 1201.886719 1156.273438 1199.03125 1155.171875 1196.203125 1154 C 1193.375 1152.832031 1190.578125 1151.589844 1187.808594 1150.28125 C 1185.042969 1148.972656 1182.308594 1147.597656 1179.609375 1146.152344 C 1176.910156 1144.710938 1174.246094 1143.203125 1171.621094 1141.628906 C 1168.996094 1140.054688 1166.410156 1138.417969 1163.863281 1136.71875 C 1161.320312 1135.015625 1158.816406 1133.253906 1156.359375 1131.429688 C 1153.898438 1129.605469 1151.488281 1127.726562 1149.121094 1125.78125 C 1146.753906 1123.839844 1144.4375 1121.84375 1142.167969 1119.785156 C 1139.902344 1117.730469 1137.683594 1115.621094 1135.519531 1113.457031 C 1133.355469 1111.292969 1131.246094 1109.074219 1129.191406 1106.808594 C 1127.132812 1104.539062 1125.136719 1102.222656 1123.195312 1099.855469 C 1121.25 1097.488281 1119.367188 1095.078125 1117.546875 1092.617188 C 1115.722656 1090.160156 1113.960938 1087.65625 1112.257812 1085.113281 C 1110.558594 1082.566406 1108.921875 1079.980469 1107.347656 1077.355469 C 1105.773438 1074.730469 1104.265625 1072.066406 1102.824219 1069.367188 C 1101.378906 1066.667969 1100.003906 1063.933594 1098.695312 1061.167969 C 1097.386719 1058.398438 1096.144531 1055.601562 1094.972656 1052.773438 C 1093.804688 1049.945312 1092.703125 1047.089844 1091.671875 1044.207031 C 1090.640625 1041.328125 1089.679688 1038.421875 1088.789062 1035.492188 C 1087.902344 1032.5625 1087.085938 1029.613281 1086.34375 1026.644531 C 1085.597656 1023.675781 1084.929688 1020.6875 1084.332031 1017.6875 C 1083.734375 1014.683594 1083.210938 1011.667969 1082.761719 1008.640625 C 1082.3125 1005.613281 1081.9375 1002.574219 1081.636719 999.527344 C 1081.335938 996.484375 1081.113281 993.429688 1080.960938 990.375 C 1080.8125 987.316406 1080.738281 984.257812 1080.738281 981.195312 C 1080.738281 978.132812 1080.8125 975.074219 1080.960938 972.019531 C 1081.113281 968.960938 1081.335938 965.910156 1081.636719 962.863281 C 1081.9375 959.816406 1082.3125 956.777344 1082.761719 953.75 C 1083.210938 950.722656 1083.734375 947.707031 1084.332031 944.703125 C 1084.929688 941.703125 1085.597656 938.714844 1086.34375 935.746094 C 1087.085938 932.777344 1087.902344 929.828125 1088.789062 926.898438 C 1089.679688 923.96875 1090.640625 921.0625 1091.671875 918.183594 C 1092.703125 915.300781 1093.804688 912.445312 1094.972656 909.617188 C 1096.144531 906.789062 1097.386719 903.992188 1098.695312 901.222656 C 1100.003906 898.457031 1101.378906 895.722656 1102.824219 893.023438 C 1104.265625 890.324219 1105.773438 887.660156 1107.347656 885.035156 C 1108.921875 882.410156 1110.558594 879.824219 1112.257812 877.277344 C 1113.960938 874.734375 1115.722656 872.230469 1117.546875 869.773438 C 1119.367188 867.316406 1121.25 864.902344 1123.195312 862.535156 C 1125.136719 860.167969 1127.132812 857.851562 1129.191406 855.585938 C 1131.246094 853.316406 1133.355469 851.101562 1135.519531 848.933594 C 1137.683594 846.769531 1139.902344 844.660156 1142.167969 842.605469 C 1144.4375 840.550781 1146.753906 838.550781 1149.121094 836.609375 C 1151.488281 834.667969 1153.898438 832.785156 1156.359375 830.960938 C 1158.816406 829.136719 1161.320312 827.375 1163.863281 825.671875 C 1166.410156 823.972656 1168.996094 822.335938 1171.621094 820.761719 C 1174.246094 819.1875 1176.910156 817.679688 1179.609375 816.238281 C 1182.308594 814.792969 1185.042969 813.417969 1187.808594 812.109375 C 1190.578125 810.800781 1193.375 809.558594 1196.203125 808.390625 C 1199.03125 807.21875 1201.886719 806.117188 1204.769531 805.085938 C 1207.648438 804.054688 1210.554688 803.09375 1213.484375 802.207031 C 1216.414062 801.316406 1219.363281 800.5 1222.332031 799.757812 C 1225.300781 799.011719 1228.289062 798.34375 1231.289062 797.746094 C 1234.292969 797.148438 1237.308594 796.625 1240.335938 796.175781 C 1243.363281 795.726562 1246.402344 795.351562 1249.449219 795.050781 C 1252.492188 794.75 1255.546875 794.527344 1258.601562 794.375 C 1261.660156 794.226562 1264.71875 794.152344 1267.78125 794.152344 C 1270.84375 794.152344 1273.902344 794.226562 1276.957031 794.375 C 1280.015625 794.527344 1283.066406 794.75 1286.113281 795.050781 C 1289.160156 795.351562 1292.199219 795.726562 1295.226562 796.175781 C 1298.253906 796.625 1301.269531 797.148438 1304.269531 797.746094 C 1307.273438 798.34375 1310.257812 799.011719 1313.230469 799.757812 C 1316.199219 800.5 1319.148438 801.316406 1322.078125 802.207031 C 1325.007812 803.09375 1327.910156 804.054688 1330.792969 805.085938 C 1333.675781 806.117188 1336.53125 807.21875 1339.359375 808.390625 C 1342.1875 809.558594 1344.984375 810.800781 1347.753906 812.109375 C 1350.519531 813.417969 1353.253906 814.792969 1355.953125 816.238281 C 1358.652344 817.679688 1361.316406 819.1875 1363.941406 820.761719 C 1366.566406 822.335938 1369.152344 823.972656 1371.695312 825.671875 C 1374.242188 827.375 1376.746094 829.136719 1379.203125 830.960938 C 1381.660156 832.785156 1384.074219 834.667969 1386.441406 836.609375 C 1388.808594 838.550781 1391.125 840.550781 1393.390625 842.605469 C 1395.660156 844.660156 1397.875 846.769531 1400.042969 848.933594 C 1402.207031 851.101562 1404.316406 853.316406 1406.371094 855.585938 C 1408.425781 857.851562 1410.425781 860.167969 1412.367188 862.535156 C 1414.308594 864.902344 1416.191406 867.316406 1418.015625 869.773438 C 1419.839844 872.230469 1421.601562 874.734375 1423.300781 877.277344 C 1425.003906 879.824219 1426.640625 882.410156 1428.214844 885.035156 C 1429.789062 887.660156 1431.296875 890.324219 1432.738281 893.023438 C 1434.183594 895.722656 1435.558594 898.457031 1436.867188 901.222656 C 1438.175781 903.992188 1439.414062 906.789062 1440.585938 909.617188 C 1441.757812 912.445312 1442.859375 915.300781 1443.890625 918.183594 C 1444.921875 921.0625 1445.882812 923.96875 1446.769531 926.898438 C 1447.660156 929.828125 1448.476562 932.777344 1449.21875 935.746094 C 1449.964844 938.714844 1450.632812 941.703125 1451.230469 944.703125 C 1451.828125 947.707031 1452.351562 950.722656 1452.800781 953.75 C 1453.25 956.777344 1453.625 959.816406 1453.925781 962.863281 C 1454.226562 965.910156 1454.449219 968.960938 1454.601562 972.019531 C 1454.75 975.074219 1454.824219 978.132812 1454.824219 981.195312 C 1454.824219 984.257812 1454.75 987.316406 1454.601562 990.375 C 1454.449219 993.429688 1454.226562 996.484375 1453.925781 999.527344 C 1453.625 1002.574219 1453.25 1005.613281 1452.800781 1008.640625 C 1452.351562 1011.667969 1451.828125 1014.683594 1451.230469 1017.6875 C 1450.632812 1020.6875 1449.964844 1023.675781 1449.21875 1026.644531 C 1448.476562 1029.613281 1447.660156 1032.5625 1446.769531 1035.492188 C 1445.882812 1038.421875 1444.921875 1041.328125 1443.890625 1044.207031 C 1442.859375 1047.089844 1441.757812 1049.945312 1440.585938 1052.773438 C 1439.414062 1055.601562 1438.175781 1058.398438 1436.867188 1061.167969 C 1435.558594 1063.933594 1434.183594 1066.667969 1432.738281 1069.367188 C 1431.296875 1072.066406 1429.789062 1074.730469 1428.214844 1077.355469 C 1426.640625 1079.980469 1425.003906 1082.566406 1423.300781 1085.113281 C 1421.601562 1087.65625 1419.839844 1090.160156 1418.015625 1092.617188 C 1416.191406 1095.078125 1414.308594 1097.488281 1412.367188 1099.855469 C 1410.425781 1102.222656 1408.425781 1104.539062 1406.371094 1106.808594 C 1404.316406 1109.074219 1402.207031 1111.292969 1400.042969 1113.457031 C 1397.875 1115.621094 1395.660156 1117.730469 1393.390625 1119.785156 C 1391.125 1121.84375 1388.808594 1123.839844 1386.441406 1125.78125 C 1384.074219 1127.726562 1381.660156 1129.605469 1379.203125 1131.429688 C 1376.746094 1133.253906 1374.242188 1135.015625 1371.695312 1136.71875 C 1369.152344 1138.417969 1366.566406 1140.054688 1363.941406 1141.628906 C 1361.316406 1143.203125 1358.652344 1144.710938 1355.953125 1146.152344 C 1353.253906 1147.597656 1350.519531 1148.972656 1347.753906 1150.28125 C 1344.984375 1151.589844 1342.1875 1152.832031 1339.359375 1154 C 1336.53125 1155.171875 1333.675781 1156.273438 1330.792969 1157.304688 C 1327.914062 1158.335938 1325.007812 1159.296875 1322.078125 1160.1875 C 1319.148438 1161.074219 1316.199219 1161.890625 1313.230469 1162.632812 C 1310.257812 1163.378906 1307.273438 1164.046875 1304.273438 1164.644531 C 1301.269531 1165.242188 1298.253906 1165.765625 1295.226562 1166.214844 C 1292.199219 1166.664062 1289.160156 1167.039062 1286.113281 1167.339844 C 1283.066406 1167.640625 1280.015625 1167.863281 1276.957031 1168.015625 C 1273.902344 1168.164062 1270.84375 1168.238281 1267.78125 1168.238281 Z M 1134.042969 1394.5625 C 1149.320312 1398.960938 1164.910156 1401.140625 1180.804688 1401.109375 L 1122.355469 1516.609375 C 1121.523438 1518.269531 1120.59375 1519.875 1119.574219 1521.421875 C 1118.550781 1522.972656 1117.4375 1524.453125 1116.238281 1525.871094 C 1115.039062 1527.289062 1113.761719 1528.628906 1112.402344 1529.894531 C 1111.042969 1531.15625 1109.613281 1532.335938 1108.113281 1533.429688 C 1106.613281 1534.523438 1105.054688 1535.527344 1103.4375 1536.433594 C 1101.816406 1537.34375 1100.152344 1538.152344 1098.4375 1538.863281 C 1096.722656 1539.574219 1094.96875 1540.179688 1093.183594 1540.679688 C 1091.394531 1541.179688 1089.585938 1541.574219 1087.75 1541.859375 L 1080.738281 1541.859375 C 1077.605469 1541.878906 1074.5 1541.585938 1071.425781 1540.980469 C 1068.351562 1540.375 1065.371094 1539.46875 1062.480469 1538.265625 C 1059.585938 1537.058594 1056.84375 1535.578125 1054.25 1533.824219 C 1051.65625 1532.066406 1049.261719 1530.070312 1047.070312 1527.832031 L 968.511719 1448.804688 L 846.929688 1448.804688 C 844.953125 1448.722656 842.988281 1448.523438 841.03125 1448.214844 C 839.074219 1447.902344 837.144531 1447.484375 835.238281 1446.953125 C 833.328125 1446.421875 831.457031 1445.785156 829.625 1445.039062 C 827.789062 1444.292969 826.003906 1443.445312 824.265625 1442.496094 C 822.53125 1441.546875 820.851562 1440.5 819.234375 1439.359375 C 817.617188 1438.21875 816.070312 1436.988281 814.59375 1435.667969 C 813.117188 1434.351562 811.71875 1432.953125 810.402344 1431.476562 C 809.085938 1429.996094 807.855469 1428.449219 806.714844 1426.828125 C 805.695312 1425.058594 804.792969 1423.230469 804.011719 1421.34375 C 803.230469 1419.457031 802.574219 1417.523438 802.046875 1415.550781 C 801.515625 1413.578125 801.117188 1411.578125 800.851562 1409.550781 C 800.585938 1407.527344 800.453125 1405.492188 800.453125 1403.449219 C 800.453125 1401.40625 800.585938 1399.371094 800.851562 1397.34375 C 801.117188 1395.320312 801.515625 1393.320312 802.046875 1391.34375 C 802.574219 1389.371094 803.230469 1387.441406 804.011719 1385.554688 C 804.792969 1383.664062 805.695312 1381.835938 806.714844 1380.066406 L 900.238281 1198.632812 C 904.972656 1211.664062 911.363281 1223.820312 919.410156 1235.109375 C 925.058594 1242.734375 931.296875 1249.84375 938.121094 1256.433594 C 944.949219 1263.027344 952.273438 1269.011719 960.09375 1274.386719 C 976.777344 1284.472656 994.078125 1293.359375 1011.996094 1301.042969 C 1015.738281 1301.042969 1026.960938 1307.589844 1031.636719 1310.394531 C 1036.3125 1313.199219 1040.054688 1319.277344 1045.664062 1325.355469 C 1056.089844 1339.582031 1067.78125 1352.675781 1080.738281 1364.636719 C 1088.566406 1371.304688 1096.964844 1377.160156 1105.933594 1382.195312 C 1114.902344 1387.230469 1124.273438 1391.351562 1134.042969 1394.5625 Z M 1728.378906 1426.828125 C 1727.289062 1428.472656 1726.109375 1430.042969 1724.832031 1431.542969 C 1723.554688 1433.042969 1722.191406 1434.460938 1720.746094 1435.796875 C 1719.296875 1437.132812 1717.777344 1438.378906 1716.179688 1439.53125 C 1714.582031 1440.683594 1712.921875 1441.738281 1711.199219 1442.691406 C 1709.472656 1443.644531 1707.699219 1444.488281 1705.875 1445.230469 C 1704.046875 1445.96875 1702.183594 1446.597656 1700.285156 1447.109375 C 1698.382812 1447.625 1696.457031 1448.027344 1694.507812 1448.308594 C 1692.558594 1448.59375 1690.601562 1448.757812 1688.628906 1448.804688 L 1567.050781 1448.804688 L 1488.492188 1528.300781 C 1486.300781 1530.539062 1483.90625 1532.535156 1481.3125 1534.289062 C 1478.71875 1536.046875 1475.976562 1537.527344 1473.082031 1538.730469 C 1470.191406 1539.9375 1467.207031 1540.84375 1464.136719 1541.449219 C 1461.0625 1542.054688 1457.957031 1542.347656 1454.824219 1542.328125 L 1447.8125 1542.328125 C 1445.976562 1542.042969 1444.167969 1541.648438 1442.378906 1541.148438 C 1440.59375 1540.644531 1438.839844 1540.039062 1437.125 1539.332031 C 1435.410156 1538.621094 1433.742188 1537.8125 1432.125 1536.902344 C 1430.507812 1535.992188 1428.949219 1534.992188 1427.449219 1533.898438 C 1425.949219 1532.804688 1424.519531 1531.625 1423.160156 1530.359375 C 1421.800781 1529.097656 1420.523438 1527.753906 1419.324219 1526.339844 C 1418.125 1524.921875 1417.011719 1523.4375 1415.988281 1521.890625 C 1414.96875 1520.339844 1414.039062 1518.738281 1413.207031 1517.078125 L 1355.691406 1402.046875 C 1371.640625 1401.804688 1387.226562 1399.308594 1402.453125 1394.5625 C 1411.617188 1391.652344 1420.410156 1387.878906 1428.828125 1383.234375 C 1437.25 1378.589844 1445.136719 1373.171875 1452.488281 1366.972656 C 1467.585938 1354.984375 1481.300781 1341.578125 1493.636719 1326.761719 C 1498.148438 1320.847656 1503.292969 1315.546875 1509.066406 1310.859375 L 1529.644531 1301.507812 C 1546.929688 1293.941406 1563.609375 1285.214844 1579.675781 1275.324219 C 1587.339844 1270.105469 1594.507812 1264.277344 1601.179688 1257.839844 C 1607.851562 1251.402344 1613.933594 1244.449219 1619.425781 1236.980469 C 1627.726562 1225.429688 1634.273438 1212.960938 1639.0625 1199.570312 L 1732.585938 1381.46875 C 1733.390625 1383.285156 1734.074219 1385.144531 1734.640625 1387.046875 C 1735.203125 1388.949219 1735.648438 1390.882812 1735.96875 1392.839844 C 1736.289062 1394.800781 1736.480469 1396.773438 1736.550781 1398.753906 C 1736.621094 1400.738281 1736.5625 1402.71875 1736.378906 1404.695312 C 1736.195312 1406.671875 1735.886719 1408.628906 1735.453125 1410.566406 C 1735.023438 1412.503906 1734.46875 1414.40625 1733.792969 1416.273438 C 1733.117188 1418.140625 1732.328125 1419.957031 1731.421875 1421.722656 C 1730.515625 1423.488281 1729.5 1425.191406 1728.378906 1426.828125 Z M 1728.378906 1426.828125 " fill-opacity="1" fill-rule="nonzero"/><g fill="#ffffff" fill-opacity="1"><g transform="translate(1978.289348, 1063.878541)"><g><path d="M 98.625 2.984375 C 82.59375 2.984375 68.378906 0.242188 55.984375 -5.234375 C 43.585938 -10.722656 33.828125 -18.34375 26.703125 -28.09375 C 19.585938 -37.851562 15.882812 -49.109375 15.59375 -61.859375 L 62.1875 -61.859375 C 62.613281 -53.890625 66.265625 -47.445312 73.140625 -42.53125 C 80.015625 -37.613281 88.546875 -35.15625 98.734375 -35.15625 C 109.347656 -35.15625 118.019531 -37.878906 124.75 -43.328125 C 131.476562 -48.773438 134.804688 -55.84375 134.734375 -64.53125 C 134.804688 -73.363281 131.226562 -80.578125 124 -86.171875 C 116.769531 -91.765625 106.957031 -94.5625 94.5625 -94.5625 L 74.15625 -94.5625 L 74.15625 -128.546875 L 94.5625 -128.546875 C 105.101562 -128.546875 113.6875 -131.195312 120.3125 -136.5 C 126.9375 -141.8125 130.210938 -148.773438 130.140625 -157.390625 C 130.210938 -165.648438 127.378906 -172.34375 121.640625 -177.46875 C 115.910156 -182.601562 108.378906 -185.171875 99.046875 -185.171875 C 89.578125 -185.171875 81.492188 -182.675781 74.796875 -177.6875 C 68.097656 -172.707031 64.609375 -166.050781 64.328125 -157.71875 L 19.984375 -157.71875 C 20.191406 -170.320312 23.785156 -181.445312 30.765625 -191.09375 C 37.753906 -200.75 47.175781 -208.285156 59.03125 -213.703125 C 70.894531 -219.117188 84.304688 -221.828125 99.265625 -221.828125 C 114.367188 -221.828125 127.582031 -219.082031 138.90625 -213.59375 C 150.226562 -208.101562 159.039062 -200.710938 165.34375 -191.421875 C 171.65625 -182.128906 174.773438 -171.710938 174.703125 -160.171875 C 174.773438 -147.921875 170.976562 -137.695312 163.3125 -129.5 C 155.65625 -121.3125 145.703125 -116.113281 133.453125 -113.90625 L 133.453125 -112.1875 C 149.554688 -110.195312 161.828125 -104.640625 170.265625 -95.515625 C 178.703125 -86.398438 182.890625 -75.039062 182.828125 -61.4375 C 182.890625 -48.96875 179.304688 -37.890625 172.078125 -28.203125 C 164.847656 -18.515625 154.894531 -10.894531 142.21875 -5.34375 C 129.539062 0.207031 115.007812 2.984375 98.625 2.984375 Z M 98.625 2.984375 "/></g></g></g><g fill="#ffffff" fill-opacity="1"><g transform="translate(2176.699938, 1063.878541)"><g><path d="M 19.015625 0 L 19.015625 -218.828125 L 105.359375 -218.828125 C 130.210938 -218.828125 149.492188 -212.34375 163.203125 -199.375 C 176.921875 -186.414062 183.78125 -169.070312 183.78125 -147.34375 C 183.78125 -132.382812 180.445312 -119.597656 173.78125 -108.984375 C 167.125 -98.367188 157.566406 -90.390625 145.109375 -85.046875 L 191.578125 0 L 140.515625 0 L 99.046875 -77.578125 L 65.28125 -77.578125 L 65.28125 0 Z M 65.28125 -114.75 L 96.703125 -114.75 C 122.984375 -114.75 136.125 -125.613281 136.125 -147.34375 C 136.125 -169.78125 122.910156 -181 96.484375 -181 L 65.28125 -181 Z M 65.28125 -114.75 "/></g></g></g><g fill="#ffffff" fill-opacity="1"><g transform="translate(2374.148925, 1063.878541)"><g><path d="M 96.59375 0 L 19.015625 0 L 19.015625 -218.828125 L 97.234375 -218.828125 C 119.242188 -218.828125 138.207031 -214.460938 154.125 -205.734375 C 170.050781 -197.015625 182.285156 -184.5 190.828125 -168.1875 C 199.378906 -151.875 203.65625 -132.351562 203.65625 -109.625 C 203.65625 -86.832031 199.363281 -67.242188 190.78125 -50.859375 C 182.195312 -34.472656 169.910156 -21.898438 153.921875 -13.140625 C 137.929688 -4.378906 118.820312 0 96.59375 0 Z M 65.28125 -39.640625 L 94.671875 -39.640625 C 115.253906 -39.640625 130.867188 -45.195312 141.515625 -56.3125 C 152.171875 -67.425781 157.5 -85.195312 157.5 -109.625 C 157.5 -133.914062 152.171875 -151.582031 141.515625 -162.625 C 130.867188 -173.664062 115.289062 -179.1875 94.78125 -179.1875 L 65.28125 -179.1875 Z M 65.28125 -39.640625 "/></g></g></g><g fill="#ffffff" fill-opacity="1"><g transform="translate(2592.966849, 1063.878541)"><g/></g></g><g fill="#ffffff" fill-opacity="1"><g transform="translate(2662.736432, 1063.878541)"><g><path d="M 220.109375 -109.421875 C 220.109375 -89.898438 217.007812 -72.726562 210.8125 -57.90625 C 204.613281 -43.09375 196.175781 -30.914062 185.5 -21.375 L 216.796875 17.953125 L 173.625 17.953125 L 156 -3.734375 C 144.101562 0.742188 131.316406 2.984375 117.640625 2.984375 C 98.191406 2.984375 80.738281 -1.425781 65.28125 -10.25 C 49.820312 -19.082031 37.601562 -31.882812 28.625 -48.65625 C 19.65625 -65.4375 15.171875 -85.691406 15.171875 -109.421875 C 15.171875 -133.273438 19.65625 -153.570312 28.625 -170.3125 C 37.601562 -187.050781 49.820312 -199.820312 65.28125 -208.625 C 80.738281 -217.425781 98.191406 -221.828125 117.640625 -221.828125 C 137.015625 -221.828125 154.429688 -217.425781 169.890625 -208.625 C 185.347656 -199.820312 197.582031 -187.050781 206.59375 -170.3125 C 215.601562 -153.570312 220.109375 -133.273438 220.109375 -109.421875 Z M 101.609375 -76.078125 L 140.9375 -76.078125 L 157.171875 -55.234375 C 162.234375 -61.296875 166.171875 -68.847656 168.984375 -77.890625 C 171.796875 -86.941406 173.203125 -97.453125 173.203125 -109.421875 C 173.203125 -132.640625 168.144531 -150.351562 158.03125 -162.5625 C 147.914062 -174.78125 134.453125 -180.890625 117.640625 -180.890625 C 100.828125 -180.890625 87.363281 -174.78125 77.25 -162.5625 C 67.132812 -150.351562 62.078125 -132.640625 62.078125 -109.421875 C 62.078125 -86.265625 67.132812 -68.5625 77.25 -56.3125 C 87.363281 -44.0625 100.828125 -37.9375 117.640625 -37.9375 C 121.847656 -37.9375 125.835938 -38.328125 129.609375 -39.109375 Z M 101.609375 -76.078125 "/></g></g></g><g fill="#ffffff" fill-opacity="1"><g transform="translate(2898.222128, 1063.878541)"><g><path d="M 154.5 -218.828125 L 200.453125 -218.828125 L 200.453125 -74.15625 C 200.453125 -57.625 196.566406 -43.609375 188.796875 -32.109375 C 181.035156 -20.609375 170.332031 -11.863281 156.6875 -5.875 C 143.050781 0.101562 127.398438 3.09375 109.734375 3.09375 C 92.066406 3.09375 76.394531 0.101562 62.71875 -5.875 C 49.039062 -11.863281 38.335938 -20.609375 30.609375 -32.109375 C 22.878906 -43.609375 19.015625 -57.625 19.015625 -74.15625 L 19.015625 -218.828125 L 65.28125 -218.828125 L 65.28125 -75.75 C 65.28125 -64.070312 69.5 -54.882812 77.9375 -48.1875 C 86.382812 -41.488281 96.984375 -38.140625 109.734375 -38.140625 C 122.703125 -38.140625 133.40625 -41.488281 141.84375 -48.1875 C 150.28125 -54.882812 154.5 -64.070312 154.5 -75.75 Z M 154.5 -218.828125 "/></g></g></g><g fill="#ffffff" fill-opacity="1"><g transform="translate(3117.681121, 1063.878541)"><g><path d="M 56.734375 0 L 7.15625 0 L 82.703125 -218.828125 L 142.328125 -218.828125 L 217.765625 0 L 168.1875 0 L 151.9375 -49.90625 L 72.984375 -49.90625 Z M 84.734375 -86.015625 L 140.296875 -86.015625 L 113.375 -168.828125 L 111.65625 -168.828125 Z M 84.734375 -86.015625 "/></g></g></g><g fill="#ffffff" fill-opacity="1"><g transform="translate(3342.696038, 1063.878541)"><g><path d="M 19.015625 0 L 19.015625 -218.828125 L 105.359375 -218.828125 C 130.210938 -218.828125 149.492188 -212.34375 163.203125 -199.375 C 176.921875 -186.414062 183.78125 -169.070312 183.78125 -147.34375 C 183.78125 -132.382812 180.445312 -119.597656 173.78125 -108.984375 C 167.125 -98.367188 157.566406 -90.390625 145.109375 -85.046875 L 191.578125 0 L 140.515625 0 L 99.046875 -77.578125 L 65.28125 -77.578125 L 65.28125 0 Z M 65.28125 -114.75 L 96.703125 -114.75 C 122.984375 -114.75 136.125 -125.613281 136.125 -147.34375 C 136.125 -169.78125 122.910156 -181 96.484375 -181 L 65.28125 -181 Z M 65.28125 -114.75 "/></g></g></g><g fill="#ffffff" fill-opacity="1"><g transform="translate(3540.145025, 1063.878541)"><g><path d="M 10.6875 -180.6875 L 10.6875 -218.828125 L 190.40625 -218.828125 L 190.40625 -180.6875 L 123.40625 -180.6875 L 123.40625 0 L 77.6875 0 L 77.6875 -180.6875 Z M 10.6875 -180.6875 "/></g></g></g><g fill="#ffffff" fill-opacity="1"><g transform="translate(3741.226731, 1063.878541)"><g><path d="M 19.015625 0 L 19.015625 -218.828125 L 166.46875 -218.828125 L 166.46875 -180.6875 L 65.28125 -180.6875 L 65.28125 -128.546875 L 158.890625 -128.546875 L 158.890625 -90.390625 L 65.28125 -90.390625 L 65.28125 -38.140625 L 166.90625 -38.140625 L 166.90625 0 Z M 19.015625 0 "/></g></g></g><g fill="#ffffff" fill-opacity="1"><g transform="translate(3925.533911, 1063.878541)"><g><path d="M 19.015625 0 L 19.015625 -218.828125 L 105.359375 -218.828125 C 130.210938 -218.828125 149.492188 -212.34375 163.203125 -199.375 C 176.921875 -186.414062 183.78125 -169.070312 183.78125 -147.34375 C 183.78125 -132.382812 180.445312 -119.597656 173.78125 -108.984375 C 167.125 -98.367188 157.566406 -90.390625 145.109375 -85.046875 L 191.578125 0 L 140.515625 0 L 99.046875 -77.578125 L 65.28125 -77.578125 L 65.28125 0 Z M 65.28125 -114.75 L 96.703125 -114.75 C 122.984375 -114.75 136.125 -125.613281 136.125 -147.34375 C 136.125 -169.78125 122.910156 -181 96.484375 -181 L 65.28125 -181 Z M 65.28125 -114.75 "/></g></g></g><g fill="#ffffff" fill-opacity="1"><g transform="translate(4122.994386, 1063.878541)"><g/></g></g><g fill="#ffffff" fill-opacity="1"><g transform="translate(1969.036742, 1394.534233)"><g><path d="M 14.734375 -169.484375 L 58.921875 -169.484375 L 105.59375 -55.609375 L 107.578125 -55.609375 L 154.265625 -169.484375 L 198.453125 -169.484375 L 198.453125 0 L 163.703125 0 L 163.703125 -110.3125 L 162.28125 -110.3125 L 118.421875 -0.828125 L 94.765625 -0.828125 L 50.890625 -110.734375 L 49.484375 -110.734375 L 49.484375 0 L 14.734375 0 Z M 14.734375 -169.484375 "/></g></g></g><g fill="#ffffff" fill-opacity="1"><g transform="translate(2184.362113, 1394.534233)"><g><path d="M 50.5625 -169.484375 L 50.5625 0 L 14.734375 0 L 14.734375 -169.484375 Z M 50.5625 -169.484375 "/></g></g></g><g fill="#ffffff" fill-opacity="1"><g transform="translate(2249.737611, 1394.534233)"><g><path d="M 156.5 -169.484375 L 156.5 0 L 125.546875 0 L 51.8125 -106.671875 L 50.5625 -106.671875 L 50.5625 0 L 14.734375 0 L 14.734375 -169.484375 L 46.171875 -169.484375 L 119.34375 -62.890625 L 120.828125 -62.890625 L 120.828125 -169.484375 Z M 156.5 -169.484375 "/></g></g></g><g fill="#ffffff" fill-opacity="1"><g transform="translate(2421.037964, 1394.534233)"><g><path d="M 50.5625 -169.484375 L 50.5625 0 L 14.734375 0 L 14.734375 -169.484375 Z M 50.5625 -169.484375 "/></g></g></g><g fill="#ffffff" fill-opacity="1"><g transform="translate(2486.413461, 1394.534233)"><g/></g></g><g fill="#ffffff" fill-opacity="1"><g transform="translate(2540.451689, 1394.534233)"><g><path d="M 170.484375 -84.75 C 170.484375 -69.625 168.082031 -56.320312 163.28125 -44.84375 C 158.476562 -33.375 151.941406 -23.941406 143.671875 -16.546875 L 167.921875 13.90625 L 134.484375 13.90625 L 120.828125 -2.890625 C 111.609375 0.578125 101.703125 2.3125 91.109375 2.3125 C 76.054688 2.3125 62.539062 -1.101562 50.5625 -7.9375 C 38.59375 -14.78125 29.128906 -24.695312 22.171875 -37.6875 C 15.222656 -50.6875 11.75 -66.375 11.75 -84.75 C 11.75 -103.226562 15.222656 -118.945312 22.171875 -131.90625 C 29.128906 -144.875 38.59375 -154.765625 50.5625 -161.578125 C 62.539062 -168.398438 76.054688 -171.8125 91.109375 -171.8125 C 106.117188 -171.8125 119.609375 -168.398438 131.578125 -161.578125 C 143.554688 -154.765625 153.035156 -144.875 160.015625 -131.90625 C 166.992188 -118.945312 170.484375 -103.226562 170.484375 -84.75 Z M 78.703125 -58.921875 L 109.15625 -58.921875 L 121.734375 -42.78125 C 125.648438 -47.476562 128.695312 -53.328125 130.875 -60.328125 C 133.0625 -67.335938 134.15625 -75.476562 134.15625 -84.75 C 134.15625 -102.726562 130.234375 -116.445312 122.390625 -125.90625 C 114.554688 -135.375 104.128906 -140.109375 91.109375 -140.109375 C 78.085938 -140.109375 67.660156 -135.375 59.828125 -125.90625 C 51.992188 -116.445312 48.078125 -102.726562 48.078125 -84.75 C 48.078125 -66.8125 51.992188 -53.097656 59.828125 -43.609375 C 67.660156 -34.117188 78.085938 -29.375 91.109375 -29.375 C 94.367188 -29.375 97.460938 -29.679688 100.390625 -30.296875 Z M 78.703125 -58.921875 "/></g></g></g><g fill="#ffffff" fill-opacity="1"><g transform="translate(2722.841051, 1394.534233)"><g><path d="M 119.671875 -169.484375 L 155.25 -169.484375 L 155.25 -57.4375 C 155.25 -44.632812 152.242188 -33.773438 146.234375 -24.859375 C 140.222656 -15.953125 131.929688 -9.179688 121.359375 -4.546875 C 110.796875 0.0859375 98.675781 2.40625 85 2.40625 C 71.3125 2.40625 59.171875 0.0859375 48.578125 -4.546875 C 37.984375 -9.179688 29.691406 -15.953125 23.703125 -24.859375 C 17.722656 -33.773438 14.734375 -44.632812 14.734375 -57.4375 L 14.734375 -169.484375 L 50.5625 -169.484375 L 50.5625 -58.671875 C 50.5625 -49.628906 53.828125 -42.515625 60.359375 -37.328125 C 66.898438 -32.140625 75.113281 -29.546875 85 -29.546875 C 95.03125 -29.546875 103.316406 -32.140625 109.859375 -37.328125 C 116.398438 -42.515625 119.671875 -49.628906 119.671875 -58.671875 Z M 119.671875 -169.484375 "/></g></g></g><g fill="#ffffff" fill-opacity="1"><g transform="translate(2892.817344, 1394.534233)"><g><path d="M 50.5625 -169.484375 L 50.5625 0 L 14.734375 0 L 14.734375 -169.484375 Z M 50.5625 -169.484375 "/></g></g></g><g fill="#ffffff" fill-opacity="1"><g transform="translate(2958.192842, 1394.534233)"><g><path d="M 12.90625 0 L 12.90625 -21.265625 L 97.484375 -139.9375 L 12.75 -139.9375 L 12.75 -169.484375 L 142.515625 -169.484375 L 142.515625 -148.21875 L 57.84375 -29.546875 L 142.671875 -29.546875 L 142.671875 0 Z M 12.90625 0 "/></g></g></g><g fill="#ffffff" fill-opacity="1"><g transform="translate(2347.201582, 2057.32799)"><g><path d="M 4.5625 -77.1875 L 4.5625 -93.484375 L 81.34375 -93.484375 L 81.34375 -77.1875 L 52.71875 -77.1875 L 52.71875 0 L 33.1875 0 L 33.1875 -77.1875 Z M 4.5625 -77.1875 "/></g></g></g><g fill="#ffffff" fill-opacity="1"><g transform="translate(2433.109372, 2057.32799)"><g><path d="M 24.234375 0 L 3.0625 0 L 35.328125 -93.484375 L 60.796875 -93.484375 L 93.03125 0 L 71.84375 0 L 64.90625 -21.3125 L 31.171875 -21.3125 Z M 36.203125 -36.75 L 59.9375 -36.75 L 48.4375 -72.125 L 47.703125 -72.125 Z M 36.203125 -36.75 "/></g></g></g><g fill="#ffffff" fill-opacity="1"><g transform="translate(2529.242106, 2057.32799)"><g><path d="M 8.125 0 L 8.125 -93.484375 L 27.890625 -93.484375 L 27.890625 -52.265625 L 29.125 -52.265625 L 62.765625 -93.484375 L 86.453125 -93.484375 L 51.765625 -51.625 L 86.875 0 L 63.21875 0 L 37.609375 -38.4375 L 27.890625 -26.5625 L 27.890625 0 Z M 8.125 0 "/></g></g></g><g fill="#ffffff" fill-opacity="1"><g transform="translate(2617.888721, 2057.32799)"><g><path d="M 8.125 0 L 8.125 -93.484375 L 71.125 -93.484375 L 71.125 -77.1875 L 27.890625 -77.1875 L 27.890625 -54.921875 L 67.875 -54.921875 L 67.875 -38.625 L 27.890625 -38.625 L 27.890625 -16.296875 L 71.296875 -16.296875 L 71.296875 0 Z M 8.125 0 "/></g></g></g><g fill="#ffffff" fill-opacity="1"><g transform="translate(2696.629921, 2057.32799)"><g/></g></g><g fill="#ffffff" fill-opacity="1"><g transform="translate(2726.43746, 2057.32799)"><g><path d="M 94.03125 -46.75 C 94.03125 -38.40625 92.707031 -31.066406 90.0625 -24.734375 C 87.414062 -18.410156 83.8125 -13.207031 79.25 -9.125 L 92.625 7.671875 L 74.171875 7.671875 L 66.640625 -1.59375 C 61.566406 0.320312 56.109375 1.28125 50.265625 1.28125 C 41.953125 1.28125 34.492188 -0.601562 27.890625 -4.375 C 21.285156 -8.15625 16.066406 -13.628906 12.234375 -20.796875 C 8.398438 -27.960938 6.484375 -36.613281 6.484375 -46.75 C 6.484375 -56.9375 8.398438 -65.601562 12.234375 -72.75 C 16.066406 -79.90625 21.285156 -85.363281 27.890625 -89.125 C 34.492188 -92.882812 41.953125 -94.765625 50.265625 -94.765625 C 58.535156 -94.765625 65.972656 -92.882812 72.578125 -89.125 C 79.179688 -85.363281 84.40625 -79.90625 88.25 -72.75 C 92.101562 -65.601562 94.03125 -56.9375 94.03125 -46.75 Z M 43.40625 -32.5 L 60.203125 -32.5 L 67.15625 -23.59375 C 69.3125 -26.1875 70.988281 -29.414062 72.1875 -33.28125 C 73.394531 -37.144531 74 -41.632812 74 -46.75 C 74 -56.664062 71.835938 -64.234375 67.515625 -69.453125 C 63.191406 -74.671875 57.441406 -77.28125 50.265625 -77.28125 C 43.078125 -77.28125 37.320312 -74.671875 33 -69.453125 C 28.675781 -64.234375 26.515625 -56.664062 26.515625 -46.75 C 26.515625 -36.851562 28.675781 -29.285156 33 -24.046875 C 37.320312 -18.816406 43.078125 -16.203125 50.265625 -16.203125 C 52.054688 -16.203125 53.757812 -16.367188 55.375 -16.703125 Z M 43.40625 -32.5 "/></g></g></g><g fill="#ffffff" fill-opacity="1"><g transform="translate(2827.043607, 2057.32799)"><g><path d="M 66.015625 -93.484375 L 85.640625 -93.484375 L 85.640625 -31.6875 C 85.640625 -24.625 83.976562 -18.632812 80.65625 -13.71875 C 77.34375 -8.800781 72.769531 -5.0625 66.9375 -2.5 C 61.113281 0.0507812 54.425781 1.328125 46.875 1.328125 C 39.332031 1.328125 32.640625 0.0507812 26.796875 -2.5 C 20.953125 -5.0625 16.378906 -8.800781 13.078125 -13.71875 C 9.773438 -18.632812 8.125 -24.625 8.125 -31.6875 L 8.125 -93.484375 L 27.890625 -93.484375 L 27.890625 -32.359375 C 27.890625 -27.367188 29.691406 -23.441406 33.296875 -20.578125 C 36.898438 -17.722656 41.425781 -16.296875 46.875 -16.296875 C 52.414062 -16.296875 56.988281 -17.722656 60.59375 -20.578125 C 64.207031 -23.441406 66.015625 -27.367188 66.015625 -32.359375 Z M 66.015625 -93.484375 "/></g></g></g><g fill="#ffffff" fill-opacity="1"><g transform="translate(2920.802694, 2057.32799)"><g><path d="M 27.890625 -93.484375 L 27.890625 0 L 8.125 0 L 8.125 -93.484375 Z M 27.890625 -93.484375 "/></g></g></g><g fill="#ffffff" fill-opacity="1"><g transform="translate(2956.863881, 2057.32799)"><g><path d="M 7.125 0 L 7.125 -11.734375 L 53.78125 -77.1875 L 7.03125 -77.1875 L 7.03125 -93.484375 L 78.609375 -93.484375 L 78.609375 -81.75 L 31.90625 -16.296875 L 78.703125 -16.296875 L 78.703125 0 Z M 7.125 0 "/></g></g></g></svg>