<svg xmlns="http://www.w3.org/2000/svg" xmlns:xlink="http://www.w3.org/1999/xlink" width="6000" zoomAndPan="magnify" viewBox="0 0 4500 2699.999998" height="3600" preserveAspectRatio="xMidYMid meet" version="1.0"><defs><filter x="0%" y="0%" width="100%" height="100%" id="0c86632be8"><feColorMatrix values="0 0 0 0 1 0 0 0 0 1 0 0 0 0 1 0 0 0 1 0" color-interpolation-filters="sRGB"/></filter><g/><clipPath id="8ebd6b565a"><path d="M 25.191406 86.144531 L 4475 86.144531 L 4475 2613.855469 L 25.191406 2613.855469 Z M 25.191406 86.144531 " clip-rule="nonzero"/></clipPath><clipPath id="d5a4e330c4"><path d="M 48.441406 86.144531 L 4451.558594 86.144531 C 4457.726562 86.144531 4463.640625 88.59375 4468 92.953125 C 4472.359375 97.3125 4474.808594 103.226562 4474.808594 109.394531 L 4474.808594 2590.605469 C 4474.808594 2596.773438 4472.359375 2602.6875 4468 2607.046875 C 4463.640625 2611.40625 4457.726562 2613.855469 4451.558594 2613.855469 L 48.441406 2613.855469 C 42.273438 2613.855469 36.359375 2611.40625 32 2607.046875 C 27.640625 2602.6875 25.191406 2596.773438 25.191406 2590.605469 L 25.191406 109.394531 C 25.191406 103.226562 27.640625 97.3125 32 92.953125 C 36.359375 88.59375 42.273438 86.144531 48.441406 86.144531 Z M 48.441406 86.144531 " clip-rule="nonzero"/></clipPath><clipPath id="c2eae8124d"><path d="M 25.203125 86.144531 L 4473.304688 86.144531 L 4473.304688 2613.007812 L 25.203125 2613.007812 Z M 25.203125 86.144531 " clip-rule="nonzero"/></clipPath><clipPath id="34b6df48e1"><path d="M 48.453125 86.144531 L 4451.511719 86.144531 C 4457.675781 86.144531 4463.589844 88.59375 4467.949219 92.953125 C 4472.308594 97.3125 4474.761719 103.226562 4474.761719 109.394531 L 4474.761719 2590.570312 C 4474.761719 2596.738281 4472.308594 2602.652344 4467.949219 2607.011719 C 4463.589844 2611.371094 4457.675781 2613.820312 4451.511719 2613.820312 L 48.453125 2613.820312 C 42.285156 2613.820312 36.375 2611.371094 32.011719 2607.011719 C 27.652344 2602.652344 25.203125 2596.738281 25.203125 2590.570312 L 25.203125 109.394531 C 25.203125 103.226562 27.652344 97.3125 32.011719 92.953125 C 36.375 88.59375 42.285156 86.144531 48.453125 86.144531 Z M 48.453125 86.144531 " clip-rule="nonzero"/></clipPath><clipPath id="7b3ecb71ba"><path d="M 1988.820312 1899 L 2213.316406 1899 L 2213.316406 2123.492188 L 1988.820312 2123.492188 Z M 1988.820312 1899 " clip-rule="nonzero"/></clipPath><clipPath id="b712f9d618"><path d="M 4079 312.65625 L 4219 312.65625 L 4219 511.042969 L 4079 511.042969 Z M 4079 312.65625 " clip-rule="nonzero"/></clipPath><clipPath id="6506d2232f"><path d="M 3489 1810 L 3607 1810 L 3607 1930 L 3489 1930 Z M 3489 1810 " clip-rule="nonzero"/></clipPath><clipPath id="c8a94e06b1"><path d="M 3489.730469 1779.683594 L 3632.511719 1811.039062 L 3601.15625 1953.820312 L 3458.375 1922.464844 Z M 3489.730469 1779.683594 " clip-rule="nonzero"/></clipPath><clipPath id="85b171b590"><path d="M 3489.730469 1779.683594 L 3632.511719 1811.039062 L 3601.15625 1953.820312 L 3458.375 1922.464844 Z M 3489.730469 1779.683594 " clip-rule="nonzero"/></clipPath><clipPath id="c75b87419f"><path d="M 3489.730469 1779.683594 L 3632.511719 1811.039062 L 3601.15625 1953.820312 L 3458.375 1922.464844 Z M 3489.730469 1779.683594 " clip-rule="nonzero"/></clipPath><clipPath id="87b3e09e88"><path d="M 822 422 L 942 422 L 942 539 L 822 539 Z M 822 422 " clip-rule="nonzero"/></clipPath><clipPath id="e63d22b6d7"><path d="M 807.21875 409.351562 L 953.335938 405.074219 L 957.617188 551.191406 L 811.5 555.472656 Z M 807.21875 409.351562 " clip-rule="nonzero"/></clipPath><clipPath id="4774b5729f"><path d="M 807.21875 409.351562 L 953.335938 405.074219 L 957.617188 551.191406 L 811.5 555.472656 Z M 807.21875 409.351562 " clip-rule="nonzero"/></clipPath><clipPath id="e6e963d552"><path d="M 807.21875 409.351562 L 953.335938 405.074219 L 957.617188 551.191406 L 811.5 555.472656 Z M 807.21875 409.351562 " clip-rule="nonzero"/></clipPath><clipPath id="7d9b3a03ec"><path d="M 1293 2009 L 1414 2009 L 1414 2126 L 1293 2126 Z M 1293 2009 " clip-rule="nonzero"/></clipPath><clipPath id="5e6f68f2cb"><path d="M 1278.261719 1996.582031 L 1424.378906 1992.300781 L 1428.660156 2138.421875 L 1282.539062 2142.703125 Z M 1278.261719 1996.582031 " clip-rule="nonzero"/></clipPath><clipPath id="111d4f7fe1"><path d="M 1278.261719 1996.582031 L 1424.378906 1992.300781 L 1428.660156 2138.421875 L 1282.539062 2142.703125 Z M 1278.261719 1996.582031 " clip-rule="nonzero"/></clipPath><clipPath id="c94f2789a1"><path d="M 1278.261719 1996.582031 L 1424.378906 1992.300781 L 1428.660156 2138.421875 L 1282.539062 2142.703125 Z M 1278.261719 1996.582031 " clip-rule="nonzero"/></clipPath><clipPath id="e417e46b27"><path d="M 1781 1687 L 1888.980469 1687 L 1888.980469 1823 L 1781 1823 Z M 1781 1687 " clip-rule="nonzero"/></clipPath><mask id="0598a24a59"><g filter="url(#0c86632be8)"><rect x="-450" width="5400" fill="#000000" y="-270" height="3239.999997" fill-opacity="0.5"/></g></mask><clipPath id="b894e525fe"><path d="M 0.0390625 0.199219 L 107 0.199219 L 107 93 L 0.0390625 93 Z M 0.0390625 0.199219 " clip-rule="nonzero"/></clipPath><clipPath id="e2b170ea1a"><path d="M 0.0390625 16 L 107.980469 16 L 107.980469 129 L 0.0390625 129 Z M 0.0390625 16 " clip-rule="nonzero"/></clipPath><clipPath id="9f80536666"><path d="M 0.0390625 44 L 107.980469 44 L 107.980469 135.320312 L 0.0390625 135.320312 Z M 0.0390625 44 " clip-rule="nonzero"/></clipPath><clipPath id="124cdd3d87"><rect x="0" width="108" y="0" height="136"/></clipPath><clipPath id="5a5d623b3d"><path d="M 1727.136719 1673.871094 L 1857 1673.871094 L 1857 1829 L 1727.136719 1829 Z M 1727.136719 1673.871094 " clip-rule="nonzero"/></clipPath><clipPath id="931d07e161"><path d="M 2275 412 L 2383.875 412 L 2383.875 548 L 2275 548 Z M 2275 412 " clip-rule="nonzero"/></clipPath><mask id="64352e118e"><g filter="url(#0c86632be8)"><rect x="-450" width="5400" fill="#000000" y="-270" height="3239.999997" fill-opacity="0.5"/></g></mask><clipPath id="1ba5ff321e"><path d="M 0.917969 0.558594 L 108 0.558594 L 108 93 L 0.917969 93 Z M 0.917969 0.558594 " clip-rule="nonzero"/></clipPath><clipPath id="73af9ac474"><path d="M 0.917969 16 L 108.875 16 L 108.875 130 L 0.917969 130 Z M 0.917969 16 " clip-rule="nonzero"/></clipPath><clipPath id="5764ea4b24"><path d="M 0.917969 45 L 108.875 45 L 108.875 135.679688 L 0.917969 135.679688 Z M 0.917969 45 " clip-rule="nonzero"/></clipPath><clipPath id="e02f56ab18"><rect x="0" width="109" y="0" height="136"/></clipPath><clipPath id="f52557a16a"><path d="M 2222.03125 399.199219 L 2352 399.199219 L 2352 555 L 2222.03125 555 Z M 2222.03125 399.199219 " clip-rule="nonzero"/></clipPath><clipPath id="6479321925"><path d="M 4202 1353 L 4310.828125 1353 L 4310.828125 1489 L 4202 1489 Z M 4202 1353 " clip-rule="nonzero"/></clipPath><mask id="75351e805c"><g filter="url(#0c86632be8)"><rect x="-450" width="5400" fill="#000000" y="-270" height="3239.999997" fill-opacity="0.5"/></g></mask><clipPath id="00a7dea8d9"><path d="M 0.878906 0.839844 L 108 0.839844 L 108 94 L 0.878906 94 Z M 0.878906 0.839844 " clip-rule="nonzero"/></clipPath><clipPath id="6f44e40f11"><path d="M 0.878906 16 L 108.828125 16 L 108.828125 130 L 0.878906 130 Z M 0.878906 16 " clip-rule="nonzero"/></clipPath><clipPath id="1b259c0ef2"><path d="M 0.878906 45 L 108.828125 45 L 108.828125 135.960938 L 0.878906 135.960938 Z M 0.878906 45 " clip-rule="nonzero"/></clipPath><clipPath id="7df4e718bc"><rect x="0" width="109" y="0" height="136"/></clipPath><clipPath id="c7ab68df89"><path d="M 4148.980469 1340.453125 L 4279 1340.453125 L 4279 1496 L 4148.980469 1496 Z M 4148.980469 1340.453125 " clip-rule="nonzero"/></clipPath><clipPath id="86c6bc893c"><path d="M 29.429688 1368 L 1271 1368 L 1271 2609.96875 L 29.429688 2609.96875 Z M 29.429688 1368 " clip-rule="nonzero"/></clipPath><clipPath id="3361d639c9"><path d="M 3229 91.46875 L 4471.027344 91.46875 L 4471.027344 1333 L 3229 1333 Z M 3229 91.46875 " clip-rule="nonzero"/></clipPath><clipPath id="6c85b2600c"><path d="M 1085.707031 739 L 1372 739 L 1372 1126 L 1085.707031 1126 Z M 1085.707031 739 " clip-rule="nonzero"/></clipPath><clipPath id="6f11898051"><path d="M 1488 599.796875 L 1846 599.796875 L 1846 909 L 1488 909 Z M 1488 599.796875 " clip-rule="nonzero"/></clipPath></defs><g clip-path="url(#8ebd6b565a)"><g clip-path="url(#d5a4e330c4)"><path fill="#2682ff" d="M 25.191406 86.144531 L 4478.3125 86.144531 L 4478.3125 2613.855469 L 25.191406 2613.855469 Z M 25.191406 86.144531 " fill-opacity="1" fill-rule="nonzero"/></g></g><g clip-path="url(#c2eae8124d)"><g clip-path="url(#34b6df48e1)"><path stroke-linecap="butt" transform="matrix(5.220791, 0, 0, 5.220791, 25.203471, 86.143244)" fill="none" stroke-linejoin="miter" d="M 4.453282 0.000246652 L 847.82325 0.000246652 C 849.003926 0.000246652 850.136717 0.469375 850.97172 1.304377 C 851.80747 2.13938 852.276598 3.27217 852.276598 4.453595 L 852.276598 479.703331 C 852.276598 480.884007 851.80747 482.016797 850.97172 482.8518 C 850.136717 483.686803 849.003926 484.155931 847.82325 484.155931 L 4.453282 484.155931 C 3.271858 484.155931 2.139815 483.686803 1.304064 482.8518 C 0.469062 482.016797 -0.00006626 480.884007 -0.00006626 479.703331 L -0.00006626 4.453595 C -0.00006626 3.27217 0.469062 2.13938 1.304064 1.304377 C 2.139815 0.469375 3.271858 0.000246652 4.453282 0.000246652 Z M 4.453282 0.000246652 " stroke="#b1aeb7" stroke-width="0.287313" stroke-opacity="1" stroke-miterlimit="4"/></g></g><g clip-path="url(#7b3ecb71ba)"><path fill="#ffffff" d="M 2101.070312 1899 C 2039.082031 1899 1988.820312 1949.257812 1988.820312 2011.246094 C 1988.820312 2073.234375 2039.082031 2123.492188 2101.070312 2123.492188 C 2163.054688 2123.492188 2213.316406 2073.234375 2213.316406 2011.246094 C 2213.316406 1949.257812 2163.054688 1899 2101.070312 1899 Z M 2142.75 2012.519531 L 2079.613281 2050.203125 C 2079.160156 2050.476562 2078.582031 2050.488281 2078.117188 2050.214844 C 2077.664062 2049.953125 2077.378906 2049.46875 2077.378906 2048.925781 L 2077.378906 1973.558594 C 2077.378906 1973.023438 2077.664062 1972.53125 2078.117188 1972.269531 C 2078.582031 1972.003906 2079.160156 1972.015625 2079.613281 1972.285156 L 2142.75 2009.976562 C 2143.203125 2010.230469 2143.46875 2010.730469 2143.46875 2011.242188 C 2143.46875 2011.765625 2143.203125 2012.253906 2142.75 2012.519531 Z M 2142.75 2012.519531 " fill-opacity="1" fill-rule="nonzero"/></g><g clip-path="url(#b712f9d618)"><path fill="#ffffff" d="M 4088.46875 512.269531 L 4209.445312 512.269531 C 4214.457031 512.269531 4218.519531 508.207031 4218.519531 503.195312 L 4218.519531 400.363281 C 4218.519531 395.351562 4214.457031 391.289062 4209.445312 391.289062 L 4200.371094 391.289062 L 4200.371094 364.070312 C 4200.371094 335.71875 4177.308594 312.65625 4148.957031 312.65625 C 4120.605469 312.65625 4097.542969 335.71875 4097.542969 364.070312 L 4097.542969 391.289062 L 4088.46875 391.289062 C 4083.457031 391.289062 4079.394531 395.351562 4079.394531 400.363281 L 4079.394531 503.195312 C 4079.394531 508.207031 4083.457031 512.269531 4088.46875 512.269531 Z M 4158.03125 454.796875 L 4158.03125 466.902344 C 4158.03125 471.914062 4153.96875 475.976562 4148.957031 475.976562 C 4143.945312 475.976562 4139.882812 471.914062 4139.882812 466.902344 L 4139.882812 454.796875 C 4136.214844 452.035156 4133.835938 447.644531 4133.835938 442.707031 C 4133.835938 434.367188 4140.617188 427.582031 4148.957031 427.582031 C 4157.296875 427.582031 4164.078125 434.367188 4164.078125 442.707031 C 4164.078125 447.644531 4161.699219 452.035156 4158.03125 454.796875 Z M 4115.6875 364.070312 C 4115.6875 345.726562 4130.613281 330.800781 4148.957031 330.800781 C 4167.300781 330.800781 4182.226562 345.726562 4182.226562 364.070312 L 4182.226562 391.289062 L 4115.6875 391.289062 Z M 4115.6875 364.070312 " fill-opacity="1" fill-rule="nonzero"/></g><g clip-path="url(#6506d2232f)"><g clip-path="url(#c8a94e06b1)"><g clip-path="url(#85b171b590)"><g clip-path="url(#c75b87419f)"><path stroke-linecap="round" transform="matrix(5.949152, 1.306493, -1.306493, 5.949152, 3489.731109, 1779.684864)" fill="none" stroke-linejoin="round" d="M 11.268886 4.411513 C 11.500777 3.89177 11.616409 3.631968 11.777434 3.551956 C 11.917774 3.482396 12.081939 3.482457 12.222001 3.552159 C 12.383393 3.632278 12.498845 3.891891 12.730374 4.410979 L 14.574648 8.54836 C 14.643063 8.701427 14.677095 8.778655 14.730024 8.837288 C 14.776918 8.889367 14.834551 8.930552 14.89799 8.9593 C 14.970671 8.991271 15.054122 9.000521 15.221375 9.017633 L 19.725757 9.493314 C 20.291074 9.553015 20.574045 9.582796 20.699492 9.711519 C 20.808772 9.823437 20.859511 9.979729 20.837005 10.134378 C 20.811033 10.312113 20.599371 10.502393 20.177436 10.883304 L 16.81236 13.915177 C 16.687425 14.027973 16.624957 14.08437 16.585485 14.15279 C 16.5509 14.21357 16.528891 14.280781 16.521136 14.350115 C 16.513427 14.428631 16.530822 14.510826 16.565748 14.675843 L 17.50527 19.106468 C 17.62353 19.662907 17.682591 19.940813 17.59879 20.100387 C 17.52617 20.23912 17.393624 20.335202 17.239133 20.361251 C 17.061954 20.391625 16.815365 20.249453 16.32295 19.965599 L 12.399754 17.702383 C 12.253885 17.618198 12.181019 17.576418 12.103847 17.559879 C 12.035017 17.545448 11.964065 17.545271 11.895788 17.560265 C 11.818603 17.576559 11.745669 17.618184 11.600075 17.702686 L 7.676736 19.965488 C 7.184298 20.249603 6.937766 20.391729 6.760459 20.361724 C 6.606237 20.335185 6.473475 20.238929 6.400921 20.099903 C 6.317426 19.940956 6.376481 19.662718 6.494591 19.106242 L 7.434342 14.675916 C 7.469115 14.51135 7.486433 14.428754 7.47842 14.350408 C 7.470942 14.28048 7.44892 14.21309 7.413942 14.152484 C 7.374671 14.084286 7.311719 14.027854 7.187206 13.915341 L 3.822695 10.883332 C 3.400292 10.502682 3.189021 10.312045 3.162405 10.13404 C 3.139626 9.979487 3.190656 9.823171 3.300008 9.711171 C 3.426164 9.583005 3.708519 9.553171 4.273855 9.493365 L 8.77824 9.018279 C 8.945719 9.000541 9.029076 8.991427 9.101431 8.959122 C 9.165429 8.930623 9.222642 8.889167 9.269587 8.836835 C 9.32246 8.778604 9.356737 8.701477 9.424803 8.547985 Z M 11.268886 4.411513 " stroke="#ffffff" stroke-width="2" stroke-opacity="1" stroke-miterlimit="4"/></g></g></g></g><g clip-path="url(#87b3e09e88)"><g clip-path="url(#e63d22b6d7)"><g clip-path="url(#4774b5729f)"><g clip-path="url(#e6e963d552)"><path stroke-linecap="round" transform="matrix(6.088311, -0.178343, 0.178343, 6.088311, 807.218416, 409.353323)" fill="none" stroke-linejoin="round" d="M 11.268838 4.411011 C 11.500911 3.891699 11.616306 3.632024 11.777764 3.552062 C 11.917749 3.482379 12.081989 3.482699 12.221745 3.552236 C 12.383016 3.632027 12.499227 3.89207 12.730404 4.410837 L 14.574432 8.547985 C 14.64308 8.701413 14.677404 8.778127 14.730203 8.837418 C 14.776798 8.889469 14.83461 8.930942 14.897945 8.959102 C 14.970783 8.991391 15.053932 9.000243 15.221511 9.017984 L 19.725726 9.493179 C 20.291155 9.552729 20.57386 9.582824 20.69969 9.711622 C 20.8087 9.823245 20.859945 9.979372 20.836811 10.133961 C 20.811058 10.312212 20.599536 10.502345 20.177113 10.883271 L 16.812284 13.915706 C 16.687727 14.028187 16.625137 14.084097 16.58591 14.152882 C 16.550773 14.213447 16.52891 14.280816 16.521735 14.35054 C 16.513014 14.429201 16.530502 14.511196 16.565459 14.675828 L 17.505213 19.106644 C 17.623024 19.662512 17.682241 19.940775 17.59866 20.10001 C 17.526578 20.23905 17.393515 20.335241 17.239404 20.361524 C 17.062082 20.391617 16.815376 20.249655 16.323264 19.965127 L 12.399454 17.702117 C 12.2537 17.618289 12.181144 17.576385 12.10399 17.56001 C 12.035113 17.545802 11.964542 17.545659 11.896121 17.559695 C 11.818632 17.576673 11.745558 17.618161 11.600013 17.702439 L 7.67644 19.96527 C 7.184357 20.249199 6.937666 20.391465 6.760187 20.361244 C 6.606314 20.335564 6.473134 20.238631 6.400831 20.100494 C 6.317608 19.940865 6.376438 19.662851 6.494116 19.106183 L 7.43423 14.675896 C 7.469204 14.511389 7.48637 14.429125 7.478404 14.350617 C 7.470835 14.280461 7.44907 14.213097 7.413635 14.152391 C 7.374561 14.08452 7.312052 14.028153 7.187035 13.915419 L 3.822766 10.883483 C 3.400215 10.502187 3.188911 10.3125 3.162701 10.13401 C 3.139643 9.979351 3.190418 9.823005 3.300193 9.711374 C 3.42586 9.582886 3.708389 9.553308 4.274104 9.493529 L 8.778584 9.017883 C 8.945273 9.00031 9.028947 8.991212 9.101098 8.959321 C 9.165445 8.931051 9.222493 8.889093 9.269566 8.83722 C 9.322615 8.778463 9.356939 8.701835 9.424966 8.54792 Z M 11.268838 4.411011 " stroke="#ffffff" stroke-width="2" stroke-opacity="1" stroke-miterlimit="4"/></g></g></g></g><g clip-path="url(#7d9b3a03ec)"><g clip-path="url(#5e6f68f2cb)"><g clip-path="url(#111d4f7fe1)"><g clip-path="url(#c94f2789a1)"><path stroke-linecap="round" transform="matrix(6.088311, -0.178343, 0.178343, 6.088311, 1278.260228, 1996.581807)" fill="none" stroke-linejoin="round" d="M 11.269019 4.411343 C 11.50045 3.892011 11.616486 3.632355 11.777304 3.552375 C 11.917289 3.482691 12.082188 3.482389 12.221944 3.551926 C 12.383196 3.632358 12.498785 3.891742 12.730585 4.411169 L 14.574612 8.548317 C 14.64326 8.701745 14.676943 8.77844 14.730402 8.837108 C 14.776997 8.889159 14.834168 8.930613 14.898126 8.959434 C 14.970323 8.991704 15.054112 9.000574 15.221069 9.017655 L 19.725907 9.49351 C 20.291335 9.55306 20.57404 9.583156 20.699889 9.711312 C 20.808899 9.822935 20.859485 9.979684 20.836991 10.134292 C 20.810616 10.311884 20.599716 10.502676 20.177312 10.882961 L 16.812483 13.915396 C 16.687926 14.027877 16.625318 14.084428 16.585468 14.152554 C 16.550972 14.213137 16.529109 14.280506 16.521293 14.350211 C 16.513213 14.428891 16.530701 14.510886 16.565658 14.675518 L 17.505412 19.106335 C 17.623204 19.662843 17.682421 19.941106 17.59884 20.100341 C 17.526136 20.238721 17.393696 20.335572 17.239603 20.361214 C 17.06164 20.391289 16.815575 20.249345 16.322803 19.965439 L 12.399634 17.702448 C 12.25388 17.618621 12.181324 17.576716 12.103548 17.559681 C 12.035313 17.545492 11.9641 17.545331 11.895661 17.560008 C 11.81819 17.576345 11.745738 17.618493 11.600212 17.702129 L 7.67662 19.965601 C 7.183897 20.249511 6.937846 20.391796 6.760367 20.361575 C 6.606513 20.335254 6.473315 20.238962 6.40103 20.100184 C 6.317166 19.940536 6.376637 19.662541 6.494297 19.106514 L 7.433788 14.675568 C 7.468762 14.51106 7.486569 14.428815 7.477962 14.350288 C 7.471016 14.280792 7.44925 14.213428 7.413815 14.152722 C 7.374119 14.084191 7.312251 14.027843 7.187234 13.915109 L 3.822324 10.883155 C 3.399754 10.502499 3.18911 10.31219 3.162882 10.134341 C 3.139823 9.979682 3.190598 9.823336 3.299732 9.711687 C 3.42606 9.582576 3.708588 9.552998 4.274304 9.493219 L 8.778123 9.018196 C 8.945472 9 9.029127 8.991544 9.101298 8.959011 C 9.165644 8.930741 9.222673 8.889425 9.269765 8.83691 C 9.322173 8.778135 9.356497 8.701507 9.425147 8.548251 Z M 11.269019 4.411343 " stroke="#ffffff" stroke-width="2" stroke-opacity="1" stroke-miterlimit="4"/></g></g></g></g><g clip-path="url(#e417e46b27)"><g mask="url(#0598a24a59)"><g transform="matrix(1, 0, 0, 1, 1781, 1687)"><g clip-path="url(#124cdd3d87)"><path fill="#ffffff" d="M 19.757812 31.207031 C 18.707031 26.699219 17.820312 22.882812 16.855469 19.882812 L 61.589844 32.859375 C 61.886719 32.945312 62.65625 33.285156 63.71875 36.070312 C 64.757812 38.796875 65.695312 42.796875 67.046875 48.605469 L 67.855469 52.085938 C 68.035156 52.859375 68.207031 53.597656 68.386719 54.296875 L 27.84375 43.066406 L 25.796875 41.902344 C 22.902344 40.253906 22.371094 39.867188 21.996094 39.347656 C 21.578125 38.761719 21.324219 37.953125 20.503906 34.425781 Z M 19.757812 31.207031 " fill-opacity="1" fill-rule="nonzero"/><g clip-path="url(#b894e525fe)"><path stroke-linecap="butt" transform="matrix(6.74352, 0, 0, 6.74352, -53.864916, -13.128643)" fill="none" stroke-linejoin="miter" d="M 10.917551 6.574559 C 10.76173 5.906093 10.630238 5.340157 10.487161 4.895285 L 17.120844 6.819586 C 17.164868 6.83233 17.278982 6.882725 17.43654 7.295738 C 17.590623 7.700061 17.729646 8.293223 17.93007 9.154582 L 18.049976 9.670703 C 18.076622 9.785396 18.10211 9.894876 18.128756 9.998564 L 12.116619 8.333192 L 11.813087 8.160572 C 11.383855 7.916125 11.305076 7.858778 11.249467 7.781737 C 11.187486 7.694848 11.149834 7.574941 11.02819 7.051869 Z M 10.917551 6.574559 " stroke="#ffffff" stroke-width="1" stroke-opacity="1" stroke-miterlimit="4"/></g><path fill="#ffffff" d="M 42.851562 54.222656 L 76.621094 63.574219 L 78.671875 64.742188 C 83.433594 67.457031 86.644531 69.296875 88.738281 70.972656 C 90.742188 72.578125 91.085938 73.535156 91.117188 74.351562 C 91.148438 75.210938 90.835938 76.289062 88.910156 78.21875 C 86.925781 80.207031 83.84375 82.511719 79.308594 85.878906 L 76.621094 87.875 C 75.347656 88.820312 74.195312 89.671875 73.226562 90.628906 L 27.339844 77.316406 L 29.757812 75.519531 C 34.011719 72.359375 37.507812 69.761719 39.886719 67.375 C 42.363281 64.890625 44.191406 62.09375 44.058594 58.5 C 44 56.886719 43.558594 55.476562 42.851562 54.222656 Z M 42.851562 54.222656 " fill-opacity="1" fill-rule="nonzero"/><g clip-path="url(#e2b170ea1a)"><path stroke-linecap="butt" transform="matrix(6.74352, 0, 0, 6.74352, -53.864916, -13.128643)" fill="none" stroke-linejoin="miter" d="M 14.342135 9.987558 L 19.349835 11.374306 L 19.653947 11.547504 C 20.360064 11.95009 20.836216 12.222921 21.146699 12.471424 C 21.443859 12.709499 21.494834 12.851418 21.499468 12.972483 C 21.504102 13.09992 21.457762 13.259796 21.172187 13.54595 C 20.877923 13.840794 20.420887 14.182557 19.748366 14.681879 L 19.349835 14.977881 C 19.160997 15.118061 18.990115 15.24434 18.846459 15.386259 L 12.041894 13.412141 L 12.400456 13.145682 C 13.03127 12.677061 13.549707 12.291853 13.902477 11.937925 C 14.269727 11.569516 14.540821 11.154766 14.521126 10.621847 C 14.512437 10.382613 14.446981 10.1735 14.342135 9.987558 Z M 14.342135 9.987558 " stroke="#ffffff" stroke-width="1" stroke-opacity="1" stroke-miterlimit="4"/></g><path fill="#ffffff" d="M 22.835938 83.03125 L 70.125 96.75 C 69.929688 97.703125 69.769531 98.726562 69.601562 99.832031 L 69.054688 103.382812 C 68.535156 106.761719 67.769531 109.769531 66.953125 112.316406 C 65.515625 116.808594 65.148438 117.429688 64.070312 118.050781 C 63.605469 118.316406 63.167969 118.433594 62.253906 118.332031 C 61.132812 118.203125 59.699219 117.800781 57.25 117.089844 L 18.175781 105.753906 C 18.644531 104.765625 19.015625 103.710938 19.332031 102.632812 C 20.308594 99.28125 21.015625 94.707031 21.882812 89.0625 L 22.390625 85.773438 C 22.570312 84.601562 22.710938 83.714844 22.835938 83.03125 Z M 22.835938 83.03125 " fill-opacity="1" fill-rule="nonzero"/><g clip-path="url(#9f80536666)"><path stroke-linecap="butt" transform="matrix(6.74352, 0, 0, 6.74352, -53.864916, -13.128643)" fill="none" stroke-linejoin="miter" d="M 11.374008 14.259598 L 18.386526 16.293959 C 18.357563 16.435298 18.333814 16.587064 18.308906 16.750995 L 18.227809 17.277542 C 18.150768 17.778601 18.037233 18.224631 17.916167 18.602309 C 17.703 19.268458 17.648549 19.36056 17.488674 19.452662 C 17.419742 19.492052 17.354865 19.50943 17.219318 19.494369 C 17.05307 19.475253 16.840482 19.415589 16.477286 19.310164 L 10.682951 17.629152 C 10.752462 17.4826 10.807492 17.3262 10.854412 17.166324 C 10.999227 16.669319 11.104073 15.991006 11.232668 15.153975 L 11.307972 14.666239 C 11.334618 14.492461 11.355471 14.360969 11.374008 14.259598 Z M 11.374008 14.259598 " stroke="#ffffff" stroke-width="1" stroke-opacity="1" stroke-miterlimit="4"/></g></g></g></g></g><path fill="#ffffff" d="M 1777.074219 1714.824219 C 1780.933594 1710.515625 1783.578125 1707.578125 1785.710938 1705.804688 C 1787.871094 1704.007812 1788.578125 1704.191406 1788.796875 1704.253906 C 1789.089844 1704.339844 1789.859375 1704.679688 1790.921875 1707.464844 C 1791.960938 1710.1875 1792.902344 1714.191406 1794.253906 1720 L 1795.0625 1723.480469 C 1795.691406 1726.195312 1796.210938 1728.453125 1797.515625 1730.273438 C 1798.859375 1732.148438 1800.808594 1733.253906 1803.03125 1734.515625 L 1803.464844 1734.761719 L 1805.875 1736.136719 C 1810.640625 1738.847656 1813.851562 1740.691406 1815.945312 1742.367188 C 1817.945312 1743.972656 1818.292969 1744.929688 1818.320312 1745.746094 C 1818.351562 1746.605469 1818.039062 1747.683594 1816.113281 1749.613281 C 1814.132812 1751.601562 1811.046875 1753.902344 1806.515625 1757.273438 L 1803.824219 1759.269531 C 1801.683594 1760.855469 1799.882812 1762.191406 1798.722656 1764.183594 C 1797.585938 1766.128906 1797.238281 1768.40625 1796.804688 1771.226562 L 1796.261719 1774.777344 C 1795.339844 1780.742188 1794.699219 1784.871094 1793.859375 1787.742188 C 1793.386719 1789.355469 1792.9375 1790.257812 1792.558594 1790.773438 C 1791.828125 1790.5 1790.855469 1790.105469 1789.707031 1789.554688 C 1786.976562 1788.246094 1783.273438 1786.078125 1779.480469 1782.667969 L 1777.375 1780.773438 L 1777.28125 1780.6875 C 1776.203125 1779.71875 1775.246094 1778.855469 1774.378906 1778.199219 C 1773.4375 1777.488281 1772.425781 1776.871094 1771.1875 1776.511719 C 1768.996094 1775.875 1766.742188 1776.296875 1764.308594 1776.753906 L 1763.785156 1776.855469 L 1761.082031 1777.355469 C 1755.738281 1778.347656 1752.15625 1779 1749.585938 1779.046875 C 1747.117188 1779.09375 1746.597656 1778.5625 1746.320312 1778.175781 C 1745.929688 1777.632812 1745.570312 1776.582031 1746.171875 1773.628906 C 1746.773438 1770.6875 1748.121094 1766.769531 1750.078125 1761.105469 L 1751.242188 1757.753906 C 1752.175781 1755.058594 1752.925781 1752.902344 1752.839844 1750.625 C 1752.757812 1748.335938 1751.84375 1746.269531 1750.714844 1743.71875 L 1749.3125 1740.546875 C 1746.949219 1735.1875 1745.328125 1731.492188 1744.519531 1728.667969 C 1743.71875 1725.871094 1743.96875 1724.738281 1744.371094 1724.046875 C 1744.703125 1723.476562 1745.308594 1722.867188 1747.742188 1722.566406 C 1750.304688 1722.25 1753.910156 1722.390625 1759.300781 1722.621094 L 1762.023438 1722.738281 L 1762.539062 1722.761719 C 1765.011719 1722.871094 1767.277344 1722.96875 1769.378906 1722.042969 C 1771.425781 1721.136719 1772.972656 1719.40625 1774.746094 1717.421875 L 1775.117188 1717.007812 Z M 1777.074219 1714.824219 " fill-opacity="1" fill-rule="nonzero"/><g clip-path="url(#5a5d623b3d)"><path stroke-linecap="butt" transform="matrix(6.74352, 0, 0, 6.74352, 1727.135089, 1673.871365)" fill="none" stroke-linejoin="miter" d="M 7.405498 6.072919 C 7.977807 5.433996 8.369966 4.998392 8.686242 4.735408 C 9.006572 4.468949 9.111418 4.496174 9.143857 4.505442 C 9.187301 4.518186 9.301416 4.568582 9.458974 4.981594 C 9.613057 5.385338 9.752659 5.979079 9.953083 6.840438 L 10.07299 7.356559 C 10.16625 7.759144 10.243292 8.093956 10.436765 8.363891 C 10.63603 8.641936 10.925081 8.805867 11.25468 8.992968 L 11.318977 9.029461 L 11.676381 9.23336 C 12.383078 9.635367 12.859229 9.908777 13.169712 10.15728 C 13.466293 10.395355 13.517847 10.537274 13.521902 10.658339 C 13.526536 10.785776 13.480196 10.945652 13.19462 11.231806 C 12.900936 11.52665 12.443321 11.867834 11.771379 12.367735 L 11.372269 12.663737 C 11.054835 12.898916 10.787796 13.097023 10.615756 13.392445 C 10.447191 13.680917 10.395637 14.018625 10.331339 14.436851 L 10.250822 14.963398 C 10.114117 15.847927 10.019118 16.460205 9.894578 16.885961 C 9.824487 17.125195 9.757872 17.259004 9.701684 17.335467 C 9.593363 17.294918 9.449127 17.236413 9.278825 17.154737 C 8.873922 16.960685 8.324784 16.639196 7.762322 16.133503 L 7.450101 15.852562 L 7.436199 15.839818 C 7.276324 15.696161 7.134405 15.568145 7.005809 15.470829 C 6.866208 15.365404 6.716179 15.273881 6.532554 15.220589 C 6.207589 15.12617 5.873356 15.18873 5.512478 15.256503 L 5.434857 15.271564 L 5.034009 15.345709 C 4.241582 15.492841 3.7104 15.589578 3.329248 15.596529 C 2.963155 15.60348 2.886114 15.524701 2.844986 15.467354 C 2.78706 15.386837 2.733769 15.231016 2.822975 14.793095 C 2.912181 14.356913 3.112025 13.775915 3.402234 12.935989 L 3.574854 12.438984 C 3.713297 12.039295 3.824515 11.719543 3.811771 11.381835 C 3.799606 11.042389 3.66406 10.73596 3.496654 10.357704 L 3.288699 9.887345 C 2.938247 9.0926 2.697854 8.54462 2.577948 8.125816 C 2.459199 7.711066 2.496272 7.54308 2.555936 7.440551 C 2.605173 7.355979 2.694958 7.265615 3.055837 7.221012 C 3.435831 7.174092 3.970488 7.194945 4.769867 7.229122 L 5.173611 7.246499 L 5.250073 7.249975 C 5.616744 7.266194 5.952715 7.280676 6.264357 7.143391 C 6.567889 7.009003 6.797276 6.752391 7.06026 6.458127 L 7.115289 6.396725 Z M 7.405498 6.072919 " stroke="#ffffff" stroke-width="1" stroke-opacity="1" stroke-miterlimit="4"/></g><g clip-path="url(#931d07e161)"><g mask="url(#64352e118e)"><g transform="matrix(1, 0, 0, 1, 2275, 412)"><g clip-path="url(#e02f56ab18)"><path fill="#ffffff" d="M 20.652344 31.535156 C 19.601562 27.027344 18.714844 23.210938 17.75 20.210938 L 62.484375 33.1875 C 62.78125 33.273438 63.550781 33.613281 64.613281 36.398438 C 65.652344 39.121094 66.589844 43.125 67.941406 48.933594 L 68.75 52.414062 C 68.929688 53.1875 69.101562 53.925781 69.285156 54.625 L 28.742188 43.394531 L 26.691406 42.230469 C 23.796875 40.578125 23.265625 40.195312 22.890625 39.671875 C 22.472656 39.089844 22.222656 38.28125 21.398438 34.75 Z M 20.652344 31.535156 " fill-opacity="1" fill-rule="nonzero"/><g clip-path="url(#1ba5ff321e)"><path stroke-linecap="butt" transform="matrix(6.74352, 0, 0, 6.74352, -52.969937, -12.801167)" fill="none" stroke-linejoin="miter" d="M 10.917485 6.574655 C 10.761664 5.90619 10.630172 5.340253 10.487095 4.895381 L 17.120777 6.819682 C 17.164801 6.832426 17.278915 6.882822 17.436474 7.295834 C 17.590557 7.699578 17.729579 8.293319 17.930003 9.154678 L 18.04991 9.670799 C 18.076556 9.785492 18.102043 9.894972 18.129269 9.99866 L 12.117132 8.333288 L 11.81302 8.160669 C 11.383789 7.915642 11.305009 7.858874 11.249401 7.781254 C 11.18742 7.694944 11.150347 7.575037 11.028123 7.051386 Z M 10.917485 6.574655 " stroke="#ffffff" stroke-width="1" stroke-opacity="1" stroke-miterlimit="4"/></g><path fill="#ffffff" d="M 43.75 54.550781 L 77.519531 63.902344 L 79.566406 65.066406 C 84.332031 67.78125 87.542969 69.621094 89.632812 71.300781 C 91.636719 72.90625 91.980469 73.863281 92.011719 74.679688 C 92.042969 75.539062 91.730469 76.613281 89.804688 78.546875 C 87.824219 80.535156 84.738281 82.835938 80.207031 86.207031 L 77.515625 88.203125 C 76.242188 89.148438 75.089844 90 74.121094 90.953125 L 28.234375 77.644531 L 30.652344 75.847656 C 34.90625 72.6875 38.402344 70.089844 40.78125 67.703125 C 43.257812 65.21875 45.085938 62.421875 44.953125 58.828125 C 44.894531 57.214844 44.453125 55.804688 43.75 54.550781 Z M 43.75 54.550781 " fill-opacity="1" fill-rule="nonzero"/><g clip-path="url(#73af9ac474)"><path stroke-linecap="butt" transform="matrix(6.74352, 0, 0, 6.74352, -52.969937, -12.801167)" fill="none" stroke-linejoin="miter" d="M 14.342648 9.987654 L 19.350348 11.374402 L 19.65388 11.547021 C 20.360577 11.949607 20.836729 12.222438 21.146633 12.47152 C 21.443793 12.709596 21.494768 12.851514 21.499402 12.972579 C 21.504036 13.100017 21.457695 13.259313 21.17212 13.546047 C 20.878435 13.84089 20.42082 14.182074 19.748879 14.681975 L 19.349769 14.977977 C 19.16093 15.118158 18.990049 15.244436 18.846392 15.385776 L 12.041828 13.412238 L 12.40039 13.145778 C 13.031204 12.677157 13.549641 12.291949 13.90241 11.938022 C 14.269661 11.569612 14.540754 11.154862 14.52106 10.621943 C 14.512371 10.382709 14.446914 10.173596 14.342648 9.987654 Z M 14.342648 9.987654 " stroke="#ffffff" stroke-width="1" stroke-opacity="1" stroke-miterlimit="4"/></g><path fill="#ffffff" d="M 23.730469 83.359375 L 71.019531 97.074219 C 70.824219 98.027344 70.667969 99.054688 70.496094 100.160156 L 69.949219 103.710938 C 69.429688 107.089844 68.664062 110.097656 67.847656 112.644531 C 66.410156 117.136719 66.042969 117.757812 64.964844 118.378906 C 64.5 118.644531 64.0625 118.761719 63.148438 118.660156 C 62.03125 118.53125 60.59375 118.128906 58.144531 117.417969 L 19.070312 106.082031 C 19.539062 105.09375 19.910156 104.035156 20.226562 102.960938 C 21.203125 99.609375 21.910156 95.035156 22.777344 89.390625 L 23.285156 86.097656 C 23.464844 84.929688 23.609375 84.042969 23.730469 83.359375 Z M 23.730469 83.359375 " fill-opacity="1" fill-rule="nonzero"/><g clip-path="url(#5764ea4b24)"><path stroke-linecap="butt" transform="matrix(6.74352, 0, 0, 6.74352, -52.969937, -12.801167)" fill="none" stroke-linejoin="miter" d="M 11.373941 14.259695 L 18.38646 16.293476 C 18.357497 16.434815 18.334327 16.58716 18.308839 16.751091 L 18.227743 17.277638 C 18.150701 17.778698 18.037166 18.224728 17.916101 18.602405 C 17.702933 19.268554 17.648483 19.360656 17.488607 19.452758 C 17.419675 19.492148 17.354798 19.509526 17.219252 19.494465 C 17.053583 19.475349 16.840416 19.415686 16.47722 19.31026 L 10.682884 17.629249 C 10.752396 17.482696 10.807425 17.325717 10.854345 17.16642 C 10.99916 16.669415 11.104006 15.991102 11.232602 15.154072 L 11.307906 14.665756 C 11.334552 14.492557 11.355984 14.361065 11.373941 14.259695 Z M 11.373941 14.259695 " stroke="#ffffff" stroke-width="1" stroke-opacity="1" stroke-miterlimit="4"/></g></g></g></g></g><path fill="#ffffff" d="M 2271.96875 440.148438 C 2275.828125 435.84375 2278.472656 432.90625 2280.605469 431.132812 C 2282.765625 429.332031 2283.472656 429.519531 2283.691406 429.582031 C 2283.984375 429.667969 2284.753906 430.007812 2285.816406 432.792969 C 2286.855469 435.515625 2287.796875 439.519531 2289.148438 445.328125 L 2289.957031 448.808594 C 2290.585938 451.523438 2291.105469 453.78125 2292.410156 455.601562 C 2293.753906 457.476562 2295.703125 458.582031 2297.925781 459.84375 L 2298.359375 460.089844 L 2300.769531 461.460938 C 2305.535156 464.175781 2308.746094 466.015625 2310.839844 467.695312 C 2312.839844 469.300781 2313.1875 470.257812 2313.214844 471.074219 C 2313.25 471.933594 2312.933594 473.007812 2311.007812 474.941406 C 2309.027344 476.929688 2305.941406 479.230469 2301.410156 482.597656 L 2298.71875 484.597656 C 2296.578125 486.183594 2294.777344 487.519531 2293.617188 489.507812 C 2292.480469 491.457031 2292.132812 493.734375 2291.703125 496.554688 L 2291.15625 500.105469 C 2290.238281 506.070312 2289.59375 510.199219 2288.753906 513.070312 C 2288.28125 514.683594 2287.832031 515.585938 2287.453125 516.101562 C 2286.722656 515.828125 2285.75 515.433594 2284.601562 514.882812 C 2281.871094 513.574219 2278.167969 511.40625 2274.375 507.996094 L 2272.269531 506.097656 L 2272.175781 506.015625 C 2271.097656 505.046875 2270.140625 504.183594 2269.273438 503.527344 C 2268.332031 502.8125 2267.320312 502.199219 2266.082031 501.839844 C 2263.890625 501.203125 2261.636719 501.625 2259.203125 502.082031 L 2258.679688 502.179688 L 2255.976562 502.683594 C 2250.632812 503.671875 2247.050781 504.328125 2244.480469 504.375 C 2242.011719 504.421875 2241.492188 503.886719 2241.214844 503.5 C 2240.828125 502.960938 2240.464844 501.910156 2241.066406 498.957031 C 2241.667969 496.015625 2243.015625 492.09375 2244.972656 486.433594 L 2246.136719 483.082031 C 2247.070312 480.382812 2247.820312 478.230469 2247.734375 475.953125 C 2247.652344 473.660156 2246.738281 471.597656 2245.609375 469.046875 L 2244.210938 465.875 C 2241.84375 460.515625 2240.222656 456.820312 2239.414062 453.992188 C 2238.613281 451.195312 2238.863281 450.0625 2239.265625 449.375 C 2239.597656 448.804688 2240.203125 448.195312 2242.636719 447.894531 C 2245.199219 447.578125 2248.808594 447.71875 2254.195312 447.949219 L 2256.921875 448.066406 L 2257.433594 448.085938 C 2259.90625 448.199219 2262.171875 448.296875 2264.273438 447.367188 C 2266.320312 446.464844 2267.867188 444.734375 2269.640625 442.746094 L 2270.011719 442.335938 Z M 2271.96875 440.148438 " fill-opacity="1" fill-rule="nonzero"/><g clip-path="url(#f52557a16a)"><path stroke-linecap="butt" transform="matrix(6.74352, 0, 0, 6.74352, 2222.030067, 399.198834)" fill="none" stroke-linejoin="miter" d="M 7.405432 6.072437 C 7.977741 5.434093 8.3699 4.998489 8.686175 4.735506 C 9.006506 4.468467 9.111352 4.496271 9.143791 4.505539 C 9.187235 4.518283 9.301349 4.568679 9.458908 4.981691 C 9.612991 5.385435 9.752593 5.979176 9.953016 6.840535 L 10.072923 7.356656 C 10.166184 7.759241 10.243226 8.094054 10.436698 8.363989 C 10.635964 8.642033 10.925014 8.805964 11.254613 8.993065 L 11.318911 9.029558 L 11.676314 9.232878 C 12.383011 9.635464 12.859163 9.908295 13.169646 10.157377 C 13.466227 10.395453 13.517781 10.537371 13.521836 10.658437 C 13.527049 10.785874 13.480129 10.94517 13.194554 11.231904 C 12.900869 11.526747 12.443254 11.867931 11.771313 12.367253 L 11.372203 12.663834 C 11.054769 12.899013 10.78773 13.09712 10.61569 13.391963 C 10.447125 13.681014 10.395571 14.018722 10.331852 14.436948 L 10.250756 14.963495 C 10.11463 15.848025 10.019052 16.460302 9.894511 16.886058 C 9.824421 17.125292 9.757806 17.259101 9.701618 17.335564 C 9.593296 17.295016 9.449061 17.23651 9.278758 17.154835 C 8.873856 16.960783 8.324717 16.639294 7.762256 16.1336 L 7.450035 15.85208 L 7.436133 15.839915 C 7.276257 15.696259 7.134339 15.568242 7.005743 15.470927 C 6.866141 15.364922 6.716113 15.273978 6.532488 15.220686 C 6.207523 15.126267 5.87329 15.188827 5.512411 15.2566 L 5.43479 15.271082 L 5.033943 15.345806 C 4.241515 15.492359 3.710334 15.589675 3.329181 15.596626 C 2.963089 15.603577 2.886047 15.524218 2.84492 15.466872 C 2.787573 15.386934 2.733702 15.231113 2.822908 14.793193 C 2.912114 14.35701 3.111959 13.775433 3.402168 12.936086 L 3.574787 12.439081 C 3.71323 12.038813 3.824448 11.71964 3.811705 11.381932 C 3.79954 11.041906 3.663993 10.736057 3.496587 10.357801 L 3.289212 9.887442 C 2.938181 9.092697 2.697788 8.544718 2.577881 8.125334 C 2.459133 7.710584 2.496206 7.542598 2.555869 7.440649 C 2.605106 7.356077 2.694892 7.265712 3.055771 7.221109 C 3.435765 7.174189 3.971001 7.195042 4.7698 7.229219 L 5.174124 7.246597 L 5.250007 7.249493 C 5.616678 7.266291 5.952649 7.280773 6.26429 7.142909 C 6.567822 7.0091 6.797209 6.752488 7.060193 6.457645 L 7.115223 6.396823 Z M 7.405432 6.072437 " stroke="#ffffff" stroke-width="1" stroke-opacity="1" stroke-miterlimit="4"/></g><g clip-path="url(#6479321925)"><g mask="url(#75351e805c)"><g transform="matrix(1, 0, 0, 1, 4202, 1353)"><g clip-path="url(#7df4e718bc)"><path fill="#ffffff" d="M 20.605469 31.789062 C 19.554688 27.28125 18.667969 23.464844 17.703125 20.464844 L 62.4375 33.441406 C 62.734375 33.527344 63.503906 33.867188 64.566406 36.65625 C 65.605469 39.378906 66.542969 43.382812 67.894531 49.1875 L 68.703125 52.667969 C 68.882812 53.441406 69.054688 54.179688 69.234375 54.878906 L 28.691406 43.652344 L 26.644531 42.484375 C 23.75 40.835938 23.21875 40.453125 22.84375 39.929688 C 22.425781 39.347656 22.171875 38.535156 21.351562 35.007812 Z M 20.605469 31.789062 " fill-opacity="1" fill-rule="nonzero"/><g clip-path="url(#00a7dea8d9)"><path stroke-linecap="butt" transform="matrix(6.74352, 0, 0, 6.74352, -53.017987, -12.546285)" fill="none" stroke-linejoin="miter" d="M 10.917659 6.574511 C 10.761838 5.906045 10.630346 5.340108 10.487269 4.895237 L 17.120952 6.819538 C 17.164975 6.832281 17.27909 6.882677 17.436648 7.296268 C 17.590731 7.700012 17.729754 8.293754 17.930178 9.154534 L 18.050084 9.670654 C 18.07673 9.785348 18.102218 9.894828 18.128864 9.998515 L 12.116727 8.333723 L 11.813195 8.160524 C 11.383963 7.916076 11.305184 7.859309 11.249575 7.781688 C 11.187594 7.695378 11.149942 7.574892 11.028298 7.051821 Z M 10.917659 6.574511 " stroke="#ffffff" stroke-width="1" stroke-opacity="1" stroke-miterlimit="4"/></g><path fill="#ffffff" d="M 43.699219 54.804688 L 77.46875 64.15625 L 79.515625 65.324219 C 84.28125 68.039062 87.492188 69.878906 89.585938 71.554688 C 91.589844 73.160156 91.933594 74.117188 91.964844 74.933594 C 91.996094 75.792969 91.683594 76.871094 89.757812 78.800781 C 87.773438 80.789062 84.6875 83.09375 80.15625 86.460938 L 77.464844 88.457031 C 76.195312 89.402344 75.042969 90.253906 74.074219 91.210938 L 28.1875 77.898438 L 30.605469 76.101562 C 34.859375 72.941406 38.355469 70.34375 40.734375 67.957031 C 43.210938 65.472656 45.039062 62.675781 44.90625 59.082031 C 44.847656 57.46875 44.40625 56.058594 43.699219 54.804688 Z M 43.699219 54.804688 " fill-opacity="1" fill-rule="nonzero"/><g clip-path="url(#6f44e40f11)"><path stroke-linecap="butt" transform="matrix(6.74352, 0, 0, 6.74352, -53.017987, -12.546285)" fill="none" stroke-linejoin="miter" d="M 14.342243 9.987509 L 19.349943 11.374257 L 19.653475 11.547456 C 20.360172 11.950041 20.836324 12.222873 21.146807 12.471375 C 21.443967 12.709451 21.494942 12.851369 21.499576 12.972435 C 21.50421 13.099872 21.457869 13.259748 21.172294 13.545902 C 20.87803 13.840745 20.420415 14.182508 19.748474 14.68183 L 19.349364 14.977832 C 19.161105 15.118013 18.990223 15.244292 18.846566 15.38621 L 12.042002 13.412093 L 12.400564 13.145633 C 13.031378 12.677012 13.549815 12.291805 13.902584 11.937877 C 14.269835 11.569468 14.540929 11.154718 14.521234 10.621799 C 14.512545 10.382564 14.447089 10.173452 14.342243 9.987509 Z M 14.342243 9.987509 " stroke="#ffffff" stroke-width="1" stroke-opacity="1" stroke-miterlimit="4"/></g><path fill="#ffffff" d="M 23.683594 83.613281 L 70.972656 97.332031 C 70.773438 98.285156 70.617188 99.308594 70.449219 100.414062 L 69.902344 103.96875 C 69.382812 107.34375 68.613281 110.351562 67.800781 112.898438 C 66.363281 117.390625 65.996094 118.011719 64.914062 118.632812 C 64.453125 118.898438 64.015625 119.015625 63.101562 118.914062 C 61.980469 118.789062 60.546875 118.382812 58.097656 117.671875 L 19.023438 106.339844 C 19.492188 105.347656 19.863281 104.292969 20.175781 103.214844 C 21.15625 99.863281 21.863281 95.289062 22.730469 89.644531 L 23.238281 86.355469 C 23.417969 85.183594 23.558594 84.296875 23.683594 83.613281 Z M 23.683594 83.613281 " fill-opacity="1" fill-rule="nonzero"/><g clip-path="url(#1b259c0ef2)"><path stroke-linecap="butt" transform="matrix(6.74352, 0, 0, 6.74352, -53.017987, -12.546285)" fill="none" stroke-linejoin="miter" d="M 11.374116 14.25955 L 18.386634 16.29391 C 18.357092 16.43525 18.333922 16.587016 18.309013 16.750946 L 18.227917 17.278073 C 18.150876 17.778553 18.036761 18.224583 17.916275 18.60226 C 17.703108 19.268409 17.648657 19.360511 17.488202 19.452614 C 17.41985 19.492003 17.354973 19.509381 17.219426 19.49432 C 17.053178 19.475784 16.84059 19.415541 16.477394 19.310116 L 10.683059 17.629683 C 10.75257 17.482551 10.8076 17.326151 10.85394 17.166275 C 10.999335 16.669271 11.104181 15.990957 11.232776 15.153927 L 11.30808 14.66619 C 11.334726 14.492412 11.355579 14.36092 11.374116 14.25955 Z M 11.374116 14.25955 " stroke="#ffffff" stroke-width="1" stroke-opacity="1" stroke-miterlimit="4"/></g></g></g></g></g><path fill="#ffffff" d="M 4198.921875 1381.40625 C 4202.78125 1377.097656 4205.425781 1374.164062 4207.558594 1372.386719 C 4209.71875 1370.589844 4210.421875 1370.773438 4210.640625 1370.835938 C 4210.9375 1370.921875 4211.707031 1371.261719 4212.769531 1374.046875 C 4213.808594 1376.769531 4214.746094 1380.773438 4216.097656 1386.582031 L 4216.90625 1390.0625 C 4217.535156 1392.777344 4218.058594 1395.035156 4219.363281 1396.855469 C 4220.707031 1398.730469 4222.65625 1399.835938 4224.878906 1401.097656 L 4225.308594 1401.34375 L 4227.722656 1402.71875 C 4232.488281 1405.429688 4235.699219 1407.273438 4237.789062 1408.949219 C 4239.792969 1410.554688 4240.136719 1411.511719 4240.167969 1412.328125 C 4240.199219 1413.1875 4239.886719 1414.265625 4237.960938 1416.195312 C 4235.980469 1418.183594 4232.894531 1420.488281 4228.363281 1423.855469 L 4225.671875 1425.851562 C 4223.53125 1427.441406 4221.730469 1428.773438 4220.570312 1430.765625 C 4219.433594 1432.710938 4219.085938 1434.988281 4218.652344 1437.8125 L 4218.105469 1441.359375 C 4217.1875 1447.324219 4216.546875 1451.453125 4215.707031 1454.324219 C 4215.234375 1455.9375 4214.785156 1456.839844 4214.40625 1457.355469 C 4213.675781 1457.082031 4212.703125 1456.6875 4211.554688 1456.136719 C 4208.820312 1454.828125 4205.121094 1452.660156 4201.328125 1449.25 L 4199.222656 1447.355469 L 4199.128906 1447.269531 C 4198.050781 1446.300781 4197.09375 1445.4375 4196.222656 1444.78125 C 4195.285156 1444.070312 4194.273438 1443.453125 4193.035156 1443.09375 C 4190.84375 1442.457031 4188.589844 1442.882812 4186.15625 1443.335938 L 4185.628906 1443.4375 L 4182.929688 1443.9375 C 4177.585938 1444.929688 4174 1445.582031 4171.429688 1445.628906 C 4168.960938 1445.675781 4168.445312 1445.144531 4168.167969 1444.757812 C 4167.777344 1444.214844 4167.417969 1443.167969 4168.019531 1440.210938 C 4168.617188 1437.273438 4169.96875 1433.351562 4171.925781 1427.6875 L 4173.085938 1424.335938 C 4174.023438 1421.640625 4174.769531 1419.484375 4174.6875 1417.207031 C 4174.605469 1414.917969 4173.691406 1412.851562 4172.5625 1410.300781 L 4171.160156 1407.128906 C 4168.796875 1401.769531 4167.175781 1398.074219 4166.367188 1395.25 C 4165.566406 1392.453125 4165.816406 1391.320312 4166.21875 1390.628906 C 4166.550781 1390.058594 4167.15625 1389.449219 4169.589844 1389.148438 C 4172.148438 1388.832031 4175.757812 1388.972656 4181.148438 1389.203125 L 4183.871094 1389.320312 L 4184.386719 1389.34375 C 4186.859375 1389.453125 4189.125 1389.554688 4191.226562 1388.625 C 4193.273438 1387.71875 4194.820312 1385.988281 4196.59375 1384.003906 L 4196.964844 1383.589844 Z M 4198.921875 1381.40625 " fill-opacity="1" fill-rule="nonzero"/><g clip-path="url(#c7ab68df89)"><path stroke-linecap="butt" transform="matrix(6.74352, 0, 0, 6.74352, 4148.982065, 1340.453707)" fill="none" stroke-linejoin="miter" d="M 7.405599 6.072873 C 7.977908 5.433949 8.370067 4.998925 8.686343 4.735362 C 9.006673 4.468903 9.11094 4.496128 9.143378 4.505396 C 9.187402 4.51814 9.301516 4.568535 9.459075 4.981548 C 9.613158 5.385292 9.75218 5.979033 9.952604 6.840392 L 10.072511 7.356513 C 10.165772 7.759098 10.243393 8.09391 10.436866 8.363845 C 10.636131 8.64189 10.925181 8.805821 11.25478 8.992921 L 11.318499 9.029415 L 11.676481 9.233314 C 12.383178 9.63532 12.85933 9.908731 13.169234 10.157234 C 13.466394 10.395309 13.517369 10.537228 13.522003 10.658293 C 13.526637 10.78573 13.480296 10.945606 13.194721 11.23176 C 12.901037 11.526604 12.443421 11.868367 11.77148 12.367689 L 11.37237 12.66369 C 11.054936 12.899449 10.787897 13.096977 10.615857 13.392399 C 10.447292 13.680871 10.395738 14.018579 10.33144 14.437384 L 10.250344 14.963352 C 10.114218 15.847881 10.019219 16.460159 9.894678 16.885915 C 9.824588 17.125149 9.757973 17.258958 9.701785 17.33542 C 9.593463 17.294872 9.449228 17.236367 9.278925 17.154691 C 8.873443 16.960639 8.324884 16.63915 7.762423 16.133456 L 7.450202 15.852515 L 7.4363 15.839772 C 7.276424 15.696115 7.134506 15.568099 7.005331 15.470783 C 6.866308 15.365358 6.71628 15.273835 6.532655 15.220543 C 6.20769 15.126124 5.873457 15.189263 5.512578 15.256457 L 5.434378 15.271518 L 5.03411 15.345663 C 4.241682 15.492795 3.709922 15.589532 3.328769 15.596483 C 2.962677 15.603434 2.886215 15.524654 2.845087 15.467308 C 2.787161 15.386791 2.733869 15.231549 2.823075 14.793049 C 2.911702 14.357446 3.112126 13.775869 3.402335 12.935943 L 3.574375 12.438938 C 3.713398 12.039248 3.824036 11.719497 3.811872 11.381789 C 3.799707 11.042342 3.66416 10.735914 3.496754 10.357657 L 3.2888 9.887298 C 2.938348 9.092554 2.697955 8.544574 2.578048 8.12577 C 2.4593 7.71102 2.496373 7.543034 2.556037 7.440505 C 2.605274 7.355933 2.695059 7.265569 3.055938 7.220966 C 3.435353 7.174046 3.970589 7.194899 4.769967 7.229075 L 5.173711 7.246453 L 5.250174 7.249929 C 5.616845 7.266148 5.952816 7.281209 6.264457 7.143345 C 6.56799 7.008957 6.797376 6.752345 7.06036 6.458081 L 7.11539 6.396679 Z M 7.405599 6.072873 " stroke="#ffffff" stroke-width="1" stroke-opacity="1" stroke-miterlimit="4"/></g><g clip-path="url(#86c6bc893c)"><path fill="#3998ff" d="M 29.429688 1368.726562 C 714.976562 1368.726562 1270.671875 1924.421875 1270.671875 2609.96875 L 703.96875 2609.96875 C 703.96875 2237.671875 402.476562 1935.929688 30.429688 1935.429688 Z M 29.429688 1368.726562 " fill-opacity="1" fill-rule="nonzero"/></g><g clip-path="url(#3361d639c9)"><path fill="#3998ff" d="M 4471.023438 1332.710938 C 3785.476562 1332.710938 3229.78125 777.015625 3229.78125 91.46875 L 3796.484375 91.46875 C 3796.484375 463.765625 4097.976562 765.507812 4470.023438 766.007812 Z M 4471.023438 1332.710938 " fill-opacity="1" fill-rule="nonzero"/></g><path fill="#ffffff" d="M 1138.863281 1206.917969 C 1112.171875 1168.503906 1095.179688 1124.941406 1088.722656 1079.09375 L 1162.613281 1079.09375 C 1161.960938 1082.84375 1161.632812 1086.691406 1161.632812 1090.539062 C 1161.632812 1127.15625 1191.421875 1156.96875 1228.0625 1156.96875 C 1264.679688 1156.96875 1294.492188 1127.179688 1294.492188 1090.539062 C 1294.492188 1086.691406 1294.167969 1082.890625 1293.515625 1079.140625 L 1371.410156 1079.347656 L 1371.410156 1190.53125 C 1371.410156 1196.21875 1374.511719 1201.464844 1379.5 1204.214844 C 1384.488281 1206.964844 1390.570312 1206.777344 1395.375 1203.722656 C 1400.945312 1200.203125 1407.421875 1198.316406 1414.089844 1198.316406 C 1433.507812 1198.316406 1449.285156 1214.121094 1449.285156 1233.511719 C 1449.285156 1252.929688 1433.484375 1268.707031 1414.089844 1268.707031 C 1407.421875 1268.707031 1400.945312 1266.84375 1395.375 1263.324219 C 1390.570312 1260.292969 1384.488281 1260.109375 1379.5 1262.859375 C 1374.511719 1265.609375 1371.410156 1270.828125 1371.410156 1276.539062 L 1371.410156 1387.980469 L 1222.9375 1387.980469 C 1222.9375 1387.980469 1222.914062 1387.980469 1222.914062 1387.980469 C 1206.292969 1324.253906 1178.066406 1263.394531 1138.863281 1206.917969 Z M 1138.863281 1206.917969 " fill-opacity="1" fill-rule="nonzero"/><path fill="#ffffff" d="M 1544.804688 1419.210938 C 1553.359375 1419.210938 1560.328125 1426.183594 1560.328125 1434.734375 L 1560.328125 1449.023438 C 1560.328125 1457.578125 1553.359375 1464.546875 1544.804688 1464.546875 L 1222.914062 1464.546875 C 1214.359375 1464.546875 1207.390625 1457.578125 1207.390625 1449.023438 L 1207.390625 1434.734375 C 1207.390625 1426.183594 1214.359375 1419.210938 1222.914062 1419.210938 Z M 1544.804688 1419.210938 " fill-opacity="1" fill-rule="nonzero"/><path fill="#ffffff" d="M 1484.480469 1627.171875 C 1480.148438 1640.039062 1468.121094 1648.6875 1454.53125 1648.6875 L 1313.164062 1648.6875 C 1299.597656 1648.6875 1287.546875 1640.039062 1283.210938 1627.171875 L 1264.726562 1572.304688 L 1502.941406 1572.304688 Z M 1484.480469 1627.171875 " fill-opacity="1" fill-rule="nonzero"/><path fill="#ffffff" d="M 1560.328125 1525.570312 C 1560.328125 1534.125 1553.359375 1541.09375 1544.804688 1541.09375 L 1222.914062 1541.09375 C 1214.359375 1541.09375 1207.390625 1534.125 1207.390625 1525.570312 L 1207.390625 1511.28125 C 1207.390625 1502.726562 1214.359375 1495.757812 1222.914062 1495.757812 L 1544.804688 1495.757812 C 1553.359375 1495.757812 1560.328125 1502.726562 1560.328125 1511.28125 Z M 1560.328125 1525.570312 " fill-opacity="1" fill-rule="nonzero"/><path fill="#ffffff" d="M 1498.445312 1079.699219 C 1498.46875 1079.699219 1498.46875 1079.699219 1498.492188 1079.699219 C 1504.179688 1079.699219 1509.398438 1076.621094 1512.148438 1071.632812 C 1514.898438 1066.644531 1514.714844 1060.5625 1511.683594 1055.738281 C 1508.164062 1050.167969 1506.277344 1043.6875 1506.277344 1037.019531 C 1506.277344 1017.605469 1522.078125 1001.824219 1541.472656 1001.824219 C 1560.886719 1001.824219 1576.667969 1017.628906 1576.667969 1037.019531 C 1576.667969 1043.6875 1574.804688 1050.144531 1571.261719 1055.738281 C 1568.207031 1060.5625 1568.042969 1066.667969 1570.792969 1071.65625 C 1573.542969 1076.621094 1578.765625 1079.699219 1584.453125 1079.699219 C 1584.476562 1079.699219 1584.523438 1079.699219 1584.546875 1079.699219 L 1678.992188 1079.09375 C 1672.351562 1125.988281 1654.542969 1170.765625 1627.015625 1209.503906 C 1589.324219 1262.554688 1561.703125 1322.527344 1544.851562 1387.980469 C 1544.828125 1387.980469 1544.804688 1387.980469 1544.78125 1387.980469 L 1402.597656 1387.980469 L 1402.597656 1298.964844 C 1406.351562 1299.617188 1410.199219 1299.941406 1414.042969 1299.941406 C 1450.660156 1299.941406 1480.472656 1270.152344 1480.472656 1233.511719 C 1480.472656 1196.894531 1450.683594 1167.082031 1414.042969 1167.082031 C 1410.175781 1167.082031 1406.351562 1167.410156 1402.597656 1168.0625 L 1402.597656 1079.417969 Z M 1498.445312 1079.699219 " fill-opacity="1" fill-rule="nonzero"/><g clip-path="url(#6c85b2600c)"><path fill="#ffffff" d="M 1359.945312 962.316406 C 1363.8125 962.316406 1367.636719 961.988281 1371.386719 961.335938 L 1371.386719 1048.140625 L 1271.089844 1047.859375 C 1271.066406 1047.859375 1271.066406 1047.859375 1271.042969 1047.859375 C 1265.359375 1047.859375 1260.136719 1050.9375 1257.386719 1055.925781 C 1254.636719 1060.910156 1254.820312 1066.996094 1257.851562 1071.820312 C 1261.371094 1077.414062 1263.257812 1083.871094 1263.257812 1090.539062 C 1263.257812 1109.953125 1247.457031 1125.734375 1228.0625 1125.734375 C 1208.648438 1125.734375 1192.867188 1109.929688 1192.867188 1090.539062 C 1192.867188 1083.871094 1194.730469 1077.414062 1198.273438 1071.820312 C 1201.304688 1067.019531 1201.492188 1060.933594 1198.765625 1055.945312 C 1196.015625 1050.960938 1190.792969 1047.859375 1185.082031 1047.859375 L 1085.996094 1047.859375 C 1085.882812 1044.269531 1085.789062 1040.65625 1085.789062 1037.042969 C 1085.789062 957.539062 1117.347656 882.507812 1174.664062 825.75 C 1228.273438 772.675781 1297.640625 742.28125 1371.433594 739.183594 L 1371.433594 830.4375 C 1367.683594 829.785156 1363.835938 829.457031 1359.992188 829.457031 C 1323.371094 829.457031 1293.5625 859.246094 1293.5625 895.886719 C 1293.515625 932.527344 1323.324219 962.316406 1359.945312 962.316406 Z M 1359.945312 962.316406 " fill-opacity="1" fill-rule="nonzero"/></g><g clip-path="url(#6f11898051)"><path fill="#ffffff" d="M 1705.378906 830.878906 C 1668.761719 830.878906 1638.949219 860.667969 1638.949219 897.308594 C 1638.949219 901.15625 1639.273438 904.953125 1639.925781 908.707031 L 1566.503906 908.496094 L 1566.503906 799.179688 C 1566.503906 793.492188 1563.40625 788.246094 1558.417969 785.496094 C 1553.429688 782.746094 1547.34375 782.933594 1542.542969 785.984375 C 1536.949219 789.507812 1530.492188 791.371094 1523.828125 791.371094 C 1504.410156 791.371094 1488.632812 775.566406 1488.632812 756.175781 C 1488.632812 736.78125 1504.433594 720.976562 1523.828125 720.976562 C 1530.492188 720.976562 1536.949219 722.84375 1542.542969 726.386719 C 1547.34375 729.417969 1553.429688 729.601562 1558.417969 726.875 C 1563.40625 724.125 1566.503906 718.902344 1566.503906 713.191406 L 1566.503906 599.796875 C 1639.578125 604.296875 1707.617188 635.109375 1759.546875 687.507812 C 1815.207031 743.703125 1845.882812 818.199219 1845.882812 897.308594 C 1845.882812 900.921875 1845.8125 904.558594 1845.671875 908.195312 L 1770.828125 908.613281 C 1771.457031 904.882812 1771.785156 901.109375 1771.785156 897.285156 C 1771.808594 860.691406 1742.019531 830.878906 1705.378906 830.878906 Z M 1705.378906 830.878906 " fill-opacity="1" fill-rule="nonzero"/></g><g fill="#ffffff" fill-opacity="1"><g transform="translate(2006.983933, 1068.47128)"><g><path d="M 14.421875 -38.453125 L 14.421875 -74.890625 L 105.765625 -218.78125 L 163.65625 -218.78125 L 163.65625 -75.53125 L 190.796875 -75.53125 L 190.796875 -38.453125 L 163.65625 -38.453125 L 163.65625 0 L 119.4375 0 L 119.4375 -38.453125 Z M 120.28125 -75.53125 L 120.28125 -168.359375 L 118.578125 -168.359375 L 61 -77.234375 L 61 -75.53125 Z M 120.28125 -75.53125 "/></g></g></g><g fill="#ffffff" fill-opacity="1"><g transform="translate(2210.91438, 1068.47128)"><g><path d="M 10.6875 -180.640625 L 10.6875 -218.78125 L 190.375 -218.78125 L 190.375 -180.640625 L 123.390625 -180.640625 L 123.390625 0 L 77.671875 0 L 77.671875 -180.640625 Z M 10.6875 -180.640625 "/></g></g></g><g fill="#ffffff" fill-opacity="1"><g transform="translate(2411.96053, 1068.47128)"><g><path d="M 19.015625 0 L 19.015625 -218.78125 L 65.265625 -218.78125 L 65.265625 -128.515625 L 159.171875 -128.515625 L 159.171875 -218.78125 L 205.328125 -218.78125 L 205.328125 0 L 159.171875 0 L 159.171875 -90.375 L 65.265625 -90.375 L 65.265625 0 Z M 19.015625 0 "/></g></g></g><g fill="#ffffff" fill-opacity="1"><g transform="translate(2636.401529, 1068.47128)"><g/></g></g><g fill="#ffffff" fill-opacity="1"><g transform="translate(2706.158775, 1068.47128)"><g><path d="M 220.0625 -109.390625 C 220.0625 -89.878906 216.960938 -72.71875 210.765625 -57.90625 C 204.578125 -43.09375 196.140625 -30.910156 185.453125 -21.359375 L 216.75 17.953125 L 173.59375 17.953125 L 155.96875 -3.734375 C 144.070312 0.742188 131.289062 2.984375 117.625 2.984375 C 98.175781 2.984375 80.722656 -1.425781 65.265625 -10.25 C 49.816406 -19.082031 37.601562 -31.882812 28.625 -48.65625 C 19.65625 -65.425781 15.171875 -85.671875 15.171875 -109.390625 C 15.171875 -133.242188 19.65625 -153.539062 28.625 -170.28125 C 37.601562 -187.019531 49.816406 -199.785156 65.265625 -208.578125 C 80.722656 -217.378906 98.175781 -221.78125 117.625 -221.78125 C 136.988281 -221.78125 154.394531 -217.378906 169.84375 -208.578125 C 185.300781 -199.785156 197.535156 -187.019531 206.546875 -170.28125 C 215.554688 -153.539062 220.0625 -133.242188 220.0625 -109.390625 Z M 101.59375 -76.0625 L 140.90625 -76.0625 L 157.140625 -55.234375 C 162.203125 -61.285156 166.140625 -68.832031 168.953125 -77.875 C 171.765625 -86.914062 173.171875 -97.421875 173.171875 -109.390625 C 173.171875 -132.609375 168.113281 -150.320312 158 -162.53125 C 147.882812 -174.75 134.425781 -180.859375 117.625 -180.859375 C 100.8125 -180.859375 87.347656 -174.75 77.234375 -162.53125 C 67.117188 -150.320312 62.0625 -132.609375 62.0625 -109.390625 C 62.0625 -86.242188 67.117188 -68.546875 77.234375 -56.296875 C 87.347656 -44.046875 100.8125 -37.921875 117.625 -37.921875 C 121.820312 -37.921875 125.804688 -38.3125 129.578125 -39.09375 Z M 101.59375 -76.0625 "/></g></g></g><g fill="#ffffff" fill-opacity="1"><g transform="translate(2941.602832, 1068.47128)"><g><path d="M 154.46875 -218.78125 L 200.40625 -218.78125 L 200.40625 -74.140625 C 200.40625 -57.617188 196.523438 -43.601562 188.765625 -32.09375 C 181.003906 -20.59375 170.300781 -11.851562 156.65625 -5.875 C 143.019531 0.101562 127.375 3.09375 109.71875 3.09375 C 92.050781 3.09375 76.378906 0.101562 62.703125 -5.875 C 49.035156 -11.851562 38.335938 -20.59375 30.609375 -32.09375 C 22.878906 -43.601562 19.015625 -57.617188 19.015625 -74.140625 L 19.015625 -218.78125 L 65.265625 -218.78125 L 65.265625 -75.734375 C 65.265625 -64.054688 69.484375 -54.867188 77.921875 -48.171875 C 86.367188 -41.484375 96.96875 -38.140625 109.71875 -38.140625 C 122.675781 -38.140625 133.375 -41.484375 141.8125 -48.171875 C 150.25 -54.867188 154.46875 -64.054688 154.46875 -75.734375 Z M 154.46875 -218.78125 "/></g></g></g><g fill="#ffffff" fill-opacity="1"><g transform="translate(3161.023019, 1068.47128)"><g><path d="M 56.71875 0 L 7.15625 0 L 82.6875 -218.78125 L 142.296875 -218.78125 L 217.71875 0 L 168.140625 0 L 151.90625 -49.890625 L 72.96875 -49.890625 Z M 84.71875 -86 L 140.265625 -86 L 113.34375 -168.78125 L 111.640625 -168.78125 Z M 84.71875 -86 "/></g></g></g><g fill="#ffffff" fill-opacity="1"><g transform="translate(3385.998149, 1068.47128)"><g><path d="M 19.015625 0 L 19.015625 -218.78125 L 105.328125 -218.78125 C 130.179688 -218.78125 149.460938 -212.300781 163.171875 -199.34375 C 176.890625 -186.382812 183.75 -169.039062 183.75 -147.3125 C 183.75 -132.351562 180.414062 -119.566406 173.75 -108.953125 C 167.09375 -98.347656 157.535156 -90.375 145.078125 -85.03125 L 191.546875 0 L 140.484375 0 L 99.03125 -77.5625 L 65.265625 -77.5625 L 65.265625 0 Z M 65.265625 -114.734375 L 96.671875 -114.734375 C 122.953125 -114.734375 136.09375 -125.59375 136.09375 -147.3125 C 136.09375 -169.75 122.882812 -180.96875 96.46875 -180.96875 L 65.265625 -180.96875 Z M 65.265625 -114.734375 "/></g></g></g><g fill="#ffffff" fill-opacity="1"><g transform="translate(3583.412312, 1068.47128)"><g><path d="M 10.6875 -180.640625 L 10.6875 -218.78125 L 190.375 -218.78125 L 190.375 -180.640625 L 123.390625 -180.640625 L 123.390625 0 L 77.671875 0 L 77.671875 -180.640625 Z M 10.6875 -180.640625 "/></g></g></g><g fill="#ffffff" fill-opacity="1"><g transform="translate(3784.458462, 1068.47128)"><g><path d="M 19.015625 0 L 19.015625 -218.78125 L 166.4375 -218.78125 L 166.4375 -180.640625 L 65.265625 -180.640625 L 65.265625 -128.515625 L 158.859375 -128.515625 L 158.859375 -90.375 L 65.265625 -90.375 L 65.265625 -38.140625 L 166.859375 -38.140625 L 166.859375 0 Z M 19.015625 0 "/></g></g></g><g fill="#ffffff" fill-opacity="1"><g transform="translate(3968.732873, 1068.47128)"><g><path d="M 19.015625 0 L 19.015625 -218.78125 L 105.328125 -218.78125 C 130.179688 -218.78125 149.460938 -212.300781 163.171875 -199.34375 C 176.890625 -186.382812 183.75 -169.039062 183.75 -147.3125 C 183.75 -132.351562 180.414062 -119.566406 173.75 -108.953125 C 167.09375 -98.347656 157.535156 -90.375 145.078125 -85.03125 L 191.546875 0 L 140.484375 0 L 99.03125 -77.5625 L 65.265625 -77.5625 L 65.265625 0 Z M 65.265625 -114.734375 L 96.671875 -114.734375 C 122.953125 -114.734375 136.09375 -125.59375 136.09375 -147.3125 C 136.09375 -169.75 122.882812 -180.96875 96.46875 -180.96875 L 65.265625 -180.96875 Z M 65.265625 -114.734375 "/></g></g></g><g fill="#ffffff" fill-opacity="1"><g transform="translate(4166.165968, 1068.47128)"><g/></g></g><g fill="#ffffff" fill-opacity="1"><g transform="translate(2028.374552, 1394.52624)"><g><path d="M 14.734375 -169.453125 L 58.90625 -169.453125 L 105.578125 -55.609375 L 107.5625 -55.609375 L 154.234375 -169.453125 L 198.421875 -169.453125 L 198.421875 0 L 163.65625 0 L 163.65625 -110.296875 L 162.25 -110.296875 L 118.40625 -0.828125 L 94.734375 -0.828125 L 50.890625 -110.703125 L 49.484375 -110.703125 L 49.484375 0 L 14.734375 0 Z M 14.734375 -169.453125 "/></g></g></g><g fill="#ffffff" fill-opacity="1"><g transform="translate(2243.661891, 1394.52624)"><g><path d="M 50.5625 -169.453125 L 50.5625 0 L 14.734375 0 L 14.734375 -169.453125 Z M 50.5625 -169.453125 "/></g></g></g><g fill="#ffffff" fill-opacity="1"><g transform="translate(2309.025842, 1394.52624)"><g><path d="M 156.46875 -169.453125 L 156.46875 0 L 125.515625 0 L 51.796875 -106.65625 L 50.5625 -106.65625 L 50.5625 0 L 14.734375 0 L 14.734375 -169.453125 L 46.171875 -169.453125 L 119.3125 -62.890625 L 120.796875 -62.890625 L 120.796875 -169.453125 Z M 156.46875 -169.453125 "/></g></g></g><g fill="#ffffff" fill-opacity="1"><g transform="translate(2480.295939, 1394.52624)"><g><path d="M 50.5625 -169.453125 L 50.5625 0 L 14.734375 0 L 14.734375 -169.453125 Z M 50.5625 -169.453125 "/></g></g></g><g fill="#ffffff" fill-opacity="1"><g transform="translate(2545.659889, 1394.52624)"><g/></g></g><g fill="#ffffff" fill-opacity="1"><g transform="translate(2599.688572, 1394.52624)"><g><path d="M 170.453125 -84.734375 C 170.453125 -69.617188 168.050781 -56.320312 163.25 -44.84375 C 158.445312 -33.375 151.910156 -23.941406 143.640625 -16.546875 L 167.875 13.90625 L 134.453125 13.90625 L 120.796875 -2.890625 C 111.585938 0.578125 101.6875 2.3125 91.09375 2.3125 C 76.039062 2.3125 62.523438 -1.101562 50.546875 -7.9375 C 38.578125 -14.78125 29.117188 -24.695312 22.171875 -37.6875 C 15.222656 -50.675781 11.75 -66.359375 11.75 -84.734375 C 11.75 -103.210938 15.222656 -118.929688 22.171875 -131.890625 C 29.117188 -144.847656 38.578125 -154.734375 50.546875 -161.546875 C 62.523438 -168.359375 76.039062 -171.765625 91.09375 -171.765625 C 106.101562 -171.765625 119.59375 -168.359375 131.5625 -161.546875 C 143.53125 -154.734375 153.003906 -144.847656 159.984375 -131.890625 C 166.960938 -118.929688 170.453125 -103.210938 170.453125 -84.734375 Z M 78.6875 -58.90625 L 109.140625 -58.90625 L 121.71875 -42.78125 C 125.632812 -47.46875 128.679688 -53.3125 130.859375 -60.3125 C 133.035156 -67.320312 134.125 -75.460938 134.125 -84.734375 C 134.125 -102.710938 130.207031 -116.429688 122.375 -125.890625 C 114.539062 -135.347656 104.113281 -140.078125 91.09375 -140.078125 C 78.082031 -140.078125 67.660156 -135.347656 59.828125 -125.890625 C 51.992188 -116.429688 48.078125 -102.710938 48.078125 -84.734375 C 48.078125 -66.804688 51.992188 -53.097656 59.828125 -43.609375 C 67.660156 -34.117188 78.082031 -29.375 91.09375 -29.375 C 94.351562 -29.375 97.441406 -29.675781 100.359375 -30.28125 Z M 78.6875 -58.90625 "/></g></g></g><g fill="#ffffff" fill-opacity="1"><g transform="translate(2782.04572, 1394.52624)"><g><path d="M 119.640625 -169.453125 L 155.21875 -169.453125 L 155.21875 -57.421875 C 155.21875 -44.628906 152.210938 -33.773438 146.203125 -24.859375 C 140.191406 -15.953125 131.90625 -9.179688 121.34375 -4.546875 C 110.78125 0.0859375 98.65625 2.40625 84.96875 2.40625 C 71.289062 2.40625 59.15625 0.0859375 48.5625 -4.546875 C 37.976562 -9.179688 29.691406 -15.953125 23.703125 -24.859375 C 17.722656 -33.773438 14.734375 -44.628906 14.734375 -57.421875 L 14.734375 -169.453125 L 50.5625 -169.453125 L 50.5625 -58.65625 C 50.5625 -49.613281 53.828125 -42.5 60.359375 -37.3125 C 66.898438 -32.125 75.101562 -29.53125 84.96875 -29.53125 C 95.007812 -29.53125 103.296875 -32.125 109.828125 -37.3125 C 116.367188 -42.5 119.640625 -49.613281 119.640625 -58.65625 Z M 119.640625 -169.453125 "/></g></g></g><g fill="#ffffff" fill-opacity="1"><g transform="translate(2951.991991, 1394.52624)"><g><path d="M 50.5625 -169.453125 L 50.5625 0 L 14.734375 0 L 14.734375 -169.453125 Z M 50.5625 -169.453125 "/></g></g></g><g fill="#ffffff" fill-opacity="1"><g transform="translate(3017.355941, 1394.52624)"><g><path d="M 12.90625 0 L 12.90625 -21.265625 L 97.46875 -139.921875 L 12.75 -139.921875 L 12.75 -169.453125 L 142.484375 -169.453125 L 142.484375 -148.1875 L 57.84375 -29.53125 L 142.640625 -29.53125 L 142.640625 0 Z M 12.90625 0 "/></g></g></g><g fill="#ffffff" fill-opacity="1"><g transform="translate(2347.184365, 2057.203122)"><g><path d="M 4.5625 -77.1875 L 4.5625 -93.484375 L 81.34375 -93.484375 L 81.34375 -77.1875 L 52.71875 -77.1875 L 52.71875 0 L 33.1875 0 L 33.1875 -77.1875 Z M 4.5625 -77.1875 "/></g></g></g><g fill="#ffffff" fill-opacity="1"><g transform="translate(2433.076966, 2057.203122)"><g><path d="M 24.234375 0 L 3.0625 0 L 35.328125 -93.484375 L 60.796875 -93.484375 L 93.015625 0 L 71.84375 0 L 64.90625 -21.3125 L 31.171875 -21.3125 Z M 36.1875 -36.75 L 59.921875 -36.75 L 48.421875 -72.109375 L 47.703125 -72.109375 Z M 36.1875 -36.75 "/></g></g></g><g fill="#ffffff" fill-opacity="1"><g transform="translate(2529.192704, 2057.203122)"><g><path d="M 8.125 0 L 8.125 -93.484375 L 27.890625 -93.484375 L 27.890625 -52.265625 L 29.125 -52.265625 L 62.765625 -93.484375 L 86.453125 -93.484375 L 51.765625 -51.625 L 86.859375 0 L 63.21875 0 L 37.609375 -38.4375 L 27.890625 -26.5625 L 27.890625 0 Z M 8.125 0 "/></g></g></g><g fill="#ffffff" fill-opacity="1"><g transform="translate(2617.823645, 2057.203122)"><g><path d="M 8.125 0 L 8.125 -93.484375 L 71.109375 -93.484375 L 71.109375 -77.1875 L 27.890625 -77.1875 L 27.890625 -54.90625 L 67.875 -54.90625 L 67.875 -38.609375 L 27.890625 -38.609375 L 27.890625 -16.296875 L 71.296875 -16.296875 L 71.296875 0 Z M 8.125 0 "/></g></g></g><g fill="#ffffff" fill-opacity="1"><g transform="translate(2696.550923, 2057.203122)"><g/></g></g><g fill="#ffffff" fill-opacity="1"><g transform="translate(2726.353192, 2057.203122)"><g><path d="M 94.03125 -46.734375 C 94.03125 -38.398438 92.703125 -31.066406 90.046875 -24.734375 C 87.398438 -18.410156 83.796875 -13.207031 79.234375 -9.125 L 92.609375 7.671875 L 74.171875 7.671875 L 66.640625 -1.59375 C 61.554688 0.320312 56.09375 1.28125 50.25 1.28125 C 41.945312 1.28125 34.492188 -0.601562 27.890625 -4.375 C 21.285156 -8.15625 16.066406 -13.628906 12.234375 -20.796875 C 8.398438 -27.960938 6.484375 -36.609375 6.484375 -46.734375 C 6.484375 -56.929688 8.398438 -65.601562 12.234375 -72.75 C 16.066406 -79.90625 21.285156 -85.359375 27.890625 -89.109375 C 34.492188 -92.867188 41.945312 -94.75 50.25 -94.75 C 58.53125 -94.75 65.972656 -92.867188 72.578125 -89.109375 C 79.179688 -85.359375 84.40625 -79.90625 88.25 -72.75 C 92.101562 -65.601562 94.03125 -56.929688 94.03125 -46.734375 Z M 43.40625 -32.5 L 60.203125 -32.5 L 67.140625 -23.59375 C 69.296875 -26.1875 70.972656 -29.414062 72.171875 -33.28125 C 73.378906 -37.144531 73.984375 -41.628906 73.984375 -46.734375 C 73.984375 -56.660156 71.820312 -64.234375 67.5 -69.453125 C 63.1875 -74.671875 57.4375 -77.28125 50.25 -77.28125 C 43.070312 -77.28125 37.320312 -74.671875 33 -69.453125 C 28.675781 -64.234375 26.515625 -56.660156 26.515625 -46.734375 C 26.515625 -36.847656 28.675781 -29.285156 33 -24.046875 C 37.320312 -18.816406 43.070312 -16.203125 50.25 -16.203125 C 52.050781 -16.203125 53.753906 -16.367188 55.359375 -16.703125 Z M 43.40625 -32.5 "/></g></g></g><g fill="#ffffff" fill-opacity="1"><g transform="translate(2826.941552, 2057.203122)"><g><path d="M 66 -93.484375 L 85.625 -93.484375 L 85.625 -31.671875 C 85.625 -24.617188 83.960938 -18.632812 80.640625 -13.71875 C 77.328125 -8.800781 72.753906 -5.0625 66.921875 -2.5 C 61.097656 0.0507812 54.414062 1.328125 46.875 1.328125 C 39.332031 1.328125 32.640625 0.0507812 26.796875 -2.5 C 20.953125 -5.0625 16.378906 -8.800781 13.078125 -13.71875 C 9.773438 -18.632812 8.125 -24.617188 8.125 -31.671875 L 8.125 -93.484375 L 27.890625 -93.484375 L 27.890625 -32.359375 C 27.890625 -27.367188 29.691406 -23.441406 33.296875 -20.578125 C 36.898438 -17.722656 41.425781 -16.296875 46.875 -16.296875 C 52.414062 -16.296875 56.988281 -17.722656 60.59375 -20.578125 C 64.195312 -23.441406 66 -27.367188 66 -32.359375 Z M 66 -93.484375 "/></g></g></g><g fill="#ffffff" fill-opacity="1"><g transform="translate(2920.684061, 2057.203122)"><g><path d="M 27.890625 -93.484375 L 27.890625 0 L 8.125 0 L 8.125 -93.484375 Z M 27.890625 -93.484375 "/></g></g></g><g fill="#ffffff" fill-opacity="1"><g transform="translate(2956.738872, 2057.203122)"><g><path d="M 7.125 0 L 7.125 -11.734375 L 53.765625 -77.1875 L 7.03125 -77.1875 L 7.03125 -93.484375 L 78.59375 -93.484375 L 78.59375 -81.75 L 31.90625 -16.296875 L 78.6875 -16.296875 L 78.6875 0 Z M 7.125 0 "/></g></g></g></svg>