<svg xmlns="http://www.w3.org/2000/svg" xmlns:xlink="http://www.w3.org/1999/xlink" width="500" zoomAndPan="magnify" viewBox="0 0 375 374.999991" height="500" preserveAspectRatio="xMidYMid meet" version="1.0"><defs><clipPath id="7034e85029"><path d="M 49.707031 49.707031 L 324.957031 49.707031 L 324.957031 301 L 49.707031 301 Z M 49.707031 49.707031 " clip-rule="nonzero"/></clipPath><clipPath id="0de0f87ad2"><path d="M 109 245 L 267 245 L 267 324.957031 L 109 324.957031 Z M 109 245 " clip-rule="nonzero"/></clipPath></defs><g clip-path="url(#7034e85029)"><path fill="#ffffff" d="M 187.636719 49.707031 C 111.550781 49.707031 49.863281 111.394531 49.863281 187.480469 C 49.863281 234.34375 73.269531 275.734375 109.027344 300.625 C 116.019531 276.261719 133.742188 257.9375 157.847656 249.625 C 158.613281 249.363281 159.382812 249.109375 160.152344 248.867188 C 160.519531 248.753906 160.882812 248.632812 161.253906 248.523438 C 162.394531 248.179688 163.542969 247.859375 164.699219 247.5625 L 164.765625 247.546875 C 165.921875 247.257812 167.078125 246.992188 168.242188 246.746094 C 168.613281 246.667969 168.988281 246.597656 169.363281 246.523438 C 170.628906 246.269531 171.898438 246.046875 173.175781 245.847656 C 174.039062 245.714844 174.910156 245.59375 175.78125 245.484375 C 176.164062 245.433594 176.542969 245.382812 176.929688 245.335938 C 178.1875 245.191406 179.445312 245.070312 180.707031 244.972656 L 185.699219 244.972656 C 186.207031 245.003906 186.714844 245.003906 187.222656 244.972656 L 187.636719 244.972656 C 151.8125 244.972656 122.769531 215.933594 122.769531 180.105469 C 122.769531 179.765625 122.789062 179.429688 122.796875 179.089844 C 122.441406 138.082031 160.882812 113.378906 187.699219 115.210938 C 215.222656 113.335938 254.980469 139.269531 252.660156 182.046875 C 252.59375 182.089844 252.519531 182.121094 252.449219 182.164062 C 251.363281 217.035156 222.769531 244.972656 187.636719 244.972656 L 194.625 244.972656 C 195.898438 245.066406 197.15625 245.195312 198.402344 245.335938 C 198.792969 245.382812 199.171875 245.433594 199.558594 245.484375 C 200.851562 245.648438 202.144531 245.839844 203.433594 246.054688 C 204.28125 246.199219 205.121094 246.355469 205.957031 246.519531 C 206.339844 246.597656 206.722656 246.667969 207.097656 246.746094 C 208.234375 246.984375 209.363281 247.246094 210.488281 247.527344 C 210.5625 247.546875 210.640625 247.566406 210.714844 247.585938 C 211.835938 247.875 212.949219 248.183594 214.058594 248.515625 C 214.457031 248.632812 214.84375 248.761719 215.234375 248.886719 C 215.976562 249.117188 216.710938 249.359375 217.441406 249.609375 C 241.558594 257.910156 259.289062 276.230469 266.296875 300.585938 C 302.023438 275.695312 325.40625 234.320312 325.40625 187.480469 C 325.410156 111.394531 263.722656 49.707031 187.636719 49.707031 Z M 187.636719 49.707031 " fill-opacity="1" fill-rule="nonzero"/></g><path fill="#ffc5ba" d="M 252.453125 182.164062 C 233.429688 193.777344 194.253906 173.652344 187.699219 145.910156 C 181.152344 173.75 141.777344 193.933594 122.867188 182.042969 C 122.820312 181.0625 122.796875 180.074219 122.796875 179.089844 C 122.789062 179.429688 122.769531 179.765625 122.769531 180.105469 C 122.769531 215.929688 151.8125 244.972656 187.636719 244.972656 C 222.769531 244.972656 251.363281 217.035156 252.453125 182.164062 Z M 252.453125 182.164062 " fill-opacity="1" fill-rule="nonzero"/><g clip-path="url(#0de0f87ad2)"><path fill="#000000" d="M 217.445312 249.609375 C 217.691406 249.695312 217.9375 249.78125 218.179688 249.871094 C 217.449219 251.949219 216.511719 253.933594 215.367188 255.824219 C 220.007812 262.90625 218.847656 293.917969 211.886719 289.019531 L 199.746094 280.503906 L 187.636719 271.984375 L 188.429688 271.425781 C 188.167969 271.433594 187.902344 271.445312 187.636719 271.445312 C 187.359375 271.445312 187.085938 271.429688 186.808594 271.425781 L 187.605469 271.984375 L 175.496094 280.503906 L 163.355469 289.019531 C 156.410156 293.925781 155.234375 262.835938 159.890625 255.796875 C 158.757812 253.921875 157.828125 251.953125 157.097656 249.886719 C 157.347656 249.796875 157.597656 249.707031 157.847656 249.621094 C 133.742188 257.933594 116.019531 276.261719 109.023438 300.625 C 131.320312 316.144531 158.414062 325.25 187.636719 325.25 C 216.878906 325.25 243.996094 316.128906 266.300781 300.585938 C 259.292969 276.230469 241.558594 257.910156 217.445312 249.609375 Z M 175.78125 245.484375 C 176.164062 245.433594 176.542969 245.382812 176.929688 245.335938 C 176.542969 245.382812 176.164062 245.433594 175.78125 245.484375 Z M 171.90625 246.054688 Z M 168.242188 246.746094 C 168.613281 246.667969 168.988281 246.597656 169.363281 246.523438 C 168.988281 246.597656 168.613281 246.667969 168.242188 246.746094 Z M 164.699219 247.5625 L 164.765625 247.546875 C 164.746094 247.554688 164.722656 247.558594 164.699219 247.5625 Z M 205.960938 246.519531 C 206.339844 246.597656 206.722656 246.667969 207.101562 246.746094 C 206.722656 246.667969 206.339844 246.597656 205.960938 246.519531 Z M 214.0625 248.515625 C 214.457031 248.636719 214.847656 248.761719 215.238281 248.886719 C 214.847656 248.761719 214.457031 248.636719 214.0625 248.515625 Z M 210.488281 247.527344 C 210.566406 247.546875 210.640625 247.566406 210.71875 247.585938 C 210.640625 247.566406 210.566406 247.546875 210.488281 247.527344 Z M 160.152344 248.867188 C 160.519531 248.753906 160.882812 248.632812 161.253906 248.523438 C 160.882812 248.632812 160.519531 248.753906 160.152344 248.867188 Z M 198.40625 245.335938 C 198.792969 245.382812 199.175781 245.433594 199.558594 245.484375 C 199.175781 245.433594 198.792969 245.382812 198.40625 245.335938 Z M 202.160156 245.847656 Z M 202.160156 245.847656 " fill-opacity="1" fill-rule="nonzero"/></g><path fill="#ffc5ba" d="M 159.890625 255.796875 C 160.816406 254.398438 161.96875 253.945312 163.355469 254.921875 L 175.496094 263.4375 L 186.808594 271.425781 C 187.085938 271.433594 187.359375 271.445312 187.636719 271.445312 C 187.902344 271.445312 188.167969 271.433594 188.429688 271.425781 L 199.746094 263.4375 L 211.886719 254.921875 C 213.277344 253.9375 214.441406 254.402344 215.367188 255.824219 C 216.511719 253.933594 217.449219 251.949219 218.179688 249.871094 C 217.933594 249.78125 217.691406 249.695312 217.445312 249.609375 C 216.710938 249.359375 215.976562 249.117188 215.238281 248.886719 C 214.84375 248.761719 214.457031 248.632812 214.0625 248.515625 C 212.953125 248.183594 211.839844 247.875 210.71875 247.585938 C 210.640625 247.566406 210.566406 247.546875 210.488281 247.527344 C 209.363281 247.246094 208.234375 246.984375 207.101562 246.746094 C 206.722656 246.667969 206.339844 246.597656 205.960938 246.519531 C 203.839844 246.097656 201.707031 245.753906 199.558594 245.484375 C 199.175781 245.433594 198.792969 245.382812 198.40625 245.335938 C 197.148438 245.191406 195.890625 245.070312 194.628906 244.972656 L 187.226562 244.972656 C 186.714844 245.003906 186.207031 245.003906 185.699219 244.972656 L 180.710938 244.972656 C 179.449219 245.070312 178.1875 245.191406 176.929688 245.335938 C 176.546875 245.382812 176.164062 245.433594 175.78125 245.484375 C 174.90625 245.59375 174.039062 245.714844 173.175781 245.847656 C 171.898438 246.046875 170.628906 246.273438 169.363281 246.523438 C 168.992188 246.597656 168.613281 246.667969 168.242188 246.746094 C 167.078125 246.992188 165.921875 247.257812 164.769531 247.546875 L 164.699219 247.5625 C 163.546875 247.859375 162.398438 248.179688 161.253906 248.523438 C 160.882812 248.632812 160.519531 248.753906 160.152344 248.867188 C 159.382812 249.109375 158.613281 249.359375 157.851562 249.625 C 157.597656 249.710938 157.347656 249.800781 157.097656 249.890625 C 157.828125 251.953125 158.757812 253.921875 159.890625 255.796875 Z M 159.890625 255.796875 " fill-opacity="1" fill-rule="nonzero"/><path fill="#ffffff" d="M 211.886719 254.921875 L 199.746094 263.4375 L 188.429688 271.425781 L 187.636719 271.988281 L 199.746094 280.503906 L 211.886719 289.023438 C 218.851562 293.921875 220.007812 262.90625 215.367188 255.824219 C 214.441406 254.402344 213.28125 253.9375 211.886719 254.921875 Z M 163.355469 254.921875 C 161.96875 253.945312 160.816406 254.398438 159.890625 255.796875 C 155.238281 262.835938 156.410156 293.925781 163.355469 289.019531 L 175.496094 280.503906 L 187.605469 271.984375 L 186.808594 271.425781 L 175.496094 263.4375 Z M 163.355469 254.921875 " fill-opacity="1" fill-rule="nonzero"/><path fill="#ffc5ba" d="M 187.699219 145.910156 L 187.699219 115.210938 C 160.882812 113.378906 122.441406 138.082031 122.796875 179.089844 C 122.804688 180.070312 122.8125 181.050781 122.867188 182.046875 C 141.777344 193.933594 181.152344 173.75 187.699219 145.910156 Z M 187.699219 145.910156 " fill-opacity="1" fill-rule="nonzero"/><path fill="#ffc5ba" d="M 187.699219 145.910156 C 194.253906 173.652344 233.429688 193.777344 252.453125 182.164062 C 252.519531 182.121094 252.59375 182.089844 252.660156 182.046875 C 254.980469 139.269531 215.222656 113.335938 187.703125 115.210938 L 187.703125 145.910156 Z M 187.699219 145.910156 " fill-opacity="1" fill-rule="nonzero"/></svg>