<svg xmlns="http://www.w3.org/2000/svg" xmlns:xlink="http://www.w3.org/1999/xlink" width="1440" zoomAndPan="magnify" viewBox="0 0 1080 809.999993" height="1080" preserveAspectRatio="xMidYMid meet" version="1.0"><defs><clipPath id="1c722300b9"><path d="M 215.542969 80.085938 L 864.292969 80.085938 L 864.292969 728.835938 L 215.542969 728.835938 Z M 215.542969 80.085938 " clip-rule="nonzero"/></clipPath></defs><g clip-path="url(#1c722300b9)"><path fill="#39b54a" d="M 539.917969 80.085938 C 360.789062 80.085938 215.542969 225.332031 215.542969 404.460938 C 215.542969 583.589844 360.789062 728.835938 539.917969 728.835938 C 719.046875 728.835938 864.292969 583.589844 864.292969 404.460938 C 864.292969 225.332031 719.046875 80.085938 539.917969 80.085938 Z M 722.472656 354.398438 L 532.683594 544.1875 C 523.546875 553.324219 511.175781 558.464844 498.230469 558.464844 C 485.476562 558.464844 473.101562 553.324219 463.964844 544.1875 L 369.164062 449.386719 C 350.128906 430.351562 350.128906 399.703125 369.164062 380.667969 C 388.199219 361.820312 418.660156 361.820312 437.695312 380.667969 L 498.230469 441.390625 L 653.753906 285.867188 C 672.789062 266.832031 703.4375 266.832031 722.472656 285.867188 C 741.320312 304.714844 741.320312 335.359375 722.472656 354.398438 Z M 722.472656 354.398438 " fill-opacity="1" fill-rule="nonzero"/></g><path fill="#ffffff" d="M 722.472656 354.398438 L 532.683594 544.1875 C 523.546875 553.324219 511.175781 558.464844 498.230469 558.464844 C 485.476562 558.464844 473.101562 553.324219 463.964844 544.1875 L 369.164062 449.386719 C 350.128906 430.351562 350.128906 399.703125 369.164062 380.667969 C 388.199219 361.820312 418.660156 361.820312 437.695312 380.667969 L 498.230469 441.390625 L 653.753906 285.867188 C 672.789062 266.832031 703.4375 266.832031 722.472656 285.867188 C 741.320312 304.714844 741.320312 335.359375 722.472656 354.398438 Z M 722.472656 354.398438 " fill-opacity="1" fill-rule="nonzero"/></svg>