<svg xmlns="http://www.w3.org/2000/svg" xmlns:xlink="http://www.w3.org/1999/xlink" width="1440" zoomAndPan="magnify" viewBox="0 0 1080 809.999993" height="1080" preserveAspectRatio="xMidYMid meet" version="1.0"><path fill="#000000" d="M 590.777344 405.132812 L 742.679688 253.230469 C 756.65625 239.25 756.6875 216.550781 742.703125 202.566406 C 728.746094 188.609375 706.035156 188.589844 692.039062 202.585938 L 540.136719 354.488281 L 388.234375 202.585938 C 374.253906 188.609375 351.554688 188.582031 337.570312 202.566406 C 323.613281 216.519531 323.59375 239.230469 337.589844 253.230469 L 489.496094 405.132812 L 337.589844 557.035156 C 323.613281 571.011719 323.585938 593.714844 337.570312 607.699219 C 351.527344 621.652344 374.238281 621.671875 388.234375 607.675781 L 540.136719 455.773438 L 692.039062 607.675781 C 706.015625 621.652344 728.71875 621.683594 742.703125 607.699219 C 756.660156 593.742188 756.675781 571.03125 742.679688 557.035156 Z M 590.777344 405.132812 " fill-opacity="1" fill-rule="evenodd"/></svg>