<svg xmlns="http://www.w3.org/2000/svg" xmlns:xlink="http://www.w3.org/1999/xlink" width="500" zoomAndPan="magnify" viewBox="0 0 375 374.999991" height="500" preserveAspectRatio="xMidYMid meet" version="1.0"><defs><clipPath id="10b6a2bfdd"><path d="M 42.191406 37.5 L 324.683594 37.5 L 324.683594 319.992188 L 42.191406 319.992188 Z M 42.191406 37.5 " clip-rule="nonzero"/></clipPath><clipPath id="215de7b4e0"><path d="M 183.4375 37.5 C 105.429688 37.5 42.191406 100.738281 42.191406 178.746094 C 42.191406 256.753906 105.429688 319.992188 183.4375 319.992188 C 261.445312 319.992188 324.683594 256.753906 324.683594 178.746094 C 324.683594 100.738281 261.445312 37.5 183.4375 37.5 Z M 183.4375 37.5 " clip-rule="nonzero"/></clipPath><clipPath id="fbb900b866"><path d="M 145 83.480469 L 253 83.480469 L 253 232 L 145 232 Z M 145 83.480469 " clip-rule="nonzero"/></clipPath><clipPath id="7c0cc5ec50"><path d="M 145 83.480469 L 232 83.480469 L 232 224 L 145 224 Z M 145 83.480469 " clip-rule="nonzero"/></clipPath><clipPath id="16258ae026"><path d="M 114 83.480469 L 222 83.480469 L 222 232 L 114 232 Z M 114 83.480469 " clip-rule="nonzero"/></clipPath><clipPath id="6c7efbb2be"><path d="M 135 83.480469 L 222 83.480469 L 222 224 L 135 224 Z M 135 83.480469 " clip-rule="nonzero"/></clipPath><clipPath id="3b1160803a"><path d="M 178 271 L 189 271 L 189 290.480469 L 178 290.480469 Z M 178 271 " clip-rule="nonzero"/></clipPath><clipPath id="937a84a5c5"><path d="M 246 203 L 265.703125 203 L 265.703125 214 L 246 214 Z M 246 203 " clip-rule="nonzero"/></clipPath><clipPath id="dc647ec761"><path d="M 101.453125 203 L 121 203 L 121 214 L 101.453125 214 Z M 101.453125 203 " clip-rule="nonzero"/></clipPath></defs><g clip-path="url(#10b6a2bfdd)"><g clip-path="url(#215de7b4e0)"><path fill="#2682ff" d="M 42.191406 37.5 L 324.683594 37.5 L 324.683594 319.992188 L 42.191406 319.992188 Z M 42.191406 37.5 " fill-opacity="1" fill-rule="nonzero"/></g></g><g clip-path="url(#fbb900b866)"><path fill="#446c9e" d="M 252.6875 83.480469 L 205.070312 180.675781 L 194.300781 202.671875 L 183.578125 224.578125 L 180.003906 231.894531 L 145.28125 214.996094 L 162.085938 180.675781 L 172.808594 158.769531 L 183.578125 136.769531 L 209.707031 83.480469 Z M 252.6875 83.480469 " fill-opacity="1" fill-rule="nonzero"/></g><g clip-path="url(#7c0cc5ec50)"><path fill="#98d6fc" d="M 231.199219 83.480469 L 194.347656 158.769531 L 183.578125 180.722656 L 172.855469 202.671875 L 162.664062 223.421875 L 145.28125 214.996094 L 162.085938 180.675781 L 172.808594 158.769531 L 183.578125 136.769531 L 209.707031 83.480469 Z M 231.199219 83.480469 " fill-opacity="1" fill-rule="nonzero"/></g><g clip-path="url(#16258ae026)"><path fill="#98d6fc" d="M 221.875 214.996094 L 187.152344 231.894531 L 183.578125 224.578125 L 172.855469 202.671875 L 162.085938 180.675781 L 114.464844 83.480469 L 157.449219 83.480469 L 183.578125 136.769531 L 194.347656 158.769531 L 205.070312 180.675781 Z M 221.875 214.996094 " fill-opacity="1" fill-rule="nonzero"/></g><g clip-path="url(#6c7efbb2be)"><path fill="#446c9e" d="M 221.875 214.996094 L 204.488281 223.421875 L 194.300781 202.671875 L 183.578125 180.722656 L 172.808594 158.769531 L 135.957031 83.480469 L 157.449219 83.480469 L 183.578125 136.769531 L 194.347656 158.769531 L 205.070312 180.675781 Z M 221.875 214.996094 " fill-opacity="1" fill-rule="nonzero"/></g><path fill="#f7d70e" d="M 231.875 208.644531 C 231.875 210.21875 231.796875 211.792969 231.640625 213.363281 C 231.484375 214.929688 231.253906 216.488281 230.945312 218.035156 C 230.636719 219.582031 230.253906 221.109375 229.792969 222.617188 C 229.335938 224.125 228.804688 225.609375 228.199219 227.066406 C 227.59375 228.523438 226.917969 229.945312 226.171875 231.335938 C 225.425781 232.726562 224.613281 234.078125 223.734375 235.386719 C 222.855469 236.699219 221.914062 237.964844 220.910156 239.183594 C 219.90625 240.402344 218.847656 241.566406 217.726562 242.683594 C 216.609375 243.796875 215.4375 244.855469 214.214844 245.855469 C 212.992188 246.855469 211.726562 247.792969 210.410156 248.667969 C 209.09375 249.546875 207.738281 250.355469 206.34375 251.097656 C 204.949219 251.839844 203.519531 252.515625 202.058594 253.117188 C 200.597656 253.722656 199.109375 254.253906 197.597656 254.710938 C 196.082031 255.167969 194.550781 255.550781 193 255.859375 C 191.449219 256.164062 189.886719 256.394531 188.3125 256.550781 C 186.738281 256.707031 185.160156 256.78125 183.578125 256.78125 C 181.996094 256.78125 180.417969 256.707031 178.84375 256.550781 C 177.269531 256.394531 175.707031 256.164062 174.15625 255.859375 C 172.605469 255.550781 171.070312 255.167969 169.558594 254.710938 C 168.042969 254.253906 166.558594 253.722656 165.097656 253.117188 C 163.632812 252.515625 162.207031 251.839844 160.8125 251.097656 C 159.417969 250.355469 158.0625 249.546875 156.746094 248.667969 C 155.429688 247.792969 154.164062 246.855469 152.941406 245.855469 C 151.714844 244.855469 150.546875 243.796875 149.425781 242.683594 C 148.308594 241.566406 147.25 240.402344 146.246094 239.183594 C 145.242188 237.964844 144.300781 236.699219 143.421875 235.386719 C 142.542969 234.078125 141.730469 232.726562 140.984375 231.335938 C 140.238281 229.945312 139.5625 228.523438 138.957031 227.066406 C 138.351562 225.609375 137.820312 224.125 137.363281 222.617188 C 136.902344 221.109375 136.519531 219.582031 136.210938 218.035156 C 135.902344 216.488281 135.667969 214.929688 135.515625 213.363281 C 135.359375 211.792969 135.28125 210.21875 135.28125 208.644531 C 135.28125 207.066406 135.359375 205.492188 135.515625 203.925781 C 135.667969 202.355469 135.902344 200.796875 136.210938 199.25 C 136.519531 197.707031 136.902344 196.175781 137.363281 194.667969 C 137.820312 193.160156 138.351562 191.675781 138.957031 190.222656 C 139.5625 188.765625 140.238281 187.339844 140.984375 185.949219 C 141.730469 184.558594 142.542969 183.210938 143.421875 181.898438 C 144.300781 180.585938 145.242188 179.324219 146.246094 178.105469 C 147.25 176.886719 148.308594 175.71875 149.425781 174.601562 C 150.546875 173.488281 151.714844 172.429688 152.941406 171.429688 C 154.164062 170.429688 155.429688 169.492188 156.746094 168.617188 C 158.0625 167.742188 159.417969 166.929688 160.8125 166.1875 C 162.207031 165.445312 163.632812 164.769531 165.097656 164.167969 C 166.558594 163.566406 168.042969 163.035156 169.558594 162.578125 C 171.070312 162.117188 172.605469 161.734375 174.15625 161.429688 C 175.707031 161.121094 177.269531 160.890625 178.84375 160.734375 C 180.417969 160.582031 181.996094 160.503906 183.578125 160.503906 C 185.160156 160.503906 186.738281 160.582031 188.3125 160.734375 C 189.886719 160.890625 191.449219 161.121094 193 161.429688 C 194.550781 161.734375 196.082031 162.117188 197.597656 162.578125 C 199.109375 163.035156 200.597656 163.566406 202.058594 164.167969 C 203.519531 164.769531 204.949219 165.445312 206.34375 166.1875 C 207.738281 166.929688 209.09375 167.742188 210.410156 168.617188 C 211.726562 169.492188 212.992188 170.429688 214.214844 171.429688 C 215.4375 172.429688 216.609375 173.488281 217.726562 174.601562 C 218.847656 175.71875 219.90625 176.886719 220.910156 178.105469 C 221.914062 179.324219 222.855469 180.585938 223.734375 181.898438 C 224.613281 183.210938 225.425781 184.558594 226.171875 185.949219 C 226.917969 187.339844 227.59375 188.765625 228.199219 190.222656 C 228.804688 191.675781 229.335938 193.160156 229.792969 194.667969 C 230.253906 196.175781 230.636719 197.707031 230.945312 199.25 C 231.253906 200.796875 231.484375 202.355469 231.640625 203.925781 C 231.796875 205.492188 231.875 207.066406 231.875 208.644531 Z M 231.875 208.644531 " fill-opacity="1" fill-rule="nonzero"/><path fill="#f8f6f7" d="M 183.578125 177.496094 L 190.582031 199.015625 L 213.328125 199.015625 L 194.925781 212.300781 L 201.929688 233.867188 L 183.578125 220.535156 L 165.226562 233.867188 L 172.230469 212.300781 L 153.828125 199.015625 L 176.574219 199.015625 Z M 183.578125 177.496094 " fill-opacity="1" fill-rule="nonzero"/><g clip-path="url(#3b1160803a)"><path fill="#fbe639" d="M 183.578125 290.480469 C 183.261719 290.480469 182.945312 290.449219 182.636719 290.386719 C 182.324219 290.324219 182.023438 290.234375 181.730469 290.113281 C 181.4375 289.992188 181.160156 289.84375 180.894531 289.667969 C 180.632812 289.492188 180.386719 289.292969 180.164062 289.070312 C 179.9375 288.847656 179.738281 288.605469 179.5625 288.339844 C 179.386719 288.078125 179.238281 287.800781 179.117188 287.507812 C 178.996094 287.214844 178.902344 286.914062 178.839844 286.605469 C 178.78125 286.296875 178.75 285.980469 178.75 285.667969 L 178.75 276.039062 C 178.75 275.722656 178.78125 275.410156 178.839844 275.097656 C 178.902344 274.789062 178.996094 274.488281 179.117188 274.195312 C 179.238281 273.902344 179.386719 273.625 179.5625 273.363281 C 179.738281 273.101562 179.9375 272.859375 180.164062 272.632812 C 180.386719 272.410156 180.632812 272.210938 180.894531 272.035156 C 181.160156 271.859375 181.4375 271.710938 181.730469 271.589844 C 182.023438 271.46875 182.324219 271.378906 182.636719 271.316406 C 182.945312 271.253906 183.261719 271.222656 183.578125 271.222656 C 183.894531 271.222656 184.210938 271.253906 184.519531 271.316406 C 184.832031 271.378906 185.132812 271.46875 185.425781 271.589844 C 185.71875 271.710938 185.996094 271.859375 186.261719 272.035156 C 186.523438 272.210938 186.769531 272.410156 186.992188 272.632812 C 187.21875 272.859375 187.417969 273.101562 187.59375 273.363281 C 187.769531 273.625 187.917969 273.902344 188.039062 274.195312 C 188.160156 274.488281 188.253906 274.789062 188.316406 275.097656 C 188.375 275.410156 188.40625 275.722656 188.40625 276.039062 L 188.40625 285.667969 C 188.40625 285.980469 188.375 286.296875 188.316406 286.605469 C 188.253906 286.914062 188.160156 287.214844 188.039062 287.507812 C 187.917969 287.800781 187.769531 288.078125 187.59375 288.339844 C 187.417969 288.605469 187.21875 288.847656 186.992188 289.070312 C 186.769531 289.292969 186.523438 289.492188 186.261719 289.667969 C 185.996094 289.84375 185.71875 289.992188 185.425781 290.113281 C 185.132812 290.234375 184.832031 290.324219 184.519531 290.386719 C 184.210938 290.449219 183.894531 290.480469 183.578125 290.480469 Z M 183.578125 290.480469 " fill-opacity="1" fill-rule="nonzero"/></g><path fill="#fbe639" d="M 238.199219 267.902344 C 236.882812 267.898438 235.753906 267.433594 234.820312 266.507812 L 227.960938 259.71875 C 227.738281 259.496094 227.535156 259.25 227.359375 258.988281 C 227.183594 258.722656 227.035156 258.445312 226.914062 258.152344 C 226.789062 257.859375 226.699219 257.554688 226.636719 257.246094 C 226.574219 256.933594 226.542969 256.617188 226.542969 256.300781 C 226.542969 255.984375 226.574219 255.671875 226.636719 255.359375 C 226.699219 255.046875 226.792969 254.746094 226.914062 254.453125 C 227.035156 254.160156 227.183594 253.882812 227.363281 253.617188 C 227.539062 253.355469 227.738281 253.109375 227.964844 252.886719 C 228.191406 252.660156 228.433594 252.460938 228.699219 252.285156 C 228.964844 252.109375 229.242188 251.960938 229.535156 251.839844 C 229.832031 251.71875 230.132812 251.625 230.445312 251.5625 C 230.757812 251.5 231.074219 251.46875 231.390625 251.46875 C 231.710938 251.46875 232.023438 251.5 232.335938 251.5625 C 232.648438 251.625 232.953125 251.714844 233.246094 251.835938 C 233.539062 251.957031 233.820312 252.105469 234.085938 252.28125 C 234.351562 252.460938 234.59375 252.660156 234.820312 252.882812 L 241.53125 259.71875 C 241.75 259.941406 241.941406 260.183594 242.109375 260.441406 C 242.277344 260.699219 242.421875 260.972656 242.539062 261.261719 C 242.652344 261.546875 242.742188 261.84375 242.800781 262.144531 C 242.859375 262.449219 242.890625 262.753906 242.890625 263.066406 C 242.890625 263.375 242.859375 263.679688 242.800781 263.984375 C 242.742188 264.289062 242.652344 264.582031 242.539062 264.871094 C 242.421875 265.15625 242.277344 265.429688 242.109375 265.6875 C 241.941406 265.949219 241.75 266.1875 241.53125 266.410156 C 240.625 267.359375 239.515625 267.859375 238.199219 267.902344 Z M 238.199219 267.902344 " fill-opacity="1" fill-rule="nonzero"/><g clip-path="url(#937a84a5c5)"><path fill="#fbe639" d="M 260.851562 213.457031 L 251.191406 213.457031 C 250.875 213.457031 250.5625 213.425781 250.25 213.363281 C 249.9375 213.304688 249.636719 213.210938 249.34375 213.089844 C 249.050781 212.96875 248.773438 212.820312 248.507812 212.644531 C 248.246094 212.46875 248 212.269531 247.777344 212.046875 C 247.554688 211.824219 247.351562 211.582031 247.175781 211.316406 C 247 211.054688 246.851562 210.777344 246.730469 210.484375 C 246.609375 210.191406 246.515625 209.890625 246.457031 209.582031 C 246.394531 209.273438 246.363281 208.960938 246.363281 208.644531 C 246.363281 208.328125 246.394531 208.015625 246.457031 207.703125 C 246.515625 207.394531 246.609375 207.09375 246.730469 206.800781 C 246.851562 206.507812 247 206.230469 247.175781 205.96875 C 247.351562 205.707031 247.554688 205.460938 247.777344 205.238281 C 248 205.015625 248.246094 204.816406 248.507812 204.640625 C 248.773438 204.464844 249.050781 204.316406 249.34375 204.195312 C 249.636719 204.074219 249.9375 203.984375 250.25 203.921875 C 250.5625 203.859375 250.875 203.828125 251.191406 203.828125 L 260.851562 203.828125 C 261.167969 203.828125 261.484375 203.859375 261.792969 203.921875 C 262.105469 203.984375 262.40625 204.074219 262.699219 204.195312 C 262.992188 204.316406 263.269531 204.464844 263.535156 204.640625 C 263.796875 204.816406 264.042969 205.015625 264.265625 205.238281 C 264.492188 205.460938 264.691406 205.707031 264.867188 205.96875 C 265.042969 206.230469 265.191406 206.507812 265.3125 206.800781 C 265.433594 207.09375 265.527344 207.394531 265.589844 207.703125 C 265.648438 208.015625 265.679688 208.328125 265.679688 208.644531 C 265.679688 208.960938 265.648438 209.273438 265.589844 209.582031 C 265.527344 209.890625 265.433594 210.191406 265.3125 210.484375 C 265.191406 210.777344 265.042969 211.054688 264.867188 211.316406 C 264.691406 211.582031 264.492188 211.824219 264.265625 212.046875 C 264.042969 212.269531 263.796875 212.46875 263.535156 212.644531 C 263.269531 212.820312 262.992188 212.96875 262.699219 213.089844 C 262.40625 213.210938 262.105469 213.304688 261.792969 213.363281 C 261.484375 213.425781 261.167969 213.457031 260.851562 213.457031 Z M 260.851562 213.457031 " fill-opacity="1" fill-rule="nonzero"/></g><g clip-path="url(#dc647ec761)"><path fill="#fbe639" d="M 115.964844 213.457031 L 106.304688 213.457031 C 105.988281 213.457031 105.671875 213.425781 105.363281 213.363281 C 105.050781 213.304688 104.75 213.210938 104.457031 213.089844 C 104.164062 212.96875 103.886719 212.820312 103.621094 212.644531 C 103.359375 212.46875 103.113281 212.269531 102.890625 212.046875 C 102.664062 211.824219 102.464844 211.582031 102.289062 211.316406 C 102.113281 211.054688 101.964844 210.777344 101.84375 210.484375 C 101.722656 210.191406 101.628906 209.890625 101.566406 209.582031 C 101.507812 209.273438 101.476562 208.960938 101.476562 208.644531 C 101.476562 208.328125 101.507812 208.015625 101.566406 207.703125 C 101.628906 207.394531 101.722656 207.09375 101.84375 206.800781 C 101.964844 206.507812 102.113281 206.230469 102.289062 205.96875 C 102.464844 205.707031 102.664062 205.460938 102.890625 205.238281 C 103.113281 205.015625 103.359375 204.816406 103.621094 204.640625 C 103.886719 204.464844 104.164062 204.316406 104.457031 204.195312 C 104.75 204.074219 105.050781 203.984375 105.363281 203.921875 C 105.671875 203.859375 105.988281 203.828125 106.304688 203.828125 L 115.964844 203.828125 C 116.28125 203.828125 116.59375 203.859375 116.90625 203.921875 C 117.21875 203.984375 117.519531 204.074219 117.8125 204.195312 C 118.105469 204.316406 118.382812 204.464844 118.648438 204.640625 C 118.910156 204.816406 119.15625 205.015625 119.378906 205.238281 C 119.601562 205.460938 119.804688 205.707031 119.980469 205.96875 C 120.15625 206.230469 120.304688 206.507812 120.425781 206.800781 C 120.546875 207.09375 120.640625 207.394531 120.699219 207.703125 C 120.761719 208.015625 120.792969 208.328125 120.792969 208.644531 C 120.792969 208.960938 120.761719 209.273438 120.699219 209.582031 C 120.640625 209.890625 120.546875 210.191406 120.425781 210.484375 C 120.304688 210.777344 120.15625 211.054688 119.980469 211.316406 C 119.804688 211.582031 119.601562 211.824219 119.378906 212.046875 C 119.15625 212.269531 118.910156 212.46875 118.648438 212.644531 C 118.382812 212.820312 118.105469 212.96875 117.8125 213.089844 C 117.519531 213.210938 117.21875 213.304688 116.90625 213.363281 C 116.59375 213.425781 116.28125 213.457031 115.964844 213.457031 Z M 115.964844 213.457031 " fill-opacity="1" fill-rule="nonzero"/></g><path fill="#fbe639" d="M 128.957031 267.902344 C 127.640625 267.859375 126.53125 267.359375 125.625 266.410156 C 125.398438 266.1875 125.203125 265.945312 125.027344 265.683594 C 124.851562 265.421875 124.703125 265.144531 124.582031 264.851562 C 124.464844 264.5625 124.371094 264.261719 124.3125 263.953125 C 124.25 263.644531 124.21875 263.332031 124.21875 263.015625 C 124.21875 262.703125 124.25 262.390625 124.3125 262.082031 C 124.371094 261.773438 124.464844 261.472656 124.582031 261.179688 C 124.703125 260.890625 124.851562 260.613281 125.027344 260.351562 C 125.203125 260.089844 125.398438 259.847656 125.625 259.621094 L 132.433594 252.785156 C 132.65625 252.5625 132.902344 252.363281 133.167969 252.183594 C 133.433594 252.007812 133.710938 251.859375 134.007812 251.738281 C 134.300781 251.617188 134.605469 251.523438 134.917969 251.460938 C 135.226562 251.398438 135.542969 251.367188 135.863281 251.367188 C 136.179688 251.367188 136.496094 251.398438 136.808594 251.460938 C 137.121094 251.523438 137.425781 251.613281 137.71875 251.734375 C 138.011719 251.859375 138.292969 252.007812 138.558594 252.183594 C 138.824219 252.359375 139.066406 252.558594 139.292969 252.785156 C 139.519531 253.007812 139.71875 253.253906 139.898438 253.515625 C 140.074219 253.78125 140.222656 254.058594 140.34375 254.351562 C 140.46875 254.648438 140.558594 254.949219 140.621094 255.261719 C 140.683594 255.570312 140.714844 255.886719 140.714844 256.203125 C 140.714844 256.523438 140.683594 256.835938 140.621094 257.148438 C 140.558594 257.457031 140.464844 257.761719 140.34375 258.054688 C 140.222656 258.347656 140.070312 258.625 139.894531 258.890625 C 139.71875 259.152344 139.515625 259.398438 139.289062 259.621094 L 132.335938 266.410156 C 131.894531 266.871094 131.378906 267.234375 130.792969 267.492188 C 130.210938 267.75 129.597656 267.886719 128.957031 267.902344 Z M 128.957031 267.902344 " fill-opacity="1" fill-rule="nonzero"/></svg>