<svg xmlns="http://www.w3.org/2000/svg" xmlns:xlink="http://www.w3.org/1999/xlink" width="1440" zoomAndPan="magnify" viewBox="0 0 1080 809.999993" height="1080" preserveAspectRatio="xMidYMid meet" version="1.0"><defs><clipPath id="e0cad8d03c"><path d="M 183 141.828125 L 894 141.828125 L 894 430 L 183 430 Z M 183 141.828125 " clip-rule="nonzero"/></clipPath><clipPath id="46e34b2c2f"><path d="M 171.28125 230 L 908.53125 230 L 908.53125 668.328125 L 171.28125 668.328125 Z M 171.28125 230 " clip-rule="nonzero"/></clipPath></defs><g clip-path="url(#e0cad8d03c)"><path fill="#737373" d="M 491.757812 413.628906 C 493.46875 414.941406 495.234375 416.183594 497.046875 417.355469 C 498.863281 418.527344 500.722656 419.621094 502.628906 420.640625 C 504.53125 421.660156 506.476562 422.597656 508.457031 423.457031 C 510.441406 424.316406 512.453125 425.09375 514.5 425.789062 C 516.542969 426.480469 518.613281 427.089844 520.707031 427.617188 C 522.804688 428.140625 524.917969 428.578125 527.046875 428.933594 C 529.179688 429.285156 531.320312 429.546875 533.472656 429.722656 C 535.625 429.902344 537.78125 429.988281 539.941406 429.988281 C 542.101562 429.988281 544.257812 429.902344 546.410156 429.726562 C 548.5625 429.546875 550.707031 429.285156 552.835938 428.933594 C 554.96875 428.578125 557.082031 428.140625 559.175781 427.617188 C 561.269531 427.089844 563.339844 426.480469 565.386719 425.789062 C 567.429688 425.09375 569.445312 424.316406 571.425781 423.457031 C 573.40625 422.597656 575.351562 421.660156 577.257812 420.640625 C 579.160156 419.621094 581.019531 418.527344 582.835938 417.355469 C 584.652344 416.183594 586.414062 414.941406 588.128906 413.628906 L 893.929688 175.355469 C 892.121094 172.777344 890.164062 170.3125 888.0625 167.96875 C 885.957031 165.625 883.71875 163.414062 881.351562 161.339844 C 878.980469 159.261719 876.496094 157.335938 873.898438 155.558594 C 871.296875 153.78125 868.597656 152.164062 865.804688 150.710938 C 863.007812 149.257812 860.136719 147.976562 857.1875 146.867188 C 854.242188 145.757812 851.238281 144.828125 848.175781 144.082031 C 845.117188 143.332031 842.023438 142.769531 838.894531 142.394531 C 835.769531 142.015625 832.628906 141.828125 829.480469 141.828125 L 250.511719 141.828125 C 247.175781 141.835938 243.851562 142.054688 240.542969 142.484375 C 237.238281 142.914062 233.96875 143.550781 230.742188 144.394531 C 227.515625 145.242188 224.355469 146.285156 221.261719 147.53125 C 218.167969 148.78125 215.164062 150.214844 212.253906 151.84375 C 209.34375 153.472656 206.546875 155.277344 203.863281 157.261719 C 201.183594 159.246094 198.636719 161.390625 196.226562 163.699219 C 193.816406 166.007812 191.566406 168.457031 189.46875 171.050781 C 187.371094 173.644531 185.445312 176.359375 183.691406 179.199219 Z M 491.757812 413.628906 " fill-opacity="1" fill-rule="nonzero"/></g><g clip-path="url(#46e34b2c2f)"><path fill="#737373" d="M 620.367188 455.339844 C 617.511719 457.53125 614.574219 459.601562 611.550781 461.550781 C 608.527344 463.503906 605.429688 465.328125 602.257812 467.023438 C 599.082031 468.71875 595.847656 470.285156 592.546875 471.714844 C 589.246094 473.148438 585.890625 474.441406 582.484375 475.601562 C 579.078125 476.757812 575.628906 477.773438 572.140625 478.648438 C 568.648438 479.523438 565.128906 480.253906 561.578125 480.839844 C 558.03125 481.425781 554.460938 481.867188 550.875 482.160156 C 547.289062 482.453125 543.699219 482.601562 540.101562 482.601562 C 536.503906 482.601562 532.910156 482.453125 529.324219 482.160156 C 525.738281 481.867188 522.171875 481.425781 518.621094 480.839844 C 515.070312 480.253906 511.550781 479.523438 508.0625 478.648438 C 504.570312 477.773438 501.121094 476.757812 497.714844 475.601562 C 494.308594 474.441406 490.953125 473.148438 487.652344 471.714844 C 484.351562 470.285156 481.117188 468.71875 477.945312 467.023438 C 474.769531 465.328125 471.671875 463.503906 468.648438 461.550781 C 465.625 459.601562 462.6875 457.53125 459.832031 455.339844 L 171.558594 236.121094 L 171.558594 589.214844 C 171.558594 590.503906 171.589844 591.796875 171.65625 593.085938 C 171.71875 594.378906 171.8125 595.664062 171.941406 596.953125 C 172.066406 598.238281 172.226562 599.519531 172.414062 600.796875 C 172.605469 602.074219 172.824219 603.347656 173.078125 604.617188 C 173.328125 605.882812 173.613281 607.144531 173.925781 608.394531 C 174.238281 609.648438 174.585938 610.894531 174.960938 612.132812 C 175.335938 613.367188 175.738281 614.59375 176.175781 615.808594 C 176.609375 617.027344 177.074219 618.230469 177.570312 619.425781 C 178.0625 620.621094 178.585938 621.800781 179.140625 622.96875 C 179.691406 624.136719 180.273438 625.289062 180.882812 626.429688 C 181.492188 627.570312 182.128906 628.691406 182.792969 629.800781 C 183.457031 630.910156 184.148438 632 184.863281 633.074219 C 185.582031 634.148438 186.328125 635.207031 187.097656 636.242188 C 187.867188 637.28125 188.660156 638.300781 189.480469 639.296875 C 190.300781 640.296875 191.144531 641.273438 192.011719 642.234375 C 192.878906 643.191406 193.769531 644.125 194.683594 645.039062 C 195.597656 645.953125 196.53125 646.84375 197.488281 647.710938 C 198.449219 648.578125 199.425781 649.421875 200.425781 650.242188 C 201.421875 651.0625 202.441406 651.855469 203.480469 652.625 C 204.515625 653.394531 205.574219 654.140625 206.648438 654.859375 C 207.722656 655.574219 208.8125 656.265625 209.921875 656.929688 C 211.03125 657.59375 212.152344 658.230469 213.292969 658.839844 C 214.433594 659.449219 215.585938 660.03125 216.753906 660.582031 C 217.921875 661.136719 219.101562 661.660156 220.296875 662.152344 C 221.492188 662.648438 222.695312 663.113281 223.914062 663.546875 C 225.128906 663.984375 226.355469 664.386719 227.59375 664.765625 C 228.828125 665.140625 230.074219 665.484375 231.328125 665.796875 C 232.578125 666.109375 233.839844 666.394531 235.109375 666.644531 C 236.375 666.898438 237.648438 667.121094 238.925781 667.308594 C 240.203125 667.5 241.484375 667.65625 242.773438 667.785156 C 244.058594 667.910156 245.34375 668.003906 246.636719 668.066406 C 247.925781 668.132812 249.21875 668.164062 250.511719 668.164062 L 829.480469 668.164062 C 830.773438 668.164062 832.0625 668.132812 833.355469 668.066406 C 834.644531 668.003906 835.933594 667.910156 837.21875 667.785156 C 838.503906 667.65625 839.785156 667.5 841.0625 667.308594 C 842.34375 667.121094 843.613281 666.898438 844.882812 666.644531 C 846.148438 666.394531 847.410156 666.109375 848.664062 665.796875 C 849.917969 665.484375 851.160156 665.140625 852.398438 664.765625 C 853.632812 664.386719 854.859375 663.984375 856.078125 663.546875 C 857.292969 663.113281 858.5 662.648438 859.691406 662.152344 C 860.886719 661.660156 862.066406 661.136719 863.234375 660.582031 C 864.402344 660.03125 865.558594 659.449219 866.695312 658.839844 C 867.835938 658.230469 868.960938 657.59375 870.066406 656.929688 C 871.175781 656.265625 872.269531 655.574219 873.34375 654.859375 C 874.417969 654.140625 875.472656 653.394531 876.511719 652.625 C 877.546875 651.855469 878.566406 651.0625 879.566406 650.242188 C 880.5625 649.421875 881.542969 648.578125 882.5 647.710938 C 883.457031 646.84375 884.390625 645.953125 885.304688 645.039062 C 886.21875 644.125 887.109375 643.191406 887.976562 642.234375 C 888.84375 641.273438 889.6875 640.296875 890.507812 639.296875 C 891.328125 638.300781 892.125 637.28125 892.894531 636.242188 C 893.664062 635.207031 894.40625 634.148438 895.125 633.074219 C 895.84375 632 896.535156 630.910156 897.199219 629.800781 C 897.863281 628.691406 898.5 627.570312 899.109375 626.429688 C 899.714844 625.289062 900.296875 624.136719 900.851562 622.96875 C 901.402344 621.800781 901.925781 620.621094 902.421875 619.425781 C 902.914062 618.230469 903.378906 617.027344 903.816406 615.808594 C 904.25 614.59375 904.65625 613.367188 905.03125 612.132812 C 905.40625 610.894531 905.75 609.648438 906.0625 608.394531 C 906.378906 607.144531 906.660156 605.882812 906.914062 604.617188 C 907.164062 603.347656 907.386719 602.074219 907.574219 600.796875 C 907.765625 599.519531 907.921875 598.238281 908.050781 596.953125 C 908.175781 595.664062 908.269531 594.378906 908.335938 593.085938 C 908.398438 591.796875 908.429688 590.503906 908.429688 589.214844 L 908.429688 230.910156 Z M 620.367188 455.339844 " fill-opacity="1" fill-rule="nonzero"/></g></svg>