<svg xmlns="http://www.w3.org/2000/svg" xmlns:xlink="http://www.w3.org/1999/xlink" width="1440" zoomAndPan="magnify" viewBox="0 0 1080 809.999993" height="1080" preserveAspectRatio="xMidYMid meet" version="1.0"><defs><clipPath id="1861bd90ac"><path d="M 383 83.941406 L 697 83.941406 L 697 419 L 383 419 Z M 383 83.941406 " clip-rule="nonzero"/></clipPath><clipPath id="703a3858d1"><path d="M 247 420 L 833 420 L 833 728.941406 L 247 728.941406 Z M 247 420 " clip-rule="nonzero"/></clipPath></defs><g clip-path="url(#1861bd90ac)"><path fill="#737373" d="M 539.996094 418.539062 C 626.347656 418.539062 696.585938 326.890625 696.585938 240.546875 C 696.585938 154.199219 626.347656 83.941406 539.996094 83.941406 C 453.644531 83.941406 383.394531 154.199219 383.394531 240.546875 C 383.410156 326.882812 453.648438 418.539062 539.996094 418.539062 Z M 539.996094 418.539062 " fill-opacity="1" fill-rule="nonzero"/></g><g clip-path="url(#703a3858d1)"><path fill="#737373" d="M 657.554688 420.144531 C 627.179688 443.289062 589.285156 457.054688 548.238281 457.054688 L 531.753906 457.054688 C 490.699219 457.054688 452.796875 443.28125 422.429688 420.144531 C 323.246094 436.175781 247.511719 522.140625 247.511719 625.839844 C 247.511719 682.804688 378.457031 729 539.996094 729 C 701.523438 729 832.480469 682.804688 832.480469 625.839844 C 832.480469 522.140625 756.734375 436.175781 657.554688 420.144531 Z M 657.554688 420.144531 " fill-opacity="1" fill-rule="nonzero"/></g></svg>