<svg xmlns="http://www.w3.org/2000/svg" xmlns:xlink="http://www.w3.org/1999/xlink" width="1440" zoomAndPan="magnify" viewBox="0 0 1080 809.999993" height="1080" preserveAspectRatio="xMidYMid meet" version="1.0"><defs><clipPath id="3150a5fc5c"><path d="M 269 29.320312 L 811.125 29.320312 L 811.125 729.070312 L 269 729.070312 Z M 269 29.320312 " clip-rule="nonzero"/></clipPath></defs><g clip-path="url(#3150a5fc5c)"><path fill="#000000" d="M 752.996094 299.734375 L 752.996094 242.324219 C 752.996094 124.898438 657.433594 29.320312 540.019531 29.320312 C 422.601562 29.320312 326.996094 124.871094 326.996094 242.324219 L 326.996094 299.734375 C 294.839844 300.605469 269.003906 326.804688 269.003906 359.171875 L 269.003906 669.460938 C 269.003906 671.414062 269.101562 673.359375 269.292969 675.300781 C 269.484375 677.246094 269.769531 679.171875 270.148438 681.089844 C 270.53125 683.003906 271.003906 684.894531 271.570312 686.761719 C 272.136719 688.628906 272.792969 690.464844 273.539062 692.269531 C 274.285156 694.074219 275.121094 695.835938 276.039062 697.558594 C 276.960938 699.28125 277.960938 700.953125 279.046875 702.574219 C 280.128906 704.199219 281.292969 705.765625 282.53125 707.273438 C 283.769531 708.78125 285.078125 710.226562 286.457031 711.609375 C 287.835938 712.988281 289.28125 714.296875 290.789062 715.535156 C 292.300781 716.773438 293.863281 717.9375 295.488281 719.019531 C 297.109375 720.105469 298.78125 721.109375 300.503906 722.027344 C 302.226562 722.949219 303.988281 723.78125 305.792969 724.53125 C 307.59375 725.277344 309.429688 725.933594 311.296875 726.5 C 313.164062 727.066406 315.058594 727.542969 316.972656 727.921875 C 318.886719 728.304688 320.8125 728.589844 322.757812 728.78125 C 324.699219 728.972656 326.644531 729.070312 328.597656 729.070312 L 751.402344 729.070312 C 753.355469 729.070312 755.304688 728.972656 757.246094 728.78125 C 759.1875 728.589844 761.117188 728.304688 763.03125 727.921875 C 764.945312 727.542969 766.835938 727.070312 768.703125 726.503906 C 770.574219 725.9375 772.40625 725.277344 774.210938 724.53125 C 776.015625 723.785156 777.777344 722.949219 779.5 722.03125 C 781.21875 721.109375 782.894531 720.109375 784.515625 719.023438 C 786.140625 717.9375 787.703125 716.777344 789.214844 715.539062 C 790.722656 714.300781 792.167969 712.992188 793.546875 711.613281 C 794.929688 710.230469 796.238281 708.785156 797.476562 707.277344 C 798.714844 705.769531 799.875 704.203125 800.960938 702.578125 C 802.042969 700.957031 803.046875 699.285156 803.96875 697.5625 C 804.886719 695.839844 805.722656 694.078125 806.46875 692.273438 C 807.214844 690.472656 807.871094 688.636719 808.4375 686.765625 C 809.003906 684.898438 809.480469 683.007812 809.859375 681.09375 C 810.242188 679.179688 810.527344 677.25 810.71875 675.308594 C 810.910156 673.363281 811.007812 671.417969 811.007812 669.464844 L 811.007812 359.171875 C 811.007812 326.800781 785.15625 300.59375 752.996094 299.734375 Z M 588.753906 471.4375 C 588.488281 473.285156 587.457031 477.5 587.359375 477.824219 C 583.722656 490.433594 575.027344 500.785156 563.730469 507.082031 L 582.863281 588.65625 C 583.003906 589.074219 583.117188 589.503906 583.203125 589.933594 C 583.292969 590.367188 583.355469 590.804688 583.394531 591.242188 C 583.429688 591.683594 583.441406 592.125 583.429688 592.566406 C 583.414062 593.007812 583.375 593.445312 583.308594 593.882812 C 583.246094 594.320312 583.152344 594.75 583.039062 595.175781 C 582.921875 595.601562 582.78125 596.019531 582.617188 596.429688 C 582.453125 596.839844 582.265625 597.238281 582.054688 597.628906 C 581.84375 598.015625 581.613281 598.390625 581.355469 598.75 C 581.101562 599.109375 580.828125 599.457031 580.53125 599.785156 C 580.238281 600.113281 579.925781 600.421875 579.59375 600.714844 C 579.261719 601.007812 578.914062 601.277344 578.550781 601.53125 C 578.1875 601.78125 577.8125 602.011719 577.421875 602.21875 C 577.035156 602.425781 576.632812 602.609375 576.222656 602.769531 C 575.8125 602.933594 575.390625 603.066406 574.964844 603.179688 C 574.539062 603.292969 574.105469 603.378906 573.667969 603.441406 C 573.230469 603.5 572.792969 603.535156 572.351562 603.546875 L 508.957031 603.546875 C 508.515625 603.535156 508.074219 603.5 507.636719 603.441406 C 507.199219 603.378906 506.769531 603.292969 506.339844 603.179688 C 505.914062 603.070312 505.496094 602.933594 505.082031 602.769531 C 504.671875 602.609375 504.273438 602.425781 503.882812 602.21875 C 503.492188 602.011719 503.117188 601.78125 502.753906 601.53125 C 502.390625 601.277344 502.042969 601.007812 501.710938 600.714844 C 501.382812 600.421875 501.070312 600.113281 500.773438 599.785156 C 500.480469 599.457031 500.203125 599.109375 499.949219 598.75 C 499.695312 598.390625 499.460938 598.015625 499.25 597.628906 C 499.039062 597.238281 498.851562 596.839844 498.6875 596.429688 C 498.523438 596.019531 498.382812 595.601562 498.269531 595.175781 C 498.152344 594.75 498.0625 594.320312 498 593.882812 C 497.933594 593.445312 497.894531 593.007812 497.878906 592.566406 C 497.867188 592.125 497.878906 591.683594 497.914062 591.242188 C 497.953125 590.804688 498.015625 590.367188 498.105469 589.933594 C 498.195312 589.503906 498.308594 589.074219 498.445312 588.65625 L 516.28125 507.082031 C 504.980469 500.785156 496.285156 490.433594 492.652344 477.824219 C 492.554688 477.5 491.515625 473.285156 491.25 471.4375 C 490.917969 469.160156 490.75 466.871094 490.746094 464.570312 C 490.746094 462.957031 490.824219 461.34375 490.980469 459.738281 C 491.140625 458.132812 491.375 456.539062 491.691406 454.957031 C 492.003906 453.371094 492.394531 451.808594 492.863281 450.265625 C 493.332031 448.71875 493.875 447.203125 494.492188 445.710938 C 495.109375 444.21875 495.796875 442.761719 496.554688 441.339844 C 497.316406 439.917969 498.144531 438.535156 499.042969 437.191406 C 499.9375 435.847656 500.898438 434.554688 501.921875 433.308594 C 502.945312 432.058594 504.027344 430.863281 505.167969 429.722656 C 506.308594 428.582031 507.5 427.5 508.75 426.476562 C 509.996094 425.453125 511.289062 424.492188 512.632812 423.59375 C 513.972656 422.699219 515.355469 421.867188 516.777344 421.109375 C 518.203125 420.347656 519.660156 419.65625 521.148438 419.039062 C 522.640625 418.421875 524.15625 417.878906 525.703125 417.410156 C 527.246094 416.941406 528.808594 416.550781 530.390625 416.234375 C 531.972656 415.921875 533.566406 415.683594 535.175781 415.527344 C 536.78125 415.367188 538.390625 415.289062 540.003906 415.289062 C 541.617188 415.289062 543.226562 415.367188 544.832031 415.527344 C 546.4375 415.683594 548.03125 415.921875 549.613281 416.234375 C 551.199219 416.550781 552.761719 416.941406 554.304688 417.410156 C 555.847656 417.878906 557.367188 418.421875 558.859375 419.039062 C 560.347656 419.65625 561.804688 420.347656 563.226562 421.109375 C 564.652344 421.867188 566.035156 422.699219 567.375 423.59375 C 568.714844 424.492188 570.011719 425.453125 571.257812 426.476562 C 572.503906 427.5 573.699219 428.582031 574.839844 429.722656 C 575.980469 430.863281 577.0625 432.058594 578.085938 433.308594 C 579.109375 434.554688 580.070312 435.847656 580.964844 437.191406 C 581.863281 438.535156 582.691406 439.917969 583.449219 441.339844 C 584.210938 442.761719 584.898438 444.21875 585.515625 445.710938 C 586.132812 447.203125 586.675781 448.71875 587.144531 450.265625 C 587.613281 451.808594 588.003906 453.371094 588.316406 454.957031 C 588.632812 456.539062 588.867188 458.132812 589.023438 459.738281 C 589.183594 461.34375 589.261719 462.957031 589.261719 464.570312 C 589.257812 466.871094 589.089844 469.160156 588.753906 471.4375 Z M 680.269531 299.570312 L 399.726562 299.570312 L 399.726562 242.324219 C 399.726562 164.953125 462.632812 102.019531 540.019531 102.019531 C 617.402344 102.019531 680.269531 164.953125 680.269531 242.324219 Z M 680.269531 299.570312 " fill-opacity="1" fill-rule="nonzero"/></g></svg>