<svg xmlns="http://www.w3.org/2000/svg" xmlns:xlink="http://www.w3.org/1999/xlink" width="1440" zoomAndPan="magnify" viewBox="0 0 1080 809.999993" height="1080" preserveAspectRatio="xMidYMid meet" version="1.0"><defs><g/><clipPath id="02f069b6d8"><path d="M 159.371094 24.371094 L 920.628906 24.371094 L 920.628906 785.628906 L 159.371094 785.628906 Z M 159.371094 24.371094 " clip-rule="nonzero"/></clipPath><clipPath id="fd18121ce4"><path d="M 540 24.371094 C 329.785156 24.371094 159.371094 194.785156 159.371094 405 C 159.371094 615.214844 329.785156 785.628906 540 785.628906 C 750.214844 785.628906 920.628906 615.214844 920.628906 405 C 920.628906 194.785156 750.214844 24.371094 540 24.371094 Z M 540 24.371094 " clip-rule="nonzero"/></clipPath></defs><g clip-path="url(#02f069b6d8)"><g clip-path="url(#fd18121ce4)"><path fill="#2682ff" d="M 159.371094 24.371094 L 920.628906 24.371094 L 920.628906 785.628906 L 159.371094 785.628906 Z M 159.371094 24.371094 " fill-opacity="1" fill-rule="nonzero"/></g></g><path stroke-linecap="butt" transform="matrix(2.121134, 0, 0, 2.121134, 362.551743, -60.593096)" fill="none" stroke-linejoin="miter" d="M 59.764522 264.576605 L 59.764522 260.746107 C 59.816087 247.772136 60.965236 237.42795 63.211971 229.71539 C 65.510269 221.951265 68.830648 215.71934 73.173107 211.019614 C 77.515565 206.319887 82.802758 202.003211 89.032842 198.069584 C 95.878015 193.677403 101.625603 188.902171 106.273765 183.742048 C 110.973492 178.583767 113.323355 172.351842 113.323355 165.046272 C 113.323355 157.333712 110.665947 151.153351 105.354814 146.503347 C 100.04184 141.855185 93.631281 139.531104 86.121295 139.531104 C 78.869131 139.531104 72.355443 141.90675 66.583914 146.65804 C 60.812385 151.407489 57.746145 158.330009 57.388877 167.421917 L 11.953278 167.421917 C 12.310546 152.556639 15.861123 140.273263 22.603168 130.566266 C 29.396777 120.811387 38.361615 113.557382 49.497683 108.806091 C 60.631909 104.005077 72.917126 101.60365 86.351493 101.60365 C 101.165207 101.60365 114.242306 104.056642 125.58279 108.960784 C 136.972997 113.813362 145.886271 120.86111 152.322612 130.107711 C 158.810518 139.302748 162.05355 150.387251 162.05355 163.361221 C 162.05355 176.43832 158.911805 187.34419 152.628315 196.07883 C 146.346667 204.761906 137.995077 212.168763 127.573544 218.29756 C 118.838904 223.610534 112.428344 229.306558 108.341866 235.385632 C 104.255388 241.462864 102.135723 249.917584 101.982871 260.746107 L 101.982871 264.576605 Z M 81.677549 335.912262 C 74.322256 335.912262 68.014826 333.306419 62.753416 328.096573 C 57.492006 322.886728 54.886162 316.577456 54.937727 309.170599 C 54.886162 301.86687 57.492006 295.634945 62.753416 290.474822 C 68.014826 285.264977 74.322256 282.659133 81.677549 282.659133 C 88.830267 282.659133 95.060351 285.264977 100.373325 290.474822 C 105.6863 295.634945 108.367648 301.86687 108.419213 309.170599 C 108.367648 316.577456 105.6863 322.886728 100.373325 328.096573 C 95.060351 333.306419 88.830267 335.912262 81.677549 335.912262 Z M 81.677549 335.912262 " stroke="#ffffff" stroke-width="11.769037" stroke-opacity="1" stroke-miterlimit="4"/><g fill="#ffde59" fill-opacity="1"><g transform="translate(362.551743, 645.744576)"><g><path d="M 126.703125 -145.15625 L 126.703125 -153.1875 C 126.867188 -180.769531 129.351562 -202.753906 134.15625 -219.140625 C 138.96875 -235.535156 145.984375 -248.734375 155.203125 -258.734375 C 164.421875 -268.742188 175.648438 -277.925781 188.890625 -286.28125 C 203.378906 -295.582031 215.585938 -305.707031 225.515625 -316.65625 C 235.453125 -327.613281 240.421875 -340.8125 240.421875 -356.25 C 240.421875 -372.644531 234.785156 -385.765625 223.515625 -395.609375 C 212.242188 -405.460938 198.648438 -410.390625 182.734375 -410.390625 C 167.285156 -410.390625 153.453125 -405.34375 141.234375 -395.25 C 129.023438 -385.164062 122.53125 -370.515625 121.75 -351.296875 L 25.296875 -351.296875 C 26.085938 -382.816406 33.648438 -408.898438 47.984375 -429.546875 C 62.328125 -450.191406 81.316406 -465.554688 104.953125 -475.640625 C 128.597656 -485.722656 154.679688 -490.765625 183.203125 -490.765625 C 214.566406 -490.765625 242.304688 -485.601562 266.421875 -475.28125 C 290.535156 -464.957031 309.445312 -450.023438 323.15625 -430.484375 C 336.863281 -410.941406 343.71875 -387.378906 343.71875 -359.796875 C 343.71875 -332.054688 337.0625 -308.96875 323.75 -290.53125 C 310.4375 -272.09375 292.742188 -256.332031 270.671875 -243.25 C 252.078125 -232.0625 238.445312 -220.003906 229.78125 -207.078125 C 221.113281 -194.160156 216.625 -176.195312 216.3125 -153.1875 L 216.3125 -145.15625 Z M 173.28125 6.140625 C 157.675781 6.140625 144.28125 0.625 133.09375 -10.40625 C 121.90625 -21.4375 116.390625 -34.832031 116.546875 -50.59375 C 116.390625 -66.03125 121.90625 -79.265625 133.09375 -90.296875 C 144.28125 -101.335938 157.675781 -106.859375 173.28125 -106.859375 C 188.40625 -106.859375 201.601562 -101.335938 212.875 -90.296875 C 224.144531 -79.265625 229.859375 -66.03125 230.015625 -50.59375 C 229.859375 -34.832031 224.144531 -21.4375 212.875 -10.40625 C 201.601562 0.625 188.40625 6.140625 173.28125 6.140625 Z M 173.28125 6.140625 "/></g></g></g></svg>