<svg xmlns="http://www.w3.org/2000/svg" xmlns:xlink="http://www.w3.org/1999/xlink" width="1440" zoomAndPan="magnify" viewBox="0 0 1080 809.999993" height="1080" preserveAspectRatio="xMidYMid meet" version="1.0"><defs><clipPath id="896655cc6e"><path d="M 214.628906 78.261719 L 865.359375 78.261719 L 865.359375 729 L 214.628906 729 Z M 214.628906 78.261719 " clip-rule="nonzero"/></clipPath></defs><g clip-path="url(#896655cc6e)"><path fill="#737373" d="M 222.679688 555.960938 C 217.929688 568.65625 215.15625 582.292969 214.738281 596.554688 C 214.632812 597.914062 214.632812 599.269531 214.632812 600.679688 C 214.632812 671.523438 272.101562 728.988281 342.941406 728.988281 C 631.472656 728.988281 865.359375 495.101562 865.359375 206.566406 C 865.359375 135.730469 807.894531 78.261719 737.054688 78.261719 C 735.644531 78.261719 734.285156 78.261719 732.925781 78.367188 C 718.664062 78.785156 704.976562 81.554688 692.285156 86.304688 L 644.117188 294.859375 C 644.117188 294.960938 644.167969 295.011719 644.273438 295.066406 L 732.613281 334.769531 L 732.875 334.875 C 692.335938 458.320312 594.695312 555.960938 471.246094 596.503906 L 471.144531 596.242188 L 431.386719 507.847656 L 222.679688 555.960938 " fill-opacity="1" fill-rule="nonzero"/></g></svg>