<svg xmlns="http://www.w3.org/2000/svg" xmlns:xlink="http://www.w3.org/1999/xlink" width="500" zoomAndPan="magnify" viewBox="0 0 375 374.999991" height="500" preserveAspectRatio="xMidYMid meet" version="1.0"><path fill="#000000" d="M 167.769531 84.253906 C 121.238281 84.765625 83.925781 122.910156 84.4375 169.445312 C 84.945312 215.972656 123.085938 253.285156 169.625 252.773438 C 186.808594 252.585938 203.523438 247.144531 217.535156 237.179688 L 265.664062 285.296875 C 271.171875 290.738281 280.058594 290.679688 285.496094 285.164062 C 290.878906 279.707031 290.878906 270.925781 285.496094 265.460938 L 237.367188 217.34375 C 264.339844 179.425781 255.457031 126.816406 217.535156 99.839844 C 203.007812 89.519531 185.589844 84.058594 167.769531 84.253906 Z M 166.757812 98.839844 C 205.183594 97.765625 237.210938 128.042969 238.285156 166.476562 C 238.300781 167.152344 238.316406 167.828125 238.316406 168.503906 C 238.332031 206.949219 207.175781 238.128906 168.734375 238.148438 C 130.289062 238.164062 99.109375 207.015625 99.089844 168.566406 C 99.089844 168.546875 99.089844 168.53125 99.089844 168.507812 C 99.046875 130.789062 129.050781 99.894531 166.757812 98.839844 Z M 166.757812 98.839844 " fill-opacity="1" fill-rule="nonzero"/><path fill="#000000" d="M 149.910156 116.882812 C 153.71875 115.519531 157.914062 117.496094 159.277344 121.308594 C 160.632812 125.089844 158.691406 129.261719 154.921875 130.65625 C 139.003906 136.449219 128.410156 151.578125 128.410156 168.511719 C 128.410156 172.5625 125.132812 175.84375 121.085938 175.84375 C 117.039062 175.84375 113.757812 172.5625 113.757812 168.511719 C 113.757812 145.414062 128.203125 124.78125 149.910156 116.882812 Z M 149.910156 116.882812 " fill-opacity="1" fill-rule="nonzero"/></svg>