<svg xmlns="http://www.w3.org/2000/svg" xmlns:xlink="http://www.w3.org/1999/xlink" width="1440" zoomAndPan="magnify" viewBox="0 0 1080 809.999993" height="1080" preserveAspectRatio="xMidYMid meet" version="1.0"><defs><clipPath id="d886a5b3d6"><path d="M 164.269531 29.269531 L 915.769531 29.269531 L 915.769531 780.769531 L 164.269531 780.769531 Z M 164.269531 29.269531 " clip-rule="nonzero"/></clipPath></defs><g clip-path="url(#d886a5b3d6)"><path fill="#2682ff" d="M 539.996094 29.269531 C 332.511719 29.269531 164.269531 197.511719 164.269531 404.996094 C 164.269531 612.484375 332.511719 780.722656 539.996094 780.722656 C 747.484375 780.722656 915.722656 612.484375 915.722656 404.996094 C 915.722656 197.511719 747.484375 29.269531 539.996094 29.269531 Z M 751.453125 347.007812 L 531.617188 566.84375 C 521.035156 577.425781 506.703125 583.378906 491.707031 583.378906 C 476.9375 583.378906 462.601562 577.425781 452.019531 566.84375 L 342.210938 457.035156 C 320.164062 434.984375 320.164062 399.484375 342.210938 377.4375 C 364.261719 355.605469 399.542969 355.605469 421.589844 377.4375 L 491.707031 447.773438 L 671.855469 267.628906 C 693.90625 245.578125 729.40625 245.578125 751.453125 267.628906 C 773.285156 289.457031 773.285156 324.957031 751.453125 347.007812 Z M 751.453125 347.007812 " fill-opacity="1" fill-rule="nonzero"/></g><path fill="#ffffff" d="M 751.453125 347.007812 L 531.617188 566.84375 C 521.035156 577.425781 506.703125 583.378906 491.707031 583.378906 C 476.9375 583.378906 462.601562 577.425781 452.019531 566.84375 L 342.210938 457.035156 C 320.164062 434.984375 320.164062 399.484375 342.210938 377.4375 C 364.261719 355.605469 399.542969 355.605469 421.589844 377.4375 L 491.707031 447.773438 L 671.855469 267.628906 C 693.90625 245.578125 729.40625 245.578125 751.453125 267.628906 C 773.285156 289.457031 773.285156 324.957031 751.453125 347.007812 Z M 751.453125 347.007812 " fill-opacity="1" fill-rule="nonzero"/></svg>