<svg xmlns="http://www.w3.org/2000/svg" xmlns:xlink="http://www.w3.org/1999/xlink" width="500" zoomAndPan="magnify" viewBox="0 0 375 374.999991" height="500" preserveAspectRatio="xMidYMid meet" version="1.0"><defs><clipPath id="141e2fffd3"><path d="M 79.71875 79.71875 L 295.28125 79.71875 L 295.28125 295.28125 L 79.71875 295.28125 Z M 79.71875 79.71875 " clip-rule="nonzero"/></clipPath><clipPath id="88b7c6f72a"><path d="M 187.5 79.71875 C 127.976562 79.71875 79.71875 127.976562 79.71875 187.5 C 79.71875 247.023438 127.976562 295.28125 187.5 295.28125 C 247.023438 295.28125 295.28125 247.023438 295.28125 187.5 C 295.28125 127.976562 247.023438 79.71875 187.5 79.71875 Z M 187.5 79.71875 " clip-rule="nonzero"/></clipPath><clipPath id="7589fd89cc"><path d="M 79.71875 79.71875 L 294.96875 79.71875 L 294.96875 294.96875 L 79.71875 294.96875 Z M 79.71875 79.71875 " clip-rule="nonzero"/></clipPath><clipPath id="5aca9bfdc8"><path d="M 187.496094 79.71875 C 127.972656 79.71875 79.71875 127.972656 79.71875 187.496094 C 79.71875 247.019531 127.972656 295.273438 187.496094 295.273438 C 247.019531 295.273438 295.273438 247.019531 295.273438 187.496094 C 295.273438 127.972656 247.019531 79.71875 187.496094 79.71875 Z M 187.496094 79.71875 " clip-rule="nonzero"/></clipPath><clipPath id="7af8618871"><path d="M 140.992188 138.507812 L 239 138.507812 L 239 236.757812 L 140.992188 236.757812 Z M 140.992188 138.507812 " clip-rule="nonzero"/></clipPath></defs><g clip-path="url(#141e2fffd3)"><g clip-path="url(#88b7c6f72a)"><path fill="#2682ff" d="M 79.71875 79.71875 L 295.28125 79.71875 L 295.28125 295.28125 L 79.71875 295.28125 Z M 79.71875 79.71875 " fill-opacity="1" fill-rule="nonzero"/></g></g><g clip-path="url(#7589fd89cc)"><g clip-path="url(#5aca9bfdc8)"><path stroke-linecap="butt" transform="matrix(0.75, 0, 0, 0.75, 79.720276, 79.720272)" fill="none" stroke-linejoin="miter" d="M 143.7011 -0.00202875 C 64.336511 -0.00202875 -0.00203475 64.336517 -0.00203475 143.701106 C -0.00203475 223.065694 64.336511 287.40424 143.7011 287.40424 C 223.065688 287.40424 287.404234 223.065694 287.404234 143.701106 C 287.404234 64.336517 223.065688 -0.00202875 143.7011 -0.00202875 Z M 143.7011 -0.00202875 " stroke="#000000" stroke-width="20" stroke-opacity="1" stroke-miterlimit="4"/></g></g><g clip-path="url(#7af8618871)"><path fill="#ffde59" d="M 201.917969 155.019531 L 221.851562 174.953125 L 171.398438 225.402344 L 151.476562 205.472656 Z M 236.972656 150.214844 L 228.085938 141.324219 C 224.648438 137.890625 219.074219 137.890625 215.625 141.324219 L 207.109375 149.839844 L 227.042969 169.769531 L 236.972656 159.839844 C 239.636719 157.175781 239.636719 152.878906 236.972656 150.214844 Z M 141.046875 233.488281 C 140.683594 235.121094 142.160156 236.582031 143.792969 236.183594 L 166 230.800781 L 146.082031 210.867188 Z M 141.046875 233.488281 " fill-opacity="1" fill-rule="nonzero"/></g></svg>