<svg xmlns="http://www.w3.org/2000/svg" xmlns:xlink="http://www.w3.org/1999/xlink" width="500" zoomAndPan="magnify" viewBox="0 0 375 374.999991" height="500" preserveAspectRatio="xMidYMid meet" version="1.0"><defs><clipPath id="a5f61757f3"><path d="M 79.71875 79.71875 L 295.28125 79.71875 L 295.28125 295.28125 L 79.71875 295.28125 Z M 79.71875 79.71875 " clip-rule="nonzero"/></clipPath><clipPath id="1114af9e08"><path d="M 187.5 79.71875 C 127.976562 79.71875 79.71875 127.976562 79.71875 187.5 C 79.71875 247.023438 127.976562 295.28125 187.5 295.28125 C 247.023438 295.28125 295.28125 247.023438 295.28125 187.5 C 295.28125 127.976562 247.023438 79.71875 187.5 79.71875 Z M 187.5 79.71875 " clip-rule="nonzero"/></clipPath><clipPath id="6374ddc443"><path d="M 79.71875 79.71875 L 295.277344 79.71875 L 295.277344 295.277344 L 79.71875 295.277344 Z M 79.71875 79.71875 " clip-rule="nonzero"/></clipPath><clipPath id="1251d56a3f"><path d="M 187.5 79.71875 C 127.972656 79.71875 79.71875 127.972656 79.71875 187.5 C 79.71875 247.023438 127.972656 295.277344 187.5 295.277344 C 247.023438 295.277344 295.277344 247.023438 295.277344 187.5 C 295.277344 127.972656 247.023438 79.71875 187.5 79.71875 Z M 187.5 79.71875 " clip-rule="nonzero"/></clipPath><clipPath id="3f43441d1a"><path d="M 170 163 L 246.3125 163 L 246.3125 212 L 170 212 Z M 170 163 " clip-rule="nonzero"/></clipPath><clipPath id="d82c2bd597"><path d="M 143.160156 136 L 205 136 L 205 238.976562 L 143.160156 238.976562 Z M 143.160156 136 " clip-rule="nonzero"/></clipPath></defs><g clip-path="url(#a5f61757f3)"><g clip-path="url(#1114af9e08)"><path fill="#2682ff" d="M 79.71875 79.71875 L 295.28125 79.71875 L 295.28125 295.28125 L 79.71875 295.28125 Z M 79.71875 79.71875 " fill-opacity="1" fill-rule="nonzero"/></g></g><g clip-path="url(#6374ddc443)"><g clip-path="url(#1251d56a3f)"><path stroke-linecap="butt" transform="matrix(0.874143, 0, 0, 0.874143, 79.720276, 79.720272)" fill="none" stroke-linejoin="miter" d="M 123.29763 -0.00174064 C 55.19966 -0.00174064 -0.00174578 55.199665 -0.00174578 123.297636 C -0.00174578 191.391137 55.19966 246.592543 123.29763 246.592543 C 191.391132 246.592543 246.592538 191.391137 246.592538 123.297636 C 246.592538 55.199665 191.391132 -0.00174064 123.29763 -0.00174064 Z M 123.29763 -0.00174064 " stroke="#000000" stroke-width="17.15967" stroke-opacity="1" stroke-miterlimit="4"/></g></g><g clip-path="url(#3f43441d1a)"><path fill="#ffde59" d="M 234.4375 184.0625 L 174.0625 184.0625 C 172.164062 184.0625 170.628906 185.601562 170.628906 187.496094 C 170.628906 189.390625 172.164062 190.929688 174.0625 190.929688 L 234.4375 190.929688 L 219.699219 205.667969 C 218.359375 207.007812 218.359375 209.183594 219.699219 210.523438 C 221.039062 211.863281 223.214844 211.863281 224.554688 210.523438 L 245.152344 189.925781 C 246.496094 188.585938 246.496094 186.410156 245.152344 185.070312 L 224.554688 164.472656 C 223.214844 163.132812 221.039062 163.132812 219.699219 164.472656 C 218.359375 165.808594 218.359375 167.988281 219.699219 169.324219 Z M 234.4375 184.0625 " fill-opacity="1" fill-rule="evenodd"/></g><g clip-path="url(#d82c2bd597)"><path fill="#ffde59" d="M 204.960938 160.03125 L 204.960938 146.296875 C 204.960938 140.609375 200.347656 136 194.660156 136 L 153.460938 136 C 147.773438 136 143.160156 140.609375 143.160156 146.296875 L 143.160156 228.695312 C 143.160156 234.386719 147.773438 238.996094 153.460938 238.996094 L 194.660156 238.996094 C 200.347656 238.996094 204.960938 234.386719 204.960938 228.695312 C 204.960938 228.695312 204.960938 214.964844 204.960938 214.964844 C 204.960938 213.066406 203.421875 211.53125 201.527344 211.53125 C 199.632812 211.53125 198.09375 213.066406 198.09375 214.964844 L 198.09375 228.695312 C 198.09375 230.589844 196.554688 232.128906 194.660156 232.128906 C 194.660156 232.128906 153.460938 232.128906 153.460938 232.128906 C 151.566406 232.128906 150.027344 230.589844 150.027344 228.695312 L 150.027344 146.296875 C 150.027344 144.402344 151.566406 142.867188 153.460938 142.867188 C 153.460938 142.867188 194.660156 142.867188 194.660156 142.867188 C 196.554688 142.867188 198.09375 144.402344 198.09375 146.296875 L 198.09375 160.03125 C 198.09375 161.925781 199.632812 163.464844 201.527344 163.464844 C 203.421875 163.464844 204.960938 161.925781 204.960938 160.03125 Z M 204.960938 160.03125 " fill-opacity="1" fill-rule="evenodd"/></g></svg>