<svg xmlns="http://www.w3.org/2000/svg" xmlns:xlink="http://www.w3.org/1999/xlink" width="500" zoomAndPan="magnify" viewBox="0 0 375 374.999991" height="500" preserveAspectRatio="xMidYMid meet" version="1.0"><defs><clipPath id="d9acc5a3fa"><path d="M 79.71875 79.71875 L 295.28125 79.71875 L 295.28125 295.28125 L 79.71875 295.28125 Z M 79.71875 79.71875 " clip-rule="nonzero"/></clipPath><clipPath id="116f55ccb3"><path d="M 187.5 79.71875 C 127.976562 79.71875 79.71875 127.976562 79.71875 187.5 C 79.71875 247.023438 127.976562 295.28125 187.5 295.28125 C 247.023438 295.28125 295.28125 247.023438 295.28125 187.5 C 295.28125 127.976562 247.023438 79.71875 187.5 79.71875 Z M 187.5 79.71875 " clip-rule="nonzero"/></clipPath><clipPath id="550d4e1cca"><path d="M 79.71875 79.71875 L 294.96875 79.71875 L 294.96875 294.96875 L 79.71875 294.96875 Z M 79.71875 79.71875 " clip-rule="nonzero"/></clipPath><clipPath id="f890fa9166"><path d="M 187.496094 79.71875 C 127.972656 79.71875 79.71875 127.972656 79.71875 187.496094 C 79.71875 247.019531 127.972656 295.273438 187.496094 295.273438 C 247.019531 295.273438 295.273438 247.019531 295.273438 187.496094 C 295.273438 127.972656 247.019531 79.71875 187.496094 79.71875 Z M 187.496094 79.71875 " clip-rule="nonzero"/></clipPath></defs><g clip-path="url(#d9acc5a3fa)"><g clip-path="url(#116f55ccb3)"><path fill="#2682ff" d="M 79.71875 79.71875 L 295.28125 79.71875 L 295.28125 295.28125 L 79.71875 295.28125 Z M 79.71875 79.71875 " fill-opacity="1" fill-rule="nonzero"/></g></g><g clip-path="url(#550d4e1cca)"><g clip-path="url(#f890fa9166)"><path stroke-linecap="butt" transform="matrix(0.75, 0, 0, 0.75, 79.720276, 79.720272)" fill="none" stroke-linejoin="miter" d="M 143.7011 -0.00202875 C 64.336511 -0.00202875 -0.00203475 64.336517 -0.00203475 143.701106 C -0.00203475 223.065694 64.336511 287.40424 143.7011 287.40424 C 223.065688 287.40424 287.404234 223.065694 287.404234 143.701106 C 287.404234 64.336517 223.065688 -0.00202875 143.7011 -0.00202875 Z M 143.7011 -0.00202875 " stroke="#000000" stroke-width="20" stroke-opacity="1" stroke-miterlimit="4"/></g></g><path fill="#ffde59" d="M 240.796875 145.140625 L 241.558594 145.714844 C 241.851562 145.9375 242.089844 146.203125 242.273438 146.519531 C 242.457031 146.835938 242.574219 147.175781 242.621094 147.539062 C 242.667969 147.902344 242.644531 148.257812 242.546875 148.613281 C 242.449219 148.964844 242.289062 149.285156 242.0625 149.574219 L 201.804688 202.78125 C 200.984375 203.800781 199.972656 204.5625 198.765625 205.0625 L 182.527344 210.886719 C 180.976562 211.445312 179.632812 210.460938 179.671875 208.839844 L 180.085938 191.777344 C 180.167969 190.496094 180.582031 189.339844 181.339844 188.304688 L 222.914062 134.910156 C 223.777344 133.808594 225.503906 133.570312 226.660156 134.445312 Z M 187.21875 203.699219 L 196.976562 200.191406 L 226.699219 161.191406 C 227.351562 160.324219 227.226562 159.207031 226.382812 158.59375 L 218.175781 152.585938 C 217.316406 151.957031 216.230469 152.21875 215.59375 153.027344 L 186.046875 190.957031 C 185.566406 191.589844 185.308594 192.304688 185.265625 193.097656 L 185.046875 202.15625 C 185.015625 203.386719 186.109375 204.101562 187.226562 203.699219 Z M 220.75 146.257812 C 220.59375 146.445312 220.484375 146.65625 220.414062 146.886719 C 220.347656 147.117188 220.328125 147.355469 220.359375 147.59375 C 220.386719 147.835938 220.464844 148.058594 220.585938 148.265625 C 220.710938 148.476562 220.867188 148.652344 221.0625 148.792969 L 229.164062 154.703125 C 229.351562 154.847656 229.566406 154.945312 229.796875 155.003906 C 230.027344 155.0625 230.261719 155.070312 230.496094 155.035156 C 230.730469 154.996094 230.949219 154.917969 231.152344 154.789062 C 231.355469 154.664062 231.527344 154.503906 231.664062 154.3125 L 235.160156 149.699219 C 235.796875 148.847656 235.554688 147.730469 234.726562 147.101562 L 227.027344 141.277344 C 226.835938 141.121094 226.621094 141.011719 226.382812 140.941406 C 226.144531 140.875 225.902344 140.851562 225.660156 140.878906 C 225.414062 140.90625 225.179688 140.980469 224.964844 141.101562 C 224.75 141.21875 224.5625 141.375 224.40625 141.566406 L 220.757812 146.257812 Z M 236.765625 219.464844 C 236.765625 220.042969 236.738281 220.621094 236.679688 221.199219 C 236.625 221.777344 236.539062 222.347656 236.429688 222.917969 C 236.316406 223.484375 236.175781 224.046875 236.007812 224.601562 C 235.839844 225.15625 235.644531 225.699219 235.421875 226.234375 C 235.203125 226.769531 234.953125 227.292969 234.679688 227.804688 C 234.410156 228.316406 234.109375 228.8125 233.789062 229.292969 C 233.46875 229.773438 233.121094 230.238281 232.753906 230.6875 C 232.386719 231.136719 232 231.5625 231.589844 231.972656 C 231.179688 232.382812 230.75 232.769531 230.304688 233.136719 C 229.855469 233.503906 229.390625 233.851562 228.910156 234.171875 C 228.425781 234.492188 227.929688 234.789062 227.417969 235.0625 C 226.90625 235.335938 226.386719 235.582031 225.847656 235.804688 C 225.3125 236.027344 224.769531 236.21875 224.214844 236.386719 C 223.660156 236.554688 223.097656 236.695312 222.53125 236.808594 C 221.960938 236.921875 221.390625 237.003906 220.8125 237.058594 C 220.238281 237.117188 219.660156 237.144531 219.078125 237.144531 L 150.429688 237.144531 C 149.503906 237.136719 148.585938 237.042969 147.679688 236.859375 C 146.773438 236.671875 145.890625 236.398438 145.035156 236.039062 C 144.183594 235.683594 143.371094 235.242188 142.605469 234.726562 C 141.835938 234.207031 141.125 233.617188 140.472656 232.960938 C 139.824219 232.304688 139.242188 231.585938 138.730469 230.816406 C 138.21875 230.042969 137.785156 229.226562 137.433594 228.371094 C 137.085938 227.515625 136.820312 226.628906 136.640625 225.722656 C 136.464844 224.8125 136.378906 223.894531 136.382812 222.96875 L 136.382812 152.625 C 136.382812 147.480469 140.519531 143.332031 145.699219 143.332031 L 198.859375 143.332031 C 200.867188 143.332031 202.496094 144.976562 202.496094 147 C 202.496094 147.484375 202.40625 147.949219 202.222656 148.398438 C 202.039062 148.847656 201.777344 149.242188 201.4375 149.585938 C 201.097656 149.929688 200.703125 150.195312 200.257812 150.382812 C 199.808594 150.570312 199.34375 150.664062 198.859375 150.667969 L 148.582031 150.667969 C 148.550781 150.667969 148.550781 150.667969 148.550781 148.589844 L 148.582031 150.667969 C 146.140625 150.667969 143.652344 153.625 143.652344 156.191406 L 143.652344 222.96875 C 143.652344 226.730469 146.699219 229.800781 150.421875 229.800781 L 218.007812 229.800781 C 224.351562 229.800781 229.492188 224.691406 229.492188 218.410156 L 229.492188 183.054688 C 229.492188 181.03125 231.113281 179.386719 233.128906 179.386719 C 235.144531 179.386719 236.765625 181.039062 236.765625 183.0625 Z M 236.765625 219.464844 " fill-opacity="1" fill-rule="nonzero"/></svg>