<svg xmlns="http://www.w3.org/2000/svg" xmlns:xlink="http://www.w3.org/1999/xlink" width="1440" zoomAndPan="magnify" viewBox="0 0 1080 809.999993" height="1080" preserveAspectRatio="xMidYMid meet" version="1.0"><defs><clipPath id="aa39ba0a64"><path d="M 250.085938 56.847656 L 829 56.847656 L 829 752 L 250.085938 752 Z M 250.085938 56.847656 " clip-rule="nonzero"/></clipPath></defs><g clip-path="url(#aa39ba0a64)"><path fill="#000000" d="M 524.425781 56.972656 L 554.253906 56.972656 C 555.1875 57.476562 556.171875 57.847656 557.210938 58.082031 C 565.609375 58.679688 573.933594 59.828125 582.183594 61.527344 C 590.429688 63.230469 598.53125 65.464844 606.480469 68.238281 C 614.433594 71.011719 622.167969 74.300781 629.683594 78.097656 C 637.199219 81.898438 644.429688 86.175781 651.378906 90.933594 C 654.871094 93.207031 658.292969 95.585938 661.636719 98.070312 C 664.984375 100.558594 668.246094 103.148438 671.429688 105.839844 C 674.609375 108.535156 677.703125 111.324219 680.710938 114.210938 C 683.714844 117.097656 686.628906 120.078125 689.449219 123.148438 C 692.265625 126.21875 694.984375 129.375 697.605469 132.617188 C 700.226562 135.859375 702.738281 139.179688 705.148438 142.578125 C 707.5625 145.980469 709.863281 149.453125 712.054688 152.996094 C 714.246094 156.542969 716.324219 160.152344 718.289062 163.828125 C 720.253906 167.503906 722.097656 171.238281 723.828125 175.03125 C 725.558594 178.820312 727.164062 182.664062 728.652344 186.558594 C 730.140625 190.453125 731.5 194.386719 732.742188 198.367188 C 733.980469 202.347656 735.09375 206.359375 736.078125 210.410156 C 737.0625 214.457031 737.921875 218.535156 738.652344 222.636719 C 739.378906 226.742188 739.980469 230.863281 740.449219 235.003906 C 740.917969 239.144531 741.257812 243.296875 741.464844 247.460938 C 741.675781 251.621094 741.75 255.785156 741.695312 259.953125 C 741.773438 260.890625 741.796875 261.828125 741.773438 262.769531 C 741.746094 263.707031 741.671875 264.640625 741.550781 265.574219 C 741.425781 266.503906 741.253906 267.425781 741.03125 268.339844 C 740.808594 269.253906 740.539062 270.152344 740.222656 271.035156 C 739.90625 271.921875 739.542969 272.785156 739.132812 273.632812 C 738.722656 274.476562 738.269531 275.300781 737.773438 276.097656 C 737.277344 276.894531 736.738281 277.664062 736.160156 278.40625 C 735.582031 279.144531 734.964844 279.851562 734.3125 280.527344 C 733.660156 281.203125 732.972656 281.84375 732.25 282.445312 C 731.53125 283.046875 730.777344 283.609375 729.996094 284.132812 C 729.214844 284.652344 728.410156 285.132812 727.578125 285.570312 C 726.746094 286.007812 725.890625 286.398438 725.019531 286.746094 C 724.144531 287.089844 723.253906 287.390625 722.347656 287.640625 C 721.445312 287.894531 720.527344 288.097656 719.601562 288.25 C 718.671875 288.40625 717.742188 288.511719 716.804688 288.566406 C 715.863281 288.621094 714.925781 288.628906 713.988281 288.585938 C 703.65625 288.972656 693.1875 288.933594 682.804688 288.585938 C 681.5 288.640625 680.199219 288.59375 678.902344 288.449219 C 677.605469 288.304688 676.324219 288.0625 675.066406 287.722656 C 673.804688 287.378906 672.578125 286.945312 671.382812 286.417969 C 670.191406 285.886719 669.042969 285.269531 667.945312 284.566406 C 666.847656 283.859375 665.808594 283.074219 664.832031 282.210938 C 663.851562 281.347656 662.945312 280.414062 662.109375 279.410156 C 661.277344 278.40625 660.523438 277.34375 659.851562 276.222656 C 659.179688 275.105469 658.597656 273.941406 658.105469 272.734375 C 656.101562 267.179688 655.082031 261.453125 655.042969 255.550781 C 654.949219 253.277344 654.789062 251.003906 654.5625 248.738281 C 654.335938 246.472656 654.042969 244.214844 653.683594 241.964844 C 653.324219 239.714844 652.898438 237.480469 652.40625 235.253906 C 651.914062 233.03125 651.359375 230.824219 650.738281 228.628906 C 650.117188 226.4375 649.433594 224.265625 648.683594 222.117188 C 647.9375 219.964844 647.125 217.835938 646.253906 215.734375 C 645.378906 213.628906 644.445312 211.550781 643.453125 209.503906 C 642.457031 207.453125 641.402344 205.4375 640.289062 203.449219 C 639.175781 201.460938 638.003906 199.507812 636.777344 197.589844 C 635.546875 195.671875 634.265625 193.789062 632.925781 191.945312 C 631.585938 190.101562 630.195312 188.300781 628.753906 186.539062 C 627.308594 184.777344 625.8125 183.058594 624.265625 181.386719 C 622.722656 179.710938 621.128906 178.085938 619.488281 176.503906 C 617.847656 174.921875 616.164062 173.390625 614.429688 171.910156 C 612.699219 170.429688 610.929688 169 609.113281 167.621094 C 607.300781 166.246094 605.445312 164.921875 603.554688 163.652344 C 601.660156 162.382812 599.734375 161.171875 597.769531 160.015625 C 595.804688 158.859375 593.8125 157.761719 591.78125 156.722656 C 589.753906 155.683594 587.699219 154.707031 585.613281 153.789062 C 583.527344 152.871094 581.417969 152.015625 579.28125 151.21875 C 577.148438 150.425781 574.988281 149.695312 572.8125 149.027344 C 570.632812 148.359375 568.4375 147.757812 566.222656 147.21875 C 564.007812 146.679688 561.78125 146.207031 559.539062 145.796875 C 557.296875 145.390625 555.046875 145.046875 552.785156 144.773438 C 550.523438 144.496094 548.253906 144.289062 545.980469 144.144531 C 543.707031 144 541.429688 143.925781 539.152344 143.917969 C 536.875 143.90625 534.597656 143.964844 532.320312 144.089844 C 530.046875 144.210938 527.777344 144.402344 525.511719 144.660156 C 523.25 144.917969 520.996094 145.242188 518.75 145.632812 C 516.503906 146.023438 514.273438 146.476562 512.054688 146.996094 C 509.835938 147.519531 507.636719 148.101562 505.453125 148.753906 C 503.269531 149.402344 501.105469 150.117188 498.964844 150.894531 C 496.316406 151.988281 493.710938 153.179688 491.148438 154.460938 C 488.585938 155.742188 486.070312 157.109375 483.605469 158.570312 C 481.136719 160.03125 478.726562 161.574219 476.371094 163.203125 C 474.011719 164.835938 471.71875 166.546875 469.480469 168.339844 C 467.246094 170.128906 465.078125 172 462.972656 173.945312 C 460.871094 175.890625 458.839844 177.910156 456.878906 180 C 454.917969 182.089844 453.035156 184.246094 451.230469 186.46875 C 449.421875 188.695312 447.695312 190.976562 446.050781 193.324219 C 444.40625 195.667969 442.84375 198.070312 441.371094 200.527344 C 439.894531 202.984375 438.507812 205.488281 437.210938 208.042969 C 435.914062 210.597656 434.707031 213.195312 433.59375 215.832031 C 432.480469 218.472656 431.460938 221.148438 430.535156 223.859375 C 429.613281 226.574219 428.785156 229.3125 428.054688 232.082031 C 427.328125 234.855469 426.695312 237.648438 426.164062 240.460938 C 425.632812 243.277344 425.199219 246.105469 424.867188 248.953125 C 424.535156 251.796875 424.304688 254.652344 424.175781 257.515625 C 423.492188 285.746094 423.90625 314.011719 423.867188 342.269531 C 423.996094 343.714844 424.242188 345.136719 424.601562 346.542969 L 434.273438 346.542969 C 544.792969 346.542969 655.3125 346.542969 765.828125 346.542969 C 771.46875 346.398438 777.0625 346.828125 782.613281 347.832031 C 784.246094 348.171875 785.863281 348.582031 787.457031 349.0625 C 789.054688 349.542969 790.628906 350.089844 792.175781 350.707031 C 793.726562 351.320312 795.246094 352.003906 796.738281 352.75 C 798.226562 353.5 799.683594 354.308594 801.101562 355.183594 C 802.519531 356.058594 803.902344 356.992188 805.238281 357.984375 C 806.578125 358.976562 807.871094 360.027344 809.121094 361.132812 C 810.367188 362.238281 811.566406 363.394531 812.714844 364.605469 C 813.859375 365.8125 814.953125 367.070312 815.992188 368.375 C 817.03125 369.675781 818.011719 371.023438 818.933594 372.414062 C 819.855469 373.800781 820.714844 375.226562 821.511719 376.691406 C 822.3125 378.15625 823.042969 379.648438 823.714844 381.175781 C 824.382812 382.703125 824.984375 384.257812 825.515625 385.835938 C 826.050781 387.414062 826.515625 389.015625 826.910156 390.632812 C 827.304688 392.253906 827.628906 393.886719 827.882812 395.53125 C 828.136719 397.179688 828.320312 398.835938 828.429688 400.5 C 828.539062 402.164062 828.578125 403.828125 828.542969 405.492188 C 828.636719 472.402344 828.636719 539.308594 828.542969 606.214844 C 828.628906 611.644531 828.421875 617.0625 827.921875 622.464844 C 827.707031 624.664062 827.441406 626.859375 827.125 629.042969 C 826.808594 631.230469 826.441406 633.410156 826.023438 635.578125 C 825.609375 637.75 825.140625 639.90625 824.621094 642.054688 C 824.105469 644.203125 823.535156 646.335938 822.921875 648.460938 C 822.304688 650.582031 821.636719 652.6875 820.921875 654.777344 C 820.207031 656.867188 819.445312 658.941406 818.636719 660.996094 C 817.824219 663.050781 816.964844 665.085938 816.0625 667.101562 C 815.15625 669.117188 814.203125 671.113281 813.207031 673.082031 C 812.207031 675.054688 811.164062 677 810.078125 678.925781 C 808.988281 680.847656 807.855469 682.742188 806.679688 684.613281 C 805.503906 686.484375 804.285156 688.328125 803.023438 690.140625 C 801.761719 691.953125 800.460938 693.738281 799.113281 695.492188 C 797.769531 697.246094 796.386719 698.96875 794.960938 700.65625 C 793.535156 702.34375 792.074219 704 790.574219 705.621094 C 789.070312 707.242188 787.535156 708.828125 785.960938 710.378906 C 784.382812 711.929688 782.773438 713.441406 781.128906 714.917969 C 779.484375 716.394531 777.804688 717.828125 776.09375 719.226562 C 774.382812 720.625 772.640625 721.980469 770.863281 723.300781 C 769.089844 724.617188 767.285156 725.890625 765.453125 727.125 C 763.617188 728.355469 761.757812 729.546875 759.867188 730.691406 C 757.980469 731.839844 756.0625 732.941406 754.125 734 C 752.183594 735.058594 750.21875 736.070312 748.234375 737.035156 C 746.246094 738.003906 744.238281 738.925781 742.207031 739.796875 C 740.175781 740.671875 738.128906 741.496094 736.058594 742.277344 C 733.992188 743.054688 731.90625 743.785156 729.804688 744.464844 C 727.703125 745.148438 725.585938 745.78125 723.453125 746.363281 C 721.324219 746.949219 719.179688 747.484375 717.023438 747.96875 C 714.867188 748.449219 712.699219 748.886719 710.523438 749.269531 C 708.347656 749.652344 706.164062 749.984375 703.972656 750.269531 C 701.78125 750.550781 699.582031 750.78125 697.378906 750.960938 C 695.175781 751.144531 692.972656 751.273438 690.761719 751.351562 C 688.554688 751.429688 686.34375 751.457031 684.136719 751.433594 C 587.628906 751.433594 491.113281 751.585938 394.609375 751.25 C 382.605469 751.21875 370.769531 749.796875 359.101562 746.992188 C 355.398438 746.128906 351.734375 745.117188 348.117188 743.953125 C 344.496094 742.792969 340.925781 741.488281 337.414062 740.035156 C 333.898438 738.585938 330.449219 736.992188 327.066406 735.261719 C 323.679688 733.53125 320.371094 731.664062 317.136719 729.664062 C 313.90625 727.664062 310.757812 725.535156 307.699219 723.28125 C 304.636719 721.023438 301.675781 718.648438 298.808594 716.148438 C 295.941406 713.652344 293.179688 711.042969 290.527344 708.320312 C 287.871094 705.601562 285.332031 702.777344 282.90625 699.847656 C 280.484375 696.921875 278.179688 693.898438 276 690.785156 C 273.820312 687.667969 271.773438 684.472656 269.855469 681.191406 C 267.933594 677.90625 266.152344 674.554688 264.507812 671.128906 C 262.859375 667.703125 261.355469 664.214844 259.992188 660.664062 C 258.628906 657.117188 257.414062 653.519531 256.34375 649.871094 C 255.273438 646.222656 254.355469 642.539062 253.582031 638.816406 C 252.8125 635.09375 252.195312 631.347656 251.730469 627.574219 C 251.265625 623.800781 250.953125 620.015625 250.792969 616.21875 C 249.65625 545.042969 250.160156 473.828125 250.457031 402.628906 C 250.46875 401.070312 250.542969 399.515625 250.679688 397.964844 C 250.820312 396.414062 251.023438 394.871094 251.292969 393.339844 C 251.5625 391.804688 251.894531 390.285156 252.292969 388.78125 C 252.6875 387.273438 253.148438 385.789062 253.667969 384.320312 C 254.191406 382.851562 254.773438 381.410156 255.417969 379.992188 C 256.058594 378.574219 256.761719 377.183594 257.519531 375.824219 C 258.28125 374.464844 259.09375 373.140625 259.964844 371.851562 C 260.835938 370.558594 261.761719 369.308594 262.734375 368.09375 C 263.710938 366.878906 264.738281 365.710938 265.8125 364.582031 C 266.886719 363.457031 268.007812 362.375 269.171875 361.339844 C 270.335938 360.308594 271.542969 359.324219 272.792969 358.394531 C 274.039062 357.460938 275.324219 356.582031 276.644531 355.761719 C 277.96875 354.9375 279.320312 354.167969 280.707031 353.457031 C 282.09375 352.746094 283.507812 352.097656 284.945312 351.503906 C 286.386719 350.914062 287.851562 350.382812 289.335938 349.914062 C 290.820312 349.445312 292.324219 349.039062 293.84375 348.699219 C 305.234375 347.066406 316.683594 346.332031 328.1875 346.488281 C 330.992188 346.335938 333.804688 346.140625 337.046875 345.933594 L 337.046875 337.804688 C 337.046875 311.988281 336.957031 286.261719 337.046875 260.496094 C 337.058594 257.683594 337.128906 254.871094 337.253906 252.058594 C 337.382812 249.25 337.570312 246.441406 337.8125 243.636719 C 338.058594 240.835938 338.359375 238.039062 338.71875 235.246094 C 339.078125 232.457031 339.496094 229.675781 339.972656 226.902344 C 340.445312 224.128906 340.976562 221.363281 341.566406 218.613281 C 342.15625 215.863281 342.804688 213.125 343.503906 210.398438 C 344.207031 207.675781 344.96875 204.964844 345.78125 202.273438 C 346.597656 199.578125 347.46875 196.902344 348.394531 194.246094 C 349.320312 191.589844 350.296875 188.953125 351.332031 186.335938 C 352.367188 183.71875 353.457031 181.125 354.597656 178.554688 C 355.742188 175.980469 356.9375 173.433594 358.183594 170.914062 C 359.429688 168.390625 360.730469 165.894531 362.082031 163.425781 C 363.433594 160.957031 364.835938 158.519531 366.285156 156.109375 C 367.738281 153.699219 369.238281 151.316406 370.789062 148.96875 C 372.339844 146.621094 373.9375 144.304688 375.585938 142.023438 C 377.230469 139.742188 378.925781 137.496094 380.664062 135.28125 C 382.402344 133.070312 384.1875 130.894531 386.015625 128.757812 C 387.847656 126.617188 389.71875 124.519531 391.636719 122.457031 C 393.550781 120.398438 395.511719 118.375 397.511719 116.398438 C 399.511719 114.417969 401.550781 112.480469 403.628906 110.585938 C 405.710938 108.6875 407.828125 106.835938 409.988281 105.03125 C 412.144531 103.222656 414.335938 101.460938 416.566406 99.742188 C 418.796875 98.023438 421.0625 96.355469 423.359375 94.730469 C 425.660156 93.109375 427.992188 91.535156 430.355469 90.007812 C 432.71875 88.480469 435.113281 87.003906 437.539062 85.574219 C 439.964844 84.148438 442.417969 82.769531 444.902344 81.445312 C 447.382812 80.117188 449.890625 78.84375 452.425781 77.621094 C 454.960938 76.398438 457.519531 75.230469 460.105469 74.113281 C 462.6875 72.996094 465.292969 71.933594 467.921875 70.925781 C 470.550781 69.917969 473.195312 68.960938 475.863281 68.0625 C 478.53125 67.164062 481.214844 66.320312 483.917969 65.53125 C 486.617188 64.746094 489.335938 64.011719 492.070312 63.335938 C 502.722656 60.714844 513.632812 59.0625 524.425781 56.972656 Z M 539.429688 462.289062 C 537.894531 462.304688 536.359375 462.382812 534.832031 462.519531 C 533.300781 462.65625 531.777344 462.855469 530.261719 463.109375 C 528.75 463.367188 527.246094 463.683594 525.757812 464.058594 C 524.265625 464.433594 522.792969 464.863281 521.339844 465.355469 C 519.882812 465.84375 518.449219 466.390625 517.035156 466.992188 C 515.621094 467.597656 514.234375 468.253906 512.875 468.964844 C 511.511719 469.675781 510.179688 470.441406 508.878906 471.257812 C 507.578125 472.074219 506.3125 472.9375 505.078125 473.855469 C 503.84375 474.769531 502.648438 475.734375 501.492188 476.742188 C 500.335938 477.753906 499.21875 478.804688 498.144531 479.902344 C 497.066406 481 496.039062 482.136719 495.050781 483.316406 C 494.066406 484.492188 493.128906 485.707031 492.238281 486.960938 C 491.347656 488.210938 490.507812 489.496094 489.71875 490.8125 C 488.929688 492.132812 488.195312 493.476562 487.511719 494.855469 C 486.828125 496.230469 486.199219 497.628906 485.625 499.054688 C 485.050781 500.476562 484.535156 501.921875 484.074219 503.390625 C 483.644531 504.835938 483.273438 506.296875 482.960938 507.773438 C 482.644531 509.246094 482.390625 510.734375 482.191406 512.230469 C 481.996094 513.726562 481.855469 515.226562 481.777344 516.734375 C 481.695312 518.242188 481.675781 519.746094 481.714844 521.257812 C 481.753906 522.765625 481.855469 524.269531 482.011719 525.769531 C 482.167969 527.269531 482.386719 528.761719 482.660156 530.246094 C 482.9375 531.730469 483.269531 533.199219 483.660156 534.65625 C 484.050781 536.113281 484.496094 537.554688 485 538.976562 C 485.507812 540.398438 486.066406 541.800781 486.679688 543.175781 C 487.292969 544.554688 487.960938 545.90625 488.683594 547.234375 C 489.402344 548.558594 490.175781 549.855469 490.996094 551.121094 C 491.820312 552.382812 492.691406 553.613281 493.609375 554.8125 C 494.53125 556.007812 495.496094 557.167969 496.507812 558.289062 C 497.515625 559.40625 498.570312 560.488281 499.664062 561.523438 C 500.761719 562.5625 501.894531 563.554688 503.070312 564.503906 C 504.242188 565.453125 505.453125 566.351562 506.699219 567.207031 C 507.765625 568.054688 508.625 569.078125 509.273438 570.273438 C 509.925781 571.46875 510.320312 572.746094 510.457031 574.101562 C 510.855469 584.425781 510.457031 594.855469 510.660156 605.246094 C 510.671875 606.203125 510.726562 607.15625 510.824219 608.109375 C 510.921875 609.058594 511.0625 610.003906 511.25 610.941406 C 511.433594 611.878906 511.664062 612.808594 511.933594 613.726562 C 512.207031 614.640625 512.519531 615.542969 512.875 616.433594 C 513.230469 617.320312 513.625 618.191406 514.058594 619.042969 C 514.496094 619.894531 514.96875 620.722656 515.480469 621.53125 C 515.996094 622.335938 516.542969 623.121094 517.128906 623.875 C 517.714844 624.632812 518.332031 625.359375 518.984375 626.058594 C 519.636719 626.757812 520.320312 627.425781 521.035156 628.0625 C 521.75 628.699219 522.492188 629.300781 523.261719 629.867188 C 524.03125 630.4375 524.824219 630.96875 525.644531 631.460938 C 526.464844 631.953125 527.304688 632.410156 528.164062 632.824219 C 529.027344 633.242188 529.90625 633.617188 530.800781 633.953125 C 531.695312 634.289062 532.605469 634.578125 533.53125 634.832031 C 534.453125 635.082031 535.386719 635.289062 536.328125 635.453125 C 537.269531 635.617188 538.21875 635.738281 539.171875 635.8125 C 540.140625 635.753906 541.101562 635.648438 542.058594 635.5 C 543.015625 635.351562 543.964844 635.15625 544.902344 634.917969 C 545.84375 634.679688 546.769531 634.398438 547.679688 634.070312 C 548.59375 633.746094 549.488281 633.378906 550.367188 632.96875 C 551.246094 632.558594 552.101562 632.109375 552.9375 631.617188 C 553.773438 631.125 554.585938 630.597656 555.371094 630.03125 C 556.15625 629.464844 556.914062 628.863281 557.644531 628.222656 C 558.371094 627.585938 559.070312 626.914062 559.738281 626.210938 C 560.402344 625.507812 561.035156 624.773438 561.632812 624.011719 C 562.230469 623.25 562.789062 622.460938 563.3125 621.644531 C 563.835938 620.828125 564.316406 619.988281 564.761719 619.128906 C 565.207031 618.269531 565.609375 617.386719 565.96875 616.488281 C 566.332031 615.589844 566.648438 614.675781 566.925781 613.746094 C 567.199219 612.816406 567.429688 611.878906 567.617188 610.925781 C 567.804688 609.976562 567.945312 609.019531 568.042969 608.054688 C 568.140625 607.09375 568.191406 606.125 568.199219 605.15625 C 568.351562 594.832031 568.042969 584.375 568.390625 574.007812 C 568.484375 572.753906 568.820312 571.570312 569.394531 570.449219 C 569.96875 569.328125 570.734375 568.367188 571.695312 567.554688 C 572.976562 566.707031 574.222656 565.804688 575.433594 564.855469 C 576.640625 563.90625 577.808594 562.910156 578.9375 561.867188 C 580.066406 560.820312 581.148438 559.734375 582.191406 558.601562 C 583.230469 557.472656 584.222656 556.300781 585.167969 555.085938 C 586.113281 553.875 587.011719 552.628906 587.855469 551.34375 C 588.699219 550.0625 589.492188 548.746094 590.230469 547.398438 C 590.972656 546.050781 591.652344 544.675781 592.28125 543.269531 C 592.910156 541.867188 593.480469 540.441406 593.992188 538.992188 C 594.507812 537.542969 594.960938 536.078125 595.355469 534.59375 C 595.75 533.105469 596.082031 531.609375 596.355469 530.09375 C 596.628906 528.582031 596.839844 527.0625 596.992188 525.53125 C 597.144531 524.003906 597.230469 522.46875 597.257812 520.933594 C 597.285156 519.394531 597.25 517.859375 597.152344 516.328125 C 597.058594 514.792969 596.898438 513.265625 596.679688 511.746094 C 596.457031 510.222656 596.175781 508.714844 595.835938 507.214844 C 595.492188 505.71875 595.089844 504.234375 594.628906 502.769531 C 594.152344 501.324219 593.625 499.898438 593.039062 498.492188 C 592.453125 497.085938 591.8125 495.707031 591.121094 494.351562 C 590.425781 492.996094 589.683594 491.667969 588.886719 490.371094 C 588.089844 489.070312 587.246094 487.808594 586.351562 486.574219 C 585.457031 485.34375 584.515625 484.144531 583.53125 482.988281 C 582.542969 481.828125 581.511719 480.707031 580.4375 479.628906 C 579.363281 478.550781 578.25 477.511719 577.097656 476.519531 C 575.941406 475.527344 574.75 474.582031 573.523438 473.679688 C 572.292969 472.78125 571.035156 471.929688 569.738281 471.125 C 568.445312 470.324219 567.121094 469.570312 565.769531 468.871094 C 564.417969 468.171875 563.039062 467.527344 561.636719 466.933594 C 560.234375 466.339844 558.8125 465.800781 557.367188 465.320312 C 555.921875 464.835938 554.460938 464.410156 552.984375 464.042969 C 551.507812 463.671875 550.019531 463.359375 548.515625 463.105469 C 547.015625 462.851562 545.503906 462.660156 543.988281 462.523438 C 542.472656 462.386719 540.953125 462.308594 539.429688 462.289062 Z M 539.429688 462.289062 " fill-opacity="1" fill-rule="nonzero"/></g></svg>